  0
SECTION
  2
HEADER
  9
$ACADVER
  1
AC1024
  9
$ACADMAINTVER
 70
     6
  9
$DWGCODEPAGE
  3
ANSI_1252
  9
$LASTSAVEDBY
  1
root
  9
$INSBASE
 10
0.0
 20
0.0
 30
0.0
  9
$EXTMIN
 10
-0.0000000000001137
 20
-0.0000000000001705
 30
0.0
  9
$EXTMAX
 10
594.0
 20
420.1398050734917
 30
0.0
  9
$LIMMIN
 10
0.0
 20
0.0
  9
$LIMMAX
 10
420.0
 20
297.0
  9
$ORTHOMODE
 70
     0
  9
$REGENMODE
 70
     1
  9
$FILLMODE
 70
     1
  9
$QTEXTMODE
 70
     0
  9
$MIRRTEXT
 70
     0
  9
$LTSCALE
 40
1.0
  9
$ATTMODE
 70
     1
  9
$TEXTSIZE
 40
2.5
  9
$TRACEWID
 40
1.0
  9
$TEXTSTYLE
  7
Standard
  9
$CLAYER
  8
0
  9
$CELTYPE
  6
ByLayer
  9
$CECOLOR
 62
   256
  9
$CELTSCALE
 40
1.0
  9
$DISPSILH
 70
     0
  9
$DIMSCALE
 40
1.0
  9
$DIMASZ
 40
5.0
  9
$DIMEXO
 40
0.625
  9
$DIMDLI
 40
3.75
  9
$DIMRND
 40
0.0
  9
$DIMDLE
 40
0.0
  9
$DIMEXE
 40
1.25
  9
$DIMTP
 40
0.0
  9
$DIMTM
 40
0.0
  9
$DIMTXT
 40
2.5
  9
$DIMCEN
 40
-2.5
  9
$DIMTSZ
 40
0.0
  9
$DIMTOL
 70
     0
  9
$DIMLIM
 70
     0
  9
$DIMTIH
 70
     0
  9
$DIMTOH
 70
     0
  9
$DIMSE1
 70
     0
  9
$DIMSE2
 70
     0
  9
$DIMTAD
 70
     1
  9
$DIMZIN
 70
     8
  9
$DIMBLK
  1

  9
$DIMASO
 70
     1
  9
$DIMSHO
 70
     1
  9
$DIMPOST
  1

  9
$DIMAPOST
  1

  9
$DIMALT
 70
     0
  9
$DIMALTD
 70
     3
  9
$DIMALTF
 40
0.03937007874016
  9
$DIMLFAC
 40
1.0
  9
$DIMTOFL
 70
     1
  9
$DIMTVP
 40
0.0
  9
$DIMTIX
 70
     0
  9
$DIMSOXD
 70
     0
  9
$DIMSAH
 70
     0
  9
$DIMBLK1
  1

  9
$DIMBLK2
  1

  9
$DIMSTYLE
  2
ISO-25
  9
$DIMCLRD
 70
     0
  9
$DIMCLRE
 70
     0
  9
$DIMCLRT
 70
     0
  9
$DIMTFAC
 40
1.0
  9
$DIMGAP
 40
0.625
  9
$DIMJUST
 70
     0
  9
$DIMSD1
 70
     0
  9
$DIMSD2
 70
     0
  9
$DIMTOLJ
 70
     0
  9
$DIMTZIN
 70
     8
  9
$DIMALTZ
 70
     0
  9
$DIMALTTZ
 70
     0
  9
$DIMUPT
 70
     0
  9
$DIMDEC
 70
     2
  9
$DIMTDEC
 70
     2
  9
$DIMALTU
 70
     2
  9
$DIMALTTD
 70
     3
  9
$DIMTXSTY
  7
Standard
  9
$DIMAUNIT
 70
     0
  9
$DIMADEC
 70
     0
  9
$DIMALTRND
 40
0.0
  9
$DIMAZIN
 70
     0
  9
$DIMDSEP
 70
    44
  9
$DIMATFIT
 70
     3
  9
$DIMFRAC
 70
     0
  9
$DIMLDRBLK
  1

  9
$DIMLUNIT
 70
     2
  9
$DIMLWD
 70
    -2
  9
$DIMLWE
 70
    -2
  9
$DIMTMOVE
 70
     0
  9
$DIMFXL
 40
1.0
  9
$DIMFXLON
 70
     0
  9
$DIMJOGANG
 40
0.7853981633974483
  9
$DIMTFILL
 70
     0
  9
$DIMTFILLCLR
 70
     0
  9
$DIMARCSYM
 70
     0
  9
$DIMLTYPE
  6

  9
$DIMLTEX1
  6

  9
$DIMLTEX2
  6

  9
$DIMTXTDIRECTION
 70
     0
  9
$LUNITS
 70
     2
  9
$LUPREC
 70
     3
  9
$SKETCHINC
 40
1.0
  9
$FILLETRAD
 40
10.0
  9
$AUNITS
 70
     0
  9
$AUPREC
 70
     0
  9
$MENU
  1
.
  9
$ELEVATION
 40
0.0
  9
$PELEVATION
 40
0.0
  9
$THICKNESS
 40
0.0
  9
$LIMCHECK
 70
     0
  9
$CHAMFERA
 40
10.0
  9
$CHAMFERB
 40
10.0
  9
$CHAMFERC
 40
20.0
  9
$CHAMFERD
 40
0.0
  9
$SKPOLY
 70
     0
  9
$TDCREATE
 40
2455023.012359514
  9
$TDUCREATE
 40
2455022.637359514
  9
$TDUPDATE
 40
2459098.342544213
  9
$TDUUPDATE
 40
2459097.967544213
  9
$TDINDWG
 40
0.0000001042
  9
$TDUSRTIMER
 40
0.0089662731
  9
$USRTIMER
 70
     1
  9
$ANGBASE
 50
0.0
  9
$ANGDIR
 70
     0
  9
$PDMODE
 70
     0
  9
$PDSIZE
 40
0.0
  9
$PLINEWID
 40
0.0
  9
$SPLFRAME
 70
     0
  9
$SPLINETYPE
 70
     6
  9
$SPLINESEGS
 70
     8
  9
$HANDSEED
  5
7D6
  9
$SURFTAB1
 70
     6
  9
$SURFTAB2
 70
     6
  9
$SURFTYPE
 70
     6
  9
$SURFU
 70
     6
  9
$SURFV
 70
     6
  9
$UCSBASE
  2

  9
$UCSNAME
  2

  9
$UCSORG
 10
0.0
 20
0.0
 30
0.0
  9
$UCSXDIR
 10
1.0
 20
0.0
 30
0.0
  9
$UCSYDIR
 10
0.0
 20
1.0
 30
0.0
  9
$UCSORTHOREF
  2

  9
$UCSORTHOVIEW
 70
     0
  9
$UCSORGTOP
 10
0.0
 20
0.0
 30
0.0
  9
$UCSORGBOTTOM
 10
0.0
 20
0.0
 30
0.0
  9
$UCSORGLEFT
 10
0.0
 20
0.0
 30
0.0
  9
$UCSORGRIGHT
 10
0.0
 20
0.0
 30
0.0
  9
$UCSORGFRONT
 10
0.0
 20
0.0
 30
0.0
  9
$UCSORGBACK
 10
0.0
 20
0.0
 30
0.0
  9
$PUCSBASE
  2

  9
$PUCSNAME
  2

  9
$PUCSORG
 10
0.0
 20
0.0
 30
0.0
  9
$PUCSXDIR
 10
1.0
 20
0.0
 30
0.0
  9
$PUCSYDIR
 10
0.0
 20
1.0
 30
0.0
  9
$PUCSORTHOREF
  2

  9
$PUCSORTHOVIEW
 70
     0
  9
$PUCSORGTOP
 10
0.0
 20
0.0
 30
0.0
  9
$PUCSORGBOTTOM
 10
0.0
 20
0.0
 30
0.0
  9
$PUCSORGLEFT
 10
0.0
 20
0.0
 30
0.0
  9
$PUCSORGRIGHT
 10
0.0
 20
0.0
 30
0.0
  9
$PUCSORGFRONT
 10
0.0
 20
0.0
 30
0.0
  9
$PUCSORGBACK
 10
0.0
 20
0.0
 30
0.0
  9
$USERI1
 70
     0
  9
$USERI2
 70
     0
  9
$USERI3
 70
     0
  9
$USERI4
 70
     0
  9
$USERI5
 70
     0
  9
$USERR1
 40
0.0
  9
$USERR2
 40
0.0
  9
$USERR3
 40
0.0
  9
$USERR4
 40
0.0
  9
$USERR5
 40
0.0
  9
$WORLDVIEW
 70
     1
  9
$SHADEDGE
 70
     3
  9
$SHADEDIF
 70
    70
  9
$TILEMODE
 70
     1
  9
$MAXACTVP
 70
    64
  9
$PINSBASE
 10
0.0
 20
0.0
 30
0.0
  9
$PLIMCHECK
 70
     0
  9
$PEXTMIN
 10
1.000000000000000E+20
 20
1.000000000000000E+20
 30
1.000000000000000E+20
  9
$PEXTMAX
 10
-1.000000000000000E+20
 20
-1.000000000000000E+20
 30
-1.000000000000000E+20
  9
$PLIMMIN
 10
0.0
 20
0.0
  9
$PLIMMAX
 10
0.0
 20
0.0
  9
$UNITMODE
 70
     0
  9
$VISRETAIN
 70
     1
  9
$PLINEGEN
 70
     0
  9
$PSLTSCALE
 70
     1
  9
$TREEDEPTH
 70
  3020
  9
$CMLSTYLE
  2
Standard
  9
$CMLJUST
 70
     0
  9
$CMLSCALE
 40
20.0
  9
$PROXYGRAPHICS
 70
     1
  9
$MEASUREMENT
 70
     1
  9
$CELWEIGHT
370
    -1
  9
$ENDCAPS
280
     0
  9
$JOINSTYLE
280
     0
  9
$LWDISPLAY
290
     0
  9
$INSUNITS
 70
     4
  9
$HYPERLINKBASE
  1

  9
$STYLESHEET
  1

  9
$XEDIT
290
     1
  9
$CEPSNTYPE
380
     0
  9
$PSTYLEMODE
290
     1
  9
$FINGERPRINTGUID
  2
{EC6BB858-51AA-46EC-B484-6C9CC7AB3E2E}
  9
$VERSIONGUID
  2
{FAEB1C32-E019-11D5-929B-00C0DF256EC4}
  9
$EXTNAMES
290
     1
  9
$PSVPSCALE
 40
0.0
  9
$OLESTARTUP
290
     0
  9
$SORTENTS
280
   127
  9
$INDEXCTL
280
     0
  9
$HIDETEXT
280
     1
  9
$XCLIPFRAME
280
     0
  9
$HALOGAP
280
     0
  9
$OBSCOLOR
 70
   257
  9
$OBSLTYPE
280
     0
  9
$INTERSECTIONDISPLAY
280
     0
  9
$INTERSECTIONCOLOR
 70
   257
  9
$DIMASSOC
280
     2
  9
$PROJECTNAME
  1

  9
$CAMERADISPLAY
290
     0
  9
$LENSLENGTH
 40
50.0
  9
$CAMERAHEIGHT
 40
0.0
  9
$STEPSPERSEC
 40
2.0
  9
$STEPSIZE
 40
6.0
  9
$3DDWFPREC
 40
2.0
  9
$PSOLWIDTH
 40
5.0
  9
$PSOLHEIGHT
 40
80.0
  9
$LOFTANG1
 40
1.570796326794897
  9
$LOFTANG2
 40
1.570796326794897
  9
$LOFTMAG1
 40
0.0
  9
$LOFTMAG2
 40
0.0
  9
$LOFTPARAM
 70
     7
  9
$LOFTNORMALS
280
     1
  9
$LATITUDE
 40
37.795
  9
$LONGITUDE
 40
-122.394
  9
$NORTHDIRECTION
 40
0.0
  9
$TIMEZONE
 70
 -8000
  9
$LIGHTGLYPHDISPLAY
280
     1
  9
$TILEMODELIGHTSYNCH
280
     1
  9
$SOLIDHIST
280
     1
  9
$SHOWHIST
280
     1
  9
$DWFFRAME
280
     2
  9
$DGNFRAME
280
     2
  9
$REALWORLDSCALE
290
     1
  9
$INTERFERECOLOR
 62
   256
  9
$CSHADOW
280
     0
  9
$SHADOWPLANELOCATION
 40
0.0
  0
ENDSEC
  0
SECTION
  2
CLASSES
  0
CLASS
  1
ACDBDICTIONARYWDFLT
  2
AcDbDictionaryWithDefault
  3
ObjectDBX Classes
 90
        0
 91
        3
280
     0
281
     0
  0
CLASS
  1
VISUALSTYLE
  2
AcDbVisualStyle
  3
ObjectDBX Classes
 90
     4095
 91
        3
280
     0
281
     0
  0
CLASS
  1
TABLESTYLE
  2
AcDbTableStyle
  3
ObjectDBX Classes
 90
     4095
 91
        3
280
     0
281
     0
  0
CLASS
  1
DICTIONARYVAR
  2
AcDbDictionaryVar
  3
ObjectDBX Classes
 90
        0
 91
        3
280
     0
281
     0
  0
CLASS
  1
SCALE
  2
AcDbScale
  3
ObjectDBX Classes
 90
     1153
 91
        3
280
     0
281
     0
  0
CLASS
  1
CELLSTYLEMAP
  2
AcDbCellStyleMap
  3
ObjectDBX Classes
 90
     1152
 91
        3
280
     0
281
     0
  0
CLASS
  1
RASTERVARIABLES
  2
AcDbRasterVariables
  3
ISM
 90
        0
 91
        3
280
     0
281
     0
  0
CLASS
  1
MATERIAL
  2
AcDbMaterial
  3
ObjectDBX Classes
 90
     1153
 91
        3
280
     0
281
     0
  0
CLASS
  1
SUN
  2
AcDbSun
  3
SCENEOE
 90
     1153
 91
        3
280
     0
281
     0
  0
CLASS
  1
MLEADERSTYLE
  2
AcDbMLeaderStyle
  3
ACDB_MLEADERSTYLE_CLASS
 90
     4095
 91
        3
280
     0
281
     0
  0
CLASS
  1
IMAGEDEF
  2
AcDbRasterImageDef
  3
ISM
 90
        0
 91
        3
280
     0
281
     0
  0
CLASS
  1
IMAGE
  2
AcDbRasterImage
  3
ISM
 90
      127
 91
        4
280
     0
281
     1
  0
CLASS
  1
IMAGEDEF_REACTOR
  2
AcDbRasterImageDefReactor
  3
ISM
 90
        1
 91
        3
280
     0
281
     0
  0
CLASS
  1
DIMASSOC
  2
AcDbDimAssoc
  3
"AcDbDimAssoc|Product Desc:     AcDim ARX App For Dimension|Company:          Autodesk, Inc.|WEB Address:      www.autodesk.com"
 90
        0
 91
        3
280
     0
281
     0
  0
CLASS
  1
SORTENTSTABLE
  2
AcDbSortentsTable
  3
ObjectDBX Classes
 90
        0
 91
        3
280
     0
281
     0
  0
CLASS
  1
ACAD_TABLE
  2
AcDbTable
  3
ObjectDBX Classes
 90
     1025
 91
        3
280
     0
281
     1
  0
ENDSEC
  0
SECTION
  2
TABLES
  0
TABLE
  2
VPORT
  5
8
330
0
100
AcDbSymbolTable
 70
     1
  0
VPORT
  5
29
330
8
100
AcDbSymbolTableRecord
100
AcDbViewportTableRecord
  2
*Active
 70
     0
 10
0.0
 20
0.0
 11
1.0
 21
1.0
 12
377.8425503182003
 22
178.4470874213184
 13
0.0
 23
0.0
 14
8.898
 24
10.284
 15
8.90788
 25
10.28721
 16
0.0
 26
0.0
 36
1.0
 17
-134.186915887854
 27
0.0
 37
0.0
 40
535.6782514687021
 41
2.171189979123173
 42
50.0
 43
0.0
 44
0.0
 50
0.0
 51
0.0
 71
    16
 72
  1000
 73
     1
 74
     3
 75
     0
 76
     0
 77
     0
 78
     2
281
     0
 65
     1
110
0.0
120
0.0
130
0.0
111
1.0
121
0.0
131
0.0
112
0.0
122
1.0
132
0.0
 79
     0
146
0.0
348
2F
 60
     3
 61
     5
292
     1
282
     1
141
0.0
142
0.0
 63
   256
361
80
  0
ENDTAB
  0
TABLE
  2
LTYPE
  5
5
330
0
100
AcDbSymbolTable
 70
     1
  0
LTYPE
  5
14
330
5
100
AcDbSymbolTableRecord
100
AcDbLinetypeTableRecord
  2
ByBlock
 70
     0
  3

 72
    65
 73
     0
 40
0.0
  0
LTYPE
  5
15
330
5
100
AcDbSymbolTableRecord
100
AcDbLinetypeTableRecord
  2
ByLayer
 70
     0
  3
Solid line
 72
    65
 73
     0
 40
0.0
  0
LTYPE
  5
16
330
5
100
AcDbSymbolTableRecord
100
AcDbLinetypeTableRecord
  2
Continuous
 70
     0
  3
Solid line
 72
    65
 73
     0
 40
0.0
  0
ENDTAB
  0
TABLE
  2
LAYER
  5
2
102
{ACAD_XDICTIONARY
360
C4
102
}
330
0
100
AcDbSymbolTable
 70
    12
  0
LAYER
  5
10
330
2
100
AcDbSymbolTableRecord
100
AcDbLayerTableRecord
  2
0
 70
     0
 62
     7
  6
Continuous
370
    -3
390
F
347
75
  0
LAYER
  5
C7
330
2
100
AcDbSymbolTableRecord
100
AcDbLayerTableRecord
  2
image_iso
 70
     4
 62
    -4
  6
Continuous
370
    -3
390
F
347
75
1001
AcAecLayerStandard
1000

1000

1001
AcCmTransparency
1071
 33554585
  0
LAYER
  5
DB
330
2
100
AcDbSymbolTableRecord
100
AcDbLayerTableRecord
  2
isox
 70
     4
 62
  -166
  6
Continuous
370
    -3
390
F
347
75
1001
AcAecLayerStandard
1000

1000

1001
AcCmTransparency
1071
 33554457
  0
LAYER
  5
DC
330
2
100
AcDbSymbolTableRecord
100
AcDbLayerTableRecord
  2
isoy
 70
     4
 62
   -37
  6
Continuous
370
    -3
390
F
347
75
1001
AcAecLayerStandard
1000

1000

1001
AcCmTransparency
1071
 33554483
  0
LAYER
  5
DD
330
2
100
AcDbSymbolTableRecord
100
AcDbLayerTableRecord
  2
isoz
 70
     4
 62
  -228
  6
Continuous
370
    -3
390
F
347
75
1001
AcAecLayerStandard
1000

1000

1001
AcCmTransparency
1071
 33554483
  0
LAYER
  5
203
330
2
100
AcDbSymbolTableRecord
100
AcDbLayerTableRecord
  2
dim
 70
     0
 62
     4
  6
Continuous
370
    -3
390
F
347
75
1001
AcAecLayerStandard
1000

1000

  0
LAYER
  5
292
330
2
100
AcDbSymbolTableRecord
100
AcDbLayerTableRecord
  2
grid
 70
     4
 62
  -250
  6
Continuous
370
    -3
390
F
347
75
1001
AcAecLayerStandard
1000

1000

1001
AcCmTransparency
1071
 33554636
  0
LAYER
  5
496
330
2
100
AcDbSymbolTableRecord
100
AcDbLayerTableRecord
  2
image
 70
     4
 62
     4
  6
Continuous
370
    -3
390
F
347
75
1001
AcAecLayerStandard
1000

1000

1001
AcCmTransparency
1071
 33554610
  0
LAYER
  5
60A
330
2
100
AcDbSymbolTableRecord
100
AcDbLayerTableRecord
  2
fnos
 70
     4
 62
     4
  6
Continuous
370
    -3
390
F
347
75
1001
AcAecLayerStandard
1000

1000

  0
LAYER
  5
6A9
330
2
100
AcDbSymbolTableRecord
100
AcDbLayerTableRecord
  2
isoframe
 70
     0
 62
     7
  6
Continuous
370
    -3
390
F
347
75
1001
AcAecLayerStandard
1000

1000

1001
AcCmTransparency
1071
        0
  0
LAYER
  5
788
330
2
100
AcDbSymbolTableRecord
100
AcDbLayerTableRecord
  2
Defpoints
 70
     0
 62
     7
  6
Continuous
290
     0
370
    -3
390
F
347
75
  0
LAYER
  5
7CA
330
2
100
AcDbSymbolTableRecord
100
AcDbLayerTableRecord
  2
notes
 70
     4
 62
   -48
  6
Continuous
370
    -3
390
F
347
75
1001
AcAecLayerStandard
1000

1000

  0
ENDTAB
  0
TABLE
  2
STYLE
  5
3
330
0
100
AcDbSymbolTable
 70
     5
  0
STYLE
  5
11
330
3
100
AcDbSymbolTableRecord
100
AcDbTextStyleTableRecord
  2
Standard
 70
     0
 40
0.0
 41
1.0
 50
0.0
 71
     0
 42
2.5
  3
arial.ttf
  4

1001
ACAD
1000
Arial
1071
        0
  0
STYLE
  5
B8
330
3
100
AcDbSymbolTableRecord
100
AcDbTextStyleTableRecord
  2
Annotative
 70
     0
 40
0.0
 41
1.0
 50
0.0
 71
     0
 42
2.5
  3
arial.ttf
  4

1001
ACAD
1000
Arial
1071
        0
1001
AcadAnnotative
1000
AnnotativeData
1002
{
1070
     1
1070
     1
1002
}
  0
STYLE
  5
60F
330
3
100
AcDbSymbolTableRecord
100
AcDbTextStyleTableRecord
  2
FNTEXT
 70
     0
 40
0.0
 41
1.0
 50
0.0
 71
     0
 42
2.5
  3
Courier New Bold.ttf
  4

1001
ACAD
1000
Courier New
1071
 33554433
  0
STYLE
  5
6B0
330
3
100
AcDbSymbolTableRecord
100
AcDbTextStyleTableRecord
  2
TITLEBLOCK
 70
     0
 40
0.0
 41
0.8
 50
0.0
 71
     0
 42
2.5
  3
arial.ttf
  4

  0
STYLE
  5
6B1
330
3
100
AcDbSymbolTableRecord
100
AcDbTextStyleTableRecord
  2
TABLETEXT
 70
     0
 40
0.0
 41
1.0
 50
0.0
 71
     0
 42
2.5
  3
ARSimp.shx
  4

  0
ENDTAB
  0
TABLE
  2
VIEW
  5
6
330
0
100
AcDbSymbolTable
 70
     0
  0
ENDTAB
  0
TABLE
  2
UCS
  5
7
330
0
100
AcDbSymbolTable
 70
     0
  0
ENDTAB
  0
TABLE
  2
APPID
  5
9
330
0
100
AcDbSymbolTable
 70
     6
  0
APPID
  5
12
330
9
100
AcDbSymbolTableRecord
100
AcDbRegAppTableRecord
  2
ACAD
 70
     0
  0
APPID
  5
B9
330
9
100
AcDbSymbolTableRecord
100
AcDbRegAppTableRecord
  2
AcadAnnotative
 70
     0
  0
APPID
  5
C8
330
9
100
AcDbSymbolTableRecord
100
AcDbRegAppTableRecord
  2
AcAecLayerStandard
 70
     0
  0
APPID
  5
32B
330
9
100
AcDbSymbolTableRecord
100
AcDbRegAppTableRecord
  2
AcCmTransparency
 70
     0
  0
APPID
  5
5F1
330
9
100
AcDbSymbolTableRecord
100
AcDbRegAppTableRecord
  2
PLOTTRANSPARENCY
 70
     0
  0
APPID
  5
6AF
330
9
100
AcDbSymbolTableRecord
100
AcDbRegAppTableRecord
  2
GENIUS_GENTRA_14
 70
     0
  0
ENDTAB
  0
TABLE
  2
DIMSTYLE
  5
A
330
0
100
AcDbSymbolTable
 70
     2
100
AcDbDimStyleTable
  0
DIMSTYLE
105
27
102
{ACAD_REACTORS
330
64D
330
64F
330
652
330
656
330
659
330
65C
330
65F
330
662
330
665
330
686
330
689
330
68C
102
}
330
A
100
AcDbSymbolTableRecord
100
AcDbDimStyleTableRecord
  2
ISO-25
 70
     0
 41
5.0
 42
0.625
 43
3.75
 44
1.25
 73
     0
 74
     0
 77
     1
 78
     8
140
2.5
141
-2.5
143
0.03937007874016
147
0.625
171
     3
172
     1
178
     0
271
     2
272
     2
274
     3
278
    44
283
     0
284
     8
340
11
  0
DIMSTYLE
105
BA
330
A
100
AcDbSymbolTableRecord
100
AcDbDimStyleTableRecord
  2
Annotative
 70
     0
 40
0.0
 41
2.5
 42
0.625
 43
3.75
 44
1.25
 73
     0
 74
     0
 77
     1
 78
     8
140
2.5
141
-2.5
143
0.03937007874016
147
0.625
171
     3
172
     1
178
     0
271
     2
272
     2
274
     3
278
    44
283
     0
284
     8
340
11
1001
AcadAnnotative
1000
AnnotativeData
1002
{
1070
     1
1070
     1
1002
}
  0
ENDTAB
  0
TABLE
  2
BLOCK_RECORD
  5
1
330
0
100
AcDbSymbolTable
 70
     9
  0
BLOCK_RECORD
  5
1F
102
{ACAD_XDICTIONARY
360
333
102
}
330
1
100
AcDbSymbolTableRecord
100
AcDbBlockTableRecord
  2
*Model_Space
340
22
 70
     0
280
     1
281
     0
  0
BLOCK_RECORD
  5
1B
330
1
100
AcDbSymbolTableRecord
100
AcDbBlockTableRecord
  2
*Paper_Space
340
1E
 70
     0
280
     1
281
     0
  0
BLOCK_RECORD
  5
23
330
1
100
AcDbSymbolTableRecord
100
AcDbBlockTableRecord
  2
*Paper_Space0
340
26
 70
     0
280
     1
281
     0
  0
BLOCK_RECORD
  5
20C
330
1
100
AcDbSymbolTableRecord
100
AcDbBlockTableRecord
  2
FN
340
0
102
{BLKREFS
331
214
331
23E
331
24D
331
25C
331
26F
331
271
331
27F
331
0
331
0
331
0
331
61A
331
624
331
626
331
62B
331
669
331
66C
331
66F
102
}
 70
     4
280
     1
281
     0
  0
BLOCK_RECORD
  5
677
330
1
100
AcDbSymbolTableRecord
100
AcDbBlockTableRecord
  2
A-MARK
340
0
102
{BLKREFS
331
67C
331
0
331
0
102
}
 70
     4
280
     1
281
     0
  0
BLOCK_RECORD
  5
694
330
1
100
AcDbSymbolTableRecord
100
AcDbBlockTableRecord
  2
A-MARK-SMALL
340
0
102
{BLKREFS
331
0
331
69A
331
69B
331
69C
331
69D
331
69E
331
69F
331
6A0
331
6A1
331
6A2
331
6A3
331
6A4
331
6A5
102
}
 70
     4
280
     1
281
     0
  0
BLOCK_RECORD
  5
6BD
330
1
100
AcDbSymbolTableRecord
100
AcDbBlockTableRecord
  2
*T6
340
0
102
{BLKREFS
331
6BC
102
}
 70
     0
280
     1
281
     0
  0
BLOCK_RECORD
  5
6D8
330
1
100
AcDbSymbolTableRecord
100
AcDbBlockTableRecord
  2
*T7
340
0
102
{BLKREFS
331
6D7
102
}
 70
     0
280
     1
281
     0
  0
BLOCK_RECORD
  5
705
330
1
100
AcDbSymbolTableRecord
100
AcDbBlockTableRecord
  2
EN_ISO_TitleBlock_bylayer
340
0
102
{BLKREFS
331
704
331
769
102
}
 70
     0
280
     1
281
     0
  0
BLOCK_RECORD
  5
787
330
1
100
AcDbSymbolTableRecord
100
AcDbBlockTableRecord
  2
*T9
340
0
102
{BLKREFS
331
0
102
}
 70
     0
280
     1
281
     0
  0
BLOCK_RECORD
  5
7A0
330
1
100
AcDbSymbolTableRecord
100
AcDbBlockTableRecord
  2
*T10
340
0
102
{BLKREFS
331
0
102
}
 70
     0
280
     1
281
     0
  0
ENDTAB
  0
ENDSEC
  0
SECTION
  2
BLOCKS
  0
BLOCK
  5
20
330
1F
100
AcDbEntity
  8
0
100
AcDbBlockBegin
  2
*Model_Space
 70
     0
 10
0.0
 20
0.0
 30
0.0
  3
*Model_Space
  1

  0
ENDBLK
  5
21
330
1F
100
AcDbEntity
  8
0
100
AcDbBlockEnd
  0
BLOCK
  5
1C
330
1B
100
AcDbEntity
 67
     1
  8
0
100
AcDbBlockBegin
  2
*Paper_Space
 70
     0
 10
0.0
 20
0.0
 30
0.0
  3
*Paper_Space
  1

  0
ENDBLK
  5
1D
330
1B
100
AcDbEntity
 67
     1
  8
0
100
AcDbBlockEnd
  0
BLOCK
  5
24
330
23
100
AcDbEntity
  8
0
100
AcDbBlockBegin
  2
*Paper_Space0
 70
     0
 10
0.0
 20
0.0
 30
0.0
  3
*Paper_Space0
  1

  0
ENDBLK
  5
25
330
23
100
AcDbEntity
  8
0
100
AcDbBlockEnd
  0
BLOCK
  5
212
330
20C
100
AcDbEntity
  8
0
100
AcDbBlockBegin
  2
FN
 70
     0
 10
0.0
 20
0.0
 30
0.0
  3
FN
  1

  0
ARC
  5
229
330
20C
100
AcDbEntity
  8
0
100
AcDbCircle
 10
6.0
 20
0.0
 30
0.0
 40
5.0
100
AcDbArc
 50
270.0
 51
90.0
  0
LINE
  5
22A
330
20C
100
AcDbEntity
  8
0
100
AcDbLine
 10
-6.0
 20
-5.0
 30
0.0
 11
6.0
 21
-5.0
 31
0.0
  0
LINE
  5
22B
330
20C
100
AcDbEntity
  8
0
100
AcDbLine
 10
-6.0
 20
5.0
 30
0.0
 11
6.0
 21
5.0
 31
0.0
  0
ARC
  5
22C
330
20C
100
AcDbEntity
  8
0
100
AcDbCircle
 10
-6.0
 20
0.0
 30
0.0
 40
5.0
100
AcDbArc
 50
90.0
 51
270.0
  0
POINT
  5
22D
330
20C
100
AcDbEntity
  8
0
100
AcDbPoint
 10
0.0
 20
0.0
 30
0.0
  0
ENDBLK
  5
213
330
20C
100
AcDbEntity
  8
0
100
AcDbBlockEnd
  0
BLOCK
  5
67A
330
677
100
AcDbEntity
  8
0
100
AcDbBlockBegin
  2
A-MARK
 70
     0
 10
0.0
 20
0.0
 30
0.0
  3
A-MARK
  1

  0
CIRCLE
  5
678
330
677
100
AcDbEntity
  8
dim
100
AcDbCircle
 10
0.0
 20
0.0
 30
0.0
 40
5.0
  0
MTEXT
  5
679
330
677
100
AcDbEntity
  8
dim
100
AcDbMText
 10
-0.0000000000000142
 20
0.0
 30
0.0
 40
3.5
 41
9.019920492269932
 46
3.541132825893897
 71
     5
 72
     5
  1
{A}
 73
     1
 44
1.0
1001
ACAD
1000
ACAD_MTEXT_DEFINED_HEIGHT_BEGIN
1070
    46
1040
3.541132825893897
1000
ACAD_MTEXT_DEFINED_HEIGHT_END
  0
ENDBLK
  5
67B
330
677
100
AcDbEntity
  8
0
100
AcDbBlockEnd
  0
BLOCK
  5
697
330
694
100
AcDbEntity
  8
0
100
AcDbBlockBegin
  2
A-MARK-SMALL
 70
     0
 10
0.0
 20
0.0
 30
0.0
  3
A-MARK-SMALL
  1

  0
CIRCLE
  5
695
330
694
100
AcDbEntity
  8
dim
100
AcDbCircle
 10
0.0
 20
0.0
 30
0.0
 40
2.760711209611763
  0
MTEXT
  5
696
330
694
100
AcDbEntity
  8
dim
100
AcDbMText
 10
0.0
 20
0.0
 30
0.0
 40
3.5
 41
9.019920492269932
 46
3.5
 71
     5
 72
     5
  1
{\H0.714286x;A}
 73
     1
 44
1.0
1001
ACAD
1000
ACAD_MTEXT_DEFINED_HEIGHT_BEGIN
1070
    46
1040
3.5
1000
ACAD_MTEXT_DEFINED_HEIGHT_END
  0
ENDBLK
  5
698
330
694
100
AcDbEntity
  8
0
100
AcDbBlockEnd
  0
BLOCK
  5
6BE
330
6BD
100
AcDbEntity
  8
0
100
AcDbBlockBegin
  2
*T6
 70
     1
 10
0.0
 20
0.0
 30
0.0
  3
*T6
  1

  0
MTEXT
  5
6BF
330
6BD
100
AcDbEntity
  8
0
  6
Continuous
 62
     0
100
AcDbMText
 10
0.06
 20
-12.5
 30
0.0
 40
12.0
 41
898.9411519115338
 46
0.0
 71
     4
 72
     5
  1
{ PART NUMBER FORMAT:  104320-XXX-YYY-OPTS}
  7
TABLETEXT
 73
     1
 44
1.0
  0
MTEXT
  5
6C0
330
6BD
100
AcDbEntity
  8
0
  6
Continuous
 62
     0
100
AcDbMText
 10
37.98359845191916
 20
-37.5
 30
0.0
 40
12.0
 41
75.84719690383832
 46
0.0
 71
     5
 72
     5
  1
{X }
  7
TABLETEXT
 73
     1
 44
1.0
  0
MTEXT
  5
6C1
330
6BD
100
AcDbEntity
  8
0
  6
Continuous
 62
     0
100
AcDbMText
 10
76.02719690383833
 20
-37.5
 30
0.0
 40
12.0
 41
822.9739550076955
 46
0.0
 71
     4
 72
     5
  1
{\FARSimp.shx|c0; FRAME DIMENSION OF SIDE USING EQUAL LENGTH EXTRUSIONS, MM}
  7
TABLETEXT
 73
     1
 44
1.0
  0
MTEXT
  5
6C2
330
6BD
100
AcDbEntity
  8
0
  6
Continuous
 62
     0
100
AcDbMText
 10
37.98359845191916
 20
-62.5
 30
0.0
 40
12.0
 41
75.84719690383832
 46
0.0
 71
     5
 72
     5
  1
{Y}
  7
TABLETEXT
 73
     1
 44
1.0
  0
MTEXT
  5
6C3
330
6BD
100
AcDbEntity
  8
0
  6
Continuous
 62
     0
100
AcDbMText
 10
76.02719690383833
 20
-62.5
 30
0.0
 40
12.0
 41
822.9739550076955
 46
0.0
 71
     4
 72
     5
  1
{ FRAME DIMENSION OF SIZE WITH SHORTENED EXTRUSIONS, MM}
  7
TABLETEXT
 73
     1
 44
1.0
  0
MTEXT
  5
6C4
330
6BD
100
AcDbEntity
  8
0
  6
Continuous
 62
     0
100
AcDbMText
 10
37.98359845191916
 20
-112.5
 30
0.0
 40
12.0
 41
75.84719690383832
 46
0.0
 71
     5
 72
     5
  1
{OPTS}
  7
TABLETEXT
 73
     1
 44
1.0
  0
MTEXT
  5
6C5
330
6BD
100
AcDbEntity
  8
0
  6
Continuous
 62
     0
100
AcDbMText
 10
119.2497779655544
 20
-87.5
 30
0.0
 40
12.0
 41
86.44516212343221
 46
0.0
 71
     5
 72
     5
  1
{-F}
  7
TABLETEXT
 73
     1
 44
1.0
  0
MTEXT
  5
6C6
330
6BD
100
AcDbEntity
  8
0
  6
Continuous
 62
     0
100
AcDbMText
 10
162.5923590272706
 20
-87.5
 30
0.0
 40
12.0
 41
736.4087928842633
 46
0.0
 71
     4
 72
     5
  1
{ FRAME ONLY}
  7
TABLETEXT
 73
     1
 44
1.0
  0
MTEXT
  5
6C7
330
6BD
100
AcDbEntity
  8
0
  6
Continuous
 62
     0
100
AcDbMText
 10
119.2497779655544
 20
-112.5
 30
0.0
 40
12.0
 41
86.44516212343221
 46
0.0
 71
     5
 72
     5
  1
{-G}
  7
TABLETEXT
 73
     1
 44
1.0
  0
MTEXT
  5
6C8
330
6BD
100
AcDbEntity
  8
0
  6
Continuous
 62
     0
100
AcDbMText
 10
162.5923590272706
 20
-112.5
 30
0.0
 40
12.0
 41
736.4087928842633
 46
0.0
 71
     4
 72
     5
  1
{ GLASS AND GASKET ONLY}
  7
TABLETEXT
 73
     1
 44
1.0
  0
MTEXT
  5
6C9
330
6BD
100
AcDbEntity
  8
0
  6
Continuous
 62
     0
100
AcDbMText
 10
119.2497779655544
 20
-137.5
 30
0.0
 40
12.0
 41
86.44516212343221
 46
0.0
 71
     5
 72
     5
  1
{-FG}
  7
TABLETEXT
 73
     1
 44
1.0
  0
MTEXT
  5
6CA
330
6BD
100
AcDbEntity
  8
0
  6
Continuous
 62
     0
100
AcDbMText
 10
162.5923590272706
 20
-137.5
 30
0.0
 40
12.0
 41
736.4087928842633
 46
0.0
 71
     4
 72
     5
  1
{ FRAME, GLASS AND GASKET}
  7
TABLETEXT
 73
     1
 44
1.0
  0
LINE
  5
6CB
330
6BD
100
AcDbEntity
  8
0
  6
ByBlock
 62
     0
370
    -2
100
AcDbLine
 10
0.0
 20
0.0
 30
0.0
 11
899.0611519115338
 21
0.0
 31
0.0
  0
LINE
  5
6CC
330
6BD
100
AcDbEntity
  8
0
  6
ByBlock
 62
     0
370
    -2
100
AcDbLine
 10
899.0611519115338
 20
0.0
 30
0.0
 11
899.0611519115338
 21
-150.0
 31
0.0
  0
LINE
  5
6CD
330
6BD
100
AcDbEntity
  8
0
  6
ByBlock
 62
     0
370
    -2
100
AcDbLine
 10
0.0
 20
-25.0
 30
0.0
 11
899.0611519115339
 21
-25.0
 31
0.0
  0
LINE
  5
6CE
330
6BD
100
AcDbEntity
  8
0
  6
ByBlock
 62
     0
370
    -2
100
AcDbLine
 10
0.0
 20
-50.0
 30
0.0
 11
899.0611519115339
 21
-50.0
 31
0.0
  0
LINE
  5
6CF
330
6BD
100
AcDbEntity
  8
0
  6
ByBlock
 62
     0
370
    -2
100
AcDbLine
 10
0.0
 20
-75.0
 30
0.0
 11
899.0611519115339
 21
-75.0
 31
0.0
  0
LINE
  5
6D0
330
6BD
100
AcDbEntity
  8
0
  6
ByBlock
 62
     0
370
    -2
100
AcDbLine
 10
75.96719690383833
 20
-100.0
 30
0.0
 11
899.0611519115339
 21
-100.0
 31
0.0
  0
LINE
  5
6D1
330
6BD
100
AcDbEntity
  8
0
  6
ByBlock
 62
     0
370
    -2
100
AcDbLine
 10
75.96719690383833
 20
-125.0
 30
0.0
 11
899.0611519115339
 21
-125.0
 31
0.0
  0
LINE
  5
6D2
330
6BD
100
AcDbEntity
  8
0
  6
ByBlock
 62
     0
370
    -2
100
AcDbLine
 10
0.0
 20
-150.0
 30
0.0
 11
899.0611519115338
 21
-150.0
 31
0.0
  0
LINE
  5
6D3
330
6BD
100
AcDbEntity
  8
0
  6
ByBlock
 62
     0
370
    -2
100
AcDbLine
 10
0.0
 20
0.0
 30
0.0
 11
0.0
 21
-150.0
 31
0.0
  0
LINE
  5
6D4
330
6BD
100
AcDbEntity
  8
0
  6
ByBlock
 62
     0
370
    -2
100
AcDbLine
 10
75.96719690383833
 20
-25.0
 30
0.0
 11
75.96719690383833
 21
-150.0
 31
0.0
  0
LINE
  5
6D5
330
6BD
100
AcDbEntity
  8
0
  6
ByBlock
 62
     0
370
    -2
100
AcDbLine
 10
162.5323590272706
 20
-75.0
 30
0.0
 11
162.5323590272706
 21
-150.0
 31
0.0
  0
ENDBLK
  5
6D6
330
6BD
100
AcDbEntity
  8
0
100
AcDbBlockEnd
  0
BLOCK
  5
6D9
330
6D8
100
AcDbEntity
  8
0
100
AcDbBlockBegin
  2
*T7
 70
     1
 10
0.0
 20
0.0
 30
0.0
  3
*T7
  1

  0
MTEXT
  5
6DA
330
6D8
100
AcDbEntity
  8
0
  6
Continuous
 62
     0
100
AcDbMText
 10
35.23747390396662
 20
-12.5
 30
0.0
 40
12.0
 41
70.35494780793324
 46
0.0
 71
     5
 72
     5
  1
{9}
  7
TABLETEXT
 73
     1
 44
1.0
  0
MTEXT
  5
6DB
330
6D8
100
AcDbEntity
  8
0
  6
Continuous
 62
     0
100
AcDbMText
 10
70.53494780793325
 20
-12.5
 30
0.0
 40
12.0
 41
763.4662041036005
 46
0.0
 71
     4
 72
     5
  1
{ GASKET, NITRILE RUBBER (NBR), 3mm DIA (SEE NOTE 6)}
  7
TABLETEXT
 73
     1
 44
1.0
  0
MTEXT
  5
6DC
330
6D8
100
AcDbEntity
  8
0
  6
Continuous
 62
     0
100
AcDbMText
 10
35.23747390396662
 20
-37.5
 30
0.0
 40
12.0
 41
70.35494780793324
 46
0.0
 71
     5
 72
     5
  1
{8}
  7
TABLETEXT
 73
     1
 44
1.0
  0
MTEXT
  5
6DD
330
6D8
100
AcDbEntity
  8
0
  6
Continuous
 62
     0
100
AcDbMText
 10
70.53494780793325
 20
-37.5
 30
0.0
 40
12.0
 41
763.4662041036005
 46
0.0
 71
     4
 72
     5
  1
{ GLASS PANEL, TEMPERED (SEE NOTE 4 & 5)}
  7
TABLETEXT
 73
     1
 44
1.0
  0
MTEXT
  5
6DE
330
6D8
100
AcDbEntity
  8
0
  6
Continuous
 62
     0
100
AcDbMText
 10
35.23747390396662
 20
-62.5
 30
0.0
 40
12.0
 41
70.35494780793324
 46
0.0
 71
     5
 72
     5
  1
{7}
  7
TABLETEXT
 73
     1
 44
1.0
  0
MTEXT
  5
6DF
330
6D8
100
AcDbEntity
  8
0
  6
Continuous
 62
     0
100
AcDbMText
 10
70.53494780793325
 20
-62.5
 30
0.0
 40
12.0
 41
763.4662041036005
 46
0.0
 71
     4
 72
     5
  1
{ SQUARE NUT, SS, 8x8x3, M5}
  7
TABLETEXT
 73
     1
 44
1.0
  0
MTEXT
  5
6E0
330
6D8
100
AcDbEntity
  8
0
  6
Continuous
 62
     0
100
AcDbMText
 10
35.23747390396662
 20
-87.5
 30
0.0
 40
12.0
 41
70.35494780793324
 46
0.0
 71
     5
 72
     5
  1
{6}
  7
TABLETEXT
 73
     1
 44
1.0
  0
MTEXT
  5
6E1
330
6D8
100
AcDbEntity
  8
0
  6
Continuous
 62
     0
100
AcDbMText
 10
70.53494780793325
 20
-87.5
 30
0.0
 40
12.0
 41
763.4662041036005
 46
0.0
 71
     4
 72
     5
  1
{ WASHER, FLAT, SS, M5 SIZE}
  7
TABLETEXT
 73
     1
 44
1.0
  0
MTEXT
  5
6E2
330
6D8
100
AcDbEntity
  8
0
  6
Continuous
 62
     0
100
AcDbMText
 10
35.23747390396662
 20
-112.5
 30
0.0
 40
12.0
 41
70.35494780793324
 46
0.0
 71
     5
 72
     5
  1
{5}
  7
TABLETEXT
 73
     1
 44
1.0
  0
MTEXT
  5
6E3
330
6D8
100
AcDbEntity
  8
0
  6
Continuous
 62
     0
100
AcDbMText
 10
70.53494780793325
 20
-112.5
 30
0.0
 40
12.0
 41
763.4662041036005
 46
0.0
 71
     4
 72
     5
  1
{ WASHER, LOCK, SPLIT-RING, SS, M5 SIZE}
  7
TABLETEXT
 73
     1
 44
1.0
  0
MTEXT
  5
6E4
330
6D8
100
AcDbEntity
  8
0
  6
Continuous
 62
     0
100
AcDbMText
 10
35.23747390396662
 20
-137.5
 30
0.0
 40
12.0
 41
70.35494780793324
 46
0.0
 71
     5
 72
     5
  1
{4}
  7
TABLETEXT
 73
     1
 44
1.0
  0
MTEXT
  5
6E5
330
6D8
100
AcDbEntity
  8
0
  6
Continuous
 62
     0
100
AcDbMText
 10
70.53494780793325
 20
-137.5
 30
0.0
 40
12.0
 41
763.4662041036005
 46
0.0
 71
     4
 72
     5
  1
{ SOCKET HEAD CAP SCREW, SS, HEX DRIVE, M5x12}
  7
TABLETEXT
 73
     1
 44
1.0
  0
MTEXT
  5
6E6
330
6D8
100
AcDbEntity
  8
0
  6
Continuous
 62
     0
100
AcDbMText
 10
35.23747390396662
 20
-162.5
 30
0.0
 40
12.0
 41
70.35494780793324
 46
0.0
 71
     5
 72
     5
  1
{3}
  7
TABLETEXT
 73
     1
 44
1.0
  0
MTEXT
  5
6E7
330
6D8
100
AcDbEntity
  8
0
  6
Continuous
 62
     0
100
AcDbMText
 10
70.53494780793325
 20
-162.5
 30
0.0
 40
12.0
 41
763.4662041036005
 46
0.0
 71
     4
 72
     5
  1
{ CORNER BRACKET, AL, 60x60x4}
  7
TABLETEXT
 73
     1
 44
1.0
  0
MTEXT
  5
6E8
330
6D8
100
AcDbEntity
  8
0
  6
Continuous
 62
     0
100
AcDbMText
 10
35.23747390396662
 20
-187.5
 30
0.0
 40
12.0
 41
70.35494780793324
 46
0.0
 71
     5
 72
     5
  1
{2}
  7
TABLETEXT
 73
     1
 44
1.0
  0
MTEXT
  5
6E9
330
6D8
100
AcDbEntity
  8
0
  6
Continuous
 62
     0
100
AcDbMText
 10
70.53494780793325
 20
-187.5
 30
0.0
 40
12.0
 41
763.4662041036005
 46
0.0
 71
     4
 72
     5
  1
{ EXTRUSION, AL PROFILE 2020, (YYY-40) mm LENGTH (SEE NOTE 3)}
  7
TABLETEXT
 73
     1
 44
1.0
  0
MTEXT
  5
6EA
330
6D8
100
AcDbEntity
  8
0
  6
Continuous
 62
     0
100
AcDbMText
 10
35.23747390396662
 20
-212.5
 30
0.0
 40
12.0
 41
70.35494780793324
 46
0.0
 71
     5
 72
     5
  1
{1}
  7
TABLETEXT
 73
     1
 44
1.0
  0
MTEXT
  5
6EB
330
6D8
100
AcDbEntity
  8
0
  6
Continuous
 62
     0
100
AcDbMText
 10
70.53494780793325
 20
-212.5
 30
0.0
 40
12.0
 41
763.4662041036005
 46
0.0
 71
     4
 72
     5
  1
{ EXTRUSION, AL PROFILE 2020, XXX mm LENGTH (SEE NOTE 2)}
  7
TABLETEXT
 73
     1
 44
1.0
  0
MTEXT
  5
6EC
330
6D8
100
AcDbEntity
  8
0
  6
Continuous
 62
     0
100
AcDbMText
 10
35.23747390396662
 20
-237.5
 30
0.0
 40
12.0
 41
70.35494780793324
 46
0.0
 71
     5
 72
     5
  1
{FN}
  7
TABLETEXT
 73
     1
 44
1.0
  0
MTEXT
  5
6ED
330
6D8
100
AcDbEntity
  8
0
  6
Continuous
 62
     0
100
AcDbMText
 10
70.53494780793325
 20
-237.5
 30
0.0
 40
12.0
 41
763.4662041036005
 46
0.0
 71
     4
 72
     5
  1
{ DESCRIPTION}
  7
TABLETEXT
 73
     1
 44
1.0
  0
MTEXT
  5
6EE
330
6D8
100
AcDbEntity
  8
0
  6
Continuous
 62
     0
100
AcDbMText
 10
0.06
 20
-262.5
 30
0.0
 40
12.0
 41
833.9411519115337
 46
0.0
 71
     4
 72
     5
  1
{  PARTS LIST SUMMARY (SEE PL104320 FOR MORE DETAILS)}
  7
TABLETEXT
 73
     1
 44
1.0
  0
LINE
  5
6EF
330
6D8
100
AcDbEntity
  8
0
  6
ByBlock
 62
     0
370
    -2
100
AcDbLine
 10
0.0
 20
0.0
 30
0.0
 11
834.0611519115338
 21
0.0
 31
0.0
  0
LINE
  5
6F0
330
6D8
100
AcDbEntity
  8
0
  6
ByBlock
 62
     0
370
    -2
100
AcDbLine
 10
834.0611519115337
 20
0.0
 30
0.0
 11
834.0611519115337
 21
-275.0
 31
0.0
  0
LINE
  5
6F1
330
6D8
100
AcDbEntity
  8
0
  6
ByBlock
 62
     0
370
    -2
100
AcDbLine
 10
0.0
 20
-25.0
 30
0.0
 11
834.0611519115338
 21
-25.0
 31
0.0
  0
LINE
  5
6F2
330
6D8
100
AcDbEntity
  8
0
  6
ByBlock
 62
     0
370
    -2
100
AcDbLine
 10
0.0
 20
-50.0
 30
0.0
 11
834.0611519115338
 21
-50.0
 31
0.0
  0
LINE
  5
6F3
330
6D8
100
AcDbEntity
  8
0
  6
ByBlock
 62
     0
370
    -2
100
AcDbLine
 10
0.0
 20
-75.0
 30
0.0
 11
834.0611519115338
 21
-75.0
 31
0.0
  0
LINE
  5
6F4
330
6D8
100
AcDbEntity
  8
0
  6
ByBlock
 62
     0
370
    -2
100
AcDbLine
 10
0.0
 20
-100.0
 30
0.0
 11
834.0611519115338
 21
-100.0
 31
0.0
  0
LINE
  5
6F5
330
6D8
100
AcDbEntity
  8
0
  6
ByBlock
 62
     0
370
    -2
100
AcDbLine
 10
0.0
 20
-125.0
 30
0.0
 11
834.0611519115338
 21
-125.0
 31
0.0
  0
LINE
  5
6F6
330
6D8
100
AcDbEntity
  8
0
  6
ByBlock
 62
     0
370
    -2
100
AcDbLine
 10
0.0
 20
-150.0
 30
0.0
 11
834.0611519115338
 21
-150.0
 31
0.0
  0
LINE
  5
6F7
330
6D8
100
AcDbEntity
  8
0
  6
ByBlock
 62
     0
370
    -2
100
AcDbLine
 10
0.0
 20
-175.0
 30
0.0
 11
834.0611519115338
 21
-175.0
 31
0.0
  0
LINE
  5
6F8
330
6D8
100
AcDbEntity
  8
0
  6
ByBlock
 62
     0
370
    -2
100
AcDbLine
 10
0.0
 20
-200.0
 30
0.0
 11
834.0611519115338
 21
-200.0
 31
0.0
  0
LINE
  5
6F9
330
6D8
100
AcDbEntity
  8
0
  6
ByBlock
 62
     0
370
    -2
100
AcDbLine
 10
0.0
 20
-225.0
 30
0.0
 11
834.0611519115338
 21
-225.0
 31
0.0
  0
LINE
  5
6FA
330
6D8
100
AcDbEntity
  8
0
  6
ByBlock
 62
     0
370
    -2
100
AcDbLine
 10
0.0
 20
-250.0
 30
0.0
 11
834.0611519115337
 21
-250.0
 31
0.0
  0
LINE
  5
6FB
330
6D8
100
AcDbEntity
  8
0
  6
ByBlock
 62
     0
370
    -2
100
AcDbLine
 10
0.0
 20
-275.0
 30
0.0
 11
834.0611519115337
 21
-275.0
 31
0.0
  0
LINE
  5
6FC
330
6D8
100
AcDbEntity
  8
0
  6
ByBlock
 62
     0
370
    -2
100
AcDbLine
 10
0.0
 20
0.0
 30
0.0
 11
0.0
 21
-275.0
 31
0.0
  0
LINE
  5
6FD
330
6D8
100
AcDbEntity
  8
0
  6
ByBlock
 62
     0
370
    -2
100
AcDbLine
 10
70.47494780793325
 20
0.0
 30
0.0
 11
70.47494780793325
 21
-250.0
 31
0.0
  0
ENDBLK
  5
6FE
330
6D8
100
AcDbEntity
  8
0
100
AcDbBlockEnd
  0
BLOCK
  5
706
330
705
100
AcDbEntity
  8
0
100
AcDbBlockBegin
  2
EN_ISO_TitleBlock_bylayer
 70
     2
 10
0.0
 20
0.0
 30
0.0
  3
EN_ISO_TitleBlock_bylayer
  1

  0
TEXT
  5
707
330
705
100
AcDbEntity
  8
isoframe
100
AcDbText
 10
-894.5
 20
5.499999999999886
 30
0.0
 40
11.5
  1
State
 41
0.85
100
AcDbText
1001
GENIUS_GENTRA_14
1002
{
1070
     1
1000
GENTRATX,%s,(GENMSG gendwg 60)
1000
State
1000
ENU
1070
     0
1040
1.0
1070
     0
1002
}
  0
TEXT
  5
708
330
705
100
AcDbEntity
  8
isoframe
100
AcDbText
 10
-632.5051909065728
 20
146.7459635795769
 30
0.0
 40
11.5
  1
Drawn
 41
0.85
100
AcDbText
1001
GENIUS_GENTRA_14
1002
{
1070
     1
1000
GENTRATX{4.13},%s,(GENMSG gendwg 67)
1000
Drawn
1000
ENU
1070
     0
1040
1.0
1070
     0
1002
}
  0
TEXT
  5
709
330
705
100
AcDbEntity
  8
isoframe
100
AcDbText
 10
-632.5051909065728
 20
107.5535073812296
 30
0.0
 40
11.5
  1
Appv'd
 41
0.85
100
AcDbText
1001
GENIUS_GENTRA_14
1002
{
1070
     1
1000
GENTRATX{4.13},%s,(GENMSG gendwg 69)
1000
Standard
1000
ENU
1070
     0
1040
1.0
1070
     0
1002
}
  0
TEXT
  5
70A
330
705
100
AcDbEntity
  8
isoframe
100
AcDbText
 10
-679.4945186125074
 20
5.499999999999829
 30
0.0
 40
11.5
  1
Name
 41
0.85
100
AcDbText
1001
GENIUS_GENTRA_14
1002
{
1070
     1
1000
GENTRATX{3.31},%s,(GENMSG gendwg 63)
1000
Name
1000
ENU
1070
     0
1040
1.0
1070
     0
1002
}
  0
TEXT
  5
70B
330
705
100
AcDbEntity
  8
isoframe
100
AcDbText
 10
-629.408604056458
 20
5.499999999999829
 30
0.0
 40
11.5
  1
Origin:
 41
0.85
100
AcDbText
1001
GENIUS_GENTRA_14
1002
{
1070
     1
1000
GENTRATX{4.95},%s,(GENMSG gendwg 70)
1000
Filename
1000
ENU
1070
     0
1040
0.8
1070
     0
1002
}
  0
TEXT
  5
70C
330
705
100
AcDbEntity
  8
isoframe
100
AcDbText
 10
-632.5051909065728
 20
127.2909874713874
 30
0.0
 40
11.5
  1
Chk'd
 41
0.85
100
AcDbText
1001
GENIUS_GENTRA_14
1002
{
1070
     1
1000
GENTRATX{4.19},%s,(GENMSG gendwg 68)
1000
Checked
1000
ENU
1070
     0
1040
1.0
1070
     0
1002
}
  0
TEXT
  5
70D
330
705
100
AcDbEntity
  8
isoframe
100
AcDbText
 10
-729.5000000000005
 20
5.499999999999829
 30
0.0
 40
11.5
  1
Date
 41
0.85
100
AcDbText
1001
GENIUS_GENTRA_14
1002
{
1070
     1
1000
GENTRATX,%s,(GENMSG gendwg 62)
1000
Date
1000
ENU
1070
     0
1040
1.0
1070
     0
1002
}
  0
TEXT
  5
70E
330
705
100
AcDbEntity
  8
isoframe
100
AcDbText
 10
-854.4999999999984
 20
5.499999999999829
 30
0.0
 40
11.5
  1
Change
 41
0.85
100
AcDbText
1001
GENIUS_GENTRA_14
1002
{
1070
     1
1000
GENTRATX,%s,(GENMSG gendwg 61)
1000
Changes
1000
ENU
1070
     0
1040
1.0
1070
     0
1002
}
  0
TEXT
  5
70F
330
705
100
AcDbEntity
  8
isoframe
100
AcDbText
 10
-500.3711463323048
 20
257.2896227608437
 30
0.0
 40
11.5
  1
Finish
 41
0.85
100
AcDbText
1001
GENIUS_GENTRA_14
1002
{
1070
     1
1000
GENTRATX,%s,(GENMSG gendwg 71)
1000
Surface
1000
ENU
1070
     0
1040
1.0
1070
     0
1002
}
  0
TEXT
  5
710
330
705
100
AcDbEntity
  8
isoframe
100
AcDbText
 10
-412.942941053881
 20
257.2896227608437
 30
0.0
 40
11.5
  1
Scale:
 41
0.85
100
AcDbText
1001
GENIUS_GENTRA_14
1002
{
1070
     1
1000
GENTRATX{6.37},%s,(GENMSG gendwg 73)
1000
Scale
1000
ENU
1070
     0
1040
1.0
1070
     0
1002
}
  0
TEXT
  5
711
330
705
100
AcDbEntity
  8
isoframe
100
AcDbText
 10
-231.6046043635674
 20
257.2896227608437
 30
0.0
 40
11.5
  1
Weight:
 41
0.85
100
AcDbText
1001
GENIUS_GENTRA_14
1002
{
1070
     1
1000
GENTRATX{6.37},%s,(GENMSG gendwg 74)
1000
Position
1000
ENU
1070
     0
1040
0.8
1070
     0
1002
}
  0
TEXT
  5
712
330
705
100
AcDbEntity
  8
isoframe
100
AcDbText
 10
-100.2588689042796
 20
67.81320213605352
 30
0.0
 40
11.5
  1
Sheet:
 41
0.85
100
AcDbText
1001
GENIUS_GENTRA_14
1002
{
1070
     1
1000
GENTRATX,%s,(GENMSG gendwg 76)
1000
Page
1000
ENU
1070
     0
1040
1.0
1070
     0
1002
}
  0
LINE
  5
713
330
705
100
AcDbEntity
  8
isoframe
100
AcDbLine
 10
-900.0
 20
22.49999999999994
 30
0.0
 11
-110.0058154536987
 21
22.49999999999994
 31
0.0
  0
LINE
  5
714
330
705
100
AcDbEntity
  8
isoframe
370
    30
100
AcDbLine
 10
-634.9999999999995
 20
82.49999999999994
 30
0.0
 11
0.0
 21
82.50000000000017
 31
0.0
  0
LINE
  5
715
330
705
100
AcDbEntity
  8
isoframe
370
    30
100
AcDbLine
 10
-900.0
 20
187.4999999999996
 30
0.0
 11
0.0
 21
187.4999999999996
 31
0.0
  0
LINE
  5
716
330
705
100
AcDbEntity
  8
isoframe
100
AcDbLine
 10
-425.0
 20
247.5000000000014
 30
0.0
 11
0.0
 21
247.5000000000014
 31
0.0
  0
LINE
  5
717
330
705
100
AcDbEntity
  8
isoframe
100
AcDbLine
 10
-900.0
 20
162.4999999999999
 30
0.0
 11
-425.0000000000005
 21
162.4999999999999
 31
0.0
  0
LINE
  5
718
330
705
100
AcDbEntity
  8
isoframe
100
AcDbLine
 10
-900.0
 20
142.4999999999999
 30
0.0
 11
-425.0
 21
142.4999999999999
 31
0.0
  0
LINE
  5
719
330
705
100
AcDbEntity
  8
isoframe
100
AcDbLine
 10
-900.0
 20
122.4999999999999
 30
0.0
 11
-425.0
 21
122.4999999999999
 31
0.0
  0
LINE
  5
71A
330
705
100
AcDbEntity
  8
isoframe
100
AcDbLine
 10
-684.9945186125074
 20
187.4999999999996
 30
0.0
 11
-684.9945186125074
 21
-0.0000000000001705
 31
0.0
  0
LINE
  5
71B
330
705
100
AcDbEntity
  8
isoframe
100
AcDbLine
 10
-735.0000000000005
 20
187.4999999999996
 30
0.0
 11
-735.0000000000005
 21
-0.0000000000001705
 31
0.0
  0
LINE
  5
71C
330
705
100
AcDbEntity
  8
isoframe
100
AcDbLine
 10
-859.9999999999984
 20
187.4999999999996
 30
0.0
 11
-859.9999999999984
 21
-0.0000000000001705
 31
0.0
  0
LINE
  5
71D
330
705
100
AcDbEntity
  8
isoframe
100
AcDbLine
 10
-900.0
 20
42.49999999999994
 30
0.0
 11
-634.9999999999995
 21
42.49999999999994
 31
0.0
  0
LINE
  5
71E
330
705
100
AcDbEntity
  8
isoframe
100
AcDbLine
 10
-900.0
 20
102.4999999999999
 30
0.0
 11
-425.0000000000005
 21
102.4999999999999
 31
0.0
  0
LINE
  5
71F
330
705
100
AcDbEntity
  8
isoframe
100
AcDbLine
 10
-900.0
 20
82.49999999999994
 30
0.0
 11
-634.9999999999995
 21
82.49999999999994
 31
0.0
  0
LINE
  5
720
330
705
100
AcDbEntity
  8
isoframe
100
AcDbLine
 10
-900.0
 20
62.5
 30
0.0
 11
-634.9999999999995
 21
62.5
 31
0.0
  0
LINE
  5
721
330
705
100
AcDbEntity
  8
isoframe
100
AcDbLine
 10
-585.0
 20
187.4999999999996
 30
0.0
 11
-584.9999999999977
 21
82.49999999999994
 31
0.0
  0
LINE
  5
722
330
705
100
AcDbEntity
  8
isoframe
370
    30
100
AcDbLine
 10
-634.9999999999995
 20
279.950000000001
 30
0.0
 11
-634.9999999999995
 21
0.0000000000000568
 31
0.0
  0
LINE
  5
723
330
705
100
AcDbEntity
  8
isoframe
370
    30
100
AcDbLine
 10
-425.0
 20
279.950000000001
 30
0.0
 11
-425.0
 21
-0.0000000000001705
 31
0.0
  0
LINE
  5
724
330
705
100
AcDbEntity
  8
isoframe
100
AcDbLine
 10
-504.9999999999991
 20
279.950000000001
 30
0.0
 11
-504.9999999999991
 21
82.50000000000011
 31
0.0
  0
LINE
  5
725
330
705
100
AcDbEntity
  8
isoframe
100
AcDbLine
 10
-110.0058154536987
 20
82.50000000000017
 30
0.0
 11
-110.0058154536987
 21
-0.0000000000001705
 31
0.0
  0
LINE
  5
726
330
705
100
AcDbEntity
  8
isoframe
100
AcDbLine
 10
-239.9999999999982
 20
279.950000000001
 30
0.0
 11
-239.9999999999982
 21
247.5000000000014
 31
0.0
  0
LINE
  5
727
330
705
100
AcDbEntity
  8
isoframe
100
AcDbLine
 10
-110.0058154536987
 20
41.25
 30
0.0
 11
0.0
 21
41.25
 31
0.0
  0
LWPOLYLINE
  5
728
330
705
100
AcDbEntity
  8
isoframe
370
    30
100
AcDbPolyline
 90
        4
 70
     1
 43
0.0
 10
-900.0
 20
0.0
 10
0.0
 20
0.0
 10
0.0
 20
280.0000000000013
 10
-900.0
 20
280.0000000000001
  0
ATTDEF
  5
729
330
705
100
AcDbEntity
  8
isoframe
100
AcDbText
 10
-411.392175321786
 20
39.55076887437571
 30
0.0
 40
25.0
  1

 41
0.85
  7
TITLEBLOCK
100
AcDbAttributeDefinition
  3
Drawing No.
  2
MEC-No
 70
     0
280
     1
  0
ATTDEF
  5
72A
330
705
100
AcDbEntity
  8
isoframe
100
AcDbText
 10
-412.2681963968325
 20
142.0905688743758
 30
0.0
 40
25.0
  1

 41
0.85
  7
TITLEBLOCK
100
AcDbAttributeDefinition
  3
Description (max. 20)
  2
MEC-DESCR1
 70
     0
280
     1
  0
ATTDEF
  5
72B
330
705
100
AcDbEntity
  8
isoframe
100
AcDbText
 10
-409.6786983028028
 20
112.2455688743757
 30
0.0
 40
14.9987
  1

 41
0.8500000000000002
  7
TITLEBLOCK
100
AcDbAttributeDefinition
  3
Description 2  (max. 20)
  2
MEC-DESCR2
 70
     0
280
     1
  0
ATTDEF
  5
72C
330
705
100
AcDbEntity
  8
isoframe
100
AcDbText
 10
-412.2666408983832
 20
219.9999999999996
 30
0.0
 40
17.5
  1

 41
0.8500000000000002
  7
TITLEBLOCK
100
AcDbAttributeDefinition
  3
Material
  2
MEC-MAT1
 70
     0
280
     1
  0
ATTDEF
  5
72D
330
705
100
AcDbEntity
  8
isoframe
100
AcDbText
 10
-412.2666408983832
 20
194.9999999999996
 30
0.0
 40
17.5
  1

 41
0.8500000000000002
  7
TITLEBLOCK
100
AcDbAttributeDefinition
  3
Material (2nd Line)
  2
MEC-MAT2
 70
     0
280
     1
  0
ATTDEF
  5
72E
330
705
100
AcDbEntity
  8
isoframe
100
AcDbText
 10
-218.5673665492213
 20
219.9999999999996
 30
0.0
 40
17.5
  1

 41
0.8500000000000002
  7
TITLEBLOCK
100
AcDbAttributeDefinition
  3
Raw Material
  2
MEC-RMAT1
 70
     0
280
     1
  0
ATTDEF
  5
72F
330
705
100
AcDbEntity
  8
isoframe
100
AcDbText
 10
-218.5673665492213
 20
194.9999999999996
 30
0.0
 40
17.5
  1

 41
0.8500000000000002
  7
TITLEBLOCK
100
AcDbAttributeDefinition
  3
Raw Material (2nd Line)
  2
MEC-RMAT2
 70
     0
280
     1
  0
ATTDEF
  5
730
330
705
100
AcDbEntity
  8
isoframe
100
AcDbText
 10
-369.1441541284103
 20
257.0341759339785
 30
0.0
 40
12.5
  1

 41
0.85
  7
TITLEBLOCK
100
AcDbAttributeDefinition
  3
Scale
  2
MEC-SCALE
 70
     0
280
     1
  0
ATTDEF
  5
731
330
705
100
AcDbEntity
  8
isoframe
100
AcDbText
 10
-178.4454815895087
 20
257.2896227608437
 30
0.0
 40
12.5
  1

 41
0.85
  7
TITLEBLOCK
100
AcDbAttributeDefinition
  3
Weight
  2
MEC-WEIGHT
 70
     0
280
     1
  0
ATTDEF
  5
732
330
705
100
AcDbEntity
  8
isoframe
100
AcDbText
 10
-501.9618000380269
 20
147.2915795875527
 30
0.0
 40
12.5
  1

 41
0.85
  7
TITLEBLOCK
100
AcDbAttributeDefinition
  3
Drawn by
  2
MEC-NAME
 70
     0
280
     1
  0
ATTDEF
  5
733
330
705
100
AcDbEntity
  8
isoframe
100
AcDbText
 10
-581.8468658984543
 20
146.7459635795769
 30
0.0
 40
12.5
  1

 41
0.85
  7
TITLEBLOCK
100
AcDbAttributeDefinition
  3
Drawn Date
  2
MEC-DATE
 70
     0
280
     1
  0
ATTDEF
  5
734
330
705
100
AcDbEntity
  8
isoframe
100
AcDbText
 10
-502.4814402840043
 20
127.5244100259292
 30
0.0
 40
12.5
  1

 41
0.85
  7
TITLEBLOCK
100
AcDbAttributeDefinition
  3
Checked by
  2
MEC-CHKD-NAME
 70
     0
280
     1
  0
ATTDEF
  5
735
330
705
100
AcDbEntity
  8
isoframe
100
AcDbText
 10
-581.8468658984543
 20
127.2909874713874
 30
0.0
 40
12.5
  1

 41
0.85
  7
TITLEBLOCK
100
AcDbAttributeDefinition
  3
Check Date
  2
MEC-CHKD-DATE
 70
     0
280
     1
  0
ATTDEF
  5
736
330
705
100
AcDbEntity
  8
isoframe
100
AcDbText
 10
-502.4814402840038
 20
107.5244100259292
 30
0.0
 40
12.5
  1

 41
0.85
  7
TITLEBLOCK
100
AcDbAttributeDefinition
  3
Approved by
  2
MEC-APPVD-NAME
 70
     0
280
     1
  0
ATTDEF
  5
737
330
705
100
AcDbEntity
  8
isoframe
100
AcDbText
 10
-581.8468658984543
 20
107.5535073812296
 30
0.0
 40
12.5
  1

 41
0.85
  7
TITLEBLOCK
100
AcDbAttributeDefinition
  3
Approved Date
  2
MEC-APPVD-DATE
 70
     0
280
     1
  0
TEXT
  5
738
330
705
100
AcDbEntity
  8
isoframe
100
AcDbText
 10
-559.4224590723047
 20
169.2499999999998
 30
0.0
 40
11.5
  1
Date
 41
0.85
 72
     1
 11
-544.9999999999991
 21
174.9999999999998
 31
0.0
100
AcDbText
 73
     2
1001
GENIUS_GENTRA_14
1002
{
1070
     1
1000
GENTRATX{3.38},%s,(GENMSG gendwg 62)
1000
Date
1000
ENU
1070
     0
1040
1.0
1070
     0
1002
}
  0
TEXT
  5
739
330
705
100
AcDbEntity
  8
isoframe
100
AcDbText
 10
-483.2131053888127
 20
169.2499999999998
 30
0.0
 40
11.5
  1
Name
 41
0.85
 72
     1
 11
-464.9999999999995
 21
174.9999999999998
 31
0.0
100
AcDbText
 73
     2
1001
GENIUS_GENTRA_14
1002
{
1070
     1
1000
GENTRATX,%s,(GENMSG gendwg 63)
1000
Name
1000
ENU
1070
     0
1040
1.0
1070
     0
1002
}
  0
ATTDEF
  5
73A
330
705
100
AcDbEntity
  8
isoframe
100
AcDbText
 10
-587.1038940832236
 20
5.499999999999829
 30
0.0
 40
12.5
  1

 41
0.85
  7
TITLEBLOCK
100
AcDbAttributeDefinition
  3
File Name
  2
MEC-DWG
 70
     0
280
     1
  0
TEXT
  5
73B
330
705
100
AcDbEntity
  8
isoframe
100
AcDbText
 10
-104.3775000147339
 20
14.42992116224576
 30
0.0
 40
11.5
  1
Size:
 41
0.85
100
AcDbText
1001
GENIUS_GENTRA_14
1002
{
1070
     1
1000
GENTRATX,%s,(GENMSG gendwg 76)
1000
Page
1000
ENU
1070
     0
1040
1.0
1070
     0
1002
}
  0
ATTDEF
  5
73C
330
705
100
AcDbEntity
  8
isoframe
100
AcDbText
 10
-82.50436159027413
 20
46.76406111248611
 30
0.0
 40
12.5
  1

 41
0.85
  7
TITLEBLOCK
 72
     1
 11
-82.50436159027413
 21
43.06351540989402
 31
0.0
100
AcDbAttributeDefinition
  3
Page
  2
MEC-SHEET
 70
     0
 74
     1
280
     1
  0
ATTDEF
  5
73D
330
705
100
AcDbEntity
  8
isoframe
100
AcDbText
 10
-61.59143768813783
 20
8.195317973570525
 30
0.0
 40
25.0
  1

 41
0.85
  7
TITLEBLOCK
100
AcDbAttributeDefinition
  3
Sheet Size
  2
MEC_SHEETSIZE
 70
     0
280
     1
  0
LINE
  5
73E
330
705
100
AcDbEntity
  8
isoframe
100
AcDbLine
 10
-55.00290772684957
 20
41.25
 30
0.0
 11
-55.00290772684957
 21
82.50000000000017
 31
0.0
  0
TEXT
  5
73F
330
705
100
AcDbEntity
  8
isoframe
100
AcDbText
 10
-40.52352105924274
 20
67.81320213605352
 30
0.0
 40
11.5
  1
Rev.
 41
0.85
100
AcDbText
1001
GENIUS_GENTRA_14
1002
{
1070
     1
1000
GENTRATX,%s,(GENMSG gendwg 76)
1000
Page
1000
ENU
1070
     0
1040
1.0
1070
     0
1002
}
  0
ATTDEF
  5
740
330
705
100
AcDbEntity
  8
isoframe
100
AcDbText
 10
-27.50145386342456
 20
46.76406111248611
 30
0.0
 40
12.5
  1

 41
0.85
  7
TITLEBLOCK
 72
     1
 11
-27.50145386342456
 21
43.06351540989402
 31
0.0
100
AcDbAttributeDefinition
  3
Revision
  2
MEC-REV
 70
     0
 74
     1
280
     1
  0
ENDBLK
  5
741
330
705
100
AcDbEntity
  8
0
100
AcDbBlockEnd
  0
BLOCK
  5
7C5
330
787
100
AcDbEntity
  8
0
100
AcDbBlockBegin
  2
*T9
 70
     1
 10
0.0
 20
0.0
 30
0.0
  3
*T9
  1

  0
MTEXT
  5
789
330
787
100
AcDbEntity
  8
0
  6
Continuous
 62
     0
100
AcDbMText
 10
0.299999999998687
 20
-2.499999999989058
 30
0.0
 40
2.399999999989496
 41
179.2122303815223
 46
0.0
 71
     4
 72
     5
  1
{ PART NUMBER FORMAT:  104320-XXX-YYY-OPTS}
  7
TABLETEXT
 73
     1
 44
1.0
  0
MTEXT
  5
78A
330
787
100
AcDbEntity
  8
0
  6
Continuous
 62
     0
100
AcDbMText
 10
7.596719690350583
 20
-7.499999999967173
 30
0.0
 40
2.399999999989496
 41
14.59343938070379
 46
0.0
 71
     5
 72
     5
  1
{X }
  7
TABLETEXT
 73
     1
 44
1.0
  0
MTEXT
  5
78B
330
787
100
AcDbEntity
  8
0
  6
Continuous
 62
     0
100
AcDbMText
 10
15.49343938069985
 20
-7.499999999967173
 30
0.0
 40
2.399999999989496
 41
164.0187910008212
 46
0.0
 71
     4
 72
     5
  1
{\FARSimp.shx|c0; FRAME DIMENSION OF SIDE USING EQUAL LENGTH EXTRUSIONS, MM}
  7
TABLETEXT
 73
     1
 44
1.0
  0
MTEXT
  5
78C
330
787
100
AcDbEntity
  8
0
  6
Continuous
 62
     0
100
AcDbMText
 10
7.596719690350583
 20
-12.49999999994529
 30
0.0
 40
2.399999999989496
 41
14.59343938070379
 46
0.0
 71
     5
 72
     5
  1
{Y}
  7
TABLETEXT
 73
     1
 44
1.0
  0
MTEXT
  5
78D
330
787
100
AcDbEntity
  8
0
  6
Continuous
 62
     0
100
AcDbMText
 10
15.49343938069985
 20
-12.49999999994529
 30
0.0
 40
2.399999999989496
 41
164.0187910008212
 46
0.0
 71
     4
 72
     5
  1
{ FRAME DIMENSION OF SIZE WITH SHORTENED EXTRUSIONS, MM}
  7
TABLETEXT
 73
     1
 44
1.0
  0
MTEXT
  5
78E
330
787
100
AcDbEntity
  8
0
  6
Continuous
 62
     0
100
AcDbMText
 10
7.596719690350583
 20
-22.49999999990152
 30
0.0
 40
2.399999999989496
 41
14.59343938070379
 46
0.0
 71
     5
 72
     5
  1
{OPTS}
  7
TABLETEXT
 73
     1
 44
1.0
  0
MTEXT
  5
78F
330
787
100
AcDbEntity
  8
0
  6
Continuous
 62
     0
100
AcDbMText
 10
23.8499555930065
 20
-17.4999999999234
 30
0.0
 40
2.399999999989496
 41
16.7130324246133
 46
0.0
 71
     5
 72
     5
  1
{-F}
  7
TABLETEXT
 73
     1
 44
1.0
  0
MTEXT
  5
790
330
787
100
AcDbEntity
  8
0
  6
Continuous
 62
     0
100
AcDbMText
 10
32.80647180531052
 20
-17.4999999999234
 30
0.0
 40
2.399999999989496
 41
146.7057585762105
 46
0.0
 71
     4
 72
     5
  1
{ FRAME ONLY}
  7
TABLETEXT
 73
     1
 44
1.0
  0
MTEXT
  5
791
330
787
100
AcDbEntity
  8
0
  6
Continuous
 62
     0
100
AcDbMText
 10
23.8499555930065
 20
-22.49999999990152
 30
0.0
 40
2.399999999989496
 41
16.7130324246133
 46
0.0
 71
     5
 72
     5
  1
{-G}
  7
TABLETEXT
 73
     1
 44
1.0
  0
MTEXT
  5
792
330
787
100
AcDbEntity
  8
0
  6
Continuous
 62
     0
100
AcDbMText
 10
32.80647180531052
 20
-22.49999999990152
 30
0.0
 40
2.399999999989496
 41
146.7057585762105
 46
0.0
 71
     4
 72
     5
  1
{ GLASS AND GASKET ONLY}
  7
TABLETEXT
 73
     1
 44
1.0
  0
MTEXT
  5
793
330
787
100
AcDbEntity
  8
0
  6
Continuous
 62
     0
100
AcDbMText
 10
23.8499555930065
 20
-27.49999999987963
 30
0.0
 40
2.399999999989496
 41
16.7130324246133
 46
0.0
 71
     5
 72
     5
  1
{-FG}
  7
TABLETEXT
 73
     1
 44
1.0
  0
MTEXT
  5
794
330
787
100
AcDbEntity
  8
0
  6
Continuous
 62
     0
100
AcDbMText
 10
32.80647180531052
 20
-27.49999999987963
 30
0.0
 40
2.399999999989496
 41
146.7057585762105
 46
0.0
 71
     4
 72
     5
  1
{ FRAME, GLASS AND GASKET}
  7
TABLETEXT
 73
     1
 44
1.0
  0
LINE
  5
795
330
787
100
AcDbEntity
  8
0
  6
Continuous
 62
     0
370
    -2
100
AcDbLine
 10
0.0
 20
0.0
 30
0.0
 11
179.8122303815197
 21
0.0
 31
0.0
  0
LINE
  5
796
330
787
100
AcDbEntity
  8
0
  6
Continuous
 62
     0
370
    -2
100
AcDbLine
 10
179.8122303815197
 20
0.0
 30
0.0
 11
179.8122303815197
 21
-29.99999999986869
 31
0.0
  0
LINE
  5
797
330
787
100
AcDbEntity
  8
0
  6
Continuous
 62
     0
370
    -2
100
AcDbLine
 10
0.0
 20
-4.999999999978115
 30
0.0
 11
179.8122303815197
 21
-4.999999999978115
 31
0.0
  0
LINE
  5
798
330
787
100
AcDbEntity
  8
0
  6
Continuous
 62
     0
370
    -2
100
AcDbLine
 10
0.0
 20
-9.99999999995623
 30
0.0
 11
179.8122303815197
 21
-9.99999999995623
 31
0.0
  0
LINE
  5
799
330
787
100
AcDbEntity
  8
0
  6
Continuous
 62
     0
370
    -2
100
AcDbLine
 10
0.0
 20
-14.99999999993435
 30
0.0
 11
179.8122303815198
 21
-14.99999999993435
 31
0.0
  0
LINE
  5
79A
330
787
100
AcDbEntity
  8
0
  6
Continuous
 62
     0
370
    -2
100
AcDbLine
 10
15.19343938070117
 20
-19.99999999991246
 30
0.0
 11
179.8122303815198
 21
-19.99999999991246
 31
0.0
  0
LINE
  5
79B
330
787
100
AcDbEntity
  8
0
  6
Continuous
 62
     0
370
    -2
100
AcDbLine
 10
15.19343938070117
 20
-24.99999999989058
 30
0.0
 11
179.8122303815198
 21
-24.99999999989058
 31
0.0
  0
LINE
  5
79C
330
787
100
AcDbEntity
  8
0
  6
Continuous
 62
     0
370
    -2
100
AcDbLine
 10
0.0
 20
-29.99999999986869
 30
0.0
 11
179.8122303815197
 21
-29.99999999986869
 31
0.0
  0
LINE
  5
79D
330
787
100
AcDbEntity
  8
0
  6
Continuous
 62
     0
370
    -2
100
AcDbLine
 10
0.0
 20
0.0
 30
0.0
 11
0.0
 21
-29.99999999986869
 31
0.0
  0
LINE
  5
79E
330
787
100
AcDbEntity
  8
0
  6
Continuous
 62
     0
370
    -2
100
AcDbLine
 10
15.19343938070117
 20
-4.999999999978115
 30
0.0
 11
15.19343938070117
 21
-29.99999999986869
 31
0.0
  0
LINE
  5
79F
330
787
100
AcDbEntity
  8
0
  6
Continuous
 62
     0
370
    -2
100
AcDbLine
 10
32.50647180531183
 20
-14.99999999993435
 30
0.0
 11
32.50647180531183
 21
-29.99999999986869
 31
0.0
  0
ENDBLK
  5
7C6
330
787
100
AcDbEntity
  8
0
100
AcDbBlockEnd
  0
BLOCK
  5
7C7
330
7A0
100
AcDbEntity
  8
0
100
AcDbBlockBegin
  2
*T10
 70
     1
 10
0.0
 20
0.0
 30
0.0
  3
*T10
  1

  0
MTEXT
  5
7A1
330
7A0
100
AcDbEntity
  8
0
  6
Continuous
 62
     0
100
AcDbMText
 10
7.047494780762479
 20
-2.499999999989058
 30
0.0
 40
2.399999999989496
 41
14.07098956152506
 46
0.0
 71
     5
 72
     5
  1
{9}
  7
TABLETEXT
 73
     1
 44
1.0
  0
MTEXT
  5
7A2
330
7A0
100
AcDbEntity
  8
0
  6
Continuous
 62
     0
100
AcDbMText
 10
14.10698956152491
 20
-2.499999999989058
 30
0.0
 40
2.399999999989496
 41
152.6932408200518
 46
0.0
 71
     4
 72
     5
  1
{ GASKET, NITRILE RUBBER (NBR), 3mm DIA (SEE NOTE 6)}
  7
TABLETEXT
 73
     1
 44
1.0
  0
MTEXT
  5
7A3
330
7A0
100
AcDbEntity
  8
0
  6
Continuous
 62
     0
100
AcDbMText
 10
7.047494780762479
 20
-7.499999999967173
 30
0.0
 40
2.399999999989496
 41
14.07098956152506
 46
0.0
 71
     5
 72
     5
  1
{8}
  7
TABLETEXT
 73
     1
 44
1.0
  0
MTEXT
  5
7A4
330
7A0
100
AcDbEntity
  8
0
  6
Continuous
 62
     0
100
AcDbMText
 10
14.10698956152491
 20
-7.499999999967173
 30
0.0
 40
2.399999999989496
 41
152.6932408200518
 46
0.0
 71
     4
 72
     5
  1
{ GLASS PANEL, TEMPERED (SEE NOTE 4 & 5)}
  7
TABLETEXT
 73
     1
 44
1.0
  0
MTEXT
  5
7A5
330
7A0
100
AcDbEntity
  8
0
  6
Continuous
 62
     0
100
AcDbMText
 10
7.047494780762479
 20
-12.49999999994529
 30
0.0
 40
2.399999999989496
 41
14.07098956152506
 46
0.0
 71
     5
 72
     5
  1
{7}
  7
TABLETEXT
 73
     1
 44
1.0
  0
MTEXT
  5
7A6
330
7A0
100
AcDbEntity
  8
0
  6
Continuous
 62
     0
100
AcDbMText
 10
14.10698956152491
 20
-12.49999999994529
 30
0.0
 40
2.399999999989496
 41
152.6932408200518
 46
0.0
 71
     4
 72
     5
  1
{ SQUARE NUT, SS, 8x8x3, M5}
  7
TABLETEXT
 73
     1
 44
1.0
  0
MTEXT
  5
7A7
330
7A0
100
AcDbEntity
  8
0
  6
Continuous
 62
     0
100
AcDbMText
 10
7.047494780762479
 20
-17.4999999999234
 30
0.0
 40
2.399999999989496
 41
14.07098956152506
 46
0.0
 71
     5
 72
     5
  1
{6}
  7
TABLETEXT
 73
     1
 44
1.0
  0
MTEXT
  5
7A8
330
7A0
100
AcDbEntity
  8
0
  6
Continuous
 62
     0
100
AcDbMText
 10
14.10698956152491
 20
-17.4999999999234
 30
0.0
 40
2.399999999989496
 41
152.6932408200518
 46
0.0
 71
     4
 72
     5
  1
{ WASHER, FLAT, SS, M5 SIZE}
  7
TABLETEXT
 73
     1
 44
1.0
  0
MTEXT
  5
7A9
330
7A0
100
AcDbEntity
  8
0
  6
Continuous
 62
     0
100
AcDbMText
 10
7.047494780762479
 20
-22.49999999990152
 30
0.0
 40
2.399999999989496
 41
14.07098956152506
 46
0.0
 71
     5
 72
     5
  1
{5}
  7
TABLETEXT
 73
     1
 44
1.0
  0
MTEXT
  5
7AA
330
7A0
100
AcDbEntity
  8
0
  6
Continuous
 62
     0
100
AcDbMText
 10
14.10698956152491
 20
-22.49999999990152
 30
0.0
 40
2.399999999989496
 41
152.6932408200518
 46
0.0
 71
     4
 72
     5
  1
{ WASHER, LOCK, SPLIT-RING, SS, M5 SIZE}
  7
TABLETEXT
 73
     1
 44
1.0
  0
MTEXT
  5
7AB
330
7A0
100
AcDbEntity
  8
0
  6
Continuous
 62
     0
100
AcDbMText
 10
7.047494780762479
 20
-27.49999999987963
 30
0.0
 40
2.399999999989496
 41
14.07098956152506
 46
0.0
 71
     5
 72
     5
  1
{4}
  7
TABLETEXT
 73
     1
 44
1.0
  0
MTEXT
  5
7AC
330
7A0
100
AcDbEntity
  8
0
  6
Continuous
 62
     0
100
AcDbMText
 10
14.10698956152491
 20
-27.49999999987963
 30
0.0
 40
2.399999999989496
 41
152.6932408200518
 46
0.0
 71
     4
 72
     5
  1
{ SOCKET HEAD CAP SCREW, SS, HEX DRIVE, M5x12}
  7
TABLETEXT
 73
     1
 44
1.0
  0
MTEXT
  5
7AD
330
7A0
100
AcDbEntity
  8
0
  6
Continuous
 62
     0
100
AcDbMText
 10
7.047494780762479
 20
-32.49999999985775
 30
0.0
 40
2.399999999989496
 41
14.07098956152506
 46
0.0
 71
     5
 72
     5
  1
{3}
  7
TABLETEXT
 73
     1
 44
1.0
  0
MTEXT
  5
7AE
330
7A0
100
AcDbEntity
  8
0
  6
Continuous
 62
     0
100
AcDbMText
 10
14.10698956152491
 20
-32.49999999985775
 30
0.0
 40
2.399999999989496
 41
152.6932408200518
 46
0.0
 71
     4
 72
     5
  1
{ CORNER BRACKET, AL, 60x60x4}
  7
TABLETEXT
 73
     1
 44
1.0
  0
MTEXT
  5
7AF
330
7A0
100
AcDbEntity
  8
0
  6
Continuous
 62
     0
100
AcDbMText
 10
7.047494780762479
 20
-37.49999999983586
 30
0.0
 40
2.399999999989496
 41
14.07098956152506
 46
0.0
 71
     5
 72
     5
  1
{2}
  7
TABLETEXT
 73
     1
 44
1.0
  0
MTEXT
  5
7B0
330
7A0
100
AcDbEntity
  8
0
  6
Continuous
 62
     0
100
AcDbMText
 10
14.10698956152491
 20
-37.49999999983586
 30
0.0
 40
2.399999999989496
 41
152.6932408200518
 46
0.0
 71
     4
 72
     5
  1
{ EXTRUSION, AL PROFILE 2020, (YYY-40) mm LENGTH (SEE NOTE 3)}
  7
TABLETEXT
 73
     1
 44
1.0
  0
MTEXT
  5
7B1
330
7A0
100
AcDbEntity
  8
0
  6
Continuous
 62
     0
100
AcDbMText
 10
7.047494780762479
 20
-42.49999999981398
 30
0.0
 40
2.399999999989496
 41
14.07098956152506
 46
0.0
 71
     5
 72
     5
  1
{1}
  7
TABLETEXT
 73
     1
 44
1.0
  0
MTEXT
  5
7B2
330
7A0
100
AcDbEntity
  8
0
  6
Continuous
 62
     0
100
AcDbMText
 10
14.10698956152491
 20
-42.49999999981398
 30
0.0
 40
2.399999999989496
 41
152.6932408200518
 46
0.0
 71
     4
 72
     5
  1
{ EXTRUSION, AL PROFILE 2020, XXX mm LENGTH (SEE NOTE 2)}
  7
TABLETEXT
 73
     1
 44
1.0
  0
MTEXT
  5
7B3
330
7A0
100
AcDbEntity
  8
0
  6
Continuous
 62
     0
100
AcDbMText
 10
7.047494780762479
 20
-47.4999999997921
 30
0.0
 40
2.399999999989496
 41
14.07098956152506
 46
0.0
 71
     5
 72
     5
  1
{FN}
  7
TABLETEXT
 73
     1
 44
1.0
  0
MTEXT
  5
7B4
330
7A0
100
AcDbEntity
  8
0
  6
Continuous
 62
     0
100
AcDbMText
 10
14.10698956152491
 20
-47.4999999997921
 30
0.0
 40
2.399999999989496
 41
152.6932408200518
 46
0.0
 71
     4
 72
     5
  1
{ DESCRIPTION}
  7
TABLETEXT
 73
     1
 44
1.0
  0
MTEXT
  5
7B5
330
7A0
100
AcDbEntity
  8
0
  6
Continuous
 62
     0
100
AcDbMText
 10
0.0119999999999475
 20
-52.49999999977021
 30
0.0
 40
2.399999999989496
 41
166.7882303815767
 46
0.0
 71
     4
 72
     5
  1
{  PARTS LIST SUMMARY (SEE PL104320 FOR MORE DETAILS)}
  7
TABLETEXT
 73
     1
 44
1.0
  0
LINE
  5
7B6
330
7A0
100
AcDbEntity
  8
0
  6
Continuous
 62
     0
370
    -2
100
AcDbLine
 10
0.0
 20
0.0
 30
0.0
 11
166.8122303815766
 21
0.0
 31
0.0
  0
LINE
  5
7B7
330
7A0
100
AcDbEntity
  8
0
  6
Continuous
 62
     0
370
    -2
100
AcDbLine
 10
166.8122303815766
 20
0.0
 30
0.0
 11
166.8122303815766
 21
-54.99999999975927
 31
0.0
  0
LINE
  5
7B8
330
7A0
100
AcDbEntity
  8
0
  6
Continuous
 62
     0
370
    -2
100
AcDbLine
 10
0.0
 20
-4.999999999978115
 30
0.0
 11
166.8122303815766
 21
-4.999999999978115
 31
0.0
  0
LINE
  5
7B9
330
7A0
100
AcDbEntity
  8
0
  6
Continuous
 62
     0
370
    -2
100
AcDbLine
 10
0.0
 20
-9.99999999995623
 30
0.0
 11
166.8122303815766
 21
-9.99999999995623
 31
0.0
  0
LINE
  5
7BA
330
7A0
100
AcDbEntity
  8
0
  6
Continuous
 62
     0
370
    -2
100
AcDbLine
 10
0.0
 20
-14.99999999993435
 30
0.0
 11
166.8122303815766
 21
-14.99999999993435
 31
0.0
  0
LINE
  5
7BB
330
7A0
100
AcDbEntity
  8
0
  6
Continuous
 62
     0
370
    -2
100
AcDbLine
 10
0.0
 20
-19.99999999991246
 30
0.0
 11
166.8122303815766
 21
-19.99999999991246
 31
0.0
  0
LINE
  5
7BC
330
7A0
100
AcDbEntity
  8
0
  6
Continuous
 62
     0
370
    -2
100
AcDbLine
 10
0.0
 20
-24.99999999989058
 30
0.0
 11
166.8122303815766
 21
-24.99999999989058
 31
0.0
  0
LINE
  5
7BD
330
7A0
100
AcDbEntity
  8
0
  6
Continuous
 62
     0
370
    -2
100
AcDbLine
 10
0.0
 20
-29.99999999986869
 30
0.0
 11
166.8122303815766
 21
-29.99999999986869
 31
0.0
  0
LINE
  5
7BE
330
7A0
100
AcDbEntity
  8
0
  6
Continuous
 62
     0
370
    -2
100
AcDbLine
 10
0.0
 20
-34.99999999984681
 30
0.0
 11
166.8122303815766
 21
-34.99999999984681
 31
0.0
  0
LINE
  5
7BF
330
7A0
100
AcDbEntity
  8
0
  6
Continuous
 62
     0
370
    -2
100
AcDbLine
 10
0.0
 20
-39.99999999982492
 30
0.0
 11
166.8122303815766
 21
-39.99999999982492
 31
0.0
  0
LINE
  5
7C0
330
7A0
100
AcDbEntity
  8
0
  6
Continuous
 62
     0
370
    -2
100
AcDbLine
 10
0.0
 20
-44.99999999980304
 30
0.0
 11
166.8122303815766
 21
-44.99999999980304
 31
0.0
  0
LINE
  5
7C1
330
7A0
100
AcDbEntity
  8
0
  6
Continuous
 62
     0
370
    -2
100
AcDbLine
 10
0.0
 20
-49.99999999978115
 30
0.0
 11
166.8122303815766
 21
-49.99999999978115
 31
0.0
  0
LINE
  5
7C2
330
7A0
100
AcDbEntity
  8
0
  6
Continuous
 62
     0
370
    -2
100
AcDbLine
 10
0.0
 20
-54.99999999975927
 30
0.0
 11
166.8122303815766
 21
-54.99999999975927
 31
0.0
  0
LINE
  5
7C3
330
7A0
100
AcDbEntity
  8
0
  6
Continuous
 62
     0
370
    -2
100
AcDbLine
 10
0.0
 20
0.0
 30
0.0
 11
0.0
 21
-54.99999999975927
 31
0.0
  0
LINE
  5
7C4
330
7A0
100
AcDbEntity
  8
0
  6
Continuous
 62
     0
370
    -2
100
AcDbLine
 10
14.09498956152496
 20
0.0
 30
0.0
 11
14.09498956152496
 21
-49.99999999978115
 31
0.0
  0
ENDBLK
  5
7C8
330
7A0
100
AcDbEntity
  8
0
100
AcDbBlockEnd
  0
ENDSEC
  0
SECTION
  2
ENTITIES
  0
LINE
  5
F8
330
1F
100
AcDbEntity
  8
isox
100
AcDbLine
 10
-0.0000000000000044
 20
169.5545981112757
 30
0.0
 11
293.6771785856515
 21
0.0
 31
0.0
  0
LINE
  5
121
330
1F
100
AcDbEntity
  8
isoz
100
AcDbLine
 10
71.07574495813984
 20
0.0
 30
0.0
 11
71.07574495813998
 21
420.0
 31
0.0
  0
LINE
  5
1AA
330
1F
100
AcDbEntity
  8
isoy
100
AcDbLine
 10
593.9999999999999
 20
255.5053735926699
 30
0.0
 11
151.4517113306284
 21
0.0
 31
0.0
  0
INSERT
  5
214
330
1F
100
AcDbEntity
  8
dim
100
AcDbBlockReference
  2
FN
 10
51.17067305697765
 20
113.088
 30
0.0
  0
MTEXT
  5
221
330
1F
100
AcDbEntity
  8
dim
100
AcDbMText
 10
51.17067305697765
 20
113.088
 30
0.0
 40
5.0
 41
12.0442672542908
 46
5.085266030013643
 71
     5
 72
     5
  1
{151}
 73
     1
 44
1.0
1001
ACAD
1000
ACAD_MTEXT_DEFINED_HEIGHT_BEGIN
1070
    46
1040
5.085266030013643
1000
ACAD_MTEXT_DEFINED_HEIGHT_END
  0
MTEXT
  5
238
330
1F
100
AcDbEntity
  8
dim
100
AcDbMText
 10
75.46237676373117
 20
254.2076029135098
 30
0.0
 40
2.5
 41
0.0
 46
0.0
 71
     3
 72
     1
  1

 73
     1
 44
1.0
  0
MTEXT
  5
23A
330
1F
100
AcDbEntity
  8
dim
100
AcDbMText
 10
38.72942313135776
 20
113.088
 30
0.0
 40
5.0
 41
13.93119512359242
 46
5.0
 71
     6
 72
     5
  1
{2 PL}
 73
     1
 44
1.0
1001
ACAD
1000
ACAD_MTEXT_DEFINED_HEIGHT_BEGIN
1070
    46
1040
5.0
1000
ACAD_MTEXT_DEFINED_HEIGHT_END
  0
MTEXT
  5
23C
330
1F
100
AcDbEntity
  8
dim
100
AcDbMText
 10
62.17067305697765
 20
113.088
 30
0.0
 40
3.5
 41
69.69595256147544
 46
3.55968622100955
 71
     7
 72
     5
  1
{ PANELS, FRONT DOORS}
 73
     1
 44
1.0
1001
ACAD
1000
ACAD_MTEXT_DEFINED_HEIGHT_BEGIN
1070
    46
1040
3.55968622100955
1000
ACAD_MTEXT_DEFINED_HEIGHT_END
  0
INSERT
  5
23E
330
1F
100
AcDbEntity
  8
dim
100
AcDbBlockReference
  2
FN
 10
51.18333206453593
 20
329.178
 30
0.0
  0
MTEXT
  5
23F
330
1F
100
AcDbEntity
  8
dim
100
AcDbMText
 10
51.04887702267588
 20
329.2680000000001
 30
0.0
 40
5.0
 41
12.04426725429081
 46
5.085266030013643
 71
     5
 72
     5
  1
{101}
 73
     1
 44
1.0
1001
ACAD
1000
ACAD_MTEXT_DEFINED_HEIGHT_BEGIN
1070
    46
1040
5.085266030013643
1000
ACAD_MTEXT_DEFINED_HEIGHT_END
  0
MTEXT
  5
241
330
1F
100
AcDbEntity
  8
dim
100
AcDbMText
 10
62.04887702267588
 20
329.6628979582719
 30
0.0
 40
3.5
 41
56.30666829544739
 46
4.192360163710777
 71
     7
 72
     5
  1
{ PANEL, SIDE, LEFT}
 73
     1
 44
1.0
1001
ACAD
1000
ACAD_MTEXT_DEFINED_HEIGHT_BEGIN
1070
    46
1040
4.192360163710777
1000
ACAD_MTEXT_DEFINED_HEIGHT_END
  0
MTEXT
  5
243
330
1F
100
AcDbEntity
  8
dim
100
AcDbMText
 10
75.46237676373117
 20
304.9965569626237
 30
0.0
 40
2.5
 41
0.0
 46
0.0
 71
     3
 72
     1
  1

 73
     1
 44
1.0
  0
MTEXT
  5
249
330
1F
100
AcDbEntity
  8
dim
100
AcDbMText
 10
33.26082908363058
 20
304.9965569626237
 30
0.0
 40
2.5
 41
0.0
 46
0.0
 71
     3
 72
     1
  1

 73
     1
 44
1.0
  0
INSERT
  5
24D
330
1F
100
AcDbEntity
  8
dim
100
AcDbBlockReference
  2
FN
 10
518.7292899162796
 20
174.8279999999998
 30
0.0
  0
MTEXT
  5
24E
330
1F
100
AcDbEntity
  8
dim
100
AcDbMText
 10
518.7292899162796
 20
174.8279999999998
 30
0.0
 40
5.0
 41
12.04426725429081
 46
5.088676671214189
 71
     5
 72
     5
  1
{103}
 73
     1
 44
1.0
1001
ACAD
1000
ACAD_MTEXT_DEFINED_HEIGHT_BEGIN
1070
    46
1040
5.088676671214189
1000
ACAD_MTEXT_DEFINED_HEIGHT_END
  0
MTEXT
  5
251
330
1F
100
AcDbEntity
  8
dim
100
AcDbMText
 10
33.25275112059037
 20
270.4066799617754
 30
0.0
 40
2.5
 41
0.0
 46
0.0
 71
     3
 72
     1
  1

 73
     1
 44
1.0
  0
INSERT
  5
25C
330
1F
100
AcDbEntity
  8
dim
100
AcDbBlockReference
  2
FN
 10
51.16645338779158
 20
298.7398817616181
 30
0.0
  0
MTEXT
  5
25D
330
1F
100
AcDbEntity
  8
dim
100
AcDbMText
 10
51.16645338779158
 20
298.7398817616181
 30
0.0
 40
5.0
 41
12.0442672542908
 46
5.085266030013643
 71
     5
 72
     5
  1
{104}
 73
     1
 44
1.0
1001
ACAD
1000
ACAD_MTEXT_DEFINED_HEIGHT_BEGIN
1070
    46
1040
5.085266030013643
1000
ACAD_MTEXT_DEFINED_HEIGHT_END
  0
MTEXT
  5
25E
330
1F
100
AcDbEntity
  8
dim
100
AcDbMText
 10
38.72942313135782
 20
298.308
 30
0.0
 40
5.0
 41
13.93119512359242
 46
5.0
 71
     6
 72
     5
  1
{2 PL}
 73
     1
 44
1.0
1001
ACAD
1000
ACAD_MTEXT_DEFINED_HEIGHT_BEGIN
1070
    46
1040
5.0
1000
ACAD_MTEXT_DEFINED_HEIGHT_END
  0
MTEXT
  5
26D
330
1F
100
AcDbEntity
  8
dim
100
AcDbMText
 10
507.7292899162796
 20
174.8279999999998
 30
0.0
 40
3.5
 41
69.69595256147545
 46
4.192360163710777
 71
     9
 72
     5
  1
{ GLASS PANEL, REAR}
 73
     1
 44
1.0
1001
ACAD
1000
ACAD_MTEXT_DEFINED_HEIGHT_BEGIN
1070
    46
1040
4.192360163710777
1000
ACAD_MTEXT_DEFINED_HEIGHT_END
  0
MTEXT
  5
26E
330
1F
100
AcDbEntity
  8
dim
100
AcDbMText
 10
62.16036864814196
 20
298.7398817616181
 30
0.0
 40
3.5
 41
84.91753727479193
 46
3.55968622100955
 71
     7
 72
     5
  1
{ PSEUDO PANELS}
 73
     1
 44
1.0
1001
ACAD
1000
ACAD_MTEXT_DEFINED_HEIGHT_BEGIN
1070
    46
1040
3.55968622100955
1000
ACAD_MTEXT_DEFINED_HEIGHT_END
  0
INSERT
  5
26F
330
1F
100
AcDbEntity
  8
dim
100
AcDbBlockReference
  2
FN
 10
518.7142196691871
 20
102.7979999999999
 30
0.0
  0
MTEXT
  5
270
330
1F
100
AcDbEntity
  8
dim
100
AcDbMText
 10
518.7142196691871
 20
102.7979999999999
 30
0.0
 40
5.0
 41
12.04426725429084
 46
5.085266030013643
 71
     5
 72
     5
  1
{102}
 73
     1
 44
1.0
1001
ACAD
1000
ACAD_MTEXT_DEFINED_HEIGHT_BEGIN
1070
    46
1040
5.085266030013643
1000
ACAD_MTEXT_DEFINED_HEIGHT_END
  0
INSERT
  5
271
330
1F
100
AcDbEntity
  8
dim
100
AcDbBlockReference
  2
FN
 10
518.7256730569773
 20
113.0879999999998
 30
0.0
  0
MTEXT
  5
272
330
1F
100
AcDbEntity
  8
dim
100
AcDbMText
 10
518.7256730569773
 20
113.0879999999998
 30
0.0
 40
5.0
 41
12.04426725429084
 46
5.088676671214189
 71
     5
 72
     5
  1
{153}
 73
     1
 44
1.0
1001
ACAD
1000
ACAD_MTEXT_DEFINED_HEIGHT_BEGIN
1070
    46
1040
5.088676671214189
1000
ACAD_MTEXT_DEFINED_HEIGHT_END
  0
MTEXT
  5
273
330
1F
100
AcDbEntity
  8
dim
100
AcDbMText
 10
507.7256730569773
 20
113.0879999999998
 30
0.0
 40
3.5
 41
69.46136070338872
 46
3.55968622100955
 71
     9
 72
     5
  1
{ PANEL, SIDE DOOR   }
 73
     1
 44
1.0
1001
ACAD
1000
ACAD_MTEXT_DEFINED_HEIGHT_BEGIN
1070
    46
1040
3.55968622100955
1000
ACAD_MTEXT_DEFINED_HEIGHT_END
  0
MTEXT
  5
274
330
1F
100
AcDbEntity
  8
dim
100
AcDbMText
 10
507.714219669187
 20
102.7979999999999
 30
0.0
 40
3.5
 41
69.46136070338872
 46
4.528990450204638
 71
     9
 72
     5
  1
{ PANEL, SIDE (NO GLASS)   }
 73
     1
 44
1.0
1001
ACAD
1000
ACAD_MTEXT_DEFINED_HEIGHT_BEGIN
1070
    46
1040
4.528990450204638
1000
ACAD_MTEXT_DEFINED_HEIGHT_END
  0
INSERT
  5
27F
330
1F
100
AcDbEntity
  8
dim
100
AcDbBlockReference
  2
FN
 10
518.5775902695899
 20
236.5679999999999
 30
0.0
  0
MTEXT
  5
280
330
1F
100
AcDbEntity
  8
dim
100
AcDbMText
 10
518.5775902695899
 20
236.5679999999999
 30
0.0
 40
5.0
 41
12.04426725429084
 46
5.085266030013643
 71
     5
 72
     5
  1
{152}
 73
     1
 44
1.0
1001
ACAD
1000
ACAD_MTEXT_DEFINED_HEIGHT_BEGIN
1070
    46
1040
5.085266030013643
1000
ACAD_MTEXT_DEFINED_HEIGHT_END
  0
MTEXT
  5
348
330
1F
100
AcDbEntity
  8
dim
100
AcDbMText
 10
412.2786047048914
 20
151.2273617670043
 30
0.0
 40
2.5
 41
0.0
 46
0.0
 71
     7
 72
     1
  1

 73
     1
 44
1.0
  0
IMAGE
  5
36E
330
1F
100
AcDbEntity
  8
image_iso
160
                 8
310
0800000000000000
100
AcDbRasterImage
 90
        0
 10
53.21837681367325
 20
2.736905877733193
 30
0.0
 11
0.3174603174603174
 21
0.0
 31
0.0
 12
0.0
 22
0.3174603174603174
 32
0.0
 13
1320.0
 23
1263.0
340
368
 70
    15
280
     0
281
    50
282
    50
283
     0
360
36F
 71
     1
 91
        2
 14
-0.5
 24
-0.5
 14
1319.5
 24
1262.5
290
     0
  0
LINE
  5
3AD
330
1F
100
AcDbEntity
  8
isox
100
AcDbLine
 10
189.8640465356155
 20
420.0
 30
0.0
 11
593.9999999999998
 21
186.6719984781316
 31
0.0
  0
LINE
  5
3B6
330
1F
100
AcDbEntity
  8
isox
100
AcDbLine
 10
-0.0000000000000018
 20
179.844250078827
 30
0.0
 11
311.4993785856516
 21
-0.0000000000000284
 31
0.0
  0
LINE
  5
3B7
330
1F
100
AcDbEntity
  8
isox
100
AcDbLine
 10
0.0000000000000044
 20
190.1339020463783
 30
0.0
 11
329.3215785856516
 21
-0.0000000000000284
 31
0.0
  0
LINE
  5
3B8
330
1F
100
AcDbEntity
  8
isox
100
AcDbLine
 10
0.0000000000000036
 20
200.4235540139297
 30
0.0
 11
347.1437785856517
 21
0.0
 31
0.0
  0
LINE
  5
3B9
330
1F
100
AcDbEntity
  8
isox
100
AcDbLine
 10
-0.0000000000000009
 20
210.7132059814811
 30
0.0
 11
364.9659785856516
 21
0.0000000000000284
 31
0.0
  0
LINE
  5
3BA
330
1F
100
AcDbEntity
  8
isox
100
AcDbLine
 10
-0.0000000000000009
 20
221.0028579490324
 30
0.0
 11
382.7881785856516
 21
0.0000000000000568
 31
0.0
  0
LINE
  5
3BB
330
1F
100
AcDbEntity
  8
isox
100
AcDbLine
 10
-0.0000000000000053
 20
231.2925099165838
 30
0.0
 11
400.6103785856517
 21
0.0
 31
0.0
  0
LINE
  5
3BC
330
1F
100
AcDbEntity
  8
isox
100
AcDbLine
 10
0.0
 20
241.5821618841351
 30
0.0
 11
418.4325785856517
 21
0.0000000000000284
 31
0.0
  0
LINE
  5
3BD
102
{ACAD_REACTORS
330
682
102
}
330
1F
100
AcDbEntity
  8
isox
100
AcDbLine
 10
-0.0000000000000009
 20
251.8718138516865
 30
0.0
 11
436.2547785856518
 21
-0.0000000000000284
 31
0.0
  0
LINE
  5
3BE
330
1F
100
AcDbEntity
  8
isox
100
AcDbLine
 10
0.0000000000000124
 20
262.1614658192378
 30
0.0
 11
454.0769785856518
 21
0.0000000000000568
 31
0.0
  0
LINE
  5
3BF
330
1F
100
AcDbEntity
  8
isox
100
AcDbLine
 10
-0.0000000000000053
 20
272.4511177867892
 30
0.0
 11
471.8991785856521
 21
-0.0000000000001705
 31
0.0
  0
LINE
  5
3C0
102
{ACAD_REACTORS
330
65E
102
}
330
1F
100
AcDbEntity
  8
isox
100
AcDbLine
 10
-0.0000000000000089
 20
282.7407697543405
 30
0.0
 11
489.721378585652
 21
-0.0000000000000568
 31
0.0
  0
LINE
  5
3C1
330
1F
100
AcDbEntity
  8
isox
100
AcDbLine
 10
-0.0000000000000009
 20
293.0304217218919
 30
0.0
 11
507.543578585652
 21
0.0
 31
0.0
  0
LINE
  5
3C2
330
1F
100
AcDbEntity
  8
isox
100
AcDbLine
 10
-0.000000000000008
 20
303.3200736894432
 30
0.0
 11
525.3657785856519
 21
0.0000000000000568
 31
0.0
  0
LINE
  5
3D3
330
1F
100
AcDbEntity
  8
isox
100
AcDbLine
 10
-0.0000000000000098
 20
313.6097256569948
 30
0.0
 11
543.1879785856521
 21
0.0
 31
0.0
  0
LINE
  5
3D4
102
{ACAD_REACTORS
330
65B
102
}
330
1F
100
AcDbEntity
  8
isox
100
AcDbLine
 10
-0.0000000000000062
 20
323.8993776245461
 30
0.0
 11
561.0101785856519
 21
-0.0000000000000568
 31
0.0
  0
LINE
  5
3D5
330
1F
100
AcDbEntity
  8
isox
100
AcDbLine
 10
0.0000000000000124
 20
334.1890295920974
 30
0.0
 11
568.6051673532679
 21
5.904683158076125
 31
0.0
  0
LINE
  5
3D6
330
1F
100
AcDbEntity
  8
isox
100
AcDbLine
 10
-0.0000000000000044
 20
344.4786815596488
 30
0.0
 11
593.9999999999999
 21
1.532621661011319
 31
0.0
  0
LINE
  5
3D7
330
1F
100
AcDbEntity
  8
isox
100
AcDbLine
 10
-0.0000000000000089
 20
354.7683335272002
 30
0.0
 11
593.9999999999999
 21
11.82227362856264
 31
0.0
  0
LINE
  5
3D8
330
1F
100
AcDbEntity
  8
isox
100
AcDbLine
 10
-0.0000000000000036
 20
365.0579854947515
 30
0.0
 11
593.9999999999998
 21
22.11192559611413
 31
0.0
  0
LINE
  5
3D9
330
1F
100
AcDbEntity
  8
isox
100
AcDbLine
 10
-0.0000000000000089
 20
375.3476374623029
 30
0.0
 11
593.9999999999998
 21
32.40157756366551
 31
0.0
  0
LINE
  5
3DA
330
1F
100
AcDbEntity
  8
isox
100
AcDbLine
 10
-0.0000000000000044
 20
385.6372894298542
 30
0.0
 11
593.9999999999998
 21
42.69122953121689
 31
0.0
  0
LINE
  5
3DB
330
1F
100
AcDbEntity
  8
isox
100
AcDbLine
 10
-0.0000000000000009
 20
395.9269413974055
 30
0.0
 11
593.9999999999999
 21
52.98088149876821
 31
0.0
  0
LINE
  5
3DC
330
1F
100
AcDbEntity
  8
isox
100
AcDbLine
 10
-0.0000000000000071
 20
406.2165933649569
 30
0.0
 11
593.9999999999998
 21
63.27053346631953
 31
0.0
  0
LINE
  5
3DD
330
1F
100
AcDbEntity
  8
isox
100
AcDbLine
 10
0.0000000000000053
 20
416.5062453325082
 30
0.0
 11
593.9999999999999
 21
73.56018543387091
 31
0.0
  0
LINE
  5
3DE
330
1F
100
AcDbEntity
  8
isox
100
AcDbLine
 10
11.77083940672337
 20
420.0
 30
0.0
 11
593.9999999999999
 21
83.84983740142223
 31
0.0
  0
LINE
  5
3DF
330
1F
100
AcDbEntity
  8
isox
100
AcDbLine
 10
29.59303940672338
 20
420.0
 30
0.0
 11
594.0
 21
94.13948936897361
 31
0.0
  0
LINE
  5
3E1
330
1F
100
AcDbEntity
  8
isox
100
AcDbLine
 10
47.41523940672376
 20
420.0
 30
0.0
 11
594.0
 21
104.4291413365249
 31
0.0
  0
LINE
  5
3E2
330
1F
100
AcDbEntity
  8
isox
100
AcDbLine
 10
65.23743940672377
 20
420.0
 30
0.0
 11
593.9999999999999
 21
114.7187933040763
 31
0.0
  0
LINE
  5
3E3
330
1F
100
AcDbEntity
  8
isox
100
AcDbLine
 10
83.05963940672379
 20
420.0
 30
0.0
 11
593.9999999999994
 21
125.008445271628
 31
0.0
  0
LINE
  5
3E4
330
1F
100
AcDbEntity
  8
isox
100
AcDbLine
 10
100.8818394067238
 20
420.0
 30
0.0
 11
593.9999999999998
 21
135.2980972391791
 31
0.0
  0
LINE
  5
3E5
102
{ACAD_REACTORS
330
667
102
}
330
1F
100
AcDbEntity
  8
isox
100
AcDbLine
 10
118.7040394067238
 20
420.0
 30
0.0
 11
593.9999999999998
 21
145.5877492067305
 31
0.0
  0
LINE
  5
3E6
330
1F
100
AcDbEntity
  8
isox
100
AcDbLine
 10
136.5262394067238
 20
420.0
 30
0.0
 11
593.9999999999999
 21
155.8774011742818
 31
0.0
  0
LINE
  5
3E7
330
1F
100
AcDbEntity
  8
isox
100
AcDbLine
 10
154.3484394067238
 20
420.0
 30
0.0
 11
593.9999999999995
 21
166.1670531418333
 31
0.0
  0
LINE
  5
3E8
330
1F
100
AcDbEntity
  8
isox
100
AcDbLine
 10
172.1706394067238
 20
420.0
 30
0.0
 11
593.9999999999998
 21
176.4567051093846
 31
0.0
  0
LINE
  5
3E9
330
1F
100
AcDbEntity
  8
isox
100
AcDbLine
 10
189.9928394067238
 20
420.0
 30
0.0
 11
593.9999999999999
 21
186.7463570769358
 31
0.0
  0
LINE
  5
3EA
330
1F
100
AcDbEntity
  8
isox
100
AcDbLine
 10
207.8150394067239
 20
420.0
 30
0.0
 11
593.9999999999998
 21
197.0360090444873
 31
0.0
  0
LINE
  5
3EB
330
1F
100
AcDbEntity
  8
isox
100
AcDbLine
 10
225.637239406724
 20
420.0
 30
0.0
 11
593.9999999999999
 21
207.3256610120387
 31
0.0
  0
LINE
  5
3EC
330
1F
100
AcDbEntity
  8
isox
100
AcDbLine
 10
243.4594394067239
 20
420.0
 30
0.0
 11
594.0
 21
217.61531297959
 31
0.0
  0
LINE
  5
3ED
330
1F
100
AcDbEntity
  8
isox
100
AcDbLine
 10
261.2816394067239
 20
420.0
 30
0.0
 11
594.0
 21
227.9049649471413
 31
0.0
  0
LINE
  5
3F1
330
1F
100
AcDbEntity
  8
isox
100
AcDbLine
 10
279.1038394067242
 20
420.0
 30
0.0
 11
593.9999999999999
 21
238.1946169146927
 31
0.0
  0
LINE
  5
3F2
330
1F
100
AcDbEntity
  8
isox
100
AcDbLine
 10
296.9260394067242
 20
420.0
 30
0.0
 11
593.9999999999998
 21
248.4842688822442
 31
0.0
  0
LINE
  5
3F3
330
1F
100
AcDbEntity
  8
isox
100
AcDbLine
 10
314.7482394067241
 20
420.0
 30
0.0
 11
593.9999999999998
 21
258.7739208497955
 31
0.0
  0
LINE
  5
3F4
330
1F
100
AcDbEntity
  8
isox
100
AcDbLine
 10
332.5704394067242
 20
420.0
 30
0.0
 11
594.0
 21
269.0635728173468
 31
0.0
  0
LINE
  5
3F5
330
1F
100
AcDbEntity
  8
isox
100
AcDbLine
 10
350.3926394067242
 20
420.0
 30
0.0
 11
594.0
 21
279.3532247848981
 31
0.0
  0
LINE
  5
3F6
330
1F
100
AcDbEntity
  8
isox
100
AcDbLine
 10
368.2148394067243
 20
420.0
 30
0.0
 11
593.9999999999999
 21
289.6428767524495
 31
0.0
  0
LINE
  5
3F7
330
1F
100
AcDbEntity
  8
isox
100
AcDbLine
 10
386.0370394067243
 20
420.0
 30
0.0
 11
593.9999999999998
 21
299.9325287200009
 31
0.0
  0
LINE
  5
3F8
330
1F
100
AcDbEntity
  8
isox
100
AcDbLine
 10
403.8592394067242
 20
420.0
 30
0.0
 11
593.9999999999999
 21
310.2221806875522
 31
0.0
  0
LINE
  5
3F9
330
1F
100
AcDbEntity
  8
isox
100
AcDbLine
 10
421.6814394067245
 20
420.0
 30
0.0
 11
593.9999999999999
 21
320.5118326551037
 31
0.0
  0
LINE
  5
3FA
330
1F
100
AcDbEntity
  8
isox
100
AcDbLine
 10
439.5036394067245
 20
420.0
 30
0.0
 11
593.9999999999999
 21
330.801484622655
 31
0.0
  0
LINE
  5
3FB
330
1F
100
AcDbEntity
  8
isox
100
AcDbLine
 10
457.3258394067244
 20
420.0
 30
0.0
 11
593.9999999999999
 21
341.0911365902063
 31
0.0
  0
LINE
  5
3FC
330
1F
100
AcDbEntity
  8
isox
100
AcDbLine
 10
475.1480394067245
 20
420.0
 30
0.0
 11
593.9999999999999
 21
351.3807885577578
 31
0.0
  0
LINE
  5
3FD
330
1F
100
AcDbEntity
  8
isox
100
AcDbLine
 10
492.9702394067245
 20
420.0
 30
0.0
 11
593.9999999999999
 21
361.6704405253091
 31
0.0
  0
LINE
  5
3FE
330
1F
100
AcDbEntity
  8
isox
100
AcDbLine
 10
510.7924394067247
 20
420.0
 30
0.0
 11
593.9999999999999
 21
371.9600924928605
 31
0.0
  0
LINE
  5
3FF
330
1F
100
AcDbEntity
  8
isox
100
AcDbLine
 10
528.6146394067247
 20
420.0
 30
0.0
 11
593.9999999999999
 21
382.2497444604119
 31
0.0
  0
LINE
  5
400
330
1F
100
AcDbEntity
  8
isox
100
AcDbLine
 10
546.4368394067245
 20
420.0
 30
0.0
 11
593.9999999999999
 21
392.5393964279631
 31
0.0
  0
LINE
  5
401
330
1F
100
AcDbEntity
  8
isox
100
AcDbLine
 10
-0.0000000000000002
 20
4.920166630453833
 30
0.0
 11
8.521978585651036
 21
0.0
 31
0.0
  0
LINE
  5
402
330
1F
100
AcDbEntity
  8
isox
100
AcDbLine
 10
0.0000000000000018
 20
15.20981859800519
 30
0.0
 11
26.34417858565106
 21
-0.0000000000000053
 31
0.0
  0
LINE
  5
403
330
1F
100
AcDbEntity
  8
isox
100
AcDbLine
 10
0.0
 20
25.49947056555652
 30
0.0
 11
44.16637858565104
 21
0.0000000000000071
 31
0.0
  0
LINE
  5
404
330
1F
100
AcDbEntity
  8
isox
100
AcDbLine
 10
0.0000000000000009
 20
35.7891225331079
 30
0.0
 11
61.98857858565108
 21
0.0
 31
0.0
  0
LINE
  5
405
330
1F
100
AcDbEntity
  8
isox
100
AcDbLine
 10
0.0000000000000027
 20
46.07877450065925
 30
0.0
 11
79.81077858565108
 21
0.0
 31
0.0
  0
LINE
  5
406
330
1F
100
AcDbEntity
  8
isox
100
AcDbLine
 10
0.0000000000000018
 20
56.36842646821061
 30
0.0
 11
97.63297858565109
 21
0.0
 31
0.0
  0
LINE
  5
407
330
1F
100
AcDbEntity
  8
isox
100
AcDbLine
 10
0.0000000000000009
 20
66.65807843576195
 30
0.0
 11
115.4551785856511
 21
0.0000000000000284
 31
0.0
  0
LINE
  5
408
330
1F
100
AcDbEntity
  8
isox
100
AcDbLine
 10
0.0
 20
76.94773040331332
 30
0.0
 11
133.2773785856511
 21
0.0000000000000142
 31
0.0
  0
LINE
  5
409
330
1F
100
AcDbEntity
  8
isox
100
AcDbLine
 10
-0.0000000000000018
 20
87.23738237086465
 30
0.0
 11
151.0995785856512
 21
0.0
 31
0.0
  0
LINE
  5
40A
330
1F
100
AcDbEntity
  8
isox
100
AcDbLine
 10
0.0
 20
97.52703433841603
 30
0.0
 11
168.9217785856513
 21
0.0
 31
0.0
  0
LINE
  5
40B
330
1F
100
AcDbEntity
  8
isox
100
AcDbLine
 10
0.0000000000000018
 20
107.8166863059674
 30
0.0
 11
186.7439785856513
 21
0.0000000000000142
 31
0.0
  0
LINE
  5
40C
330
1F
100
AcDbEntity
  8
isox
100
AcDbLine
 10
-0.0000000000000044
 20
118.1063382735187
 30
0.0
 11
204.5661785856512
 21
0.0000000000000142
 31
0.0
  0
LINE
  5
40D
330
1F
100
AcDbEntity
  8
isox
100
AcDbLine
 10
-0.0000000000000044
 20
128.3959902410701
 30
0.0
 11
222.3883785856512
 21
0.0000000000000284
 31
0.0
  0
LINE
  5
40E
330
1F
100
AcDbEntity
  8
isox
100
AcDbLine
 10
0.0
 20
138.6856422086214
 30
0.0
 11
240.2105785856512
 21
0.0000000000000853
 31
0.0
  0
LINE
  5
40F
330
1F
100
AcDbEntity
  8
isox
100
AcDbLine
 10
-0.0000000000000062
 20
148.975294176173
 30
0.0
 11
258.0327785856515
 21
0.0
 31
0.0
  0
LINE
  5
410
330
1F
100
AcDbEntity
  8
isox
100
AcDbLine
 10
0.0000000000000027
 20
159.2649461437243
 30
0.0
 11
275.8549785856515
 21
0.0000000000000568
 31
0.0
  0
LINE
  5
41C
330
1F
100
AcDbEntity
  8
isoy
100
AcDbLine
 10
593.9999999999999
 20
265.7950255602213
 30
0.0
 11
133.6295113306285
 21
0.0
 31
0.0
  0
LINE
  5
41D
330
1F
100
AcDbEntity
  8
isoy
100
AcDbLine
 10
593.9999999999999
 20
276.0846775277727
 30
0.0
 11
115.8073113306286
 21
-0.0000000000000568
 31
0.0
  0
LINE
  5
41E
330
1F
100
AcDbEntity
  8
isoy
100
AcDbLine
 10
593.9999999999999
 20
286.374329495324
 30
0.0
 11
97.98511133062857
 21
-0.0000000000000568
 31
0.0
  0
LINE
  5
41F
330
1F
100
AcDbEntity
  8
isoy
100
AcDbLine
 10
593.9999999999999
 20
296.6639814628754
 30
0.0
 11
80.1629113306285
 21
-0.0000000000000568
 31
0.0
  0
LWPOLYLINE
  5
425
330
1F
100
AcDbEntity
  8
0
100
AcDbPolyline
 90
        4
 70
     1
 43
0.0
 10
0.0
 20
0.0
 10
0.0
 20
420.0
 10
593.9999999999999
 20
420.0
 10
593.9999999999999
 20
0.0
  0
LINE
  5
428
330
1F
100
AcDbEntity
  8
isoy
100
AcDbLine
 10
593.9999999999999
 20
306.9536334304268
 30
0.0
 11
62.34071133062821
 21
-0.0000000000001705
 31
0.0
  0
LINE
  5
429
102
{ACAD_REACTORS
330
664
102
}
330
1F
100
AcDbEntity
  8
isoy
100
AcDbLine
 10
593.9999999999999
 20
317.2432853979781
 30
0.0
 11
44.5185113306286
 21
0.0000000000001137
 31
0.0
  0
LINE
  5
42A
102
{ACAD_REACTORS
330
655
102
}
330
1F
100
AcDbEntity
  8
isoy
100
AcDbLine
 10
593.9999999999999
 20
327.5329373655296
 30
0.0
 11
26.69631133062853
 21
0.0
 31
0.0
  0
LINE
  5
42B
330
1F
100
AcDbEntity
  8
isoy
100
AcDbLine
 10
593.9999999999999
 20
337.8225893330808
 30
0.0
 11
8.874111330628466
 21
0.0
 31
0.0
  0
LINE
  5
42C
330
1F
100
AcDbEntity
  8
isoy
100
AcDbLine
 10
593.9999999999999
 20
348.1122413006321
 30
0.0
 11
0.0
 21
5.166181401994265
 31
0.0
  0
LINE
  5
42D
102
{ACAD_REACTORS
330
651
102
}
330
1F
100
AcDbEntity
  8
isoy
100
AcDbLine
 10
593.9999999999999
 20
358.4018932681836
 30
0.0
 11
0.0000000000001137
 21
15.4558333695457
 31
0.0
  0
LINE
  5
42E
330
1F
100
AcDbEntity
  8
isoy
100
AcDbLine
 10
593.9999999999999
 20
368.6915452357349
 30
0.0
 11
0.0
 21
25.74548533709697
 31
0.0
  0
LINE
  5
42F
330
1F
100
AcDbEntity
  8
isoy
100
AcDbLine
 10
593.9999999999999
 20
378.9811972032863
 30
0.0
 11
0.0
 21
36.03513730464834
 31
0.0
  0
LINE
  5
430
330
1F
100
AcDbEntity
  8
isoy
100
AcDbLine
 10
593.9999999999999
 20
389.2708491708376
 30
0.0
 11
0.0
 21
46.32478927219972
 31
0.0
  0
LINE
  5
431
102
{ACAD_REACTORS
330
661
102
}
330
1F
100
AcDbEntity
  8
isoy
100
AcDbLine
 10
593.9999999999999
 20
399.5605011383889
 30
0.0
 11
0.0
 21
56.61444123975116
 31
0.0
  0
LINE
  5
432
330
1F
100
AcDbEntity
  8
isoy
100
AcDbLine
 10
593.9999999999999
 20
409.8501531059404
 30
0.0
 11
0.0
 21
66.90409320730248
 31
0.0
  0
LINE
  5
433
330
1F
100
AcDbEntity
  8
isoy
100
AcDbLine
 10
593.9999999999999
 20
420.1398050734917
 30
0.0
 11
0.0
 21
77.19374517485375
 31
0.0
  0
LINE
  5
434
330
1F
100
AcDbEntity
  8
isoy
100
AcDbLine
 10
575.9356505095566
 20
420.0
 30
0.0
 11
0.0
 21
87.48339714240507
 31
0.0
  0
LINE
  5
435
330
1F
100
AcDbEntity
  8
isoy
100
AcDbLine
 10
558.1134505095565
 20
420.0
 30
0.0
 11
0.0000000000001137
 21
97.77304910995645
 31
0.0
  0
LINE
  5
436
330
1F
100
AcDbEntity
  8
isoy
100
AcDbLine
 10
540.2912505095564
 20
420.0
 30
0.0
 11
0.0000000000001137
 21
108.0627010775078
 31
0.0
  0
LINE
  5
437
330
1F
100
AcDbEntity
  8
isoy
100
AcDbLine
 10
522.4690505095564
 20
420.0
 30
0.0
 11
0.0
 21
118.3523530450591
 31
0.0
  0
LINE
  5
438
330
1F
100
AcDbEntity
  8
isoy
100
AcDbLine
 10
504.6468505095565
 20
420.0
 30
0.0
 11
0.0
 21
128.6420050126106
 31
0.0
  0
LINE
  5
439
330
1F
100
AcDbEntity
  8
isoy
100
AcDbLine
 10
486.8246505095564
 20
420.0
 30
0.0
 11
0.0000000000001137
 21
138.931656980162
 31
0.0
  0
LINE
  5
43A
330
1F
100
AcDbEntity
  8
isoy
100
AcDbLine
 10
469.0024505095565
 20
420.0
 30
0.0
 11
0.0
 21
149.2213089477133
 31
0.0
  0
LINE
  5
43B
330
1F
100
AcDbEntity
  8
isoy
100
AcDbLine
 10
451.1802505095565
 20
420.0
 30
0.0
 11
-0.0000000000000568
 21
159.5109609152646
 31
0.0
  0
LINE
  5
43C
330
1F
100
AcDbEntity
  8
isoy
100
AcDbLine
 10
433.3580505095564
 20
420.0
 30
0.0
 11
-0.0000000000001137
 21
169.8006128828159
 31
0.0
  0
LINE
  5
43D
330
1F
100
AcDbEntity
  8
isoy
100
AcDbLine
 10
415.5358505095565
 20
420.0
 30
0.0
 11
-0.0000000000000568
 21
180.0902648503673
 31
0.0
  0
LINE
  5
43E
330
1F
100
AcDbEntity
  8
isoy
100
AcDbLine
 10
397.7136505095564
 20
420.0
 30
0.0
 11
-0.0000000000000568
 21
190.3799168179186
 31
0.0
  0
LINE
  5
43F
330
1F
100
AcDbEntity
  8
isoy
100
AcDbLine
 10
379.8914505095564
 20
420.0
 30
0.0
 11
0.0000000000002274
 21
200.6695687854702
 31
0.0
  0
LINE
  5
440
330
1F
100
AcDbEntity
  8
isoy
100
AcDbLine
 10
362.0692505095565
 20
420.0
 30
0.0
 11
0.0
 21
210.9592207530214
 31
0.0
  0
LINE
  5
441
330
1F
100
AcDbEntity
  8
isoy
100
AcDbLine
 10
344.2470505095564
 20
420.0
 30
0.0
 11
-0.0000000000001137
 21
221.2488727205727
 31
0.0
  0
LINE
  5
442
330
1F
100
AcDbEntity
  8
isoy
100
AcDbLine
 10
326.4248505095564
 20
420.0
 30
0.0
 11
0.0
 21
231.5385246881241
 31
0.0
  0
LINE
  5
443
330
1F
100
AcDbEntity
  8
isoy
100
AcDbLine
 10
308.6026505095564
 20
420.0
 30
0.0
 11
0.0
 21
241.8281766556754
 31
0.0
  0
LINE
  5
444
330
1F
100
AcDbEntity
  8
isoy
100
AcDbLine
 10
290.7804505095565
 20
420.0
 30
0.0
 11
0.0
 21
252.1178286232268
 31
0.0
  0
LINE
  5
445
330
1F
100
AcDbEntity
  8
isoy
100
AcDbLine
 10
272.9582505095564
 20
420.0
 30
0.0
 11
0.0000000000001137
 21
262.4074805907782
 31
0.0
  0
LINE
  5
446
330
1F
100
AcDbEntity
  8
isoy
100
AcDbLine
 10
255.1360505095564
 20
420.0
 30
0.0
 11
-0.0000000000000568
 21
272.6971325583295
 31
0.0
  0
LINE
  5
447
330
1F
100
AcDbEntity
  8
isoy
100
AcDbLine
 10
237.3138505095565
 20
420.0
 30
0.0
 11
-0.0000000000000568
 21
282.9867845258809
 31
0.0
  0
LINE
  5
448
330
1F
100
AcDbEntity
  8
isoy
100
AcDbLine
 10
219.4916505095563
 20
420.0
 30
0.0
 11
-0.0000000000000284
 21
293.2764364934322
 31
0.0
  0
LINE
  5
449
330
1F
100
AcDbEntity
  8
isoy
100
AcDbLine
 10
201.6694505095564
 20
420.0
 30
0.0
 11
0.0000000000000568
 21
303.5660884609837
 31
0.0
  0
LINE
  5
44A
330
1F
100
AcDbEntity
  8
isoy
100
AcDbLine
 10
183.8472505095565
 20
420.0
 30
0.0
 11
-0.0000000000000284
 21
313.855740428535
 31
0.0
  0
LINE
  5
44B
330
1F
100
AcDbEntity
  8
isoy
100
AcDbLine
 10
166.0250505095564
 20
420.0
 30
0.0
 11
-0.0000000000000853
 21
324.1453923960863
 31
0.0
  0
LINE
  5
44C
330
1F
100
AcDbEntity
  8
isoy
100
AcDbLine
 10
148.2028505095564
 20
420.0
 30
0.0
 11
0.0
 21
334.4350443636377
 31
0.0
  0
LINE
  5
44D
330
1F
100
AcDbEntity
  8
isoy
100
AcDbLine
 10
130.3806505095563
 20
420.0
 30
0.0
 11
0.0
 21
344.7246963311891
 31
0.0
  0
LINE
  5
44E
330
1F
100
AcDbEntity
  8
isoy
100
AcDbLine
 10
112.5584505095563
 20
420.0
 30
0.0
 11
0.0
 21
355.0143482987405
 31
0.0
  0
LINE
  5
44F
330
1F
100
AcDbEntity
  8
isoy
100
AcDbLine
 10
94.73625050955637
 20
420.0
 30
0.0
 11
-0.0000000000000426
 21
365.3040002662917
 31
0.0
  0
LINE
  5
450
330
1F
100
AcDbEntity
  8
isoy
100
AcDbLine
 10
76.91405050955636
 20
420.0
 30
0.0
 11
0.0000000000000568
 21
375.5936522338432
 31
0.0
  0
LINE
  5
451
330
1F
100
AcDbEntity
  8
isoy
100
AcDbLine
 10
59.09185050955634
 20
420.0
 30
0.0
 11
0.0000000000000142
 21
385.8833042013945
 31
0.0
  0
LINE
  5
452
330
1F
100
AcDbEntity
  8
isoy
100
AcDbLine
 10
593.9999999999999
 20
80.58129014429696
 30
0.0
 11
454.4291113306285
 21
0.0
 31
0.0
  0
LINE
  5
453
330
1F
100
AcDbEntity
  8
isoy
100
AcDbLine
 10
593.9999999999999
 20
90.87094211184824
 30
0.0
 11
436.6069113306286
 21
0.0000000000000142
 31
0.0
  0
LINE
  5
454
330
1F
100
AcDbEntity
  8
isoy
100
AcDbLine
 10
593.9999999999999
 20
101.1605940793997
 30
0.0
 11
418.7847113306285
 21
0.0
 31
0.0
  0
LINE
  5
455
330
1F
100
AcDbEntity
  8
isoy
100
AcDbLine
 10
593.9999999999999
 20
111.450246046951
 30
0.0
 11
400.9625113306286
 21
0.0000000000000142
 31
0.0
  0
LINE
  5
456
330
1F
100
AcDbEntity
  8
isoy
100
AcDbLine
 10
593.9999999999999
 20
121.7398980145024
 30
0.0
 11
383.1403113306285
 21
-0.0000000000000284
 31
0.0
  0
LINE
  5
457
330
1F
100
AcDbEntity
  8
isoy
100
AcDbLine
 10
593.9999999999999
 20
132.0295499820537
 30
0.0
 11
365.3181113306285
 21
0.0
 31
0.0
  0
LINE
  5
458
330
1F
100
AcDbEntity
  8
isoy
100
AcDbLine
 10
593.9999999999999
 20
142.3192019496051
 30
0.0
 11
347.4959113306285
 21
0.0000000000000284
 31
0.0
  0
LINE
  5
459
330
1F
100
AcDbEntity
  8
isoy
100
AcDbLine
 10
593.9999999999999
 20
152.6088539171564
 30
0.0
 11
329.6737113306284
 21
-0.0000000000000853
 31
0.0
  0
LINE
  5
45A
330
1F
100
AcDbEntity
  8
isoy
100
AcDbLine
 10
593.9999999999999
 20
162.8985058847078
 30
0.0
 11
311.8515113306285
 21
-0.0000000000000284
 31
0.0
  0
LINE
  5
45B
330
1F
100
AcDbEntity
  8
isoy
100
AcDbLine
 10
593.9999999999999
 20
173.1881578522591
 30
0.0
 11
294.0293113306285
 21
0.0000000000000568
 31
0.0
  0
LINE
  5
45C
330
1F
100
AcDbEntity
  8
isoy
100
AcDbLine
 10
593.9999999999999
 20
183.4778098198105
 30
0.0
 11
276.2071113306286
 21
0.0000000000000568
 31
0.0
  0
LINE
  5
45D
330
1F
100
AcDbEntity
  8
isoy
100
AcDbLine
 10
593.9999999999999
 20
193.7674617873618
 30
0.0
 11
258.3849113306285
 21
0.0
 31
0.0
  0
LINE
  5
45E
330
1F
100
AcDbEntity
  8
isoy
100
AcDbLine
 10
593.9999999999999
 20
204.0571137549132
 30
0.0
 11
240.5627113306284
 21
0.0
 31
0.0
  0
LINE
  5
45F
330
1F
100
AcDbEntity
  8
isoy
100
AcDbLine
 10
593.9999999999999
 20
214.3467657224645
 30
0.0
 11
222.7405113306285
 21
-0.0000000000000284
 31
0.0
  0
LINE
  5
460
330
1F
100
AcDbEntity
  8
isoy
100
AcDbLine
 10
593.9999999999999
 20
224.6364176900159
 30
0.0
 11
204.9183113306285
 21
0.0000000000000284
 31
0.0
  0
LINE
  5
461
330
1F
100
AcDbEntity
  8
isoy
100
AcDbLine
 10
593.9999999999999
 20
234.9260696575673
 30
0.0
 11
187.0961113306285
 21
0.0
 31
0.0
  0
LINE
  5
462
102
{ACAD_REACTORS
330
658
102
}
330
1F
100
AcDbEntity
  8
isoy
100
AcDbLine
 10
593.9999999999999
 20
245.2157216251186
 30
0.0
 11
169.2739113306285
 21
-0.0000000000000284
 31
0.0
  0
LINE
  5
46D
330
1F
100
AcDbEntity
  8
isoy
100
AcDbLine
 10
593.9999999999999
 20
8.55372637143746
 30
0.0
 11
579.1845113306285
 21
-0.0000000000000178
 31
0.0
  0
LINE
  5
46E
330
1F
100
AcDbEntity
  8
isoy
100
AcDbLine
 10
593.9999999999999
 20
18.84337833898882
 30
0.0
 11
561.3623113306285
 21
0.0000000000000178
 31
0.0
  0
LINE
  5
46F
330
1F
100
AcDbEntity
  8
isoy
100
AcDbLine
 10
593.9999999999999
 20
29.13303030654022
 30
0.0
 11
543.5401113306284
 21
0.0000000000000036
 31
0.0
  0
LINE
  5
470
330
1F
100
AcDbEntity
  8
isoy
100
AcDbLine
 10
593.9999999999999
 20
39.42268227409155
 30
0.0
 11
525.7179113306286
 21
0.0000000000000284
 31
0.0
  0
LINE
  5
471
330
1F
100
AcDbEntity
  8
isoy
100
AcDbLine
 10
593.9999999999999
 20
49.71233424164287
 30
0.0
 11
507.8957113306284
 21
-0.0000000000000071
 31
0.0
  0
LINE
  5
472
330
1F
100
AcDbEntity
  8
isoy
100
AcDbLine
 10
593.9999999999999
 20
60.00198620919428
 30
0.0
 11
490.0735113306284
 21
-0.0000000000000071
 31
0.0
  0
LINE
  5
473
330
1F
100
AcDbEntity
  8
isoy
100
AcDbLine
 10
593.9999999999999
 20
70.29163817674561
 30
0.0
 11
472.2513113306284
 21
-0.0000000000000284
 31
0.0
  0
LINE
  5
474
330
1F
100
AcDbEntity
  8
isoy
100
AcDbLine
 10
41.26965050955641
 20
420.0
 30
0.0
 11
-0.0000000000000071
 21
396.1729561689458
 31
0.0
  0
LINE
  5
475
330
1F
100
AcDbEntity
  8
isoy
100
AcDbLine
 10
23.44745050955644
 20
420.0
 30
0.0
 11
-0.0000000000000036
 21
406.4626081364971
 31
0.0
  0
LINE
  5
476
330
1F
100
AcDbEntity
  8
isoy
100
AcDbLine
 10
5.62525050955653
 20
420.0
 30
0.0
 11
0.0000000000000089
 21
416.7522601040484
 31
0.0
  0
IMAGE
  5
49D
330
1F
100
AcDbEntity
  8
image
160
                 8
310
0800000000000000
100
AcDbRasterImage
 90
        0
 10
53.21816735326797
 20
2.73706777020094
 30
0.0
 11
0.3174603174603174
 21
0.0
 31
0.0
 12
0.0
 22
0.3174603174603174
 32
0.0
 13
1320.0
 23
1263.0
340
49C
 70
    15
280
     0
281
    50
282
    50
283
     0
360
49E
 71
     1
 91
        2
 14
-0.5
 24
-0.5
 14
1319.5
 24
1262.5
290
     0
  0
LINE
  5
4AC
330
1F
100
AcDbEntity
  8
isoz
100
AcDbLine
 10
79.98684495813984
 20
0.0
 30
0.0
 11
79.98684495813998
 21
420.0
 31
0.0
  0
LINE
  5
4AD
330
1F
100
AcDbEntity
  8
isoz
100
AcDbLine
 10
88.89794495813985
 20
0.0
 30
0.0
 11
88.89794495813999
 21
420.0
 31
0.0
  0
LINE
  5
4AE
330
1F
100
AcDbEntity
  8
isoz
100
AcDbLine
 10
97.80904495813985
 20
0.0
 30
0.0
 11
97.80904495813999
 21
420.0
 31
0.0
  0
LINE
  5
4AF
330
1F
100
AcDbEntity
  8
isoz
100
AcDbLine
 10
106.7201449581399
 20
0.0
 30
0.0
 11
106.72014495814
 21
420.0
 31
0.0
  0
LINE
  5
4B0
330
1F
100
AcDbEntity
  8
isoz
100
AcDbLine
 10
115.6312449581399
 20
0.0
 30
0.0
 11
115.63124495814
 21
420.0
 31
0.0
  0
LINE
  5
4B3
330
1F
100
AcDbEntity
  8
isoz
100
AcDbLine
 10
160.1867449581399
 20
0.0
 30
0.0
 11
160.18674495814
 21
420.0
 31
0.0
  0
LINE
  5
4B4
330
1F
100
AcDbEntity
  8
isoz
100
AcDbLine
 10
151.2756449581399
 20
0.0
 30
0.0
 11
151.27564495814
 21
420.0
 31
0.0
  0
LINE
  5
4B5
330
1F
100
AcDbEntity
  8
isoz
100
AcDbLine
 10
133.4534449581399
 20
0.0
 30
0.0
 11
133.45344495814
 21
420.0
 31
0.0
  0
LINE
  5
4B6
330
1F
100
AcDbEntity
  8
isoz
100
AcDbLine
 10
124.5423449581399
 20
0.0
 30
0.0
 11
124.54234495814
 21
420.0
 31
0.0
  0
LINE
  5
4B7
330
1F
100
AcDbEntity
  8
isoz
100
AcDbLine
 10
142.3645449581399
 20
0.0
 30
0.0
 11
142.36454495814
 21
420.0
 31
0.0
  0
LINE
  5
4B8
330
1F
100
AcDbEntity
  8
isoz
100
AcDbLine
 10
204.7422449581399
 20
0.0
 30
0.0
 11
204.74224495814
 21
420.0
 31
0.0
  0
LINE
  5
4B9
330
1F
100
AcDbEntity
  8
isoz
100
AcDbLine
 10
195.8311449581399
 20
0.0
 30
0.0
 11
195.83114495814
 21
420.0
 31
0.0
  0
LINE
  5
4BA
330
1F
100
AcDbEntity
  8
isoz
100
AcDbLine
 10
178.0089449581399
 20
0.0
 30
0.0
 11
178.00894495814
 21
420.0
 31
0.0
  0
LINE
  5
4BB
330
1F
100
AcDbEntity
  8
isoz
100
AcDbLine
 10
169.0978449581399
 20
0.0
 30
0.0
 11
169.09784495814
 21
420.0
 31
0.0
  0
LINE
  5
4BC
330
1F
100
AcDbEntity
  8
isoz
100
AcDbLine
 10
186.9200449581399
 20
0.0
 30
0.0
 11
186.92004495814
 21
420.0
 31
0.0
  0
LINE
  5
4BD
330
1F
100
AcDbEntity
  8
isoz
100
AcDbLine
 10
249.2977449581399
 20
0.0
 30
0.0
 11
249.2977449581401
 21
420.0
 31
0.0
  0
LINE
  5
4BE
330
1F
100
AcDbEntity
  8
isoz
100
AcDbLine
 10
240.3866449581399
 20
0.0
 30
0.0
 11
240.3866449581401
 21
420.0
 31
0.0
  0
LINE
  5
4BF
330
1F
100
AcDbEntity
  8
isoz
100
AcDbLine
 10
222.5644449581399
 20
0.0
 30
0.0
 11
222.5644449581401
 21
420.0
 31
0.0
  0
LINE
  5
4C0
330
1F
100
AcDbEntity
  8
isoz
100
AcDbLine
 10
213.6533449581399
 20
0.0
 30
0.0
 11
213.6533449581401
 21
420.0
 31
0.0
  0
LINE
  5
4C1
330
1F
100
AcDbEntity
  8
isoz
100
AcDbLine
 10
231.4755449581399
 20
0.0
 30
0.0
 11
231.4755449581401
 21
420.0
 31
0.0
  0
LINE
  5
4C2
330
1F
100
AcDbEntity
  8
isoz
100
AcDbLine
 10
293.85324495814
 20
0.0
 30
0.0
 11
293.8532449581401
 21
420.0
 31
0.0
  0
LINE
  5
4C3
330
1F
100
AcDbEntity
  8
isoz
100
AcDbLine
 10
284.9421449581399
 20
0.0
 30
0.0
 11
284.9421449581401
 21
420.0
 31
0.0
  0
LINE
  5
4C4
330
1F
100
AcDbEntity
  8
isoz
100
AcDbLine
 10
267.11994495814
 20
0.0
 30
0.0
 11
267.1199449581401
 21
420.0
 31
0.0
  0
LINE
  5
4C5
330
1F
100
AcDbEntity
  8
isoz
100
AcDbLine
 10
258.2088449581399
 20
0.0
 30
0.0
 11
258.20884495814
 21
420.0
 31
0.0
  0
LINE
  5
4C6
330
1F
100
AcDbEntity
  8
isoz
100
AcDbLine
 10
276.0310449581399
 20
0.0
 30
0.0
 11
276.0310449581401
 21
420.0
 31
0.0
  0
LINE
  5
4C7
330
1F
100
AcDbEntity
  8
isoz
100
AcDbLine
 10
302.7643449581399
 20
0.0
 30
0.0
 11
302.7643449581401
 21
420.0
 31
0.0
  0
LINE
  5
4C8
330
1F
100
AcDbEntity
  8
isoz
100
AcDbLine
 10
311.6754449581399
 20
0.0
 30
0.0
 11
311.6754449581401
 21
420.0
 31
0.0
  0
LINE
  5
4C9
330
1F
100
AcDbEntity
  8
isoz
100
AcDbLine
 10
320.5865449581399
 20
0.0
 30
0.0
 11
320.5865449581401
 21
420.0
 31
0.0
  0
LINE
  5
4CA
330
1F
100
AcDbEntity
  8
isoz
100
AcDbLine
 10
329.49764495814
 20
0.0
 30
0.0
 11
329.4976449581401
 21
420.0
 31
0.0
  0
LINE
  5
4CB
330
1F
100
AcDbEntity
  8
isoz
100
AcDbLine
 10
338.4087449581399
 20
0.0
 30
0.0
 11
338.4087449581401
 21
420.0
 31
0.0
  0
LINE
  5
4CC
330
1F
100
AcDbEntity
  8
isoz
100
AcDbLine
 10
382.9642449581399
 20
0.0
 30
0.0
 11
382.9642449581401
 21
420.0
 31
0.0
  0
LINE
  5
4CD
330
1F
100
AcDbEntity
  8
isoz
100
AcDbLine
 10
374.05314495814
 20
0.0
 30
0.0
 11
374.0531449581401
 21
420.0
 31
0.0
  0
LINE
  5
4CE
330
1F
100
AcDbEntity
  8
isoz
100
AcDbLine
 10
356.23094495814
 20
0.0
 30
0.0
 11
356.2309449581401
 21
420.0
 31
0.0
  0
LINE
  5
4CF
102
{ACAD_REACTORS
330
658
102
}
330
1F
100
AcDbEntity
  8
isoz
100
AcDbLine
 10
347.3198449581399
 20
0.0
 30
0.0
 11
347.3198449581401
 21
420.0
 31
0.0
  0
LINE
  5
4D0
330
1F
100
AcDbEntity
  8
isoz
100
AcDbLine
 10
365.14204495814
 20
0.0
 30
0.0
 11
365.1420449581401
 21
420.0
 31
0.0
  0
LINE
  5
4D1
330
1F
100
AcDbEntity
  8
isoz
100
AcDbLine
 10
427.51974495814
 20
0.0
 30
0.0
 11
427.5197449581401
 21
420.0
 31
0.0
  0
LINE
  5
4D2
330
1F
100
AcDbEntity
  8
isoz
100
AcDbLine
 10
418.60864495814
 20
0.0
 30
0.0
 11
418.6086449581401
 21
420.0
 31
0.0
  0
LINE
  5
4D3
330
1F
100
AcDbEntity
  8
isoz
100
AcDbLine
 10
400.78644495814
 20
0.0
 30
0.0
 11
400.7864449581401
 21
420.0
 31
0.0
  0
LINE
  5
4D4
330
1F
100
AcDbEntity
  8
isoz
100
AcDbLine
 10
391.87534495814
 20
0.0
 30
0.0
 11
391.8753449581401
 21
420.0
 31
0.0
  0
LINE
  5
4D5
330
1F
100
AcDbEntity
  8
isoz
100
AcDbLine
 10
409.69754495814
 20
0.0
 30
0.0
 11
409.6975449581402
 21
420.0
 31
0.0
  0
LINE
  5
4D6
330
1F
100
AcDbEntity
  8
isoz
100
AcDbLine
 10
472.07524495814
 20
0.0
 30
0.0
 11
472.0752449581402
 21
420.0
 31
0.0
  0
LINE
  5
4D7
330
1F
100
AcDbEntity
  8
isoz
100
AcDbLine
 10
463.16414495814
 20
0.0
 30
0.0
 11
463.1641449581401
 21
420.0
 31
0.0
  0
LINE
  5
4D8
330
1F
100
AcDbEntity
  8
isoz
100
AcDbLine
 10
445.34194495814
 20
0.0
 30
0.0
 11
445.3419449581402
 21
420.0
 31
0.0
  0
LINE
  5
4D9
330
1F
100
AcDbEntity
  8
isoz
100
AcDbLine
 10
436.43084495814
 20
0.0
 30
0.0
 11
436.4308449581401
 21
420.0
 31
0.0
  0
LINE
  5
4DA
330
1F
100
AcDbEntity
  8
isoz
100
AcDbLine
 10
454.25304495814
 20
0.0
 30
0.0
 11
454.2530449581402
 21
420.0
 31
0.0
  0
LINE
  5
4DB
330
1F
100
AcDbEntity
  8
isoz
100
AcDbLine
 10
516.63074495814
 20
0.0
 30
0.0
 11
516.63074495814
 21
420.0
 31
0.0
  0
LINE
  5
4DC
330
1F
100
AcDbEntity
  8
isoz
100
AcDbLine
 10
507.71964495814
 20
0.0
 30
0.0
 11
507.7196449581402
 21
420.0
 31
0.0
  0
LINE
  5
4DD
330
1F
100
AcDbEntity
  8
isoz
100
AcDbLine
 10
489.8974449581401
 20
0.0
 30
0.0
 11
489.8974449581402
 21
420.0
 31
0.0
  0
LINE
  5
4DE
330
1F
100
AcDbEntity
  8
isoz
100
AcDbLine
 10
480.98634495814
 20
0.0
 30
0.0
 11
480.9863449581402
 21
420.0
 31
0.0
  0
LINE
  5
4DF
330
1F
100
AcDbEntity
  8
isoz
100
AcDbLine
 10
498.80854495814
 20
0.0
 30
0.0
 11
498.8085449581402
 21
420.0
 31
0.0
  0
LINE
  5
4E0
330
1F
100
AcDbEntity
  8
isoz
100
AcDbLine
 10
525.5418449581398
 20
0.0
 30
0.0
 11
525.54184495814
 21
420.0
 31
0.0
  0
LINE
  5
4E1
330
1F
100
AcDbEntity
  8
isoz
100
AcDbLine
 10
534.4529449581398
 20
0.0
 30
0.0
 11
534.45294495814
 21
420.0
 31
0.0
  0
LINE
  5
4E2
330
1F
100
AcDbEntity
  8
isoz
100
AcDbLine
 10
543.3640449581399
 20
0.0
 30
0.0
 11
543.3640449581401
 21
420.0
 31
0.0
  0
LINE
  5
4E3
330
1F
100
AcDbEntity
  8
isoz
100
AcDbLine
 10
552.2751449581399
 20
0.0
 30
0.0
 11
552.2751449581401
 21
420.0
 31
0.0
  0
LINE
  5
4E4
330
1F
100
AcDbEntity
  8
isoz
100
AcDbLine
 10
561.1862449581399
 20
0.0
 30
0.0
 11
561.1862449581402
 21
420.0
 31
0.0
  0
LINE
  5
4E7
330
1F
100
AcDbEntity
  8
isoz
100
AcDbLine
 10
579.00844495814
 20
0.0
 30
0.0
 11
579.00844495814
 21
420.0
 31
0.0
  0
LINE
  5
4E8
330
1F
100
AcDbEntity
  8
isoz
100
AcDbLine
 10
570.09734495814
 20
0.0
 30
0.0
 11
570.09734495814
 21
420.0
 31
0.0
  0
LINE
  5
4E9
330
1F
100
AcDbEntity
  8
isoz
100
AcDbLine
 10
587.91954495814
 20
0.0
 30
0.0
 11
587.91954495814
 21
420.0
 31
0.0
  0
LINE
  5
4FB
330
1F
100
AcDbEntity
  8
isoz
100
AcDbLine
 10
8.698044958139795
 20
0.0
 30
0.0
 11
8.698044958139944
 21
420.0
 31
0.0
  0
LINE
  5
4FC
330
1F
100
AcDbEntity
  8
isoz
100
AcDbLine
 10
17.6091449581398
 20
0.0
 30
0.0
 11
17.60914495813995
 21
420.0
 31
0.0
  0
LINE
  5
4FD
330
1F
100
AcDbEntity
  8
isoz
100
AcDbLine
 10
26.52024495813981
 20
0.0
 30
0.0
 11
26.52024495813995
 21
420.0
 31
0.0
  0
LINE
  5
4FE
330
1F
100
AcDbEntity
  8
isoz
100
AcDbLine
 10
35.43134495813982
 20
0.0
 30
0.0
 11
35.43134495813996
 21
420.0
 31
0.0
  0
LINE
  5
4FF
330
1F
100
AcDbEntity
  8
isoz
100
AcDbLine
 10
53.25354495813983
 20
0.0
 30
0.0
 11
53.25354495813997
 21
420.0
 31
0.0
  0
LINE
  5
500
330
1F
100
AcDbEntity
  8
isoz
100
AcDbLine
 10
44.34244495813982
 20
0.0
 30
0.0
 11
44.34244495813996
 21
420.0
 31
0.0
  0
LINE
  5
501
330
1F
100
AcDbEntity
  8
isoz
100
AcDbLine
 10
62.16464495813983
 20
0.0
 30
0.0
 11
62.16464495813997
 21
420.0
 31
0.0
  0
LINE
  5
50D
330
1F
100
AcDbEntity
  8
grid
100
AcDbLine
 10
71.07574495813984
 20
-0.0000000000000009
 30
0.0
 11
71.07574495813998
 21
420.0000000000001
 31
0.0
  0
LINE
  5
50E
330
1F
100
AcDbEntity
  8
grid
100
AcDbLine
 10
79.98684495813984
 20
-0.0000000000000009
 30
0.0
 11
79.98684495813998
 21
420.0000000000001
 31
0.0
  0
LINE
  5
50F
330
1F
100
AcDbEntity
  8
grid
100
AcDbLine
 10
88.89794495813985
 20
-0.0000000000000009
 30
0.0
 11
88.89794495813999
 21
420.0000000000001
 31
0.0
  0
LINE
  5
510
330
1F
100
AcDbEntity
  8
grid
100
AcDbLine
 10
97.80904495813985
 20
-0.0000000000000009
 30
0.0
 11
97.80904495813999
 21
420.0000000000001
 31
0.0
  0
LINE
  5
511
330
1F
100
AcDbEntity
  8
grid
100
AcDbLine
 10
106.7201449581399
 20
-0.0000000000000009
 30
0.0
 11
106.72014495814
 21
420.0000000000001
 31
0.0
  0
LINE
  5
512
330
1F
100
AcDbEntity
  8
grid
100
AcDbLine
 10
115.6312449581399
 20
-0.0000000000000009
 30
0.0
 11
115.63124495814
 21
420.0000000000001
 31
0.0
  0
LINE
  5
513
330
1F
100
AcDbEntity
  8
grid
100
AcDbLine
 10
160.1867449581399
 20
-0.0000000000000009
 30
0.0
 11
160.18674495814
 21
420.0000000000001
 31
0.0
  0
LINE
  5
514
330
1F
100
AcDbEntity
  8
grid
100
AcDbLine
 10
151.2756449581399
 20
-0.0000000000000009
 30
0.0
 11
151.27564495814
 21
420.0000000000001
 31
0.0
  0
LINE
  5
515
330
1F
100
AcDbEntity
  8
grid
100
AcDbLine
 10
133.4534449581399
 20
-0.0000000000000009
 30
0.0
 11
133.45344495814
 21
420.0000000000001
 31
0.0
  0
LINE
  5
516
330
1F
100
AcDbEntity
  8
grid
100
AcDbLine
 10
124.5423449581399
 20
-0.0000000000000009
 30
0.0
 11
124.54234495814
 21
420.0000000000001
 31
0.0
  0
LINE
  5
517
330
1F
100
AcDbEntity
  8
grid
100
AcDbLine
 10
142.3645449581399
 20
-0.0000000000000009
 30
0.0
 11
142.36454495814
 21
420.0000000000001
 31
0.0
  0
LINE
  5
518
330
1F
100
AcDbEntity
  8
grid
100
AcDbLine
 10
204.7422449581399
 20
-0.0000000000000009
 30
0.0
 11
204.74224495814
 21
420.0000000000001
 31
0.0
  0
LINE
  5
519
330
1F
100
AcDbEntity
  8
grid
100
AcDbLine
 10
195.8311449581399
 20
-0.0000000000000009
 30
0.0
 11
195.83114495814
 21
420.0000000000001
 31
0.0
  0
LINE
  5
51A
102
{ACAD_REACTORS
330
651
102
}
330
1F
100
AcDbEntity
  8
grid
100
AcDbLine
 10
178.0089449581399
 20
-0.0000000000000009
 30
0.0
 11
178.00894495814
 21
420.0000000000001
 31
0.0
  0
LINE
  5
51B
330
1F
100
AcDbEntity
  8
grid
100
AcDbLine
 10
169.0978449581399
 20
-0.0000000000000009
 30
0.0
 11
169.09784495814
 21
420.0000000000001
 31
0.0
  0
LINE
  5
51C
330
1F
100
AcDbEntity
  8
grid
100
AcDbLine
 10
186.9200449581399
 20
-0.0000000000000009
 30
0.0
 11
186.92004495814
 21
420.0000000000001
 31
0.0
  0
LINE
  5
51D
330
1F
100
AcDbEntity
  8
grid
100
AcDbLine
 10
249.2977449581399
 20
-0.0000000000000009
 30
0.0
 11
249.2977449581401
 21
420.0000000000001
 31
0.0
  0
LINE
  5
51E
330
1F
100
AcDbEntity
  8
grid
100
AcDbLine
 10
240.3866449581399
 20
-0.0000000000000009
 30
0.0
 11
240.3866449581401
 21
420.0000000000001
 31
0.0
  0
LINE
  5
51F
330
1F
100
AcDbEntity
  8
grid
100
AcDbLine
 10
222.5644449581399
 20
-0.0000000000000009
 30
0.0
 11
222.5644449581401
 21
420.0000000000001
 31
0.0
  0
LINE
  5
520
330
1F
100
AcDbEntity
  8
grid
100
AcDbLine
 10
213.6533449581399
 20
-0.0000000000000009
 30
0.0
 11
213.6533449581401
 21
420.0000000000001
 31
0.0
  0
LINE
  5
521
330
1F
100
AcDbEntity
  8
grid
100
AcDbLine
 10
231.4755449581399
 20
-0.0000000000000009
 30
0.0
 11
231.4755449581401
 21
420.0000000000001
 31
0.0
  0
LINE
  5
522
330
1F
100
AcDbEntity
  8
grid
100
AcDbLine
 10
293.85324495814
 20
-0.0000000000000009
 30
0.0
 11
293.8532449581401
 21
420.0000000000001
 31
0.0
  0
LINE
  5
523
330
1F
100
AcDbEntity
  8
grid
100
AcDbLine
 10
284.9421449581399
 20
-0.0000000000000009
 30
0.0
 11
284.9421449581401
 21
420.0000000000001
 31
0.0
  0
LINE
  5
524
330
1F
100
AcDbEntity
  8
grid
100
AcDbLine
 10
267.11994495814
 20
-0.0000000000000009
 30
0.0
 11
267.1199449581401
 21
420.0000000000001
 31
0.0
  0
LINE
  5
525
330
1F
100
AcDbEntity
  8
grid
100
AcDbLine
 10
258.2088449581399
 20
-0.0000000000000009
 30
0.0
 11
258.20884495814
 21
420.0000000000001
 31
0.0
  0
LINE
  5
526
330
1F
100
AcDbEntity
  8
grid
100
AcDbLine
 10
276.0310449581399
 20
-0.0000000000000009
 30
0.0
 11
276.0310449581401
 21
420.0000000000001
 31
0.0
  0
LINE
  5
527
330
1F
100
AcDbEntity
  8
grid
100
AcDbLine
 10
302.7643449581399
 20
-0.0000000000000009
 30
0.0
 11
302.7643449581401
 21
420.0000000000001
 31
0.0
  0
LINE
  5
528
330
1F
100
AcDbEntity
  8
grid
100
AcDbLine
 10
311.6754449581399
 20
-0.0000000000000009
 30
0.0
 11
311.6754449581401
 21
420.0000000000001
 31
0.0
  0
LINE
  5
529
330
1F
100
AcDbEntity
  8
grid
100
AcDbLine
 10
320.5865449581399
 20
-0.0000000000000009
 30
0.0
 11
320.5865449581401
 21
420.0000000000001
 31
0.0
  0
LINE
  5
52A
330
1F
100
AcDbEntity
  8
grid
100
AcDbLine
 10
329.49764495814
 20
-0.0000000000000009
 30
0.0
 11
329.4976449581401
 21
420.0000000000001
 31
0.0
  0
LINE
  5
52B
330
1F
100
AcDbEntity
  8
grid
100
AcDbLine
 10
338.4087449581399
 20
-0.0000000000000009
 30
0.0
 11
338.4087449581401
 21
420.0000000000001
 31
0.0
  0
LINE
  5
52C
330
1F
100
AcDbEntity
  8
grid
100
AcDbLine
 10
382.9642449581399
 20
-0.0000000000000009
 30
0.0
 11
382.9642449581401
 21
420.0000000000001
 31
0.0
  0
LINE
  5
52D
330
1F
100
AcDbEntity
  8
grid
100
AcDbLine
 10
374.05314495814
 20
-0.0000000000000009
 30
0.0
 11
374.0531449581401
 21
420.0000000000001
 31
0.0
  0
LINE
  5
52E
330
1F
100
AcDbEntity
  8
grid
100
AcDbLine
 10
356.23094495814
 20
-0.0000000000000009
 30
0.0
 11
356.2309449581401
 21
420.0000000000001
 31
0.0
  0
LINE
  5
52F
330
1F
100
AcDbEntity
  8
grid
100
AcDbLine
 10
347.3198449581399
 20
-0.0000000000000009
 30
0.0
 11
347.3198449581401
 21
420.0000000000001
 31
0.0
  0
LINE
  5
530
330
1F
100
AcDbEntity
  8
grid
100
AcDbLine
 10
365.14204495814
 20
-0.0000000000000009
 30
0.0
 11
365.1420449581401
 21
420.0000000000001
 31
0.0
  0
LINE
  5
531
330
1F
100
AcDbEntity
  8
grid
100
AcDbLine
 10
427.51974495814
 20
-0.0000000000000009
 30
0.0
 11
427.5197449581401
 21
420.0000000000001
 31
0.0
  0
LINE
  5
532
330
1F
100
AcDbEntity
  8
grid
100
AcDbLine
 10
418.60864495814
 20
-0.0000000000000009
 30
0.0
 11
418.6086449581401
 21
420.0000000000001
 31
0.0
  0
LINE
  5
533
330
1F
100
AcDbEntity
  8
grid
100
AcDbLine
 10
400.78644495814
 20
-0.0000000000000009
 30
0.0
 11
400.7864449581401
 21
420.0000000000001
 31
0.0
  0
LINE
  5
534
330
1F
100
AcDbEntity
  8
grid
100
AcDbLine
 10
391.87534495814
 20
-0.0000000000000009
 30
0.0
 11
391.8753449581401
 21
420.0000000000001
 31
0.0
  0
LINE
  5
535
330
1F
100
AcDbEntity
  8
grid
100
AcDbLine
 10
409.69754495814
 20
-0.0000000000000009
 30
0.0
 11
409.6975449581402
 21
420.0000000000001
 31
0.0
  0
LINE
  5
536
330
1F
100
AcDbEntity
  8
grid
100
AcDbLine
 10
472.07524495814
 20
-0.0000000000000009
 30
0.0
 11
472.0752449581402
 21
420.0000000000001
 31
0.0
  0
LINE
  5
537
330
1F
100
AcDbEntity
  8
grid
100
AcDbLine
 10
463.16414495814
 20
-0.0000000000000009
 30
0.0
 11
463.1641449581401
 21
420.0000000000001
 31
0.0
  0
LINE
  5
538
330
1F
100
AcDbEntity
  8
grid
100
AcDbLine
 10
445.34194495814
 20
-0.0000000000000009
 30
0.0
 11
445.3419449581402
 21
420.0000000000001
 31
0.0
  0
LINE
  5
539
330
1F
100
AcDbEntity
  8
grid
100
AcDbLine
 10
436.43084495814
 20
-0.0000000000000009
 30
0.0
 11
436.4308449581401
 21
420.0000000000001
 31
0.0
  0
LINE
  5
53A
330
1F
100
AcDbEntity
  8
grid
100
AcDbLine
 10
454.25304495814
 20
-0.0000000000000009
 30
0.0
 11
454.2530449581402
 21
420.0000000000001
 31
0.0
  0
LINE
  5
53B
330
1F
100
AcDbEntity
  8
grid
100
AcDbLine
 10
516.63074495814
 20
-0.0000000000000009
 30
0.0
 11
516.63074495814
 21
420.0000000000001
 31
0.0
  0
LINE
  5
53C
330
1F
100
AcDbEntity
  8
grid
100
AcDbLine
 10
507.71964495814
 20
-0.0000000000000009
 30
0.0
 11
507.7196449581402
 21
420.0000000000001
 31
0.0
  0
LINE
  5
53D
330
1F
100
AcDbEntity
  8
grid
100
AcDbLine
 10
489.8974449581401
 20
-0.0000000000000009
 30
0.0
 11
489.8974449581402
 21
420.0000000000001
 31
0.0
  0
LINE
  5
53E
330
1F
100
AcDbEntity
  8
grid
100
AcDbLine
 10
480.98634495814
 20
-0.0000000000000009
 30
0.0
 11
480.9863449581402
 21
420.0000000000001
 31
0.0
  0
LINE
  5
53F
330
1F
100
AcDbEntity
  8
grid
100
AcDbLine
 10
498.80854495814
 20
-0.0000000000000009
 30
0.0
 11
498.8085449581402
 21
420.0000000000001
 31
0.0
  0
LINE
  5
540
330
1F
100
AcDbEntity
  8
grid
100
AcDbLine
 10
525.5418449581398
 20
-0.0000000000000009
 30
0.0
 11
525.54184495814
 21
420.0000000000001
 31
0.0
  0
LINE
  5
541
330
1F
100
AcDbEntity
  8
grid
100
AcDbLine
 10
534.4529449581398
 20
-0.0000000000000009
 30
0.0
 11
534.45294495814
 21
420.0000000000001
 31
0.0
  0
LINE
  5
542
330
1F
100
AcDbEntity
  8
grid
100
AcDbLine
 10
543.3640449581399
 20
-0.0000000000000009
 30
0.0
 11
543.3640449581401
 21
420.0000000000001
 31
0.0
  0
LINE
  5
543
330
1F
100
AcDbEntity
  8
grid
100
AcDbLine
 10
552.2751449581399
 20
-0.0000000000000009
 30
0.0
 11
552.2751449581401
 21
420.0000000000001
 31
0.0
  0
LINE
  5
544
330
1F
100
AcDbEntity
  8
grid
100
AcDbLine
 10
561.1862449581399
 20
-0.0000000000000009
 30
0.0
 11
561.1862449581402
 21
420.0000000000001
 31
0.0
  0
LINE
  5
545
330
1F
100
AcDbEntity
  8
grid
100
AcDbLine
 10
579.00844495814
 20
-0.0000000000000009
 30
0.0
 11
579.00844495814
 21
420.0000000000001
 31
0.0
  0
LINE
  5
546
330
1F
100
AcDbEntity
  8
grid
100
AcDbLine
 10
570.09734495814
 20
-0.0000000000000009
 30
0.0
 11
570.09734495814
 21
420.0000000000001
 31
0.0
  0
LINE
  5
547
330
1F
100
AcDbEntity
  8
grid
100
AcDbLine
 10
587.91954495814
 20
-0.0000000000000009
 30
0.0
 11
587.91954495814
 21
420.0000000000001
 31
0.0
  0
LINE
  5
548
330
1F
100
AcDbEntity
  8
grid
100
AcDbLine
 10
8.698044958139795
 20
-0.0000000000000009
 30
0.0
 11
8.698044958139944
 21
420.0000000000001
 31
0.0
  0
LINE
  5
549
330
1F
100
AcDbEntity
  8
grid
100
AcDbLine
 10
17.6091449581398
 20
-0.0000000000000009
 30
0.0
 11
17.60914495813995
 21
420.0000000000001
 31
0.0
  0
LINE
  5
54A
330
1F
100
AcDbEntity
  8
grid
100
AcDbLine
 10
26.52024495813981
 20
-0.0000000000000009
 30
0.0
 11
26.52024495813995
 21
420.0000000000001
 31
0.0
  0
LINE
  5
54B
330
1F
100
AcDbEntity
  8
grid
100
AcDbLine
 10
35.43134495813982
 20
-0.0000000000000009
 30
0.0
 11
35.43134495813996
 21
420.0000000000001
 31
0.0
  0
LINE
  5
54C
330
1F
100
AcDbEntity
  8
grid
100
AcDbLine
 10
53.25354495813983
 20
-0.0000000000000009
 30
0.0
 11
53.25354495813997
 21
420.0000000000001
 31
0.0
  0
LINE
  5
54D
330
1F
100
AcDbEntity
  8
grid
100
AcDbLine
 10
44.34244495813982
 20
-0.0000000000000009
 30
0.0
 11
44.34244495813996
 21
420.0000000000001
 31
0.0
  0
LINE
  5
54E
330
1F
100
AcDbEntity
  8
grid
100
AcDbLine
 10
62.16464495813983
 20
-0.0000000000000009
 30
0.0
 11
62.16464495813997
 21
420.0000000000001
 31
0.0
  0
LINE
  5
553
330
1F
100
AcDbEntity
  8
grid
100
AcDbLine
 10
593.9999999999999
 20
10.18799999999984
 30
0.0
 11
-0.0000000000001137
 21
10.188
 31
0.0
  0
LINE
  5
5B0
330
1F
100
AcDbEntity
  8
grid
100
AcDbLine
 10
593.9999999999999
 20
20.47799999999984
 30
0.0
 11
-0.0000000000001137
 21
20.478
 31
0.0
  0
LINE
  5
5B1
330
1F
100
AcDbEntity
  8
grid
100
AcDbLine
 10
593.9999999999999
 20
30.76799999999984
 30
0.0
 11
-0.0000000000001137
 21
30.768
 31
0.0
  0
LINE
  5
5B2
330
1F
100
AcDbEntity
  8
grid
100
AcDbLine
 10
593.9999999999999
 20
41.05799999999984
 30
0.0
 11
-0.0000000000001137
 21
41.058
 31
0.0
  0
LINE
  5
5B3
330
1F
100
AcDbEntity
  8
grid
100
AcDbLine
 10
593.9999999999999
 20
51.34799999999984
 30
0.0
 11
-0.0000000000001137
 21
51.348
 31
0.0
  0
LINE
  5
5B4
330
1F
100
AcDbEntity
  8
grid
100
AcDbLine
 10
593.9999999999999
 20
61.63799999999984
 30
0.0
 11
-0.0000000000001137
 21
61.638
 31
0.0
  0
LINE
  5
5B5
330
1F
100
AcDbEntity
  8
grid
100
AcDbLine
 10
593.9999999999999
 20
71.92799999999983
 30
0.0
 11
-0.0000000000001137
 21
71.92799999999998
 31
0.0
  0
LINE
  5
5B6
330
1F
100
AcDbEntity
  8
grid
100
AcDbLine
 10
593.9999999999999
 20
82.21799999999983
 30
0.0
 11
-0.0000000000001137
 21
82.21799999999999
 31
0.0
  0
LINE
  5
5B7
330
1F
100
AcDbEntity
  8
grid
100
AcDbLine
 10
593.9999999999999
 20
92.50799999999983
 30
0.0
 11
-0.0000000000001137
 21
92.508
 31
0.0
  0
LINE
  5
5B8
102
{ACAD_REACTORS
330
655
102
}
330
1F
100
AcDbEntity
  8
grid
100
AcDbLine
 10
593.9999999999999
 20
102.7979999999998
 30
0.0
 11
-0.0000000000001137
 21
102.798
 31
0.0
  0
LINE
  5
5B9
102
{ACAD_REACTORS
330
65E
102
}
330
1F
100
AcDbEntity
  8
grid
100
AcDbLine
 10
593.9999999999999
 20
113.0879999999998
 30
0.0
 11
-0.0000000000001137
 21
113.088
 31
0.0
  0
LINE
  5
5BA
330
1F
100
AcDbEntity
  8
grid
100
AcDbLine
 10
593.9999999999999
 20
123.3779999999998
 30
0.0
 11
-0.0000000000001137
 21
123.378
 31
0.0
  0
LINE
  5
5BB
330
1F
100
AcDbEntity
  8
grid
100
AcDbLine
 10
593.9999999999999
 20
133.6679999999998
 30
0.0
 11
-0.0000000000001137
 21
133.668
 31
0.0
  0
LINE
  5
5BC
330
1F
100
AcDbEntity
  8
grid
100
AcDbLine
 10
593.9999999999999
 20
143.9579999999999
 30
0.0
 11
-0.0000000000001137
 21
143.958
 31
0.0
  0
LINE
  5
5BD
330
1F
100
AcDbEntity
  8
grid
100
AcDbLine
 10
593.9999999999999
 20
154.2479999999998
 30
0.0
 11
-0.0000000000001137
 21
154.248
 31
0.0
  0
LINE
  5
5BE
330
1F
100
AcDbEntity
  8
grid
100
AcDbLine
 10
593.9999999999999
 20
164.5379999999998
 30
0.0
 11
-0.0000000000001137
 21
164.538
 31
0.0
  0
LINE
  5
5BF
330
1F
100
AcDbEntity
  8
grid
100
AcDbLine
 10
593.9999999999999
 20
174.8279999999998
 30
0.0
 11
-0.0000000000001137
 21
174.828
 31
0.0
  0
LINE
  5
5C0
330
1F
100
AcDbEntity
  8
grid
100
AcDbLine
 10
593.9999999999999
 20
185.1179999999998
 30
0.0
 11
-0.0000000000001137
 21
185.118
 31
0.0
  0
LINE
  5
5C1
330
1F
100
AcDbEntity
  8
grid
100
AcDbLine
 10
593.9999999999999
 20
195.4079999999998
 30
0.0
 11
-0.0000000000001137
 21
195.408
 31
0.0
  0
LINE
  5
5C2
102
{ACAD_REACTORS
330
664
102
}
330
1F
100
AcDbEntity
  8
grid
100
AcDbLine
 10
593.9999999999999
 20
205.6979999999998
 30
0.0
 11
-0.0000000000001137
 21
205.698
 31
0.0
  0
LINE
  5
5C3
102
{ACAD_REACTORS
330
682
102
}
330
1F
100
AcDbEntity
  8
grid
100
AcDbLine
 10
593.9999999999999
 20
215.9879999999998
 30
0.0
 11
-0.0000000000001137
 21
215.988
 31
0.0
  0
LINE
  5
5C4
102
{ACAD_REACTORS
330
661
102
}
330
1F
100
AcDbEntity
  8
grid
100
AcDbLine
 10
593.9999999999999
 20
226.2779999999998
 30
0.0
 11
-0.0000000000001137
 21
226.278
 31
0.0
  0
LINE
  5
5C5
330
1F
100
AcDbEntity
  8
grid
100
AcDbLine
 10
593.9999999999999
 20
236.5679999999998
 30
0.0
 11
-0.0000000000001137
 21
236.568
 31
0.0
  0
LINE
  5
5C6
330
1F
100
AcDbEntity
  8
grid
100
AcDbLine
 10
593.9999999999999
 20
246.8579999999998
 30
0.0
 11
-0.0000000000001137
 21
246.858
 31
0.0
  0
LINE
  5
5C7
330
1F
100
AcDbEntity
  8
grid
100
AcDbLine
 10
593.9999999999999
 20
257.1479999999998
 30
0.0
 11
-0.0000000000001137
 21
257.148
 31
0.0
  0
LINE
  5
5C8
330
1F
100
AcDbEntity
  8
grid
100
AcDbLine
 10
593.9999999999999
 20
267.4379999999998
 30
0.0
 11
-0.0000000000001137
 21
267.438
 31
0.0
  0
LINE
  5
5C9
330
1F
100
AcDbEntity
  8
grid
100
AcDbLine
 10
593.9999999999999
 20
277.7279999999998
 30
0.0
 11
-0.0000000000001137
 21
277.728
 31
0.0
  0
LINE
  5
5CA
330
1F
100
AcDbEntity
  8
grid
100
AcDbLine
 10
593.9999999999999
 20
288.0179999999998
 30
0.0
 11
-0.0000000000001137
 21
288.018
 31
0.0
  0
LINE
  5
5CB
330
1F
100
AcDbEntity
  8
grid
100
AcDbLine
 10
593.9999999999999
 20
298.3079999999998
 30
0.0
 11
-0.0000000000001137
 21
298.308
 31
0.0
  0
LINE
  5
5CC
102
{ACAD_REACTORS
330
667
102
}
330
1F
100
AcDbEntity
  8
grid
100
AcDbLine
 10
593.9999999999999
 20
308.5979999999998
 30
0.0
 11
-0.0000000000001137
 21
308.598
 31
0.0
  0
LINE
  5
5CD
330
1F
100
AcDbEntity
  8
grid
100
AcDbLine
 10
593.9999999999999
 20
318.8879999999998
 30
0.0
 11
-0.0000000000001137
 21
318.888
 31
0.0
  0
LINE
  5
5CE
330
1F
100
AcDbEntity
  8
grid
100
AcDbLine
 10
593.9999999999999
 20
329.1779999999998
 30
0.0
 11
-0.0000000000001137
 21
329.178
 31
0.0
  0
LINE
  5
5CF
330
1F
100
AcDbEntity
  8
grid
100
AcDbLine
 10
593.9999999999999
 20
339.4679999999998
 30
0.0
 11
-0.0000000000001137
 21
339.468
 31
0.0
  0
LINE
  5
5D0
330
1F
100
AcDbEntity
  8
grid
100
AcDbLine
 10
593.9999999999999
 20
349.7579999999998
 30
0.0
 11
-0.0000000000001137
 21
349.758
 31
0.0
  0
LINE
  5
5D1
330
1F
100
AcDbEntity
  8
grid
100
AcDbLine
 10
593.9999999999999
 20
360.0479999999998
 30
0.0
 11
-0.0000000000001137
 21
360.048
 31
0.0
  0
LINE
  5
5D2
330
1F
100
AcDbEntity
  8
grid
100
AcDbLine
 10
593.9999999999999
 20
370.3379999999999
 30
0.0
 11
-0.0000000000001137
 21
370.338
 31
0.0
  0
LINE
  5
5D3
330
1F
100
AcDbEntity
  8
grid
100
AcDbLine
 10
593.9999999999999
 20
380.6279999999998
 30
0.0
 11
-0.0000000000001137
 21
380.628
 31
0.0
  0
LINE
  5
5D4
330
1F
100
AcDbEntity
  8
grid
100
AcDbLine
 10
593.9999999999999
 20
390.9179999999998
 30
0.0
 11
-0.0000000000001137
 21
390.918
 31
0.0
  0
LINE
  5
5D5
330
1F
100
AcDbEntity
  8
grid
100
AcDbLine
 10
593.9999999999999
 20
401.2079999999998
 30
0.0
 11
-0.0000000000001137
 21
401.208
 31
0.0
  0
LINE
  5
5D6
330
1F
100
AcDbEntity
  8
grid
100
AcDbLine
 10
593.9999999999999
 20
411.4979999999998
 30
0.0
 11
-0.0000000000001137
 21
411.498
 31
0.0
  0
MTEXT
  5
647
330
1F
100
AcDbEntity
  8
notes
100
AcDbMText
 10
509.25810775773
 20
414.4139163563834
 30
0.0
 40
3.5
 41
80.082
 46
82.27199999999999
 71
     1
 72
     5
  3
{\fD2Coding|b0|i0|c0|p0;\H0.714286x;Notes on grids and imported images from OpenSCAD \P\P3D isometric projection obtained in OpenSCAD is imported as PNG image.\Px: 53.218\Py: 2.737\PScale: 0.9\P\PBorder rectangle is  A2 trimmed sheet size 594x420\P\P
  1
Drawing grids are setup to match the isometric lines as follows:\PdX = 8.90788\PdY = 10.28721\P\PWith the imported image scaled and positioned as shown above, it aligns with this grid and the isometric grid line guide layers of this drawing. }
 73
     1
 44
1.0
1001
ACAD
1000
ACAD_MTEXT_DEFINED_HEIGHT_BEGIN
1070
    46
1040
82.27199999999999
1000
ACAD_MTEXT_DEFINED_HEIGHT_END
  0
LEADER
  5
64D
330
1F
100
AcDbEntity
  8
dim
100
AcDbLeader
  3
ISO-25
 76
     3
 10
204.6539999999999
 20
287.952
 30
0.0
 10
133.47
 20
329.088
 30
0.0
 10
62.18333206453593
 20
329.178
 30
0.0
  0
LEADER
  5
64F
102
{ACAD_REACTORS
330
651
102
}
102
{ACAD_XDICTIONARY
360
650
102
}
330
1F
100
AcDbEntity
  8
dim
100
AcDbLeader
  3
ISO-25
 76
     4
 10
178.0089449581399
 20
118.2293456592891
 30
0.0
 10
151.2702196691861
 20
102.7979999999999
 30
0.0
 10
133.4594730569776
 20
113.088
 30
0.0
 10
62.17067305697765
 20
113.088
 30
0.0
  0
LEADER
  5
652
102
{ACAD_REACTORS
330
655
102
}
102
{ACAD_XDICTIONARY
360
654
102
}
330
1F
100
AcDbEntity
  8
dim
100
AcDbLeader
  3
ISO-25
 76
     3
 10
204.7476702470936
 20
102.7979999999999
 30
0.0
 10
178.0089449581399
 20
87.36038975663502
 30
0.0
 10
151.2702196691861
 20
102.7979999999999
 30
0.0
  0
LEADER
  5
656
102
{ACAD_REACTORS
330
658
102
}
102
{ACAD_XDICTIONARY
360
657
102
}
330
1F
100
AcDbEntity
  8
dim
100
AcDbLeader
  3
ISO-25
 76
     4
 10
347.31984495814
 20
102.794867707962
 30
0.0
 10
400.7900618174424
 20
71.9279999999999
 30
0.0
 10
454.25304495814
 20
102.7948677079621
 30
0.0
 10
507.7142196691871
 20
102.7979999999999
 30
0.0
  0
LEADER
  5
659
102
{ACAD_REACTORS
330
65B
102
}
102
{ACAD_XDICTIONARY
360
65A
102
}
330
1F
100
AcDbEntity
  8
dim
100
AcDbLeader
  3
ISO-25
 76
     4
 10
380.9182951405371
 20
103.9760973859037
 30
0.0
 10
409.69754495814
 20
87.36038975663504
 30
0.0
 10
454.2470168593034
 20
113.0879999999998
 30
0.0
 10
507.7256730569773
 20
113.0879999999998
 30
0.0
  0
LEADER
  5
65C
102
{ACAD_REACTORS
330
65E
102
}
102
{ACAD_XDICTIONARY
360
65D
102
}
330
1F
100
AcDbEntity
  8
dim
100
AcDbLeader
  3
ISO-25
 76
     5
 10
293.8472168593027
 20
113.0879999999999
 30
0.0
 10
231.4755449581399
 20
77.07073778908374
 30
0.0
 10
231.4860941311055
 20
231.4216078702053
 30
0.0
 10
115.6481236348847
 20
298.3079999999999
 30
0.0
 10
62.1477662813952
 20
298.308
 30
0.0
  0
LEADER
  5
65F
102
{ACAD_REACTORS
330
661
102
}
102
{ACAD_XDICTIONARY
360
660
102
}
330
1F
100
AcDbEntity
  8
dim
100
AcDbLeader
  3
ISO-25
 76
     2
 10
293.8659039656984
 20
226.2779999999999
 30
0.0
 10
231.4832804078207
 20
190.2524433681932
 30
0.0
  0
LEADER
  5
662
102
{ACAD_REACTORS
330
664
102
}
102
{ACAD_XDICTIONARY
360
663
102
}
330
1F
100
AcDbEntity
  8
dim
100
AcDbLeader
  3
ISO-25
 76
     3
 10
400.7978983459309
 20
205.6979999999999
 30
0.0
 10
454.25304495814
 20
174.8224314808219
 30
0.0
 10
507.7292899162796
 20
174.8279999999998
 30
0.0
  0
LEADER
  5
665
102
{ACAD_REACTORS
330
667
102
}
102
{ACAD_XDICTIONARY
360
666
102
}
330
1F
100
AcDbEntity
  8
dim
100
AcDbLeader
  3
ISO-25
 76
     3
 10
311.6579634715121
 20
308.598
 30
0.0
 10
436.444106775582
 20
236.5679999999998
 30
0.0
 10
507.5775902695899
 20
236.5679999999999
 30
0.0
  0
MTEXT
  5
668
330
1F
100
AcDbEntity
  8
dim
100
AcDbMText
 10
507.5775902695899
 20
236.5679999999999
 30
0.0
 40
3.5
 41
69.69595256147545
 46
3.55968622100955
 71
     9
 72
     5
  1
{DOOR, TOP}
 73
     1
 44
1.0
1001
ACAD
1000
ACAD_MTEXT_DEFINED_HEIGHT_BEGIN
1070
    46
1040
3.55968622100955
1000
ACAD_MTEXT_DEFINED_HEIGHT_END
  0
INSERT
  5
669
330
1F
100
AcDbEntity
  8
dim
100
AcDbBlockReference
  2
FN
 10
51.19599107209496
 20
226.7098817616181
 30
0.0
  0
MTEXT
  5
66A
330
1F
100
AcDbEntity
  8
dim
100
AcDbMText
 10
51.19599107209496
 20
226.7098817616181
 30
0.0
 40
5.0
 41
12.0442672542908
 46
5.088676671214189
 71
     5
 72
     5
  1
{232}
 73
     1
 44
1.0
1001
ACAD
1000
ACAD_MTEXT_DEFINED_HEIGHT_BEGIN
1070
    46
1040
5.088676671214189
1000
ACAD_MTEXT_DEFINED_HEIGHT_END
  0
INSERT
  5
66C
330
1F
100
AcDbEntity
  8
dim
100
AcDbBlockReference
  2
FN
 10
51.19538826221117
 20
216.4198817616181
 30
0.0
  0
MTEXT
  5
66D
330
1F
100
AcDbEntity
  8
dim
100
AcDbMText
 10
51.19538826221117
 20
216.4198817616181
 30
0.0
 40
5.0
 41
12.0442672542908
 46
5.085266030013643
 71
     5
 72
     5
  1
{225}
 73
     1
 44
1.0
1001
ACAD
1000
ACAD_MTEXT_DEFINED_HEIGHT_BEGIN
1070
    46
1040
5.085266030013643
1000
ACAD_MTEXT_DEFINED_HEIGHT_END
  0
MTEXT
  5
66E
330
1F
100
AcDbEntity
  8
dim
100
AcDbMText
 10
38.7583580057774
 20
216.2677744212536
 30
0.0
 40
5.0
 41
24.19984196633768
 46
5.0
 71
     6
 72
     5
  1
{4 PL}
 73
     1
 44
1.0
1001
ACAD
1000
ACAD_MTEXT_DEFINED_HEIGHT_BEGIN
1070
    46
1040
5.0
1000
ACAD_MTEXT_DEFINED_HEIGHT_END
  0
INSERT
  5
66F
330
1F
100
AcDbEntity
  8
dim
100
AcDbBlockReference
  2
FN
 10
51.19478545232744
 20
206.1298817616181
 30
0.0
  0
MTEXT
  5
670
330
1F
100
AcDbEntity
  8
dim
100
AcDbMText
 10
51.19478545232744
 20
206.1298817616181
 30
0.0
 40
5.0
 41
12.0442672542908
 46
5.085266030013643
 71
     5
 72
     5
  1
{226}
 73
     1
 44
1.0
1001
ACAD
1000
ACAD_MTEXT_DEFINED_HEIGHT_BEGIN
1070
    46
1040
5.085266030013643
1000
ACAD_MTEXT_DEFINED_HEIGHT_END
  0
MTEXT
  5
671
330
1F
100
AcDbEntity
  8
dim
100
AcDbMText
 10
38.75775519589367
 20
205.9777744212536
 30
0.0
 40
5.0
 41
24.19984196633768
 46
5.0
 71
     6
 72
     5
  1
{4 PL}
 73
     1
 44
1.0
1001
ACAD
1000
ACAD_MTEXT_DEFINED_HEIGHT_BEGIN
1070
    46
1040
5.0
1000
ACAD_MTEXT_DEFINED_HEIGHT_END
  0
MTEXT
  5
672
330
1F
100
AcDbEntity
  8
dim
100
AcDbMText
 10
62.17121922604895
 20
226.278
 30
0.0
 40
3.5
 41
84.91753727479193
 46
3.55968622100955
 71
     7
 72
     5
  1
{ HINGES}
 73
     1
 44
1.0
1001
ACAD
1000
ACAD_MTEXT_DEFINED_HEIGHT_BEGIN
1070
    46
1040
3.55968622100955
1000
ACAD_MTEXT_DEFINED_HEIGHT_END
  0
MTEXT
  5
673
330
1F
100
AcDbEntity
  8
dim
100
AcDbMText
 10
62.18930352256154
 20
216.4198817616181
 30
0.0
 40
3.5
 41
84.91753727479193
 46
3.55968622100955
 71
     7
 72
     5
  1
{ SHCS M4x8}
 73
     1
 44
1.0
1001
ACAD
1000
ACAD_MTEXT_DEFINED_HEIGHT_BEGIN
1070
    46
1040
3.55968622100955
1000
ACAD_MTEXT_DEFINED_HEIGHT_END
  0
MTEXT
  5
674
330
1F
100
AcDbEntity
  8
dim
100
AcDbMText
 10
62.15856021849028
 20
205.5817061579239
 30
0.0
 40
3.5
 41
84.91753727479191
 46
3.55968622100955
 71
     7
 72
     5
  1
{ TEE-NUT M4}
 73
     1
 44
1.0
1001
ACAD
1000
ACAD_MTEXT_DEFINED_HEIGHT_BEGIN
1070
    46
1040
3.55968622100955
1000
ACAD_MTEXT_DEFINED_HEIGHT_END
  0
INSERT
  5
67C
102
{ACAD_REACTORS
330
688
102
}
330
1F
100
AcDbEntity
  8
dim
100
AcDbBlockReference
  2
A-MARK
 10
97.81868991627982
 20
174.8279999999999
 30
0.0
  0
LEADER
  5
686
102
{ACAD_REACTORS
330
688
102
}
102
{ACAD_XDICTIONARY
360
687
102
}
330
1F
100
AcDbEntity
  8
dim
100
AcDbLeader
  3
ISO-25
 76
     3
 10
97.81868991627982
 20
179.8279999999999
 30
0.0
 10
97.80904495813992
 20
226.2706913185783
 30
0.0
 10
62.16464495813991
 20
226.1508839434735
 30
0.0
  0
LEADER
  5
689
102
{ACAD_XDICTIONARY
360
68A
102
}
330
1F
100
AcDbEntity
  8
dim
100
AcDbLeader
  3
ISO-25
 76
     3
 10
97.81868991627982
 20
179.8279999999999
 30
0.0
 10
97.82110115581486
 20
215.988
 30
0.0
 10
62.2049320070937
 20
216.0042990895853
 30
0.0
  0
LEADER
  5
68C
102
{ACAD_XDICTIONARY
360
68D
102
}
330
1F
100
AcDbEntity
  8
dim
100
AcDbLeader
  3
ISO-25
 76
     3
 10
97.81868991627982
 20
179.8279999999999
 30
0.0
 10
97.82041411414565
 20
205.6848233981952
 30
0.0
 10
62.17609834593105
 20
205.698
 30
0.0
  0
MTEXT
  5
68F
330
1F
100
AcDbEntity
  8
dim
100
AcDbMText
 10
88.9274826424433
 20
175.1077744212536
 30
0.0
 40
5.0
 41
24.19984196633768
 46
12.80789090283147
 71
     6
 72
     5
  1
{12 PL}
 73
     1
 44
1.0
1001
ACAD
1000
ACAD_MTEXT_DEFINED_HEIGHT_BEGIN
1070
    46
1040
12.80789090283147
1000
ACAD_MTEXT_DEFINED_HEIGHT_END
  0
INSERT
  5
69A
330
1F
100
AcDbEntity
  8
dim
100
AcDbBlockReference
  2
A-MARK-SMALL
 10
165.1338738707473
 20
183.0127190489116
 30
0.0
  0
INSERT
  5
69B
330
1F
100
AcDbEntity
  8
dim
100
AcDbBlockReference
  2
A-MARK-SMALL
 10
165.2276858721188
 20
167.8151748267235
 30
0.0
  0
INSERT
  5
69C
330
1F
100
AcDbEntity
  8
dim
100
AcDbBlockReference
  2
A-MARK-SMALL
 10
165.3779316555654
 20
136.9451631254039
 30
0.0
  0
INSERT
  5
69D
330
1F
100
AcDbEntity
  8
dim
100
AcDbBlockReference
  2
A-MARK-SMALL
 10
226.3062613744626
 20
103.4879923237601
 30
0.0
  0
INSERT
  5
69E
330
1F
100
AcDbEntity
  8
dim
100
AcDbBlockReference
  2
A-MARK-SMALL
 10
226.1560155910161
 20
134.3580040250797
 30
0.0
  0
INSERT
  5
69F
330
1F
100
AcDbEntity
  8
dim
100
AcDbBlockReference
  2
A-MARK-SMALL
 10
226.0622035896446
 20
149.5555482472678
 30
0.0
  0
INSERT
  5
6A0
330
1F
100
AcDbEntity
  8
dim
100
AcDbBlockReference
  2
A-MARK-SMALL
 10
414.1508230953597
 20
133.0249162468009
 30
0.0
  0
INSERT
  5
6A1
330
1F
100
AcDbEntity
  8
dim
100
AcDbBlockReference
  2
A-MARK-SMALL
 10
414.0005773119131
 20
163.8949279481205
 30
0.0
  0
INSERT
  5
6A2
330
1F
100
AcDbEntity
  8
dim
100
AcDbBlockReference
  2
A-MARK-SMALL
 10
413.9067653105416
 20
179.0924721703086
 30
0.0
  0
INSERT
  5
6A3
330
1F
100
AcDbEntity
  8
dim
100
AcDbBlockReference
  2
A-MARK-SMALL
 10
333.9418488404708
 20
314.970725462535
 30
0.0
  0
INSERT
  5
6A4
330
1F
100
AcDbEntity
  8
dim
100
AcDbBlockReference
  2
A-MARK-SMALL
 10
317.2639197932436
 20
324.7102301207787
 30
0.0
  0
INSERT
  5
6A5
330
1F
100
AcDbEntity
  8
dim
100
AcDbBlockReference
  2
A-MARK-SMALL
 10
296.8504282947983
 20
336.3429182908486
 30
0.0
  0
LINE
  5
764
330
1F
100
AcDbEntity
  8
isoframe
370
    25
100
AcDbLine
 10
0.0
 20
0.0
 30
0.0
 11
593.9999999974004
 21
0.0000000000000426
 31
0.0
  0
LINE
  5
765
330
1F
100
AcDbEntity
  8
isoframe
370
    25
100
AcDbLine
 10
0.0
 20
0.0
 30
0.0
 11
0.0
 21
419.9999999981617
 31
0.0
  0
LINE
  5
766
330
1F
100
AcDbEntity
  8
isoframe
100
AcDbLine
 10
209.9999999990812
 20
9.999999999956273
 30
0.0
 11
209.9999999990812
 21
0.0000000000000426
 31
0.0
  0
LINE
  5
767
330
1F
100
AcDbEntity
  8
isoframe
370
    25
100
AcDbLine
 10
593.9999999974004
 20
419.9999999981617
 30
0.0
 11
593.9999999974004
 21
0.0
 31
0.0
  0
INSERT
  5
769
330
1F
100
AcDbEntity
  8
0
  6
Continuous
100
AcDbBlockReference
 66
     1
  2
EN_ISO_TitleBlock_bylayer
 10
583.9999999974441
 20
9.99999999995633
 30
0.0
 41
0.1999999999991246
 42
0.1999999999991246
 43
0.1999999999991246
  0
ATTRIB
  5
76A
330
769
100
AcDbEntity
  8
isoframe
100
AcDbText
 10
501.7215649334469
 20
17.91015377479685
 30
0.0
 40
4.999999999978115
  1
104300
 41
0.85
  7
TITLEBLOCK
100
AcDbAttribute
  2
MEC-No
 70
     0
280
     1
  0
ATTRIB
  5
76B
330
769
100
AcDbEntity
  8
isoframe
100
AcDbText
 10
501.5463607184383
 20
38.41811377470709
 30
0.0
 40
4.999999999978115
  1
CAGE, 3D PRINTER
 41
0.85
  7
TITLEBLOCK
100
AcDbAttribute
  2
MEC-DESCR1
 70
     0
280
     1
  0
ATTRIB
  5
76C
330
769
100
AcDbEntity
  8
isoframe
100
AcDbText
 10
502.0642603372421
 20
32.44911377473322
 30
0.0
 40
2.99973999998687
  1
ASSY
 41
0.8500000000000003
  7
TITLEBLOCK
100
AcDbAttribute
  2
MEC-DESCR2
 70
     0
280
     1
  0
ATTRIB
  5
76D
330
769
100
AcDbEntity
  8
isoframe
100
AcDbText
 10
501.5466718181283
 20
53.99999999976365
 30
0.0
 40
3.499999999984681
  1

 41
0.8500000000000002
  7
TITLEBLOCK
100
AcDbAttribute
  2
MEC-MAT1
 70
     0
280
     1
  0
ATTRIB
  5
76E
330
769
100
AcDbEntity
  8
isoframe
100
AcDbText
 10
501.5466718181283
 20
48.99999999978554
 30
0.0
 40
3.499999999984681
  1

 41
0.8500000000000002
  7
TITLEBLOCK
100
AcDbAttribute
  2
MEC-MAT2
 70
     0
280
     1
  0
ATTRIB
  5
76F
330
769
100
AcDbEntity
  8
isoframe
100
AcDbText
 10
540.2865266877914
 20
53.99999999976365
 30
0.0
 40
3.499999999984681
  1

 41
0.8500000000000002
  7
TITLEBLOCK
100
AcDbAttribute
  2
MEC-RMAT1
 70
     0
280
     1
  0
ATTRIB
  5
770
330
769
100
AcDbEntity
  8
isoframe
100
AcDbText
 10
540.2865266877914
 20
48.99999999978554
 30
0.0
 40
3.499999999984681
  1

 41
0.8500000000000002
  7
TITLEBLOCK
100
AcDbAttribute
  2
MEC-RMAT2
 70
     0
280
     1
  0
ATTRIB
  5
771
330
769
100
AcDbEntity
  8
isoframe
100
AcDbText
 10
510.171169172085
 20
61.40683518652701
 30
0.0
 40
2.499999999989058
  1
   N/A
 41
0.85
  7
TITLEBLOCK
100
AcDbAttribute
  2
MEC-SCALE
 70
     0
280
     1
  0
ATTRIB
  5
772
330
769
100
AcDbEntity
  8
isoframe
100
AcDbText
 10
548.3109036796984
 20
61.45792455189984
 30
0.0
 40
2.499999999989058
  1

 41
0.85
  7
TITLEBLOCK
100
AcDbAttribute
  2
MEC-WEIGHT
 70
     0
280
     1
  0
ATTRIB
  5
773
330
769
100
AcDbEntity
  8
isoframe
100
AcDbText
 10
483.6076399902779
 20
39.45831591733791
 30
0.0
 40
2.499999999989058
  1
    RCL
 41
0.85
  7
TITLEBLOCK
100
AcDbAttribute
  2
MEC-NAME
 70
     0
280
     1
  0
ATTRIB
  5
774
330
769
100
AcDbEntity
  8
isoframe
100
AcDbText
 10
467.6306268182627
 20
39.34919271574323
 30
0.0
 40
2.499999999989058
  1

 41
0.85
  7
TITLEBLOCK
100
AcDbAttribute
  2
MEC-DATE
 70
     0
280
     1
  0
ATTRIB
  5
775
330
769
100
AcDbEntity
  8
isoframe
100
AcDbText
 10
483.5037119410831
 20
35.50488200503052
 30
0.0
 40
2.499999999989058
  1

 41
0.85
  7
TITLEBLOCK
100
AcDbAttribute
  2
MEC-CHKD-NAME
 70
     0
280
     1
  0
ATTRIB
  5
776
330
769
100
AcDbEntity
  8
isoframe
100
AcDbText
 10
467.6306268182627
 20
35.45819749412237
 30
0.0
 40
2.499999999989058
  1

 41
0.85
  7
TITLEBLOCK
100
AcDbAttribute
  2
MEC-CHKD-DATE
 70
     0
280
     1
  0
ATTRIB
  5
777
330
769
100
AcDbEntity
  8
isoframe
100
AcDbText
 10
483.5037119410831
 20
31.50488200504805
 30
0.0
 40
2.499999999989058
  1

 41
0.85
  7
TITLEBLOCK
100
AcDbAttribute
  2
MEC-APPVD-NAME
 70
     0
280
     1
  0
ATTRIB
  5
778
330
769
100
AcDbEntity
  8
isoframe
100
AcDbText
 10
467.6306268182627
 20
31.51070147610808
 30
0.0
 40
2.499999999989058
  1

 41
0.85
  7
TITLEBLOCK
100
AcDbAttribute
  2
MEC-APPVD-DATE
 70
     0
280
     1
  0
ATTRIB
  5
779
330
769
100
AcDbEntity
  8
isoframe
100
AcDbText
 10
466.5792211813134
 20
11.09999999995149
 30
0.0
 40
2.499999999989058
  1

 41
0.85
  7
TITLEBLOCK
100
AcDbAttribute
  2
MEC-DWG
 70
     0
280
     1
  0
ATTRIB
  5
77A
330
769
100
AcDbEntity
  8
isoframe
100
AcDbText
 10
567.4991276794613
 20
19.35281222241261
 30
0.0
 40
2.499999999989058
  1

 41
0.85
  7
TITLEBLOCK
 72
     1
 11
567.4991276794613
 21
18.61270308189744
 31
0.0
100
AcDbAttribute
  2
MEC-SHEET
 70
     0
 74
     1
280
     1
  0
ATTRIB
  5
77B
330
769
100
AcDbEntity
  8
isoframe
100
AcDbText
 10
571.6817124598706
 20
11.63906359466324
 30
0.0
 40
4.999999999978115
  1
A2
 41
0.85
  7
TITLEBLOCK
100
AcDbAttribute
  2
MEC_SHEETSIZE
 70
     0
280
     1
  0
ATTRIB
  5
77C
330
769
100
AcDbEntity
  8
isoframe
100
AcDbText
 10
578.4997092247831
 20
19.35281222241261
 30
0.0
 40
2.499999999989058
  1

 41
0.85
  7
TITLEBLOCK
 72
     1
 11
578.4997092247831
 21
18.61270308189744
 31
0.0
100
AcDbAttribute
  2
MEC-REV
 70
     0
 74
     1
280
     1
  0
SEQEND
  5
77D
330
769
100
AcDbEntity
  8
0
  6
Continuous
  0
LINE
  5
77E
330
1F
100
AcDbEntity
  8
isoframe
370
    25
100
AcDbLine
 10
19.99999999991269
 20
9.99999999995623
 30
0.0
 11
583.9999999974441
 21
9.99999999995633
 31
0.0
  0
LINE
  5
77F
330
1F
100
AcDbEntity
  8
isoframe
370
    25
100
AcDbLine
 10
19.99999999991269
 20
409.9999999982056
 30
0.0
 11
19.99999999991269
 21
9.99999999995623
 31
0.0
  0
LINE
  5
780
330
1F
100
AcDbEntity
  8
isoframe
100
AcDbLine
 10
19.99999999991269
 20
296.9999999987
 30
0.0
 11
0.0
 21
296.9999999987
 31
0.0
  0
LINE
  5
781
330
1F
100
AcDbEntity
  8
isoframe
370
    25
100
AcDbLine
 10
19.99999999991269
 20
409.9999999982056
 30
0.0
 11
583.9999999974441
 21
409.9999999982056
 31
0.0
  0
LINE
  5
782
330
1F
100
AcDbEntity
  8
isoframe
370
    25
100
AcDbLine
 10
593.9999999974004
 20
419.9999999981617
 30
0.0
 11
0.0
 21
419.9999999981617
 31
0.0
  0
LINE
  5
783
330
1F
100
AcDbEntity
  8
isoframe
100
AcDbLine
 10
104.9999999995407
 20
409.9999999982023
 30
0.0
 11
104.9999999995407
 21
419.9999999981617
 31
0.0
  0
LINE
  5
784
330
1F
100
AcDbEntity
  8
isoframe
370
    25
100
AcDbLine
 10
583.9999999974441
 20
9.99999999995623
 30
0.0
 11
583.9999999974441
 21
409.9999999982056
 31
0.0
  0
MTEXT
  5
785
330
1F
100
AcDbEntity
  8
0
100
AcDbMText
 10
404.9999999982274
 20
64.9999999997155
 30
0.0
 40
6.999999999969361
 41
50.49999999977896
 46
50.846138
 71
     1
 72
     5
  1
{\pxsm1;\fCourier New|b0|i0|c0|p1;\H0.428571x;THE\P\H2x;STUMBLER}
  7
FNTEXT
 73
     1
 44
1.0
1001
ACAD
1000
ACAD_MTEXT_DEFINED_HEIGHT_BEGIN
1070
    46
1040
50.846138
1000
ACAD_MTEXT_DEFINED_HEIGHT_END
  0
MTEXT
  5
786
330
1F
100
AcDbEntity
  8
0
100
AcDbMText
 10
404.9999999982274
 20
50.49999999977898
 30
0.0
 40
1.999999999991246
 41
53.99999999976365
 46
10.28205128205128
 71
     1
 72
     5
  1
{\pxsm1;\fCourier New|b0|i0|c0|p1;SACHEON, SOUTH KOREA}
  7
FNTEXT
 73
     1
 44
1.0
1001
ACAD
1000
ACAD_MTEXT_DEFINED_HEIGHT_BEGIN
1070
    46
1040
10.28205128205128
1000
ACAD_MTEXT_DEFINED_HEIGHT_END
  0
ENDSEC
  0
SECTION
  2
OBJECTS
  0
DICTIONARY
  5
C
330
0
100
AcDbDictionary
281
     1
  3
AcadDim
350
653
  3
ACAD_COLOR
350
611
  3
ACAD_DETAILVIEWSTYLE
350
B5
  3
ACAD_GROUP
350
D
  3
ACAD_IMAGE_DICT
350
BD
  3
ACAD_IMAGE_VARS
350
6A
  3
ACAD_LAYOUT
350
1A
  3
ACAD_MATERIAL
350
72
  3
ACAD_MLEADERSTYLE
350
3F
  3
ACAD_MLINESTYLE
350
17
  3
ACAD_PLOTSETTINGS
350
19
  3
ACAD_PLOTSTYLENAME
350
E
  3
ACAD_SCALELIST
350
40
  3
ACAD_SECTIONVIEWSTYLE
350
B6
  3
ACAD_TABLESTYLE
350
3B
  3
ACAD_VISUALSTYLE
350
2A
  3
AcDbVariableDictionary
350
3D
  3
ACDB_RECOMPOSE_DATA
350
7D5
  3
APPDATA
350
71
  0
SUN
  5
80
330
29
100
AcDbSun
 90
        1
290
     0
 63
     7
421
 16777215
 40
1.0
291
     1
 91
  2455826
 92
 54000000
292
     0
 70
     2
 71
   256
280
     1
  0
DICTIONARY
  5
C4
330
2
100
AcDbDictionary
280
     1
281
     1
  3
ACAD_LAYERSTATES
360
C5
  3
ACLYDICTIONARY
360
7D2
  0
DICTIONARY
  5
333
330
1F
100
AcDbDictionary
280
     1
281
     1
  3
ACAD_SORTENTS
360
33A
  3
DIM_BOUNDING_BOXES_V1
360
35C
  0
IMAGEDEF_REACTOR
  5
36F
330
36E
100
AcDbRasterImageDefReactor
 90
        2
330
36E
  0
IMAGEDEF_REACTOR
  5
49E
330
49D
100
AcDbRasterImageDefReactor
 90
        2
330
49D
  0
DICTIONARY
  5
650
330
64F
100
AcDbDictionary
280
     1
281
     1
  3
ACAD_DIMASSOC
360
651
  0
DICTIONARY
  5
654
330
652
100
AcDbDictionary
280
     1
281
     1
  3
ACAD_DIMASSOC
360
655
  0
DICTIONARY
  5
657
330
656
100
AcDbDictionary
280
     1
281
     1
  3
ACAD_DIMASSOC
360
658
  0
DICTIONARY
  5
65A
330
659
100
AcDbDictionary
280
     1
281
     1
  3
ACAD_DIMASSOC
360
65B
  0
DICTIONARY
  5
65D
330
65C
100
AcDbDictionary
280
     1
281
     1
  3
ACAD_DIMASSOC
360
65E
  0
DICTIONARY
  5
660
330
65F
100
AcDbDictionary
280
     1
281
     1
  3
ACAD_DIMASSOC
360
661
  0
DICTIONARY
  5
663
330
662
100
AcDbDictionary
280
     1
281
     1
  3
ACAD_DIMASSOC
360
664
  0
DICTIONARY
  5
666
330
665
100
AcDbDictionary
280
     1
281
     1
  3
ACAD_DIMASSOC
360
667
  0
DICTIONARY
  5
687
330
686
100
AcDbDictionary
280
     1
281
     1
  3
ACAD_DIMASSOC
360
688
  0
DICTIONARY
  5
68A
330
689
100
AcDbDictionary
280
     1
281
     1
  0
DICTIONARY
  5
68D
330
68C
100
AcDbDictionary
280
     1
281
     1
  0
XRECORD
  5
653
102
{ACAD_REACTORS
330
C
102
}
330
C
100
AcDbXrecord
280
     1
340
0
 72
     0
 71
     0
 70
     0
 69
     0
 68
     1
 67
    10
 66
     0
 65
     0
 64
     0
 63
     3
 62
     1
 61
     0
 60
     0
 40
0.0
  0
DICTIONARY
  5
611
102
{ACAD_REACTORS
330
C
102
}
330
C
100
AcDbDictionary
281
     1
  0
DICTIONARY
  5
B5
102
{ACAD_REACTORS
330
C
102
}
330
C
100
AcDbDictionary
281
     1
  0
DICTIONARY
  5
D
102
{ACAD_REACTORS
330
C
102
}
330
C
100
AcDbDictionary
281
     1
  0
DICTIONARY
  5
BD
102
{ACAD_REACTORS
330
C
102
}
330
C
100
AcDbDictionary
281
     1
  3
cage-exploded
350
364
  3
cage-exploded-no-iso-transparent
350
49C
  3
cage-exploded-transparent
350
368
  3
enclosure-exploded-view-edited
350
BE
  0
RASTERVARIABLES
  5
6A
102
{ACAD_REACTORS
330
C
102
}
330
C
100
AcDbRasterVariables
 90
        0
 70
     0
 71
     1
 72
     1
  0
DICTIONARY
  5
1A
102
{ACAD_REACTORS
330
C
102
}
330
C
100
AcDbDictionary
281
     1
  3
Model
350
22
  3
Sheet1
350
1E
  3
Sheet2
350
26
  0
DICTIONARY
  5
72
102
{ACAD_REACTORS
330
C
102
}
330
C
100
AcDbDictionary
281
     1
  3
ByBlock
350
74
  3
ByLayer
350
73
  3
Global
350
75
  0
DICTIONARY
  5
3F
102
{ACAD_REACTORS
330
C
102
}
330
C
100
AcDbDictionary
281
     1
  3
Annotative
350
BC
  3
Standard
350
B7
  0
DICTIONARY
  5
17
102
{ACAD_REACTORS
330
C
102
}
330
C
100
AcDbDictionary
281
     1
  3
Standard
350
18
  0
DICTIONARY
  5
19
102
{ACAD_REACTORS
330
C
102
}
330
C
100
AcDbDictionary
281
     1
  0
ACDBDICTIONARYWDFLT
  5
E
102
{ACAD_REACTORS
330
C
102
}
330
C
100
AcDbDictionary
281
     1
  3
Normal
350
F
100
AcDbDictionaryWithDefault
340
F
  0
DICTIONARY
  5
40
102
{ACAD_REACTORS
330
C
102
}
330
C
100
AcDbDictionary
281
     1
  3
A0
350
41
  3
A1
350
42
  3
A2
350
43
  3
A3
350
44
  3
A4
350
45
  3
A5
350
46
  3
A6
350
47
  3
A7
350
48
  3
A8
350
49
  3
A9
350
4A
  3
B0
350
4B
  3
B1
350
4C
  3
B2
350
4D
  3
B3
350
4E
  3
B4
350
4F
  3
B5
350
50
  3
B6
350
51
  3
B7
350
52
  3
B8
350
53
  3
B9
350
54
  3
C0
350
55
  3
C1
350
56
  3
C2
350
57
  3
C3
350
58
  3
C4
350
59
  3
C5
350
5A
  3
C6
350
5B
  3
C7
350
5C
  3
C8
350
5D
  3
C9
350
5E
  3
D0
350
5F
  3
D1
350
60
  3
D2
350
61
  0
DICTIONARY
  5
B6
102
{ACAD_REACTORS
330
C
102
}
330
C
100
AcDbDictionary
281
     1
  0
DICTIONARY
  5
3B
102
{ACAD_REACTORS
330
C
102
}
330
C
100
AcDbDictionary
281
     1
  3
Standard
350
3C
  0
DICTIONARY
  5
2A
102
{ACAD_REACTORS
330
C
102
}
330
C
100
AcDbDictionary
281
     1
  3
2dWireframe
350
2F
  3
3D Hidden
350
31
  3
3dWireframe
350
30
  3
Basic
350
32
  3
Brighten
350
36
  3
ColorChange
350
3A
  3
Conceptual
350
34
  3
Dim
350
35
  3
EdgeColorOff
350
7A
  3
Facepattern
350
39
  3
Flat
350
2B
  3
FlatWithEdges
350
2C
  3
Gouraud
350
2D
  3
GouraudWithEdges
350
2E
  3
Hidden
350
77
  3
JitterOff
350
78
  3
Linepattern
350
38
  3
OverhangOff
350
79
  3
Realistic
350
33
  3
Shaded
350
7F
  3
Shaded with edges
350
7E
  3
Shades of Gray
350
7B
  3
Sketchy
350
7C
  3
Thicken
350
37
  3
Wireframe
350
76
  3
X-Ray
350
7D
  0
DICTIONARY
  5
3D
102
{ACAD_REACTORS
330
C
102
}
330
C
100
AcDbDictionary
281
     1
  3
CANNOSCALE
350
62
  3
CMLEADERSTYLE
350
BB
  3
CTABLESTYLE
350
3E
  3
LIGHTSINBLOCKS
350
6F
  3
XCLIPFRAME
350
70
  0
XRECORD
  5
7D5
102
{ACAD_REACTORS
330
C
102
}
330
C
100
AcDbXrecord
280
     1
 90
        1
330
3C
  0
DICTIONARY
  5
71
102
{ACAD_REACTORS
330
C
102
}
330
C
100
AcDbDictionary
281
     1
  0
DICTIONARY
  5
C5
102
{ACAD_REACTORS
330
C4
102
}
330
C4
100
AcDbDictionary
281
     1
  0
DICTIONARY
  5
7D2
102
{ACAD_REACTORS
330
C4
102
}
330
C4
100
AcDbDictionary
281
     1
1001
ACAD
1000
<All
  0
SORTENTSTABLE
  5
33A
102
{ACAD_REACTORS
330
333
102
}
330
333
100
AcDbSortentsTable
330
1F
331
F8
  5
11D
331
121
  5
1A9
331
1AA
  5
1D8
331
214
  5
5B1
331
221
  5
5B2
331
238
  5
5B3
331
23A
  5
5B4
331
23C
  5
5B5
331
23E
  5
5B6
331
23F
  5
5B7
331
241
  5
5B8
331
243
  5
5B9
331
249
  5
5BA
331
24D
  5
5BB
331
24E
  5
5BC
331
251
  5
5BD
331
25C
  5
5BE
331
25D
  5
5BF
331
25E
  5
5C0
331
26D
  5
5C1
331
26E
  5
5C2
331
26F
  5
5C3
331
270
  5
5C4
331
271
  5
5C5
331
272
  5
5C6
331
273
  5
5C7
331
274
  5
5C8
331
27F
  5
5C9
331
280
  5
5CA
331
0
  5
5CB
331
0
  5
5CC
331
0
  5
5CD
331
0
  5
5CE
331
0
  5
5CF
331
0
  5
5D0
331
0
  5
5D1
331
0
  5
5D2
331
0
  5
5D3
331
0
  5
5D4
331
348
  5
5D5
331
36E
  5
5D6
331
3AD
  5
214
331
3B6
  5
237
331
3B7
  5
238
331
3B8
  5
23A
331
3B9
  5
23C
331
3BA
  5
23E
331
3BB
  5
23F
331
3BC
  5
242
331
3BD
  5
248
331
3BE
  5
249
331
3BF
  5
24D
331
3C0
  5
250
331
3C1
  5
258
331
3C2
  5
25C
331
3D3
  5
25D
331
3D4
  5
26A
331
3D5
  5
26D
331
3D6
  5
26E
331
3D7
  5
26F
331
3D8
  5
270
331
3D9
  5
271
331
3DA
  5
272
331
3DB
  5
273
331
3DC
  5
27D
331
3DD
  5
27F
331
3DE
  5
280
331
3DF
  5
281
331
3E1
  5
282
331
3E2
  5
283
331
3E3
  5
284
331
3E4
  5
285
331
3E5
  5
286
331
3E6
  5
287
331
3E7
  5
288
331
3E8
  5
289
331
3E9
  5
348
331
3EA
  5
36E
331
3EB
  5
3AD
331
3EC
  5
3B6
331
3ED
  5
3B7
331
3F1
  5
3B8
331
3F2
  5
3B9
331
3F3
  5
3BA
331
3F4
  5
3BB
331
3F5
  5
3BC
331
3F6
  5
3BD
331
3F7
  5
3BE
331
3F8
  5
3BF
331
3F9
  5
3C0
331
3FA
  5
3C1
331
3FB
  5
3C2
331
3FC
  5
3D3
331
3FD
  5
3D4
331
3FE
  5
3D5
331
3FF
  5
3D6
331
400
  5
3D7
331
401
  5
3D8
331
402
  5
3D9
331
403
  5
3DA
331
404
  5
3DB
331
405
  5
3DC
331
406
  5
3DD
331
407
  5
3DE
331
408
  5
3DF
331
409
  5
3E1
331
40A
  5
3E2
331
40B
  5
3E3
331
40C
  5
3E4
331
40D
  5
3E5
331
40E
  5
3E6
331
40F
  5
3E7
331
410
  5
3E8
331
41C
  5
3E9
331
41D
  5
3EA
331
41E
  5
3EB
331
41F
  5
3EC
331
425
  5
5D7
331
428
  5
3ED
331
429
  5
3F1
331
42A
  5
3F2
331
42B
  5
3F3
331
42C
  5
3F4
331
42D
  5
3F5
331
42E
  5
3F6
331
42F
  5
3F7
331
430
  5
3F8
331
431
  5
3F9
331
432
  5
3FA
331
433
  5
3FB
331
434
  5
3FC
331
435
  5
3FD
331
436
  5
3FE
331
437
  5
3FF
331
438
  5
400
331
439
  5
401
331
43A
  5
402
331
43B
  5
403
331
43C
  5
404
331
43D
  5
405
331
43E
  5
406
331
43F
  5
407
331
440
  5
408
331
441
  5
409
331
442
  5
40A
331
443
  5
40B
331
444
  5
40C
331
445
  5
40D
331
446
  5
40E
331
447
  5
40F
331
448
  5
410
331
449
  5
41C
331
44A
  5
41D
331
44B
  5
41E
331
44C
  5
41F
331
44D
  5
425
331
44E
  5
428
331
44F
  5
429
331
450
  5
42A
331
451
  5
42B
331
452
  5
42C
331
453
  5
42D
331
454
  5
42E
331
455
  5
42F
331
456
  5
430
331
457
  5
431
331
458
  5
432
331
459
  5
433
331
45A
  5
434
331
45B
  5
435
331
45C
  5
436
331
45D
  5
437
331
45E
  5
438
331
45F
  5
439
331
460
  5
43A
331
461
  5
43B
331
462
  5
43C
331
46D
  5
43D
331
46E
  5
43E
331
46F
  5
43F
331
470
  5
440
331
471
  5
441
331
472
  5
442
331
473
  5
443
331
474
  5
444
331
475
  5
445
331
476
  5
446
331
49D
  5
F7
331
4AC
  5
447
331
4AD
  5
448
331
4AE
  5
449
331
4AF
  5
44A
331
4B0
  5
44B
331
4B3
  5
44C
331
4B4
  5
44D
331
4B5
  5
44E
331
4B6
  5
44F
331
4B7
  5
450
331
4B8
  5
451
331
4B9
  5
452
331
4BA
  5
453
331
4BB
  5
454
331
4BC
  5
455
331
4BD
  5
456
331
4BE
  5
457
331
4BF
  5
458
331
4C0
  5
459
331
4C1
  5
45A
331
4C2
  5
45B
331
4C3
  5
45C
331
4C4
  5
45D
331
4C5
  5
45E
331
4C6
  5
45F
331
4C7
  5
460
331
4C8
  5
461
331
4C9
  5
462
331
4CA
  5
474
331
4CB
  5
475
331
4CC
  5
476
331
4CD
  5
477
331
4CE
  5
478
331
4CF
  5
479
331
4D0
  5
47A
331
4D1
  5
47B
331
4D2
  5
47C
331
4D3
  5
47D
331
4D4
  5
49D
331
4D5
  5
4AC
331
4D6
  5
4AD
331
4D7
  5
4AE
331
4D8
  5
4AF
331
4D9
  5
4B0
331
4DA
  5
4B3
331
4DB
  5
4B4
331
4DC
  5
4B5
331
4DD
  5
4B6
331
4DE
  5
4B7
331
4DF
  5
4B8
331
4E0
  5
4B9
331
4E1
  5
4BA
331
4E2
  5
4BB
331
4E3
  5
4BC
331
4E4
  5
4BD
331
4E7
  5
4BE
331
4E8
  5
4BF
331
4E9
  5
4C0
331
4FB
  5
4C1
331
4FC
  5
4C2
331
4FD
  5
4C3
331
4FE
  5
4C4
331
4FF
  5
4C5
331
500
  5
4C6
331
501
  5
4C7
331
50D
  5
4C8
331
50E
  5
4C9
331
50F
  5
4CA
331
510
  5
4CB
331
511
  5
4CC
331
512
  5
4CD
331
513
  5
4CE
331
514
  5
4CF
331
515
  5
4D0
331
516
  5
4D1
331
517
  5
4D2
331
518
  5
4D3
331
519
  5
4D4
331
51A
  5
4D5
331
51B
  5
4D6
331
51C
  5
4D7
331
51D
  5
4D8
331
51E
  5
4D9
331
51F
  5
4DA
331
520
  5
4DB
331
521
  5
4DC
331
522
  5
4DD
331
523
  5
4DE
331
524
  5
4DF
331
525
  5
4E0
331
526
  5
4E1
331
527
  5
4E2
331
528
  5
4E3
331
529
  5
4E4
331
52A
  5
4E7
331
52B
  5
4E8
331
52C
  5
4E9
331
52D
  5
4FB
331
52E
  5
4FC
331
52F
  5
4FD
331
530
  5
4FE
331
531
  5
4FF
331
532
  5
500
331
533
  5
501
331
534
  5
50D
331
535
  5
50E
331
536
  5
50F
331
537
  5
510
331
538
  5
511
331
539
  5
512
331
53A
  5
513
331
53B
  5
514
331
53C
  5
515
331
53D
  5
516
331
53E
  5
517
331
53F
  5
518
331
540
  5
519
331
541
  5
51A
331
542
  5
51B
331
543
  5
51C
331
544
  5
51D
331
545
  5
51E
331
546
  5
51F
331
547
  5
520
331
548
  5
521
331
549
  5
522
331
54A
  5
523
331
54B
  5
524
331
54C
  5
525
331
54D
  5
526
331
54E
  5
527
331
553
  5
528
331
5B0
  5
529
331
5B1
  5
52A
331
5B2
  5
52B
331
5B3
  5
52C
331
5B4
  5
52D
331
5B5
  5
52E
331
5B6
  5
52F
331
5B7
  5
530
331
5B8
  5
531
331
5B9
  5
532
331
5BA
  5
533
331
5BB
  5
534
331
5BC
  5
535
331
5BD
  5
536
331
5BE
  5
537
331
5BF
  5
538
331
5C0
  5
539
331
5C1
  5
53A
331
5C2
  5
53B
331
5C3
  5
53C
331
5C4
  5
53D
331
5C5
  5
53E
331
5C6
  5
53F
331
5C7
  5
540
331
5C8
  5
541
331
5C9
  5
542
331
5CA
  5
543
331
5CB
  5
544
331
5CC
  5
545
331
5CD
  5
546
331
5CE
  5
547
331
5CF
  5
548
331
5D0
  5
549
331
5D1
  5
54A
331
5D2
  5
54B
331
5D3
  5
54C
331
5D4
  5
54D
331
5D5
  5
54E
331
5D6
  5
553
331
0
  5
5B0
  0
DICTIONARY
  5
35C
102
{ACAD_REACTORS
330
333
102
}
330
333
100
AcDbDictionary
281
     1
  0
DIMASSOC
  5
651
102
{ACAD_REACTORS
330
650
102
}
330
650
100
AcDbDimAssoc
330
64F
 90
        1
 70
     0
 71
     1
  1
AcDbOsnapPointRef
 72
     6
331
51A
 73
     0
 91
        0
 40
0.2814984420459263
 10
0.0
 20
0.0
 30
0.0
332
42D
 74
     0
 92
        0
 75
     0
  0
DIMASSOC
  5
655
102
{ACAD_REACTORS
330
654
102
}
330
654
100
AcDbDimAssoc
330
652
 90
        1
 70
     0
 71
     1
  1
AcDbOsnapPointRef
 72
     6
331
42A
 73
     0
 91
        0
 40
0.6861445422043877
 10
0.0
 20
0.0
 30
0.0
332
5B8
 74
     0
 92
        0
 75
     0
  0
DIMASSOC
  5
658
102
{ACAD_REACTORS
330
657
102
}
330
657
100
AcDbDimAssoc
330
656
 90
        1
 70
     0
 71
     1
  1
AcDbOsnapPointRef
 72
     6
331
4CF
 73
     0
 91
        0
 40
0.2447496850189572
 10
0.0
 20
0.0
 30
0.0
332
462
 74
     0
 92
        0
 75
     0
  0
DIMASSOC
  5
65B
102
{ACAD_REACTORS
330
65A
102
}
330
65A
100
AcDbDimAssoc
330
659
 90
        1
 70
     0
 71
     1
  1
AcDbOsnapPointRef
 72
    10
331
3D4
 73
     0
 91
        0
 40
0.6789864242764012
 10
0.0
 20
0.0
 30
0.0
 75
     0
  0
DIMASSOC
  5
65E
102
{ACAD_REACTORS
330
65D
102
}
330
65D
100
AcDbDimAssoc
330
65C
 90
        1
 70
     0
 71
     1
  1
AcDbOsnapPointRef
 72
     6
331
3C0
 73
     0
 91
        0
 40
0.600029383458719
 10
0.0
 20
0.0
 30
0.0
332
5B9
 74
     0
 92
        0
 75
     0
  0
DIMASSOC
  5
661
102
{ACAD_REACTORS
330
660
102
}
330
660
100
AcDbDimAssoc
330
65F
 90
        1
 70
     0
 71
     1
  1
AcDbOsnapPointRef
 72
     6
331
431
 73
     0
 91
        0
 40
0.5052762559500026
 10
0.0
 20
0.0
 30
0.0
332
5C4
 74
     0
 92
        0
 75
     0
  0
DIMASSOC
  5
664
102
{ACAD_REACTORS
330
663
102
}
330
663
100
AcDbDimAssoc
330
662
 90
        1
 70
     0
 71
     1
  1
AcDbOsnapPointRef
 72
     6
331
429
 73
     0
 91
        0
 40
0.3516080261810616
 10
0.0
 20
0.0
 30
0.0
332
5C2
 74
     0
 92
        0
 75
     0
  0
DIMASSOC
  5
667
102
{ACAD_REACTORS
330
666
102
}
330
666
100
AcDbDimAssoc
330
665
 90
        1
 70
     0
 71
     1
  1
AcDbOsnapPointRef
 72
     6
331
3E5
 73
     0
 91
        0
 40
0.4059658403659447
 10
0.0
 20
0.0
 30
0.0
332
5CC
 74
     0
 92
        0
 75
     0
  0
DIMASSOC
  5
688
102
{ACAD_REACTORS
330
687
102
}
330
687
100
AcDbDimAssoc
330
686
 90
        1
 70
     0
 71
     1
  1
AcDbOsnapPointRef
 72
     5
331
67C
331
678
 73
     0
 91
        0
 40
1.570796326794897
 10
0.0
 20
0.0
 30
0.0
 75
     0
  0
IMAGEDEF
  5
364
102
{ACAD_REACTORS
330
BD
102
}
330
BD
100
AcDbRasterImageDef
 90
        0
  1
/Users/Chris/root/files/projs/ender5pro/enclosure/cage-exploded.png
 10
1320.0
 20
1263.0
 11
0.3527336860670194
 21
0.3527336860670194
280
     1
281
     3
  0
IMAGEDEF
  5
49C
102
{ACAD_REACTORS
330
BD
330
49E
102
}
330
BD
100
AcDbRasterImageDef
 90
        0
  1
/Users/Chris/root/files/projs/ender5pro/enclosure/cage-exploded-no-iso-transparent.png
 10
1320.0
 20
1263.0
 11
0.3527336860670194
 21
0.3527336860670194
280
     1
281
     3
  0
IMAGEDEF
  5
368
102
{ACAD_REACTORS
330
BD
330
36F
102
}
330
BD
100
AcDbRasterImageDef
 90
        0
  1
/Users/Chris/root/files/projs/ender5pro/enclosure/cage-exploded-transparent.png
 10
1320.0
 20
1263.0
 11
0.3527336860670194
 21
0.3527336860670194
280
     1
281
     3
  0
IMAGEDEF
  5
BE
102
{ACAD_REACTORS
330
BD
102
}
330
BD
100
AcDbRasterImageDef
 90
        0
  1
/Users/Chris/root/files/projs/ender5pro/enclosure/enclosure-exploded-view-edited.png
 10
1558.0
 20
922.0
 11
0.0006418485237483953
 21
0.0006418485237483953
280
     1
281
     0
  0
LAYOUT
  5
22
102
{ACAD_REACTORS
330
1A
102
}
330
1A
100
AcDbPlotSettings
  1

  2
none_device
  4
ISO_A3_(420.00_x_297.00_MM)
  6

 40
7.5
 41
20.0
 42
7.5
 43
20.0
 44
420.0
 45
297.0
 46
20.78282828282826
 47
0.0
 48
0.0
 49
0.0
140
0.0
141
0.0
142
1.0
143
1.155642023346303
 70
  1204
 72
     1
 73
     0
 74
     1
  7
monochrome.ctb
 75
     0
 76
     0
 77
     2
 78
   300
147
0.8653198653198654
148
-134.1869158878504
149
0.0
100
AcDbLayout
  1
Model
 70
     1
 71
     0
 10
0.0
 20
0.0
 11
420.0
 21
297.0
 12
0.0
 22
0.0
 32
0.0
 14
-0.0000000000001137
 24
-0.0000000000001705
 34
0.0
 15
594.0
 25
420.1398050734917
 35
0.0
146
0.0
 13
0.0
 23
0.0
 33
0.0
 16
1.0
 26
0.0
 36
0.0
 17
0.0
 27
1.0
 37
0.0
 76
     0
330
1F
331
29
  0
LAYOUT
  5
1E
102
{ACAD_REACTORS
330
1A
102
}
330
1A
100
AcDbPlotSettings
  1

  2
none_device
  4

  6

 40
0.0
 41
0.0
 42
0.0
 43
0.0
 44
0.0
 45
0.0
 46
0.0
 47
0.0
 48
0.0
 49
0.0
140
0.0
141
0.0
142
1.0
143
1.0
 70
   688
 72
     0
 73
     0
 74
     5
  7

 75
    16
 76
     0
 77
     2
 78
   300
147
1.0
148
0.0
149
0.0
100
AcDbLayout
  1
Sheet1
 70
     1
 71
     1
 10
0.0
 20
0.0
 11
420.0
 21
297.0
 12
0.0
 22
0.0
 32
0.0
 14
1.000000000000000E+20
 24
1.000000000000000E+20
 34
1.000000000000000E+20
 15
-1.000000000000000E+20
 25
-1.000000000000000E+20
 35
-1.000000000000000E+20
146
0.0
 13
0.0
 23
0.0
 33
0.0
 16
1.0
 26
0.0
 36
0.0
 17
0.0
 27
1.0
 37
0.0
 76
     0
330
1B
  0
LAYOUT
  5
26
102
{ACAD_REACTORS
330
1A
102
}
330
1A
100
AcDbPlotSettings
  1

  2
none_device
  4

  6

 40
0.0
 41
0.0
 42
0.0
 43
0.0
 44
0.0
 45
0.0
 46
0.0
 47
0.0
 48
0.0
 49
0.0
140
0.0
141
0.0
142
1.0
143
1.0
 70
   688
 72
     0
 73
     0
 74
     5
  7

 75
    16
 76
     0
 77
     2
 78
   300
147
1.0
148
0.0
149
0.0
100
AcDbLayout
  1
Sheet2
 70
     1
 71
     2
 10
0.0
 20
0.0
 11
0.0
 21
0.0
 12
0.0
 22
0.0
 32
0.0
 14
0.0
 24
0.0
 34
0.0
 15
0.0
 25
0.0
 35
0.0
146
0.0
 13
0.0
 23
0.0
 33
0.0
 16
1.0
 26
0.0
 36
0.0
 17
0.0
 27
1.0
 37
0.0
 76
     0
330
23
  0
MATERIAL
  5
74
102
{ACAD_REACTORS
330
72
102
}
330
72
100
AcDbMaterial
  1
ByBlock
 72
     1
 94
      127
  0
MATERIAL
  5
73
102
{ACAD_REACTORS
330
72
102
}
330
72
100
AcDbMaterial
  1
ByLayer
 72
     1
 94
      127
  0
MATERIAL
  5
75
102
{ACAD_REACTORS
330
72
102
}
330
72
100
AcDbMaterial
  1
Global
 72
     1
 94
      127
  0
MLEADERSTYLE
  5
BC
102
{ACAD_REACTORS
330
3F
102
}
330
3F
100
AcDbMLeaderStyle
179
     2
170
     2
171
     1
172
     0
 90
        2
 40
0.0
 41
0.0
173
     1
 91
-1056964608
340
14
 92
       -2
290
     1
 42
2.0
291
     1
 43
8.0
  3
Annotative
341
0
 44
4.0
300

342
11
174
     1
178
     1
175
     1
176
     0
 93
-1056964608
 45
4.0
292
     0
297
     0
 46
4.0
343
0
 94
-1056964608
 47
1.0
 49
1.0
140
1.0
293
     1
141
0.0
294
     1
177
     0
142
1.0
295
     0
296
     1
143
3.75
271
     0
272
     9
273
     9
  0
MLEADERSTYLE
  5
B7
102
{ACAD_REACTORS
330
3F
102
}
330
3F
100
AcDbMLeaderStyle
179
     2
170
     2
171
     1
172
     0
 90
        2
 40
0.0
 41
0.0
173
     1
 91
-1056964608
340
14
 92
       -2
290
     1
 42
2.0
291
     1
 43
8.0
  3
Standard
341
0
 44
4.0
300

342
11
174
     1
178
     6
175
     1
176
     0
 93
-1056964608
 45
4.0
292
     0
297
     0
 46
4.0
343
0
 94
-1056964608
 47
1.0
 49
1.0
140
1.0
293
     1
141
0.0
294
     1
177
     0
142
1.0
295
     0
296
     0
143
3.75
271
     0
272
     9
273
     9
  0
MLINESTYLE
  5
18
102
{ACAD_REACTORS
330
17
102
}
330
17
100
AcDbMlineStyle
  2
Standard
 70
     0
  3

 62
   256
 51
90.0
 52
90.0
 71
     2
 49
0.5
 62
   256
  6
BYLAYER
 49
-0.5
 62
   256
  6
BYLAYER
  0
ACDBPLACEHOLDER
  5
F
102
{ACAD_REACTORS
330
E
102
}
330
E
  0
SCALE
  5
41
102
{ACAD_REACTORS
330
40
102
}
330
40
100
AcDbScale
 70
     0
300
1:1
140
1.0
141
1.0
290
     1
  0
SCALE
  5
42
102
{ACAD_REACTORS
330
40
102
}
330
40
100
AcDbScale
 70
     0
300
1:2
140
1.0
141
2.0
290
     0
  0
SCALE
  5
43
102
{ACAD_REACTORS
330
40
102
}
330
40
100
AcDbScale
 70
     0
300
1:4
140
1.0
141
4.0
290
     0
  0
SCALE
  5
44
102
{ACAD_REACTORS
330
40
102
}
330
40
100
AcDbScale
 70
     0
300
1:5
140
1.0
141
5.0
290
     0
  0
SCALE
  5
45
102
{ACAD_REACTORS
330
40
102
}
330
40
100
AcDbScale
 70
     0
300
1:8
140
1.0
141
8.0
290
     0
  0
SCALE
  5
46
102
{ACAD_REACTORS
330
40
102
}
330
40
100
AcDbScale
 70
     0
300
1:10
140
1.0
141
10.0
290
     0
  0
SCALE
  5
47
102
{ACAD_REACTORS
330
40
102
}
330
40
100
AcDbScale
 70
     0
300
1:16
140
1.0
141
16.0
290
     0
  0
SCALE
  5
48
102
{ACAD_REACTORS
330
40
102
}
330
40
100
AcDbScale
 70
     0
300
1:20
140
1.0
141
20.0
290
     0
  0
SCALE
  5
49
102
{ACAD_REACTORS
330
40
102
}
330
40
100
AcDbScale
 70
     0
300
1:30
140
1.0
141
30.0
290
     0
  0
SCALE
  5
4A
102
{ACAD_REACTORS
330
40
102
}
330
40
100
AcDbScale
 70
     0
300
1:40
140
1.0
141
40.0
290
     0
  0
SCALE
  5
4B
102
{ACAD_REACTORS
330
40
102
}
330
40
100
AcDbScale
 70
     0
300
1:50
140
1.0
141
50.0
290
     0
  0
SCALE
  5
4C
102
{ACAD_REACTORS
330
40
102
}
330
40
100
AcDbScale
 70
     0
300
1:100
140
1.0
141
100.0
290
     0
  0
SCALE
  5
4D
102
{ACAD_REACTORS
330
40
102
}
330
40
100
AcDbScale
 70
     0
300
2:1
140
2.0
141
1.0
290
     0
  0
SCALE
  5
4E
102
{ACAD_REACTORS
330
40
102
}
330
40
100
AcDbScale
 70
     0
300
4:1
140
4.0
141
1.0
290
     0
  0
SCALE
  5
4F
102
{ACAD_REACTORS
330
40
102
}
330
40
100
AcDbScale
 70
     0
300
8:1
140
8.0
141
1.0
290
     0
  0
SCALE
  5
50
102
{ACAD_REACTORS
330
40
102
}
330
40
100
AcDbScale
 70
     0
300
10:1
140
10.0
141
1.0
290
     0
  0
SCALE
  5
51
102
{ACAD_REACTORS
330
40
102
}
330
40
100
AcDbScale
 70
     0
300
100:1
140
100.0
141
1.0
290
     0
  0
SCALE
  5
52
102
{ACAD_REACTORS
330
40
102
}
330
40
100
AcDbScale
 70
     0
300
1/128" = 1'-0"
140
0.0078125
141
12.0
290
     0
  0
SCALE
  5
53
102
{ACAD_REACTORS
330
40
102
}
330
40
100
AcDbScale
 70
     0
300
1/64" = 1'-0"
140
0.015625
141
12.0
290
     0
  0
SCALE
  5
54
102
{ACAD_REACTORS
330
40
102
}
330
40
100
AcDbScale
 70
     0
300
1/32" = 1'-0"
140
0.03125
141
12.0
290
     0
  0
SCALE
  5
55
102
{ACAD_REACTORS
330
40
102
}
330
40
100
AcDbScale
 70
     0
300
1/16" = 1'-0"
140
0.0625
141
12.0
290
     0
  0
SCALE
  5
56
102
{ACAD_REACTORS
330
40
102
}
330
40
100
AcDbScale
 70
     0
300
3/32" = 1'-0"
140
0.09375
141
12.0
290
     0
  0
SCALE
  5
57
102
{ACAD_REACTORS
330
40
102
}
330
40
100
AcDbScale
 70
     0
300
1/8" = 1'-0"
140
0.125
141
12.0
290
     0
  0
SCALE
  5
58
102
{ACAD_REACTORS
330
40
102
}
330
40
100
AcDbScale
 70
     0
300
3/16" = 1'-0"
140
0.1875
141
12.0
290
     0
  0
SCALE
  5
59
102
{ACAD_REACTORS
330
40
102
}
330
40
100
AcDbScale
 70
     0
300
1/4" = 1'-0"
140
0.25
141
12.0
290
     0
  0
SCALE
  5
5A
102
{ACAD_REACTORS
330
40
102
}
330
40
100
AcDbScale
 70
     0
300
3/8" = 1'-0"
140
0.375
141
12.0
290
     0
  0
SCALE
  5
5B
102
{ACAD_REACTORS
330
40
102
}
330
40
100
AcDbScale
 70
     0
300
1/2" = 1'-0"
140
0.5
141
12.0
290
     0
  0
SCALE
  5
5C
102
{ACAD_REACTORS
330
40
102
}
330
40
100
AcDbScale
 70
     0
300
3/4" = 1'-0"
140
0.75
141
12.0
290
     0
  0
SCALE
  5
5D
102
{ACAD_REACTORS
330
40
102
}
330
40
100
AcDbScale
 70
     0
300
1" = 1'-0"
140
1.0
141
12.0
290
     0
  0
SCALE
  5
5E
102
{ACAD_REACTORS
330
40
102
}
330
40
100
AcDbScale
 70
     0
300
1-1/2" = 1'-0"
140
1.5
141
12.0
290
     0
  0
SCALE
  5
5F
102
{ACAD_REACTORS
330
40
102
}
330
40
100
AcDbScale
 70
     0
300
3" = 1'-0"
140
3.0
141
12.0
290
     0
  0
SCALE
  5
60
102
{ACAD_REACTORS
330
40
102
}
330
40
100
AcDbScale
 70
     0
300
6" = 1'-0"
140
6.0
141
12.0
290
     0
  0
SCALE
  5
61
102
{ACAD_REACTORS
330
40
102
}
330
40
100
AcDbScale
 70
     0
300
1'-0" = 1'-0"
140
12.0
141
12.0
290
     0
  0
TABLESTYLE
  5
3C
102
{ACAD_REACTORS
330
3B
330
6BC
330
6D7
102
}
102
{ACAD_XDICTIONARY
360
7D3
102
}
330
3B
100
AcDbTableStyle
  3
Standard
 70
     0
 71
     0
 40
1.5
 41
1.5
280
     0
281
     0
  7
Standard
140
4.5
170
     2
 62
     0
 63
   257
283
     0
 90
      512
 91
        0
  1

274
    -2
284
     1
 64
     0
275
    -2
285
     1
 65
     0
276
    -2
286
     1
 66
     0
277
    -2
287
     1
 67
     0
278
    -2
288
     1
 68
     0
279
    -2
289
     1
 69
     0
  7
Standard
140
6.0
170
     5
 62
     0
 63
   257
283
     0
 90
      512
 91
        0
  1

274
    -2
284
     1
 64
     0
275
    -2
285
     1
 65
     0
276
    -2
286
     1
 66
     0
277
    -2
287
     1
 67
     0
278
    -2
288
     1
 68
     0
279
    -2
289
     1
 69
     0
  7
Standard
140
4.5
170
     5
 62
     0
 63
   257
283
     0
 90
      512
 91
        0
  1

274
    -2
284
     1
 64
     0
275
    -2
285
     1
 65
     0
276
    -2
286
     1
 66
     0
277
    -2
287
     1
 67
     0
278
    -2
288
     1
 68
     0
279
    -2
289
     1
 69
     0
  0
VISUALSTYLE
  5
2F
102
{ACAD_REACTORS
330
2A
102
}
330
2A
100
AcDbVisualStyle
  2
2dWireframe
 70
     4
177
     2
291
     0
 71
     0
176
     1
 72
     2
176
     1
 73
     0
176
     1
 90
        0
176
     1
 40
-0.6
176
     1
 41
-30.0
176
     1
 62
     5
 63
     7
421
 16777215
176
     1
 74
     1
176
     1
 91
        4
176
     1
 64
     7
176
     1
 65
   257
176
     1
 75
     1
176
     1
175
     1
176
     1
 42
1.0
176
     1
 92
        0
176
     1
 66
   257
176
     1
 43
1.0
176
     1
 76
     1
176
     1
 77
     6
176
     1
 78
     2
176
     1
 67
     7
176
     1
 79
     5
176
     1
170
     0
176
     1
171
     0
176
     1
290
     0
176
     1
 93
        1
176
     1
 44
0.0
176
     1
173
     0
176
     1
  0
VISUALSTYLE
  5
31
102
{ACAD_REACTORS
330
2A
102
}
330
2A
100
AcDbVisualStyle
  2
3D Hidden
 70
     6
177
     2
291
     0
 71
     1
176
     1
 72
     2
176
     1
 73
     2
176
     1
 90
        0
176
     1
 40
-0.6
176
     1
 41
-30.0
176
     1
 62
     5
 63
     7
421
 16777215
176
     1
 74
     2
176
     1
 91
        2
176
     1
 64
     7
176
     1
 65
   257
176
     1
 75
     2
176
     1
175
     1
176
     1
 42
40.0
176
     1
 92
        0
176
     1
 66
   257
176
     1
 43
1.0
176
     1
 76
     1
176
     1
 77
     6
176
     1
 78
     2
176
     1
 67
     7
176
     1
 79
     3
176
     1
170
     0
176
     1
171
     0
176
     1
290
     0
176
     1
 93
        1
176
     1
 44
0.0
176
     1
173
     0
176
     1
  0
VISUALSTYLE
  5
30
102
{ACAD_REACTORS
330
2A
102
}
330
2A
100
AcDbVisualStyle
  2
3dWireframe
 70
     5
177
     2
291
     0
 71
     0
176
     1
 72
     2
176
     1
 73
     0
176
     1
 90
        0
176
     1
 40
-0.6
176
     1
 41
-30.0
176
     1
 62
     5
 63
     7
421
 16777215
176
     1
 74
     1
176
     1
 91
        4
176
     1
 64
     7
176
     1
 65
   257
176
     1
 75
     1
176
     1
175
     1
176
     1
 42
1.0
176
     1
 92
        0
176
     1
 66
   257
176
     1
 43
1.0
176
     1
 76
     1
176
     1
 77
     6
176
     1
 78
     2
176
     1
 67
     7
176
     1
 79
     5
176
     1
170
     0
176
     1
171
     0
176
     1
290
     0
176
     1
 93
        1
176
     1
 44
0.0
176
     1
173
     0
176
     1
  0
VISUALSTYLE
  5
32
102
{ACAD_REACTORS
330
2A
102
}
330
2A
100
AcDbVisualStyle
  2
Basic
 70
     7
177
     2
291
     1
 71
     1
176
     1
 72
     0
176
     1
 73
     1
176
     1
 90
        0
176
     1
 40
-0.6
176
     1
 41
-30.0
176
     1
 62
     5
 63
     7
421
 16777215
176
     1
 74
     0
176
     1
 91
        4
176
     1
 64
     7
176
     1
 65
   257
176
     1
 75
     1
176
     1
175
     1
176
     1
 42
1.0
176
     1
 92
        8
176
     1
 66
     7
176
     1
 43
1.0
176
     1
 76
     1
176
     1
 77
     6
176
     1
 78
     2
176
     1
 67
     7
176
     1
 79
     5
176
     1
170
     0
176
     1
171
     0
176
     1
290
     0
176
     1
 93
        1
176
     1
 44
0.0
176
     1
173
     0
176
     1
  0
VISUALSTYLE
  5
36
102
{ACAD_REACTORS
330
2A
102
}
330
2A
100
AcDbVisualStyle
  2
Brighten
 70
    12
177
     2
291
     1
 71
     2
176
     1
 72
     2
176
     1
 73
     0
176
     1
 90
        0
176
     1
 40
-0.6
176
     1
 41
-30.0
176
     1
 62
     5
 63
     7
421
 16777215
176
     1
 74
     1
176
     1
 91
        4
176
     1
 64
     7
176
     1
 65
   257
176
     1
 75
     1
176
     1
175
     1
176
     1
 42
1.0
176
     1
 92
        8
176
     1
 66
     7
176
     1
 43
1.0
176
     1
 76
     1
176
     1
 77
     6
176
     1
 78
     2
176
     1
 67
     7
176
     1
 79
     5
176
     1
170
     0
176
     1
171
     0
176
     1
290
     0
176
     1
 93
        1
176
     1
 44
50.0
176
     1
173
     0
176
     1
  0
VISUALSTYLE
  5
3A
102
{ACAD_REACTORS
330
2A
102
}
330
2A
100
AcDbVisualStyle
  2
ColorChange
 70
    16
177
     2
291
     1
 71
     2
176
     1
 72
     2
176
     1
 73
     3
176
     1
 90
        0
176
     1
 40
-0.6
176
     1
 41
-30.0
176
     1
 62
     5
 63
     8
421
  8421504
176
     1
 74
     1
176
     1
 91
        4
176
     1
 64
     7
176
     1
 65
   257
176
     1
 75
     1
176
     1
175
     1
176
     1
 42
1.0
176
     1
 92
        8
176
     1
 66
     8
424
  8421504
176
     1
 43
1.0
176
     1
 76
     1
176
     1
 77
     6
176
     1
 78
     2
176
     1
 67
     7
176
     1
 79
     5
176
     1
170
     0
176
     1
171
     0
176
     1
290
     0
176
     1
 93
        1
176
     1
 44
0.0
176
     1
173
     0
176
     1
  0
VISUALSTYLE
  5
34
102
{ACAD_REACTORS
330
2A
102
}
330
2A
100
AcDbVisualStyle
  2
Conceptual
 70
     9
177
     2
291
     0
 71
     3
176
     1
 72
     2
176
     1
 73
     0
176
     1
 90
        0
176
     1
 40
-0.6
176
     1
 41
-30.0
176
     1
 62
     5
 63
     7
421
 16777215
176
     1
 74
     2
176
     1
 91
        2
176
     1
 64
     7
176
     1
 65
   257
176
     1
 75
     1
176
     1
175
     1
176
     1
 42
40.0
176
     1
 92
        8
176
     1
 66
     7
176
     1
 43
1.0
176
     1
 76
     1
176
     1
 77
     6
176
     1
 78
     2
176
     1
 67
     7
176
     1
 79
     3
176
     1
170
     0
176
     1
171
     0
176
     1
290
     0
176
     1
 93
        1
176
     1
 44
0.0
176
     1
173
     0
176
     1
  0
VISUALSTYLE
  5
35
102
{ACAD_REACTORS
330
2A
102
}
330
2A
100
AcDbVisualStyle
  2
Dim
 70
    11
177
     2
291
     1
 71
     2
176
     1
 72
     2
176
     1
 73
     0
176
     1
 90
        0
176
     1
 40
-0.6
176
     1
 41
-30.0
176
     1
 62
     5
 63
     7
421
 16777215
176
     1
 74
     1
176
     1
 91
        4
176
     1
 64
     7
176
     1
 65
   257
176
     1
 75
     1
176
     1
175
     1
176
     1
 42
1.0
176
     1
 92
        8
176
     1
 66
     7
176
     1
 43
1.0
176
     1
 76
     1
176
     1
 77
     6
176
     1
 78
     2
176
     1
 67
     7
176
     1
 79
     5
176
     1
170
     0
176
     1
171
     0
176
     1
290
     0
176
     1
 93
        1
176
     1
 44
-50.0
176
     1
173
     0
176
     1
  0
VISUALSTYLE
  5
7A
102
{ACAD_REACTORS
330
2A
102
}
330
2A
100
AcDbVisualStyle
  2
EdgeColorOff
 70
    22
177
     2
291
     1
 71
     2
176
     0
 72
     2
176
     0
 73
     0
176
     0
 90
        0
176
     0
 40
0.6
176
     0
 41
30.0
176
     0
 62
     5
 63
     7
421
 16777215
176
     0
 74
     1
176
     0
 91
        4
176
     0
 64
     7
176
     0
 65
   257
176
     0
 75
     1
176
     0
175
     1
176
     0
 42
1.0
176
     0
 92
        8
176
     2
 66
     7
176
     0
 43
1.0
176
     0
 76
     1
176
     0
 77
     6
176
     0
 78
     2
176
     0
 67
     7
176
     0
 79
     5
176
     0
170
     0
176
     0
171
     0
176
     0
290
     0
176
     0
 93
        1
176
     0
 44
0.0
176
     0
173
     0
176
     0
  0
VISUALSTYLE
  5
39
102
{ACAD_REACTORS
330
2A
102
}
330
2A
100
AcDbVisualStyle
  2
Facepattern
 70
    15
177
     2
291
     1
 71
     2
176
     1
 72
     2
176
     1
 73
     0
176
     1
 90
        0
176
     1
 40
-0.6
176
     1
 41
-30.0
176
     1
 62
     5
 63
     7
421
 16777215
176
     1
 74
     1
176
     1
 91
        4
176
     1
 64
     7
176
     1
 65
   257
176
     1
 75
     1
176
     1
175
     1
176
     1
 42
1.0
176
     1
 92
        8
176
     1
 66
     7
176
     1
 43
1.0
176
     1
 76
     1
176
     1
 77
     6
176
     1
 78
     2
176
     1
 67
     7
176
     1
 79
     5
176
     1
170
     0
176
     1
171
     0
176
     1
290
     0
176
     1
 93
        1
176
     1
 44
0.0
176
     1
173
     0
176
     1
  0
VISUALSTYLE
  5
2B
102
{ACAD_REACTORS
330
2A
102
}
330
2A
100
AcDbVisualStyle
  2
Flat
 70
     0
177
     2
291
     1
 71
     2
176
     1
 72
     1
176
     1
 73
     1
176
     1
 90
        2
176
     1
 40
-0.6
176
     1
 41
30.0
176
     1
 62
     5
 63
     7
421
 16777215
176
     1
 74
     0
176
     1
 91
        4
176
     1
 64
     7
176
     1
 65
   257
176
     1
 75
     1
176
     1
175
     1
176
     1
 42
1.0
176
     1
 92
        8
176
     1
 66
     7
176
     1
 43
1.0
176
     1
 76
     1
176
     1
 77
     6
176
     1
 78
     2
176
     1
 67
     7
176
     1
 79
     5
176
     1
170
     0
176
     1
171
     0
176
     1
290
     0
176
     1
 93
       13
176
     1
 44
0.0
176
     1
173
     0
176
     1
  0
VISUALSTYLE
  5
2C
102
{ACAD_REACTORS
330
2A
102
}
330
2A
100
AcDbVisualStyle
  2
FlatWithEdges
 70
     1
177
     2
291
     1
 71
     2
176
     1
 72
     1
176
     1
 73
     1
176
     1
 90
        2
176
     1
 40
-0.6
176
     1
 41
30.0
176
     1
 62
     5
 63
     7
421
 16777215
176
     1
 74
     1
176
     1
 91
        4
176
     1
 64
     7
176
     1
 65
   257
176
     1
 75
     1
176
     1
175
     1
176
     1
 42
1.0
176
     1
 92
        0
176
     1
 66
   257
176
     1
 43
1.0
176
     1
 76
     1
176
     1
 77
     6
176
     1
 78
     2
176
     1
 67
     7
176
     1
 79
     5
176
     1
170
     0
176
     1
171
     0
176
     1
290
     0
176
     1
 93
       13
176
     1
 44
0.0
176
     1
173
     0
176
     1
  0
VISUALSTYLE
  5
2D
102
{ACAD_REACTORS
330
2A
102
}
330
2A
100
AcDbVisualStyle
  2
Gouraud
 70
     2
177
     2
291
     1
 71
     2
176
     1
 72
     2
176
     1
 73
     1
176
     1
 90
        2
176
     1
 40
-0.6
176
     1
 41
30.0
176
     1
 62
     5
 63
     7
421
 16777215
176
     1
 74
     0
176
     1
 91
        4
176
     1
 64
     7
176
     1
 65
   257
176
     1
 75
     1
176
     1
175
     1
176
     1
 42
1.0
176
     1
 92
        0
176
     1
 66
     7
176
     1
 43
1.0
176
     1
 76
     1
176
     1
 77
     6
176
     1
 78
     2
176
     1
 67
     7
176
     1
 79
     5
176
     1
170
     0
176
     1
171
     0
176
     1
290
     0
176
     1
 93
       13
176
     1
 44
0.0
176
     1
173
     0
176
     1
  0
VISUALSTYLE
  5
2E
102
{ACAD_REACTORS
330
2A
102
}
330
2A
100
AcDbVisualStyle
  2
GouraudWithEdges
 70
     3
177
     2
291
     1
 71
     2
176
     1
 72
     2
176
     1
 73
     1
176
     1
 90
        2
176
     1
 40
-0.6
176
     1
 41
30.0
176
     1
 62
     5
 63
     7
421
 16777215
176
     1
 74
     1
176
     1
 91
        4
176
     1
 64
     7
176
     1
 65
   257
176
     1
 75
     1
176
     1
175
     1
176
     1
 42
1.0
176
     1
 92
        0
176
     1
 66
   257
176
     1
 43
1.0
176
     1
 76
     1
176
     1
 77
     6
176
     1
 78
     2
176
     1
 67
     7
176
     1
 79
     5
176
     1
170
     0
176
     1
171
     0
176
     1
290
     0
176
     1
 93
       13
176
     1
 44
0.0
176
     1
173
     0
176
     1
  0
VISUALSTYLE
  5
77
102
{ACAD_REACTORS
330
2A
102
}
330
2A
100
AcDbVisualStyle
  2
Hidden
 70
     6
177
     2
291
     0
 71
     1
176
     1
 72
     2
176
     1
 73
     2
176
     1
 90
        0
176
     1
 40
0.6
176
     1
 41
30.0
176
     1
 62
     5
 63
     7
421
 16777215
176
     1
 74
     2
176
     1
 91
        2
176
     1
 64
     7
176
     1
 65
   257
176
     1
 75
     2
176
     1
175
     1
176
     1
 42
40.0
176
     1
 92
        0
176
     1
 66
   257
176
     1
 43
1.0
176
     1
 76
     1
176
     1
 77
     6
176
     1
 78
     2
176
     1
 67
     7
176
     1
 79
     3
176
     1
170
     0
176
     1
171
     0
176
     1
290
     0
176
     1
 93
        1
176
     1
 44
0.0
176
     1
173
     0
176
     1
  0
VISUALSTYLE
  5
78
102
{ACAD_REACTORS
330
2A
102
}
330
2A
100
AcDbVisualStyle
  2
JitterOff
 70
    20
177
     2
291
     1
 71
     2
176
     0
 72
     2
176
     0
 73
     0
176
     0
 90
        0
176
     0
 40
0.6
176
     0
 41
30.0
176
     0
 62
     5
 63
     7
421
 16777215
176
     0
 74
     1
176
     0
 91
        4
176
     0
 64
     7
176
     0
 65
   257
176
     0
 75
     1
176
     0
175
     1
176
     0
 42
1.0
176
     0
 92
       10
176
     2
 66
     7
176
     0
 43
1.0
176
     0
 76
     1
176
     0
 77
     6
176
     0
 78
     2
176
     0
 67
     7
176
     0
 79
     5
176
     0
170
     0
176
     0
171
     0
176
     0
290
     0
176
     0
 93
        1
176
     0
 44
0.0
176
     0
173
     0
176
     0
  0
VISUALSTYLE
  5
38
102
{ACAD_REACTORS
330
2A
102
}
330
2A
100
AcDbVisualStyle
  2
Linepattern
 70
    14
177
     2
291
     1
 71
     2
176
     1
 72
     2
176
     1
 73
     0
176
     1
 90
        0
176
     1
 40
-0.6
176
     1
 41
-30.0
176
     1
 62
     5
 63
     7
421
 16777215
176
     1
 74
     1
176
     1
 91
        4
176
     1
 64
     7
176
     1
 65
   257
176
     1
 75
     7
176
     1
175
     7
176
     1
 42
1.0
176
     1
 92
        8
176
     1
 66
     7
176
     1
 43
1.0
176
     1
 76
     1
176
     1
 77
     6
176
     1
 78
     2
176
     1
 67
     7
176
     1
 79
     5
176
     1
170
     0
176
     1
171
     0
176
     1
290
     0
176
     1
 93
        1
176
     1
 44
0.0
176
     1
173
     0
176
     1
  0
VISUALSTYLE
  5
79
102
{ACAD_REACTORS
330
2A
102
}
330
2A
100
AcDbVisualStyle
  2
OverhangOff
 70
    21
177
     2
291
     1
 71
     2
176
     0
 72
     2
176
     0
 73
     0
176
     0
 90
        0
176
     0
 40
0.6
176
     0
 41
30.0
176
     0
 62
     5
 63
     7
421
 16777215
176
     0
 74
     1
176
     0
 91
        4
176
     0
 64
     7
176
     0
 65
   257
176
     0
 75
     1
176
     0
175
     1
176
     0
 42
1.0
176
     0
 92
        9
176
     2
 66
     7
176
     0
 43
1.0
176
     0
 76
     1
176
     0
 77
     6
176
     0
 78
     2
176
     0
 67
     7
176
     0
 79
     5
176
     0
170
     0
176
     0
171
     0
176
     0
290
     0
176
     0
 93
        1
176
     0
 44
0.0
176
     0
173
     0
176
     0
  0
VISUALSTYLE
  5
33
102
{ACAD_REACTORS
330
2A
102
}
330
2A
100
AcDbVisualStyle
  2
Realistic
 70
     8
177
     2
291
     0
 71
     2
176
     1
 72
     2
176
     1
 73
     0
176
     1
 90
        0
176
     1
 40
-0.6
176
     1
 41
-30.0
176
     1
 62
     5
 63
     7
421
 16777215
176
     1
 74
     1
176
     1
 91
        0
176
     1
 64
     7
176
     1
 65
   257
176
     1
 75
     1
176
     1
175
     1
176
     1
 42
1.0
176
     1
 92
        8
176
     1
 66
     8
424
  7895160
176
     1
 43
1.0
176
     1
 76
     1
176
     1
 77
     6
176
     1
 78
     2
176
     1
 67
     7
176
     1
 79
     5
176
     1
170
     0
176
     1
171
     0
176
     1
290
     0
176
     1
 93
       13
176
     1
 44
0.0
176
     1
173
     0
176
     1
  0
VISUALSTYLE
  5
7F
102
{ACAD_REACTORS
330
2A
102
}
330
2A
100
AcDbVisualStyle
  2
Shaded
 70
    27
177
     2
291
     0
 71
     2
176
     1
 72
     2
176
     1
 73
     1
176
     1
 90
        2
176
     1
 40
0.6
176
     1
 41
30.0
176
     1
 62
     5
 63
     7
421
 16777215
176
     1
 74
     0
176
     1
 91
        4
176
     1
 64
     7
176
     1
 65
   257
176
     1
 75
     1
176
     1
175
     1
176
     1
 42
1.0
176
     1
 92
        8
176
     1
 66
   257
176
     1
 43
1.0
176
     1
 76
     1
176
     1
 77
     6
176
     1
 78
     2
176
     1
 67
     8
425
  7895160
176
     1
 79
     3
176
     1
170
     0
176
     1
171
     0
176
     1
290
     0
176
     1
 93
        5
176
     1
 44
0.0
176
     1
173
     0
176
     1
  0
VISUALSTYLE
  5
7E
102
{ACAD_REACTORS
330
2A
102
}
330
2A
100
AcDbVisualStyle
  2
Shaded with edges
 70
    26
177
     2
291
     0
 71
     2
176
     1
 72
     2
176
     1
 73
     1
176
     1
 90
        2
176
     1
 40
0.6
176
     1
 41
30.0
176
     1
 62
     5
 63
     7
421
 16777215
176
     1
 74
     1
176
     1
 91
       10
176
     1
 64
     7
176
     1
 65
   257
176
     1
 75
     2
176
     1
175
     1
176
     1
 42
1.0
176
     1
 92
        8
176
     1
 66
   257
176
     1
 43
1.0
176
     1
 76
     1
176
     1
 77
     6
176
     1
 78
     2
176
     1
 67
     7
176
     1
 79
     3
176
     1
170
     0
176
     1
171
     0
176
     1
290
     0
176
     1
 93
        5
176
     1
 44
0.0
176
     1
173
     0
176
     1
  0
VISUALSTYLE
  5
7B
102
{ACAD_REACTORS
330
2A
102
}
330
2A
100
AcDbVisualStyle
  2
Shades of Gray
 70
    23
177
     2
291
     0
 71
     2
176
     1
 72
     2
176
     1
 73
     3
176
     1
 90
        0
176
     1
 40
0.6
176
     1
 41
30.0
176
     1
 62
     5
 63
     7
421
 16777215
176
     1
 74
     2
176
     1
 91
        2
176
     1
 64
     7
176
     1
 65
     7
176
     1
 75
     1
176
     1
175
     1
176
     1
 42
40.0
176
     1
 92
        8
176
     1
 66
     7
176
     1
 43
1.0
176
     1
 76
     1
176
     1
 77
     6
176
     1
 78
     2
176
     1
 67
     7
176
     1
 79
     3
176
     1
170
     0
176
     1
171
     0
176
     1
290
     0
176
     1
 93
        1
176
     1
 44
0.0
176
     1
173
     0
176
     1
  0
VISUALSTYLE
  5
7C
102
{ACAD_REACTORS
330
2A
102
}
330
2A
100
AcDbVisualStyle
  2
Sketchy
 70
    24
177
     2
291
     0
 71
     1
176
     1
 72
     2
176
     1
 73
     2
176
     1
 90
        0
176
     1
 40
0.6
176
     1
 41
30.0
176
     1
 62
     5
 63
     7
421
 16777215
176
     1
 74
     2
176
     1
 91
        2
176
     1
 64
     7
176
     1
 65
     7
176
     1
 75
     1
176
     1
175
     1
176
     1
 42
40.0
176
     1
 92
       11
176
     1
 66
     7
176
     1
 43
1.0
176
     1
 76
     1
176
     1
 77
     6
176
     1
 78
     2
176
     1
 67
     7
176
     1
 79
     6
176
     1
170
     0
176
     1
171
     0
176
     1
290
     0
176
     1
 93
        1
176
     1
 44
0.0
176
     1
173
     0
176
     1
  0
VISUALSTYLE
  5
37
102
{ACAD_REACTORS
330
2A
102
}
330
2A
100
AcDbVisualStyle
  2
Thicken
 70
    13
177
     2
291
     1
 71
     2
176
     1
 72
     2
176
     1
 73
     0
176
     1
 90
        0
176
     1
 40
-0.6
176
     1
 41
-30.0
176
     1
 62
     5
 63
     7
421
 16777215
176
     1
 74
     1
176
     1
 91
        4
176
     1
 64
     7
176
     1
 65
   257
176
     1
 75
     1
176
     1
175
     1
176
     1
 42
1.0
176
     1
 92
       12
176
     1
 66
     7
176
     1
 43
1.0
176
     1
 76
     1
176
     1
 77
     6
176
     1
 78
     2
176
     1
 67
     7
176
     1
 79
     5
176
     1
170
     0
176
     1
171
     0
176
     1
290
     0
176
     1
 93
        1
176
     1
 44
0.0
176
     1
173
     0
176
     1
  0
VISUALSTYLE
  5
76
102
{ACAD_REACTORS
330
2A
102
}
330
2A
100
AcDbVisualStyle
  2
Wireframe
 70
     5
177
     2
291
     0
 71
     0
176
     1
 72
     2
176
     1
 73
     0
176
     1
 90
        0
176
     1
 40
0.6
176
     1
 41
30.0
176
     1
 62
     5
 63
     7
421
 16777215
176
     1
 74
     1
176
     1
 91
        4
176
     1
 64
     7
176
     1
 65
   257
176
     1
 75
     1
176
     1
175
     1
176
     1
 42
1.0
176
     1
 92
        0
176
     1
 66
   257
176
     1
 43
1.0
176
     1
 76
     1
176
     1
 77
     6
176
     1
 78
     2
176
     1
 67
     7
176
     1
 79
     3
176
     1
170
     0
176
     1
171
     0
176
     1
290
     0
176
     1
 93
        1
176
     1
 44
0.0
176
     1
173
     0
176
     1
  0
VISUALSTYLE
  5
7D
102
{ACAD_REACTORS
330
2A
102
}
330
2A
100
AcDbVisualStyle
  2
X-Ray
 70
    25
177
     2
291
     0
 71
     2
176
     1
 72
     2
176
     1
 73
     1
176
     1
 90
        1
176
     1
 40
0.5
176
     1
 41
30.0
176
     1
 62
     5
 63
     7
421
 16777215
176
     1
 74
     1
176
     1
 91
        0
176
     1
 64
     7
176
     1
 65
   257
176
     1
 75
     1
176
     1
175
     1
176
     1
 42
1.0
176
     1
 92
        8
176
     1
 66
     7
176
     1
 43
1.0
176
     1
 76
     1
176
     1
 77
     6
176
     1
 78
     2
176
     1
 67
     7
176
     1
 79
     3
176
     1
170
     0
176
     1
171
     0
176
     1
290
     0
176
     1
 93
       13
176
     1
 44
0.0
176
     1
173
     0
176
     1
  0
DICTIONARYVAR
  5
62
102
{ACAD_REACTORS
330
3D
102
}
330
3D
100
DictionaryVariables
280
     0
  1
1:1
  0
DICTIONARYVAR
  5
BB
102
{ACAD_REACTORS
330
3D
102
}
330
3D
100
DictionaryVariables
280
     0
  1
Standard
  0
DICTIONARYVAR
  5
3E
102
{ACAD_REACTORS
330
3D
102
}
330
3D
100
DictionaryVariables
280
     0
  1
Standard
  0
DICTIONARYVAR
  5
6F
102
{ACAD_REACTORS
330
3D
102
}
330
3D
100
DictionaryVariables
280
     0
  1
0
  0
DICTIONARYVAR
  5
70
102
{ACAD_REACTORS
330
3D
102
}
330
3D
100
DictionaryVariables
280
     0
  1
0
  0
DICTIONARY
  5
7D3
330
3C
100
AcDbDictionary
280
     1
281
     1
  3
ACAD_ROUNDTRIP_2008_TABLESTYLE_CELLSTYLEMAP
360
7D4
  0
CELLSTYLEMAP
  5
7D4
102
{ACAD_REACTORS
330
7D3
102
}
330
7D3
100
AcDbCellStyleMap
 90
        3
300
CELLSTYLE
  1
TABLEFORMAT_BEGIN
 90
        5
170
     1
 91
        0
 92
    32768
 62
   257
 93
        1
300
CONTENTFORMAT
  1
CONTENTFORMAT_BEGIN
 90
        0
 91
        0
 92
      512
 93
        0
300

 40
0.0
140
1.0
 94
        5
 62
     0
340
11
144
6.0
309
CONTENTFORMAT_END
171
     1
301
MARGIN
  1
CELLMARGIN_BEGIN
 40
1.5
 40
1.5
 40
1.5
 40
1.5
 40
0.18
 40
0.18
309
CELLMARGIN_END
 94
        6
 95
        1
302
GRIDFORMAT
  1
GRIDFORMAT_BEGIN
 90
        0
 91
        1
 62
     0
 92
       -2
340
0
 93
        0
 40
0.045
309
GRIDFORMAT_END
 95
        2
302
GRIDFORMAT
  1
GRIDFORMAT_BEGIN
 90
        0
 91
        1
 62
     0
 92
       -2
340
0
 93
        0
 40
0.045
309
GRIDFORMAT_END
 95
        4
302
GRIDFORMAT
  1
GRIDFORMAT_BEGIN
 90
        0
 91
        1
 62
     0
 92
       -2
340
0
 93
        0
 40
0.045
309
GRIDFORMAT_END
 95
        8
302
GRIDFORMAT
  1
GRIDFORMAT_BEGIN
 90
        0
 91
        1
 62
     0
 92
       -2
340
0
 93
        0
 40
0.045
309
GRIDFORMAT_END
 95
       16
302
GRIDFORMAT
  1
GRIDFORMAT_BEGIN
 90
        0
 91
        1
 62
     0
 92
       -2
340
0
 93
        0
 40
0.045
309
GRIDFORMAT_END
 95
       32
302
GRIDFORMAT
  1
GRIDFORMAT_BEGIN
 90
        0
 91
        1
 62
     0
 92
       -2
340
0
 93
        0
 40
0.045
309
GRIDFORMAT_END
309
TABLEFORMAT_END
  1
CELLSTYLE_BEGIN
 90
        1
 91
        1
300
_TITLE
309
CELLSTYLE_END
300
CELLSTYLE
  1
TABLEFORMAT_BEGIN
 90
        5
170
     1
 91
        0
 92
        0
 62
   257
 93
        1
300
CONTENTFORMAT
  1
CONTENTFORMAT_BEGIN
 90
        0
 91
        0
 92
      512
 93
        0
300

 40
0.0
140
1.0
 94
        5
 62
     0
340
11
144
4.5
309
CONTENTFORMAT_END
171
     1
301
MARGIN
  1
CELLMARGIN_BEGIN
 40
1.5
 40
1.5
 40
1.5
 40
1.5
 40
0.18
 40
0.18
309
CELLMARGIN_END
 94
        6
 95
        1
302
GRIDFORMAT
  1
GRIDFORMAT_BEGIN
 90
        0
 91
        1
 62
     0
 92
       -2
340
0
 93
        0
 40
0.045
309
GRIDFORMAT_END
 95
        2
302
GRIDFORMAT
  1
GRIDFORMAT_BEGIN
 90
        0
 91
        1
 62
     0
 92
       -2
340
0
 93
        0
 40
0.045
309
GRIDFORMAT_END
 95
        4
302
GRIDFORMAT
  1
GRIDFORMAT_BEGIN
 90
        0
 91
        1
 62
     0
 92
       -2
340
0
 93
        0
 40
0.045
309
GRIDFORMAT_END
 95
        8
302
GRIDFORMAT
  1
GRIDFORMAT_BEGIN
 90
        0
 91
        1
 62
     0
 92
       -2
340
0
 93
        0
 40
0.045
309
GRIDFORMAT_END
 95
       16
302
GRIDFORMAT
  1
GRIDFORMAT_BEGIN
 90
        0
 91
        1
 62
     0
 92
       -2
340
0
 93
        0
 40
0.045
309
GRIDFORMAT_END
 95
       32
302
GRIDFORMAT
  1
GRIDFORMAT_BEGIN
 90
        0
 91
        1
 62
     0
 92
       -2
340
0
 93
        0
 40
0.045
309
GRIDFORMAT_END
309
TABLEFORMAT_END
  1
CELLSTYLE_BEGIN
 90
        2
 91
        1
300
_HEADER
309
CELLSTYLE_END
300
CELLSTYLE
  1
TABLEFORMAT_BEGIN
 90
        5
170
     1
 91
        0
 92
        0
 62
   257
 93
        1
300
CONTENTFORMAT
  1
CONTENTFORMAT_BEGIN
 90
        0
 91
        0
 92
      512
 93
        0
300

 40
0.0
140
1.0
 94
        2
 62
     0
340
11
144
4.5
309
CONTENTFORMAT_END
171
     1
301
MARGIN
  1
CELLMARGIN_BEGIN
 40
1.5
 40
1.5
 40
1.5
 40
1.5
 40
0.18
 40
0.18
309
CELLMARGIN_END
 94
        6
 95
        1
302
GRIDFORMAT
  1
GRIDFORMAT_BEGIN
 90
        0
 91
        1
 62
     0
 92
       -2
340
0
 93
        0
 40
0.045
309
GRIDFORMAT_END
 95
        2
302
GRIDFORMAT
  1
GRIDFORMAT_BEGIN
 90
        0
 91
        1
 62
     0
 92
       -2
340
0
 93
        0
 40
0.045
309
GRIDFORMAT_END
 95
        4
302
GRIDFORMAT
  1
GRIDFORMAT_BEGIN
 90
        0
 91
        1
 62
     0
 92
       -2
340
0
 93
        0
 40
0.045
309
GRIDFORMAT_END
 95
        8
302
GRIDFORMAT
  1
GRIDFORMAT_BEGIN
 90
        0
 91
        1
 62
     0
 92
       -2
340
0
 93
        0
 40
0.045
309
GRIDFORMAT_END
 95
       16
302
GRIDFORMAT
  1
GRIDFORMAT_BEGIN
 90
        0
 91
        1
 62
     0
 92
       -2
340
0
 93
        0
 40
0.045
309
GRIDFORMAT_END
 95
       32
302
GRIDFORMAT
  1
GRIDFORMAT_BEGIN
 90
        0
 91
        1
 62
     0
 92
       -2
340
0
 93
        0
 40
0.045
309
GRIDFORMAT_END
309
TABLEFORMAT_END
  1
CELLSTYLE_BEGIN
 90
        3
 91
        2
300
_DATA
309
CELLSTYLE_END
  0
ENDSEC
  0
EOF
