  0
SECTION
  2
HEADER
  9
$ACADVER
  1
AC1024
  9
$ACADMAINTVER
 70
     6
  9
$DWGCODEPAGE
  3
ANSI_1252
  9
$LASTSAVEDBY
  1
root
  9
$INSBASE
 10
0.0
 20
0.0
 30
0.0
  9
$EXTMIN
 10
-10.00000000000001
 20
-19.60000000000009
 30
0.0
  9
$EXTMAX
 10
10.0
 20
19.60000000000001
 30
0.0
  9
$LIMMIN
 10
0.0
 20
0.0
  9
$LIMMAX
 10
297.0
 20
210.0
  9
$ORTHOMODE
 70
     0
  9
$REGENMODE
 70
     1
  9
$FILLMODE
 70
     1
  9
$QTEXTMODE
 70
     0
  9
$MIRRTEXT
 70
     1
  9
$LTSCALE
 40
1.0
  9
$ATTMODE
 70
     1
  9
$TEXTSIZE
 40
6.400000000000001
  9
$TRACEWID
 40
0.05
  9
$TEXTSTYLE
  7
STANDARD
  9
$CLAYER
  8
0
  9
$CELTYPE
  6
CONTINUOUS
  9
$CECOLOR
 62
     7
  9
$CELTSCALE
 40
1.0
  9
$DISPSILH
 70
     0
  9
$DIMSCALE
 40
1.0
  9
$DIMASZ
 40
3.0
  9
$DIMEXO
 40
1.0
  9
$DIMDLI
 40
0.0
  9
$DIMRND
 40
0.0
  9
$DIMDLE
 40
0.0
  9
$DIMEXE
 40
1.0
  9
$DIMTP
 40
0.0
  9
$DIMTM
 40
0.0
  9
$DIMTXT
 40
3.2
  9
$DIMCEN
 40
0.0
  9
$DIMTSZ
 40
0.0
  9
$DIMTOL
 70
     0
  9
$DIMLIM
 70
     0
  9
$DIMTIH
 70
     0
  9
$DIMTOH
 70
     0
  9
$DIMSE1
 70
     0
  9
$DIMSE2
 70
     0
  9
$DIMTAD
 70
     1
  9
$DIMZIN
 70
     8
  9
$DIMBLK
  1

  9
$DIMASO
 70
     1
  9
$DIMSHO
 70
     1
  9
$DIMPOST
  1

  9
$DIMAPOST
  1

  9
$DIMALT
 70
     0
  9
$DIMALTD
 70
     2
  9
$DIMALTF
 40
0.04
  9
$DIMLFAC
 40
1.0
  9
$DIMTOFL
 70
     1
  9
$DIMTVP
 40
1.0
  9
$DIMTIX
 70
     1
  9
$DIMSOXD
 70
     0
  9
$DIMSAH
 70
     0
  9
$DIMBLK1
  1

  9
$DIMBLK2
  1

  9
$DIMSTYLE
  2
MISUMI
  9
$DIMCLRD
 70
     0
  9
$DIMCLRE
 70
     0
  9
$DIMCLRT
 70
     0
  9
$DIMTFAC
 40
0.6
  9
$DIMGAP
 40
1.0
  9
$DIMJUST
 70
     0
  9
$DIMSD1
 70
     0
  9
$DIMSD2
 70
     0
  9
$DIMTOLJ
 70
     1
  9
$DIMTZIN
 70
     0
  9
$DIMALTZ
 70
     0
  9
$DIMALTTZ
 70
     0
  9
$DIMUPT
 70
     0
  9
$DIMDEC
 70
     4
  9
$DIMTDEC
 70
     4
  9
$DIMALTU
 70
     2
  9
$DIMALTTD
 70
     2
  9
$DIMTXSTY
  7
STANDARD
  9
$DIMAUNIT
 70
     0
  9
$DIMADEC
 70
     0
  9
$DIMALTRND
 40
0.0
  9
$DIMAZIN
 70
     0
  9
$DIMDSEP
 70
    46
  9
$DIMATFIT
 70
     3
  9
$DIMFRAC
 70
     0
  9
$DIMLDRBLK
  1

  9
$DIMLUNIT
 70
     2
  9
$DIMLWD
 70
    -2
  9
$DIMLWE
 70
    -2
  9
$DIMTMOVE
 70
     2
  9
$DIMFXL
 40
1.0
  9
$DIMFXLON
 70
     0
  9
$DIMJOGANG
 40
0.7853981633974483
  9
$DIMTFILL
 70
     0
  9
$DIMTFILLCLR
 70
     0
  9
$DIMARCSYM
 70
     0
  9
$DIMLTYPE
  6

  9
$DIMLTEX1
  6

  9
$DIMLTEX2
  6

  9
$DIMTXTDIRECTION
 70
     0
  9
$LUNITS
 70
     2
  9
$LUPREC
 70
     4
  9
$SKETCHINC
 40
0.1
  9
$FILLETRAD
 40
0.0
  9
$AUNITS
 70
     0
  9
$AUPREC
 70
     0
  9
$MENU
  1
acad
  9
$ELEVATION
 40
0.0
  9
$PELEVATION
 40
0.0
  9
$THICKNESS
 40
0.0
  9
$LIMCHECK
 70
     0
  9
$CHAMFERA
 40
0.5
  9
$CHAMFERB
 40
0.5
  9
$CHAMFERC
 40
0.0
  9
$CHAMFERD
 40
0.0
  9
$SKPOLY
 70
     0
  9
$TDCREATE
 40
2451464.60066493
  9
$TDUCREATE
 40
2451464.22566493
  9
$TDUPDATE
 40
2458974.321246956
  9
$TDUUPDATE
 40
2458973.946246956
  9
$TDINDWG
 40
0.196332581
  9
$TDUSRTIMER
 40
0.0002133218
  9
$USRTIMER
 70
     1
  9
$ANGBASE
 50
0.0
  9
$ANGDIR
 70
     0
  9
$PDMODE
 70
     0
  9
$PDSIZE
 40
0.0
  9
$PLINEWID
 40
0.0
  9
$SPLFRAME
 70
     0
  9
$SPLINETYPE
 70
     6
  9
$SPLINESEGS
 70
     8
  9
$HANDSEED
  5
225F
  9
$SURFTAB1
 70
     6
  9
$SURFTAB2
 70
     6
  9
$SURFTYPE
 70
     6
  9
$SURFU
 70
     6
  9
$SURFV
 70
     6
  9
$UCSBASE
  2

  9
$UCSNAME
  2

  9
$UCSORG
 10
0.0
 20
0.0
 30
0.0
  9
$UCSXDIR
 10
1.0
 20
0.0
 30
0.0
  9
$UCSYDIR
 10
0.0
 20
1.0
 30
0.0
  9
$UCSORTHOREF
  2

  9
$UCSORTHOVIEW
 70
     0
  9
$UCSORGTOP
 10
0.0
 20
0.0
 30
0.0
  9
$UCSORGBOTTOM
 10
0.0
 20
0.0
 30
0.0
  9
$UCSORGLEFT
 10
0.0
 20
0.0
 30
0.0
  9
$UCSORGRIGHT
 10
0.0
 20
0.0
 30
0.0
  9
$UCSORGFRONT
 10
0.0
 20
0.0
 30
0.0
  9
$UCSORGBACK
 10
0.0
 20
0.0
 30
0.0
  9
$PUCSBASE
  2

  9
$PUCSNAME
  2

  9
$PUCSORG
 10
0.0
 20
0.0
 30
0.0
  9
$PUCSXDIR
 10
1.0
 20
0.0
 30
0.0
  9
$PUCSYDIR
 10
0.0
 20
1.0
 30
0.0
  9
$PUCSORTHOREF
  2

  9
$PUCSORTHOVIEW
 70
     0
  9
$PUCSORGTOP
 10
0.0
 20
0.0
 30
0.0
  9
$PUCSORGBOTTOM
 10
0.0
 20
0.0
 30
0.0
  9
$PUCSORGLEFT
 10
0.0
 20
0.0
 30
0.0
  9
$PUCSORGRIGHT
 10
0.0
 20
0.0
 30
0.0
  9
$PUCSORGFRONT
 10
0.0
 20
0.0
 30
0.0
  9
$PUCSORGBACK
 10
0.0
 20
0.0
 30
0.0
  9
$USERI1
 70
     0
  9
$USERI2
 70
     0
  9
$USERI3
 70
     0
  9
$USERI4
 70
     0
  9
$USERI5
 70
     0
  9
$USERR1
 40
0.0
  9
$USERR2
 40
0.0
  9
$USERR3
 40
0.0
  9
$USERR4
 40
0.0
  9
$USERR5
 40
0.0
  9
$WORLDVIEW
 70
     1
  9
$SHADEDGE
 70
     3
  9
$SHADEDIF
 70
    70
  9
$TILEMODE
 70
     1
  9
$MAXACTVP
 70
    16
  9
$PINSBASE
 10
0.0
 20
0.0
 30
0.0
  9
$PLIMCHECK
 70
     0
  9
$PEXTMIN
 10
1.000000000000000E+20
 20
1.000000000000000E+20
 30
1.000000000000000E+20
  9
$PEXTMAX
 10
-1.000000000000000E+20
 20
-1.000000000000000E+20
 30
-1.000000000000000E+20
  9
$PLIMMIN
 10
0.0
 20
0.0
  9
$PLIMMAX
 10
0.0
 20
0.0
  9
$UNITMODE
 70
     0
  9
$VISRETAIN
 70
     0
  9
$PLINEGEN
 70
     0
  9
$PSLTSCALE
 70
     1
  9
$TREEDEPTH
 70
  3020
  9
$CMLSTYLE
  2
Standard
  9
$CMLJUST
 70
     0
  9
$CMLSCALE
 40
1.0
  9
$PROXYGRAPHICS
 70
     1
  9
$MEASUREMENT
 70
     0
  9
$CELWEIGHT
370
    -1
  9
$ENDCAPS
280
     0
  9
$JOINSTYLE
280
     0
  9
$LWDISPLAY
290
     0
  9
$INSUNITS
 70
     0
  9
$HYPERLINKBASE
  1

  9
$STYLESHEET
  1

  9
$XEDIT
290
     1
  9
$CEPSNTYPE
380
     0
  9
$PSTYLEMODE
290
     1
  9
$FINGERPRINTGUID
  2
{e8773106-51d8-bd4e-adca-e2b673f3b8f9}
  9
$VERSIONGUID
  2
{FAEB1C32-E019-11D5-929B-00C0DF256EC4}
  9
$EXTNAMES
290
     1
  9
$PSVPSCALE
 40
0.0
  9
$OLESTARTUP
290
     0
  9
$SORTENTS
280
   127
  9
$INDEXCTL
280
     0
  9
$HIDETEXT
280
     1
  9
$XCLIPFRAME
280
     2
  9
$HALOGAP
280
     0
  9
$OBSCOLOR
 70
   257
  9
$OBSLTYPE
280
     0
  9
$INTERSECTIONDISPLAY
280
     0
  9
$INTERSECTIONCOLOR
 70
   257
  9
$DIMASSOC
280
     2
  9
$PROJECTNAME
  1

  9
$CAMERADISPLAY
290
     0
  9
$LENSLENGTH
 40
50.0
  9
$CAMERAHEIGHT
 40
0.0
  9
$STEPSPERSEC
 40
2.0
  9
$STEPSIZE
 40
6.0
  9
$3DDWFPREC
 40
2.0
  9
$PSOLWIDTH
 40
0.25
  9
$PSOLHEIGHT
 40
4.0
  9
$LOFTANG1
 40
1.570796326794897
  9
$LOFTANG2
 40
1.570796326794897
  9
$LOFTMAG1
 40
0.0
  9
$LOFTMAG2
 40
0.0
  9
$LOFTPARAM
 70
     7
  9
$LOFTNORMALS
280
     1
  9
$LATITUDE
 40
37.795
  9
$LONGITUDE
 40
-122.394
  9
$NORTHDIRECTION
 40
0.0
  9
$TIMEZONE
 70
 -8000
  9
$LIGHTGLYPHDISPLAY
280
     1
  9
$TILEMODELIGHTSYNCH
280
     1
  9
$SOLIDHIST
280
     0
  9
$SHOWHIST
280
     1
  9
$DWFFRAME
280
     2
  9
$DGNFRAME
280
     2
  9
$REALWORLDSCALE
290
     1
  9
$INTERFERECOLOR
 62
   256
  9
$CSHADOW
280
     0
  9
$SHADOWPLANELOCATION
 40
0.0
  0
ENDSEC
  0
SECTION
  2
CLASSES
  0
CLASS
  1
ACDBDICTIONARYWDFLT
  2
AcDbDictionaryWithDefault
  3
ObjectDBX Classes
 90
        0
 91
        3
280
     0
281
     0
  0
CLASS
  1
MATERIAL
  2
AcDbMaterial
  3
ObjectDBX Classes
 90
     1153
 91
        3
280
     0
281
     0
  0
CLASS
  1
SCALE
  2
AcDbScale
  3
ObjectDBX Classes
 90
     1153
 91
        3
280
     0
281
     0
  0
CLASS
  1
VISUALSTYLE
  2
AcDbVisualStyle
  3
ObjectDBX Classes
 90
     4095
 91
        3
280
     0
281
     0
  0
CLASS
  1
TABLESTYLE
  2
AcDbTableStyle
  3
ObjectDBX Classes
 90
     4095
 91
        3
280
     0
281
     0
  0
CLASS
  1
MLEADERSTYLE
  2
AcDbMLeaderStyle
  3
ACDB_MLEADERSTYLE_CLASS
 90
     4095
 91
        3
280
     0
281
     0
  0
CLASS
  1
DICTIONARYVAR
  2
AcDbDictionaryVar
  3
ObjectDBX Classes
 90
        0
 91
        3
280
     0
281
     0
  0
CLASS
  1
SUN
  2
AcDbSun
  3
SCENEOE
 90
     1153
 91
        3
280
     0
281
     0
  0
CLASS
  1
CELLSTYLEMAP
  2
AcDbCellStyleMap
  3
ObjectDBX Classes
 90
     1152
 91
        3
280
     0
281
     0
  0
ENDSEC
  0
SECTION
  2
TABLES
  0
TABLE
  2
VPORT
  5
210A
330
0
100
AcDbSymbolTable
 70
     1
  0
VPORT
  5
2121
330
210A
100
AcDbSymbolTableRecord
100
AcDbViewportTableRecord
  2
*ACTIVE
 70
     0
 10
0.0
 20
0.0
 11
1.0
 21
1.0
 12
0.0
 22
0.0
 13
0.0
 23
0.0
 14
10.0
 24
10.0
 15
10.0
 25
10.0
 16
0.0
 26
0.0
 36
1.0
 17
-0.0000000000000071
 27
-0.0000000000000426
 37
0.0
 40
39.98400000000011
 41
2.710758377425044
 42
50.0
 43
0.0
 44
0.0
 50
0.0
 51
0.0
 71
    16
 72
   100
 73
     1
 74
     0
 75
     0
 76
     0
 77
     0
 78
     0
281
     0
 65
     0
110
0.0
120
0.0
130
0.0
111
1.0
121
0.0
131
0.0
112
0.0
122
1.0
132
0.0
 79
     0
146
0.0
348
2157
 60
     3
 61
     5
292
     1
282
     1
141
0.0
142
0.0
 63
   256
361
217F
  0
ENDTAB
  0
TABLE
  2
LTYPE
  5
2107
330
0
100
AcDbSymbolTable
 70
     1
  0
LTYPE
  5
2115
330
2107
100
AcDbSymbolTableRecord
100
AcDbLinetypeTableRecord
  2
ByBlock
 70
     0
  3

 72
    65
 73
     0
 40
0.0
  0
LTYPE
  5
2116
330
2107
100
AcDbSymbolTableRecord
100
AcDbLinetypeTableRecord
  2
ByLayer
 70
     0
  3

 72
    65
 73
     0
 40
0.0
  0
LTYPE
  5
2117
330
2107
100
AcDbSymbolTableRecord
100
AcDbLinetypeTableRecord
  2
CONTINUOUS
 70
     0
  3
Solid line
 72
    65
 73
     0
 40
0.0
  0
ENDTAB
  0
TABLE
  2
LAYER
  5
2105
102
{ACAD_XDICTIONARY
360
2170
102
}
330
0
100
AcDbSymbolTable
 70
     1
  0
LAYER
  5
2112
330
2105
100
AcDbSymbolTableRecord
100
AcDbLayerTableRecord
  2
0
 70
     0
 62
     7
  6
CONTINUOUS
370
    -3
390
2111
347
2128
  0
ENDTAB
  0
TABLE
  2
STYLE
  5
2106
330
0
100
AcDbSymbolTable
 70
     1
  0
STYLE
  5
2113
330
2106
100
AcDbSymbolTableRecord
100
AcDbTextStyleTableRecord
  2
STANDARD
 70
     0
 40
0.0
 41
1.0
 50
0.0
 71
     0
 42
6.400000000000001
  3
txt
  4

  0
ENDTAB
  0
TABLE
  2
VIEW
  5
2108
330
0
100
AcDbSymbolTable
 70
     0
  0
ENDTAB
  0
TABLE
  2
UCS
  5
2109
330
0
100
AcDbSymbolTable
 70
     0
  0
ENDTAB
  0
TABLE
  2
APPID
  5
210B
330
0
100
AcDbSymbolTable
 70
     2
  0
APPID
  5
2114
330
210B
100
AcDbSymbolTableRecord
100
AcDbRegAppTableRecord
  2
ACAD
 70
     0
  0
APPID
  5
212C
330
210B
100
AcDbSymbolTableRecord
100
AcDbRegAppTableRecord
  2
ACAD_DSTYLE_DIMTEXT_FILL
 70
     0
  0
ENDTAB
  0
TABLE
  2
DIMSTYLE
  5
210C
330
0
100
AcDbSymbolTable
 70
     1
100
AcDbDimStyleTable
  0
DIMSTYLE
105
212D
330
210C
100
AcDbSymbolTableRecord
100
AcDbDimStyleTableRecord
  2
MISUMI
 70
     0
 41
3.0
 42
1.0
 43
0.0
 44
1.0
 73
     0
 74
     0
 77
     1
 78
     8
140
3.2
141
0.0
143
0.04
145
1.0
146
0.6
147
1.0
172
     1
174
     1
178
     0
340
2113
  0
ENDTAB
  0
TABLE
  2
BLOCK_RECORD
  5
2104
330
0
100
AcDbSymbolTable
 70
     1
  0
BLOCK_RECORD
  5
211E
102
{ACAD_XDICTIONARY
360
2174
102
}
330
2104
100
AcDbSymbolTableRecord
100
AcDbBlockTableRecord
  2
*Model_Space
340
211F
 70
     0
280
     1
281
     0
  0
BLOCK_RECORD
  5
211C
330
2104
100
AcDbSymbolTableRecord
100
AcDbBlockTableRecord
  2
*Paper_Space
340
211D
 70
     0
280
     1
281
     0
  0
BLOCK_RECORD
  5
2180
330
2104
100
AcDbSymbolTableRecord
100
AcDbBlockTableRecord
  2
2040
340
0
102
{BLKREFS
331
0
102
}
 70
     0
280
     1
281
     0
  0
ENDTAB
  0
ENDSEC
  0
SECTION
  2
BLOCKS
  0
BLOCK
  5
212E
330
211E
100
AcDbEntity
  8
0
100
AcDbBlockBegin
  2
*Model_Space
 70
     0
 10
0.0
 20
0.0
 30
0.0
  3
*Model_Space
  1

  0
ENDBLK
  5
2091
330
211E
100
AcDbEntity
  8
0
100
AcDbBlockEnd
  0
BLOCK
  5
212F
330
211C
100
AcDbEntity
 67
     1
  8
0
100
AcDbBlockBegin
  2
*Paper_Space
 70
     0
 10
0.0
 20
0.0
 30
0.0
  3
*Paper_Space
  1

  0
ENDBLK
  5
208D
330
211C
100
AcDbEntity
 67
     1
  8
0
100
AcDbBlockEnd
  0
BLOCK
  5
21ED
330
2180
100
AcDbEntity
  8
0
100
AcDbBlockBegin
  2
2040
 70
     0
 10
0.0
 20
0.0
 30
0.0
  3
2040
  1

  0
LINE
  5
2181
330
2180
100
AcDbEntity
  8
0
  6
Continuous
 62
     7
100
AcDbLine
 10
-3.999999999999801
 20
-12.9393620000088
 30
0.0
 11
-3.999999999999801
 21
-10.51961524227072
 31
0.0
  0
LINE
  5
2182
330
2180
100
AcDbEntity
  8
0
  6
Continuous
 62
     7
100
AcDbLine
 10
3.999999999999901
 20
-12.93934214999879
 30
0.0
 11
4.0
 21
-10.51961145137422
 31
0.0
  0
LINE
  5
2183
330
2180
100
AcDbEntity
  8
0
  6
Continuous
 62
     7
100
AcDbLine
 10
3.0
 20
-19.60000000000007
 30
0.0
 11
9.799999999999997
 21
-19.60000000000007
 31
0.0
  0
LINE
  5
2184
330
2180
100
AcDbEntity
  8
0
  6
Continuous
 62
     7
100
AcDbLine
 10
10.0
 20
-13.00000000000004
 30
0.0
 11
8.0
 21
-13.0
 31
0.0
  0
LINE
  5
2185
330
2180
100
AcDbEntity
  8
0
  6
Continuous
 62
     7
100
AcDbLine
 10
10.0
 20
-19.00000000000009
 30
0.0
 11
10.0
 21
-13.00000000000004
 31
0.0
  0
LINE
  5
2186
330
2180
100
AcDbEntity
  8
0
  6
Continuous
 62
     7
100
AcDbLine
 10
-9.80000000000011
 20
-19.60000000000007
 30
0.0
 11
-3.0
 21
-19.60000000000007
 31
0.0
  0
LINE
  5
2187
330
2180
100
AcDbEntity
  8
0
  6
Continuous
 62
     7
100
AcDbLine
 10
-10.0
 20
-13.0
 30
0.0
 11
-8.0
 21
-13.0
 31
0.0
  0
LINE
  5
2188
330
2180
100
AcDbEntity
  8
0
  6
Continuous
 62
     7
100
AcDbLine
 10
7.060665349999994
 20
-16.00000849999998
 30
0.0
 11
3.999999999999901
 21
-12.93934214999879
 31
0.0
  0
LINE
  5
2189
330
2180
100
AcDbEntity
  8
0
  6
Continuous
 62
     7
100
AcDbLine
 10
6.0
 20
-18.00000000000009
 30
0.0
 11
3.0
 21
-18.00000000000009
 31
0.0
  0
LINE
  5
218A
330
2180
100
AcDbEntity
  8
0
  6
Continuous
 62
     7
100
AcDbLine
 10
6.000006199999902
 20
-17.0606690000001
 30
0.0
 11
2.939323299995692
 21
-14.0000000000003
 31
0.0
  0
LINE
  5
218B
330
2180
100
AcDbEntity
  8
0
  6
Continuous
 62
     7
100
AcDbLine
 10
6.0
 20
-18.00000000000009
 30
0.0
 11
6.0
 21
-17.0606690000001
 31
0.0
  0
LINE
  5
218C
330
2180
100
AcDbEntity
  8
0
  6
Continuous
 62
     7
100
AcDbLine
 10
8.0
 20
-15.99999999999994
 30
0.0
 11
8.0
 21
-13.0
 31
0.0
  0
LINE
  5
218D
330
2180
100
AcDbEntity
  8
0
  6
Continuous
 62
     7
100
AcDbLine
 10
7.060660200000001
 20
-15.99999999999994
 30
0.0
 11
8.0
 21
-15.99999999999994
 31
0.0
  0
LINE
  5
218E
330
2180
100
AcDbEntity
  8
0
  6
Continuous
 62
     7
100
AcDbLine
 10
3.0
 20
-19.60000000000007
 30
0.0
 11
3.0
 21
-18.00000000000009
 31
0.0
  0
LINE
  5
218F
330
2180
100
AcDbEntity
  8
0
  6
Continuous
 62
     7
100
AcDbLine
 10
-7.060646000000006
 20
-16.0000095000001
 30
0.0
 11
-3.999999999999801
 21
-12.9393620000088
 31
0.0
  0
LINE
  5
2190
330
2180
100
AcDbEntity
  8
0
  6
Continuous
 62
     7
100
AcDbLine
 10
-5.999997999999707
 20
-17.06068050000006
 30
0.0
 11
-2.939304800005004
 21
-14.0000000000003
 31
0.0
  0
LINE
  5
2191
330
2180
100
AcDbEntity
  8
0
  6
Continuous
 62
     7
100
AcDbLine
 10
-5.999999999999901
 20
-18.00000000000009
 30
0.0
 11
-3.0
 21
-18.00000000000009
 31
0.0
  0
LINE
  5
2192
330
2180
100
AcDbEntity
  8
0
  6
Continuous
 62
     7
100
AcDbLine
 10
-3.0
 20
-19.60000000000007
 30
0.0
 11
-3.0
 21
-18.00000000000009
 31
0.0
  0
LINE
  5
2193
330
2180
100
AcDbEntity
  8
0
  6
Continuous
 62
     7
100
AcDbLine
 10
-5.999999999999901
 20
-18.00000000000009
 30
0.0
 11
-5.999999999999901
 21
-17.0606690000001
 31
0.0
  0
LINE
  5
2194
330
2180
100
AcDbEntity
  8
0
  6
Continuous
 62
     7
100
AcDbLine
 10
-8.0
 20
-15.99999999999994
 30
0.0
 11
-8.0
 21
-13.0
 31
0.0
  0
LINE
  5
2195
330
2180
100
AcDbEntity
  8
0
  6
Continuous
 62
     7
100
AcDbLine
 10
-8.0
 20
-15.99999999999994
 30
0.0
 11
-7.060657500000005
 21
-15.99999999999994
 31
0.0
  0
LINE
  5
2196
330
2180
100
AcDbEntity
  8
0
  6
Continuous
 62
     7
100
AcDbLine
 10
-10.0
 20
-19.00000000000009
 30
0.0
 11
-10.0
 21
-13.0
 31
0.0
  0
LINE
  5
2197
330
2180
100
AcDbEntity
  8
0
  6
Continuous
 62
     7
100
AcDbLine
 10
3.0
 20
19.60000000000001
 30
0.0
 11
9.799999999999997
 21
19.59999999999991
 31
0.0
  0
LINE
  5
2198
330
2180
100
AcDbEntity
  8
0
  6
Continuous
 62
     7
100
AcDbLine
 10
10.0
 20
12.9999999999999
 30
0.0
 11
8.0
 21
12.9999999999999
 31
0.0
  0
LINE
  5
2199
330
2180
100
AcDbEntity
  8
0
  6
Continuous
 62
     7
100
AcDbLine
 10
10.0
 20
6.999999999999901
 30
0.0
 11
8.0
 21
6.999999999999901
 31
0.0
  0
LINE
  5
219A
330
2180
100
AcDbEntity
  8
0
  6
Continuous
 62
     7
100
AcDbLine
 10
10.0
 20
-7.0
 30
0.0
 11
8.0
 21
-7.0
 31
0.0
  0
LINE
  5
219B
330
2180
100
AcDbEntity
  8
0
  6
Continuous
 62
     7
100
AcDbLine
 10
10.0
 20
-7.0
 30
0.0
 11
10.0
 21
6.999999999999901
 31
0.0
  0
LINE
  5
219C
330
2180
100
AcDbEntity
  8
0
  6
Continuous
 62
     7
100
AcDbLine
 10
10.0
 20
18.9999999999999
 30
0.0
 11
10.0
 21
12.9999999999999
 31
0.0
  0
LINE
  5
219D
330
2180
100
AcDbEntity
  8
0
  6
Continuous
 62
     7
100
AcDbLine
 10
-9.800000000000011
 20
19.59999999999991
 30
0.0
 11
-2.999999999999901
 21
19.60000000000001
 31
0.0
  0
LINE
  5
219E
330
2180
100
AcDbEntity
  8
0
  6
Continuous
 62
     7
100
AcDbLine
 10
-10.0
 20
12.9999999999999
 30
0.0
 11
-8.0
 21
12.9999999999999
 31
0.0
  0
LINE
  5
219F
330
2180
100
AcDbEntity
  8
0
  6
Continuous
 62
     7
100
AcDbLine
 10
-10.0
 20
6.999999999999901
 30
0.0
 11
-8.0
 21
6.999999999999901
 31
0.0
  0
LINE
  5
21A0
330
2180
100
AcDbEntity
  8
0
  6
Continuous
 62
     7
100
AcDbLine
 10
-10.0
 20
-7.0
 30
0.0
 11
-8.0
 21
-7.0
 31
0.0
  0
LINE
  5
21A1
330
2180
100
AcDbEntity
  8
0
  6
Continuous
 62
     7
100
AcDbLine
 10
-8.0
 20
4.0
 30
0.0
 11
-8.0
 21
6.999999999999901
 31
0.0
  0
LINE
  5
21A2
330
2180
100
AcDbEntity
  8
0
  6
Continuous
 62
     7
100
AcDbLine
 10
6.8514658
 20
2.087870499999909
 30
0.0
 11
2.939331499999994
 21
5.999999999999702
 31
0.0
  0
LINE
  5
21A3
330
2180
100
AcDbEntity
  8
0
  6
Continuous
 62
     7
100
AcDbLine
 10
7.060665
 20
4.000012999999996
 30
0.0
 11
4.0
 21
7.060678850012906
 31
0.0
  0
LINE
  5
21A4
330
2180
100
AcDbEntity
  8
0
  6
Continuous
 62
     7
100
AcDbLine
 10
8.0
 20
4.0
 30
0.0
 11
8.0
 21
6.999999999999901
 31
0.0
  0
LINE
  5
21A5
330
2180
100
AcDbEntity
  8
0
  6
Continuous
 62
     7
100
AcDbLine
 10
-7.060656499999908
 20
4.000002500000008
 30
0.0
 11
-3.999999999999702
 21
7.060659999998606
 31
0.0
  0
LINE
  5
21A6
330
2180
100
AcDbEntity
  8
0
  6
Continuous
 62
     7
100
AcDbLine
 10
-6.851468999999909
 20
2.087870499999909
 30
0.0
 11
-2.9393349999999
 21
5.999999999999702
 31
0.0
  0
CIRCLE
  5
21A7
330
2180
100
AcDbEntity
  8
0
  6
Continuous
 62
     7
100
AcDbCircle
 10
0.0
 20
-9.999999999999986
 30
0.0
 40
2.099999899999998
  0
LINE
  5
21A8
330
2180
100
AcDbEntity
  8
0
  6
Continuous
 62
     7
100
AcDbLine
 10
6.851476550000001
 20
-2.087863900000073
 30
0.0
 11
2.939331449999599
 21
-6.000000000000256
 31
0.0
  0
LINE
  5
21A9
330
2180
100
AcDbEntity
  8
0
  6
Continuous
 62
     7
100
AcDbLine
 10
7.060665
 20
-4.00001736399993
 30
0.0
 11
3.999999999999901
 21
-7.060683150012636
 31
0.0
  0
LINE
  5
21AA
330
2180
100
AcDbEntity
  8
0
  6
Continuous
 62
     7
100
AcDbLine
 10
8.0
 20
-4.000000004
 30
0.0
 11
8.0
 21
-7.0
 31
0.0
  0
LINE
  5
21AB
330
2180
100
AcDbEntity
  8
0
  6
Continuous
 62
     7
100
AcDbLine
 10
7.060656399999999
 20
-4.000000004
 30
0.0
 11
8.0
 21
-4.000000004
 31
0.0
  0
LINE
  5
21AC
330
2180
100
AcDbEntity
  8
0
  6
Continuous
 62
     7
100
AcDbLine
 10
8.00000000499999
 20
-1.700011800000254
 30
0.0
 11
8.00000000499999
 21
1.700011999999901
 31
0.0
  0
ARC
  5
21AD
330
2180
100
AcDbEntity
  8
0
  6
Continuous
 62
     7
100
AcDbCircle
 10
7.063605150000001
 20
-2.299987500000213
 30
0.0
 40
0.30000001
100
AcDbArc
 50
90.0
 51
135.0000010000003
  0
ARC
  5
21AE
330
2180
100
AcDbEntity
  8
0
  6
Continuous
 62
     7
100
AcDbCircle
 10
7.70000085414209
 20
-1.700011834142416
 30
0.0
 40
0.2999999758578618
100
AcDbArc
 50
269.999991118767
 51
0.0000065206675446
  0
LINE
  5
21AF
330
2180
100
AcDbEntity
  8
0
  6
Continuous
 62
     7
100
AcDbLine
 10
7.700000859999889
 20
-1.999999750000001
 30
0.0
 11
7.063605150000001
 21
-1.999999750000001
 31
0.0
  0
ARC
  5
21B0
330
2180
100
AcDbEntity
  8
0
  6
Continuous
 62
     7
100
AcDbCircle
 10
7.063599449999998
 20
2.299987499999801
 30
0.0
 40
0.30000001
100
AcDbArc
 50
225.0
 51
270.0000100000001
  0
ARC
  5
21B1
330
2180
100
AcDbEntity
  8
0
  6
Continuous
 62
     7
100
AcDbCircle
 10
7.70000085414209
 20
1.700012034142006
 30
0.0
 40
0.2999999758578601
100
AcDbArc
 50
359.9999934793298
 51
89.99999888123175
  0
LINE
  5
21B2
330
2180
100
AcDbEntity
  8
0
  6
Continuous
 62
     7
100
AcDbLine
 10
7.700000859999889
 20
1.999999500000001
 30
0.0
 11
7.063599449999998
 21
1.999999500000001
 31
0.0
  0
LINE
  5
21B3
330
2180
100
AcDbEntity
  8
0
  6
Continuous
 62
     7
100
AcDbLine
 10
7.060656399999999
 20
4.0
 30
0.0
 11
8.0
 21
4.0
 31
0.0
  0
LINE
  5
21B4
330
2180
100
AcDbEntity
  8
0
  6
Continuous
 62
     7
100
AcDbLine
 10
-6.851479500000011
 20
-2.087863300000024
 30
0.0
 11
-2.939334499998608
 21
-6.00000000000027
 31
0.0
  0
LINE
  5
21B5
330
2180
100
AcDbEntity
  8
0
  6
Continuous
 62
     7
100
AcDbLine
 10
-7.060656499999908
 20
-4.000006060000004
 30
0.0
 11
-3.999999999999801
 21
-7.060663799998295
 31
0.0
  0
LINE
  5
21B6
330
2180
100
AcDbEntity
  8
0
  6
Continuous
 62
     7
100
AcDbLine
 10
-8.0
 20
-3.99999999500001
 30
0.0
 11
-8.0
 21
-7.0
 31
0.0
  0
LINE
  5
21B7
330
2180
100
AcDbEntity
  8
0
  6
Continuous
 62
     7
100
AcDbLine
 10
-8.0
 20
-3.99999999500001
 30
0.0
 11
-7.0606595
 21
-3.99999999500001
 31
0.0
  0
LINE
  5
21B8
330
2180
100
AcDbEntity
  8
0
  6
Continuous
 62
     7
100
AcDbLine
 10
-7.999999999999602
 20
-1.700011800000254
 30
0.0
 11
-7.999999999999602
 21
1.700011999999901
 31
0.0
  0
LINE
  5
21B9
330
2180
100
AcDbEntity
  8
0
  6
Continuous
 62
     7
100
AcDbLine
 10
-7.700001
 20
-1.999999750000001
 30
0.0
 11
-7.063604500000011
 21
-1.999999750000001
 31
0.0
  0
ARC
  5
21BA
330
2180
100
AcDbEntity
  8
0
  6
Continuous
 62
     7
100
AcDbCircle
 10
-7.700001
 20
-1.700011800000254
 30
0.0
 40
0.30000001
100
AcDbArc
 50
180.0000030000008
 51
270.0000100000001
  0
ARC
  5
21BB
330
2180
100
AcDbEntity
  8
0
  6
Continuous
 62
     7
100
AcDbCircle
 10
-7.063604538060304
 20
-2.299985177677641
 30
0.0
 40
0.2999976876774562
100
AcDbArc
 50
44.99981628234824
 51
89.99999273095808
  0
LINE
  5
21BC
330
2180
100
AcDbEntity
  8
0
  6
Continuous
 62
     7
100
AcDbLine
 10
-7.700001
 20
1.999999500000001
 30
0.0
 11
-7.06359949999991
 21
1.999999500000001
 31
0.0
  0
ARC
  5
21BD
330
2180
100
AcDbEntity
  8
0
  6
Continuous
 62
     7
100
AcDbCircle
 10
-7.700001
 20
1.700011999999901
 30
0.0
 40
0.30000001
100
AcDbArc
 50
90.0
 51
180.0000030000008
  0
ARC
  5
21BE
330
2180
100
AcDbEntity
  8
0
  6
Continuous
 62
     7
100
AcDbCircle
 10
-7.063599538060402
 20
2.299985177677698
 30
0.0
 40
0.2999976876778877
100
AcDbArc
 50
269.9999972689997
 51
315.0001837176153
  0
LINE
  5
21BF
330
2180
100
AcDbEntity
  8
0
  6
Continuous
 62
     7
100
AcDbLine
 10
-8.0
 20
4.0
 30
0.0
 11
-7.0606595
 21
4.0
 31
0.0
  0
CIRCLE
  5
21C0
330
2180
100
AcDbEntity
  8
0
  6
Continuous
 62
     7
100
AcDbCircle
 10
0.0
 20
10.0
 30
0.0
 40
2.099999899999998
  0
LINE
  5
21C1
330
2180
100
AcDbEntity
  8
0
  6
Continuous
 62
     7
100
AcDbLine
 10
2.939341499999998
 20
5.999995999999797
 30
0.0
 11
-2.939341499999799
 21
5.999995999999797
 31
0.0
  0
LINE
  5
21C2
330
2180
100
AcDbEntity
  8
0
  6
Continuous
 62
     7
100
AcDbLine
 10
7.060665
 20
16.0000040000001
 30
0.0
 11
4.0
 21
12.939338649997
 31
0.0
  0
LINE
  5
21C3
330
2180
100
AcDbEntity
  8
0
  6
Continuous
 62
     7
100
AcDbLine
 10
6.00000575
 20
17.0606654999998
 30
0.0
 11
2.939340500008996
 21
13.9999999999999
 31
0.0
  0
LINE
  5
21C4
330
2180
100
AcDbEntity
  8
0
  6
Continuous
 62
     7
100
AcDbLine
 10
4.0
 20
7.060678850012906
 30
0.0
 11
4.0
 21
9.480384757729198
 31
0.0
  0
LINE
  5
21C5
330
2180
100
AcDbEntity
  8
0
  6
Continuous
 62
     7
100
AcDbLine
 10
6.0
 20
17.9999999999999
 30
0.0
 11
3.0
 21
17.9999999999999
 31
0.0
  0
LINE
  5
21C6
330
2180
100
AcDbEntity
  8
0
  6
Continuous
 62
     7
100
AcDbLine
 10
7.060660200000001
 20
15.9999999999999
 30
0.0
 11
8.0
 21
15.9999999999999
 31
0.0
  0
LINE
  5
21C7
330
2180
100
AcDbEntity
  8
0
  6
Continuous
 62
     7
100
AcDbLine
 10
6.0
 20
17.9999999999999
 30
0.0
 11
6.0
 21
17.060669
 31
0.0
  0
LINE
  5
21C8
330
2180
100
AcDbEntity
  8
0
  6
Continuous
 62
     7
100
AcDbLine
 10
3.0
 20
19.60000000000001
 30
0.0
 11
3.0
 21
17.9999999999999
 31
0.0
  0
LINE
  5
21C9
330
2180
100
AcDbEntity
  8
0
  6
Continuous
 62
     7
100
AcDbLine
 10
-8.0
 20
15.9999999999999
 30
0.0
 11
-8.0
 21
12.9999999999999
 31
0.0
  0
LINE
  5
21CA
330
2180
100
AcDbEntity
  8
0
  6
Continuous
 62
     7
100
AcDbLine
 10
-7.060646000000006
 20
16.0000040000001
 30
0.0
 11
-3.999999999999702
 21
12.93935650000191
 31
0.0
  0
LINE
  5
21CB
330
2180
100
AcDbEntity
  8
0
  6
Continuous
 62
     7
100
AcDbLine
 10
-5.999996999999908
 20
17.0606749999999
 30
0.0
 11
-2.939321500057304
 21
13.9999999999999
 31
0.0
  0
LINE
  5
21CC
330
2180
100
AcDbEntity
  8
0
  6
Continuous
 62
     7
100
AcDbLine
 10
-3.999999999999702
 20
7.060659999998606
 30
0.0
 11
-3.999999999999702
 21
9.480392551958005
 31
0.0
  0
LINE
  5
21CD
330
2180
100
AcDbEntity
  8
0
  6
Continuous
 62
     7
100
AcDbLine
 10
-2.939321500057304
 20
13.9999999999999
 30
0.0
 11
-0.5195840653564119
 21
13.9999999999999
 31
0.0
  0
LINE
  5
21CE
330
2180
100
AcDbEntity
  8
0
  6
Continuous
 62
     7
100
AcDbLine
 10
-5.999999999999901
 20
17.9999999999999
 30
0.0
 11
-2.999999999999901
 21
17.9999999999999
 31
0.0
  0
LINE
  5
21CF
330
2180
100
AcDbEntity
  8
0
  6
Continuous
 62
     7
100
AcDbLine
 10
-2.999999999999901
 20
19.60000000000001
 30
0.0
 11
-2.999999999999901
 21
17.9999999999999
 31
0.0
  0
LINE
  5
21D0
330
2180
100
AcDbEntity
  8
0
  6
Continuous
 62
     7
100
AcDbLine
 10
-5.999999999999901
 20
17.9999999999999
 30
0.0
 11
-5.999999999999901
 21
17.060669
 31
0.0
  0
LINE
  5
21D1
330
2180
100
AcDbEntity
  8
0
  6
Continuous
 62
     7
100
AcDbLine
 10
-8.0
 20
15.9999999999999
 30
0.0
 11
-7.060657500000005
 21
15.9999999999999
 31
0.0
  0
LINE
  5
21D2
330
2180
100
AcDbEntity
  8
0
  6
Continuous
 62
     7
100
AcDbLine
 10
-10.0
 20
-7.0
 30
0.0
 11
-10.0
 21
6.999999999999901
 31
0.0
  0
LINE
  5
21D3
330
2180
100
AcDbEntity
  8
0
  6
Continuous
 62
     7
100
AcDbLine
 10
-10.0
 20
18.9999999999999
 30
0.0
 11
-10.0
 21
12.9999999999999
 31
0.0
  0
LINE
  5
21D4
330
2180
100
AcDbEntity
  8
0
  6
Continuous
 62
     7
100
AcDbLine
 10
-3.700004499999807
 20
10.0
 30
0.0
 11
-3.999999999999702
 21
9.480392551958005
 31
0.0
  0
LINE
  5
21D5
330
2180
100
AcDbEntity
  8
0
  6
Continuous
 62
     7
100
AcDbLine
 10
-3.700004499999807
 20
10.0
 30
0.0
 11
-3.999999999999702
 21
10.51960744804201
 31
0.0
  0
LINE
  5
21D6
330
2180
100
AcDbEntity
  8
0
  6
Continuous
 62
     7
100
AcDbLine
 10
-3.999999999999702
 20
10.51960744804201
 30
0.0
 11
-3.999999999999702
 21
12.93935650000191
 31
0.0
  0
LINE
  5
21D7
330
2180
100
AcDbEntity
  8
0
  6
Continuous
 62
     7
100
AcDbLine
 10
3.699999999999989
 20
10.0
 30
0.0
 11
4.0
 21
10.5196152422706
 31
0.0
  0
LINE
  5
21D8
330
2180
100
AcDbEntity
  8
0
  6
Continuous
 62
     7
100
AcDbLine
 10
3.699999999999989
 20
10.0
 30
0.0
 11
4.0
 21
9.480384757729198
 31
0.0
  0
LINE
  5
21D9
330
2180
100
AcDbEntity
  8
0
  6
Continuous
 62
     7
100
AcDbLine
 10
0.0
 20
13.7000179999997
 30
0.0
 11
-0.5196074480420094
 21
14.0000134999997
 31
0.0
  0
LINE
  5
21DA
330
2180
100
AcDbEntity
  8
0
  6
Continuous
 62
     7
100
AcDbLine
 10
0.0
 20
13.7000179999997
 30
0.0
 11
0.5196074480419952
 21
14.0000134999997
 31
0.0
  0
LINE
  5
21DB
330
2180
100
AcDbEntity
  8
0
  6
Continuous
 62
     7
100
AcDbLine
 10
0.5195840653564971
 20
13.9999999999999
 30
0.0
 11
2.939340500008996
 21
13.9999999999999
 31
0.0
  0
LINE
  5
21DC
330
2180
100
AcDbEntity
  8
0
  6
Continuous
 62
     7
100
AcDbLine
 10
4.0
 20
10.5196152422706
 30
0.0
 11
4.0
 21
12.939338649997
 31
0.0
  0
LINE
  5
21DD
330
2180
100
AcDbEntity
  8
0
  6
Continuous
 62
     7
100
AcDbLine
 10
3.70000189999989
 20
-9.999999500000001
 30
0.0
 11
4.000001899999901
 21
-9.48038425772937
 31
0.0
  0
LINE
  5
21DE
330
2180
100
AcDbEntity
  8
0
  6
Continuous
 62
     7
100
AcDbLine
 10
3.70000189999989
 20
-9.999999500000001
 30
0.0
 11
4.000001899999901
 21
-10.51961474227072
 31
0.0
  0
LINE
  5
21DF
330
2180
100
AcDbEntity
  8
0
  6
Continuous
 62
     7
100
AcDbLine
 10
3.999999999999901
 20
-9.48038754862587
 30
0.0
 11
3.999999999999901
 21
-7.060683150012636
 31
0.0
  0
LINE
  5
21E0
330
2180
100
AcDbEntity
  8
0
  6
Continuous
 62
     7
100
AcDbLine
 10
-2.939304800005004
 20
-14.0000000000003
 30
0.0
 11
-0.5195840653564119
 21
-14.0000000000003
 31
0.0
  0
LINE
  5
21E1
330
2180
100
AcDbEntity
  8
0
  6
Continuous
 62
     7
100
AcDbLine
 10
0.5195840653564971
 20
-14.0000000000003
 30
0.0
 11
2.939323299995692
 21
-14.0000000000003
 31
0.0
  0
LINE
  5
21E2
330
2180
100
AcDbEntity
  8
0
  6
Continuous
 62
     7
100
AcDbLine
 10
0.0
 20
-13.70001800000009
 30
0.0
 11
-0.5196074480420094
 21
-14.00001350000008
 31
0.0
  0
LINE
  5
21E3
330
2180
100
AcDbEntity
  8
0
  6
Continuous
 62
     7
100
AcDbLine
 10
0.0
 20
-13.70001800000009
 30
0.0
 11
0.5196074480419952
 21
-14.00001350000008
 31
0.0
  0
LINE
  5
21E4
330
2180
100
AcDbEntity
  8
0
  6
Continuous
 62
     7
100
AcDbLine
 10
-3.699999999999804
 20
-9.999999999999986
 30
0.0
 11
-3.999999999999801
 21
-10.51961524227069
 31
0.0
  0
LINE
  5
21E5
330
2180
100
AcDbEntity
  8
0
  6
Continuous
 62
     7
100
AcDbLine
 10
-3.699999999999804
 20
-9.999999999999986
 30
0.0
 11
-3.999999999999801
 21
-9.480384757729425
 31
0.0
  0
LINE
  5
21E6
330
2180
100
AcDbEntity
  8
0
  6
Continuous
 62
     7
100
AcDbLine
 10
-3.999999999999801
 20
-9.480384757729425
 30
0.0
 11
-3.999999999999801
 21
-7.060663799998295
 31
0.0
  0
ARC
  5
21E7
330
2180
100
AcDbEntity
  8
0
  6
Continuous
 62
     7
100
AcDbCircle
 10
-9.0
 20
18.9999999999999
 30
0.0
 40
1.0
100
AcDbArc
 50
143.1301023541573
 51
180.0
  0
ARC
  5
21E8
330
2180
100
AcDbEntity
  8
0
  6
Continuous
 62
     7
100
AcDbCircle
 10
9.0
 20
18.9999999999999
 30
0.0
 40
1.0
100
AcDbArc
 50
0.0
 51
36.86989764584094
  0
ARC
  5
21E9
330
2180
100
AcDbEntity
  8
0
  6
Continuous
 62
     7
100
AcDbCircle
 10
9.0
 20
-19.00000000000016
 30
0.0
 40
1.0
100
AcDbArc
 50
323.1301023541607
 51
0.0000000000024427
  0
ARC
  5
21EA
330
2180
100
AcDbEntity
  8
0
  6
Continuous
 62
     7
100
AcDbCircle
 10
-9.0
 20
-19.00000000000009
 30
0.0
 40
1.0
100
AcDbArc
 50
179.9999999999992
 51
216.8698976458416
  0
LINE
  5
21EB
330
2180
100
AcDbEntity
  8
0
  6
Continuous
 62
     7
100
AcDbLine
 10
-2.939334499998608
 20
-6.00000000000027
 30
0.0
 11
2.939331449999599
 21
-6.000000000000256
 31
0.0
  0
LINE
  5
21EC
330
2180
100
AcDbEntity
  8
0
  6
Continuous
 62
     7
100
AcDbLine
 10
8.0
 20
15.9999999999999
 30
0.0
 11
8.0
 21
12.9999999999999
 31
0.0
  0
ENDBLK
  5
21EE
330
2180
100
AcDbEntity
  8
0
100
AcDbBlockEnd
  0
ENDSEC
  0
SECTION
  2
ENTITIES
  0
LINE
  5
21F0
330
211E
100
AcDbEntity
  8
0
  6
Continuous
 62
     7
100
AcDbLine
 10
-3.999999999999801
 20
-12.9393620000088
 30
0.0
 11
-3.999999999999801
 21
-10.51961524227072
 31
0.0
  0
LINE
  5
21F1
330
211E
100
AcDbEntity
  8
0
  6
Continuous
 62
     7
100
AcDbLine
 10
3.999999999999901
 20
-12.93934214999879
 30
0.0
 11
4.0
 21
-10.51961145137422
 31
0.0
  0
LINE
  5
21F2
330
211E
100
AcDbEntity
  8
0
  6
Continuous
 62
     7
100
AcDbLine
 10
3.0
 20
-19.60000000000007
 30
0.0
 11
9.799999999999997
 21
-19.60000000000007
 31
0.0
  0
LINE
  5
21F3
330
211E
100
AcDbEntity
  8
0
  6
Continuous
 62
     7
100
AcDbLine
 10
10.0
 20
-13.00000000000004
 30
0.0
 11
8.0
 21
-13.0
 31
0.0
  0
LINE
  5
21F4
330
211E
100
AcDbEntity
  8
0
  6
Continuous
 62
     7
100
AcDbLine
 10
10.0
 20
-19.00000000000009
 30
0.0
 11
10.0
 21
-13.00000000000004
 31
0.0
  0
LINE
  5
21F5
330
211E
100
AcDbEntity
  8
0
  6
Continuous
 62
     7
100
AcDbLine
 10
-9.80000000000011
 20
-19.60000000000007
 30
0.0
 11
-3.0
 21
-19.60000000000007
 31
0.0
  0
LINE
  5
21F6
330
211E
100
AcDbEntity
  8
0
  6
Continuous
 62
     7
100
AcDbLine
 10
-10.0
 20
-13.0
 30
0.0
 11
-8.0
 21
-13.0
 31
0.0
  0
LINE
  5
21F7
330
211E
100
AcDbEntity
  8
0
  6
Continuous
 62
     7
100
AcDbLine
 10
7.060665349999994
 20
-16.00000849999998
 30
0.0
 11
3.999999999999901
 21
-12.93934214999879
 31
0.0
  0
LINE
  5
21F8
330
211E
100
AcDbEntity
  8
0
  6
Continuous
 62
     7
100
AcDbLine
 10
6.0
 20
-18.00000000000009
 30
0.0
 11
3.0
 21
-18.00000000000009
 31
0.0
  0
LINE
  5
21F9
330
211E
100
AcDbEntity
  8
0
  6
Continuous
 62
     7
100
AcDbLine
 10
6.000006199999902
 20
-17.0606690000001
 30
0.0
 11
2.939323299995692
 21
-14.0000000000003
 31
0.0
  0
LINE
  5
21FA
330
211E
100
AcDbEntity
  8
0
  6
Continuous
 62
     7
100
AcDbLine
 10
6.0
 20
-18.00000000000009
 30
0.0
 11
6.0
 21
-17.0606690000001
 31
0.0
  0
LINE
  5
21FB
330
211E
100
AcDbEntity
  8
0
  6
Continuous
 62
     7
100
AcDbLine
 10
8.0
 20
-15.99999999999994
 30
0.0
 11
8.0
 21
-13.0
 31
0.0
  0
LINE
  5
21FC
330
211E
100
AcDbEntity
  8
0
  6
Continuous
 62
     7
100
AcDbLine
 10
7.060660200000001
 20
-15.99999999999994
 30
0.0
 11
8.0
 21
-15.99999999999994
 31
0.0
  0
LINE
  5
21FD
330
211E
100
AcDbEntity
  8
0
  6
Continuous
 62
     7
100
AcDbLine
 10
3.0
 20
-19.60000000000007
 30
0.0
 11
3.0
 21
-18.00000000000009
 31
0.0
  0
LINE
  5
21FE
330
211E
100
AcDbEntity
  8
0
  6
Continuous
 62
     7
100
AcDbLine
 10
-7.060646000000006
 20
-16.0000095000001
 30
0.0
 11
-3.999999999999801
 21
-12.9393620000088
 31
0.0
  0
LINE
  5
21FF
330
211E
100
AcDbEntity
  8
0
  6
Continuous
 62
     7
100
AcDbLine
 10
-5.999997999999707
 20
-17.06068050000006
 30
0.0
 11
-2.939304800005004
 21
-14.0000000000003
 31
0.0
  0
LINE
  5
2200
330
211E
100
AcDbEntity
  8
0
  6
Continuous
 62
     7
100
AcDbLine
 10
-5.999999999999901
 20
-18.00000000000009
 30
0.0
 11
-3.0
 21
-18.00000000000009
 31
0.0
  0
LINE
  5
2201
330
211E
100
AcDbEntity
  8
0
  6
Continuous
 62
     7
100
AcDbLine
 10
-3.0
 20
-19.60000000000007
 30
0.0
 11
-3.0
 21
-18.00000000000009
 31
0.0
  0
LINE
  5
2202
330
211E
100
AcDbEntity
  8
0
  6
Continuous
 62
     7
100
AcDbLine
 10
-5.999999999999901
 20
-18.00000000000009
 30
0.0
 11
-5.999999999999901
 21
-17.0606690000001
 31
0.0
  0
LINE
  5
2203
330
211E
100
AcDbEntity
  8
0
  6
Continuous
 62
     7
100
AcDbLine
 10
-8.0
 20
-15.99999999999994
 30
0.0
 11
-8.0
 21
-13.0
 31
0.0
  0
LINE
  5
2204
330
211E
100
AcDbEntity
  8
0
  6
Continuous
 62
     7
100
AcDbLine
 10
-8.0
 20
-15.99999999999994
 30
0.0
 11
-7.060657500000005
 21
-15.99999999999994
 31
0.0
  0
LINE
  5
2205
330
211E
100
AcDbEntity
  8
0
  6
Continuous
 62
     7
100
AcDbLine
 10
-10.0
 20
-19.00000000000009
 30
0.0
 11
-10.0
 21
-13.0
 31
0.0
  0
LINE
  5
2206
330
211E
100
AcDbEntity
  8
0
  6
Continuous
 62
     7
100
AcDbLine
 10
3.0
 20
19.60000000000001
 30
0.0
 11
9.799999999999997
 21
19.59999999999991
 31
0.0
  0
LINE
  5
2207
330
211E
100
AcDbEntity
  8
0
  6
Continuous
 62
     7
100
AcDbLine
 10
10.0
 20
12.9999999999999
 30
0.0
 11
8.0
 21
12.9999999999999
 31
0.0
  0
LINE
  5
2208
330
211E
100
AcDbEntity
  8
0
  6
Continuous
 62
     7
100
AcDbLine
 10
10.0
 20
6.999999999999901
 30
0.0
 11
8.0
 21
6.999999999999901
 31
0.0
  0
LINE
  5
2209
330
211E
100
AcDbEntity
  8
0
  6
Continuous
 62
     7
100
AcDbLine
 10
10.0
 20
-7.0
 30
0.0
 11
8.0
 21
-7.0
 31
0.0
  0
LINE
  5
220A
330
211E
100
AcDbEntity
  8
0
  6
Continuous
 62
     7
100
AcDbLine
 10
10.0
 20
-7.0
 30
0.0
 11
10.0
 21
6.999999999999901
 31
0.0
  0
LINE
  5
220B
330
211E
100
AcDbEntity
  8
0
  6
Continuous
 62
     7
100
AcDbLine
 10
10.0
 20
18.9999999999999
 30
0.0
 11
10.0
 21
12.9999999999999
 31
0.0
  0
LINE
  5
220C
330
211E
100
AcDbEntity
  8
0
  6
Continuous
 62
     7
100
AcDbLine
 10
-9.800000000000011
 20
19.59999999999991
 30
0.0
 11
-2.999999999999901
 21
19.60000000000001
 31
0.0
  0
LINE
  5
220D
330
211E
100
AcDbEntity
  8
0
  6
Continuous
 62
     7
100
AcDbLine
 10
-10.0
 20
12.9999999999999
 30
0.0
 11
-8.0
 21
12.9999999999999
 31
0.0
  0
LINE
  5
220E
330
211E
100
AcDbEntity
  8
0
  6
Continuous
 62
     7
100
AcDbLine
 10
-10.0
 20
6.999999999999901
 30
0.0
 11
-8.0
 21
6.999999999999901
 31
0.0
  0
LINE
  5
220F
330
211E
100
AcDbEntity
  8
0
  6
Continuous
 62
     7
100
AcDbLine
 10
-10.0
 20
-7.0
 30
0.0
 11
-8.0
 21
-7.0
 31
0.0
  0
LINE
  5
2210
330
211E
100
AcDbEntity
  8
0
  6
Continuous
 62
     7
100
AcDbLine
 10
-8.0
 20
4.0
 30
0.0
 11
-8.0
 21
6.999999999999901
 31
0.0
  0
LINE
  5
2211
330
211E
100
AcDbEntity
  8
0
  6
Continuous
 62
     7
100
AcDbLine
 10
6.8514658
 20
2.087870499999909
 30
0.0
 11
2.939331499999994
 21
5.999999999999702
 31
0.0
  0
LINE
  5
2212
330
211E
100
AcDbEntity
  8
0
  6
Continuous
 62
     7
100
AcDbLine
 10
7.060665
 20
4.000012999999996
 30
0.0
 11
4.0
 21
7.060678850012906
 31
0.0
  0
LINE
  5
2213
330
211E
100
AcDbEntity
  8
0
  6
Continuous
 62
     7
100
AcDbLine
 10
8.0
 20
4.0
 30
0.0
 11
8.0
 21
6.999999999999901
 31
0.0
  0
LINE
  5
2214
330
211E
100
AcDbEntity
  8
0
  6
Continuous
 62
     7
100
AcDbLine
 10
-7.060656499999908
 20
4.000002500000008
 30
0.0
 11
-3.999999999999702
 21
7.060659999998606
 31
0.0
  0
LINE
  5
2215
330
211E
100
AcDbEntity
  8
0
  6
Continuous
 62
     7
100
AcDbLine
 10
-6.851468999999909
 20
2.087870499999909
 30
0.0
 11
-2.9393349999999
 21
5.999999999999702
 31
0.0
  0
CIRCLE
  5
2216
330
211E
100
AcDbEntity
  8
0
  6
Continuous
 62
     7
100
AcDbCircle
 10
0.0
 20
-9.999999999999986
 30
0.0
 40
2.099999899999998
  0
LINE
  5
2217
330
211E
100
AcDbEntity
  8
0
  6
Continuous
 62
     7
100
AcDbLine
 10
6.851476550000001
 20
-2.087863900000073
 30
0.0
 11
2.939331449999599
 21
-6.000000000000256
 31
0.0
  0
LINE
  5
2218
330
211E
100
AcDbEntity
  8
0
  6
Continuous
 62
     7
100
AcDbLine
 10
7.060665
 20
-4.00001736399993
 30
0.0
 11
3.999999999999901
 21
-7.060683150012636
 31
0.0
  0
LINE
  5
2219
330
211E
100
AcDbEntity
  8
0
  6
Continuous
 62
     7
100
AcDbLine
 10
8.0
 20
-4.000000004
 30
0.0
 11
8.0
 21
-7.0
 31
0.0
  0
LINE
  5
221A
330
211E
100
AcDbEntity
  8
0
  6
Continuous
 62
     7
100
AcDbLine
 10
7.060656399999999
 20
-4.000000004
 30
0.0
 11
8.0
 21
-4.000000004
 31
0.0
  0
LINE
  5
221B
330
211E
100
AcDbEntity
  8
0
  6
Continuous
 62
     7
100
AcDbLine
 10
8.00000000499999
 20
-1.700011800000254
 30
0.0
 11
8.00000000499999
 21
1.700011999999901
 31
0.0
  0
ARC
  5
221C
330
211E
100
AcDbEntity
  8
0
  6
Continuous
 62
     7
100
AcDbCircle
 10
7.063605150000001
 20
-2.299987500000213
 30
0.0
 40
0.30000001
100
AcDbArc
 50
90.0
 51
135.0000010000003
  0
ARC
  5
221D
330
211E
100
AcDbEntity
  8
0
  6
Continuous
 62
     7
100
AcDbCircle
 10
7.70000085414209
 20
-1.700011834142416
 30
0.0
 40
0.2999999758578618
100
AcDbArc
 50
269.999991118767
 51
0.0000065206675446
  0
LINE
  5
221E
330
211E
100
AcDbEntity
  8
0
  6
Continuous
 62
     7
100
AcDbLine
 10
7.700000859999889
 20
-1.999999750000001
 30
0.0
 11
7.063605150000001
 21
-1.999999750000001
 31
0.0
  0
ARC
  5
221F
330
211E
100
AcDbEntity
  8
0
  6
Continuous
 62
     7
100
AcDbCircle
 10
7.063599449999998
 20
2.299987499999801
 30
0.0
 40
0.30000001
100
AcDbArc
 50
225.0
 51
270.0000100000001
  0
ARC
  5
2220
330
211E
100
AcDbEntity
  8
0
  6
Continuous
 62
     7
100
AcDbCircle
 10
7.70000085414209
 20
1.700012034142006
 30
0.0
 40
0.2999999758578601
100
AcDbArc
 50
359.9999934793298
 51
89.99999888123175
  0
LINE
  5
2221
330
211E
100
AcDbEntity
  8
0
  6
Continuous
 62
     7
100
AcDbLine
 10
7.700000859999889
 20
1.999999500000001
 30
0.0
 11
7.063599449999998
 21
1.999999500000001
 31
0.0
  0
LINE
  5
2222
330
211E
100
AcDbEntity
  8
0
  6
Continuous
 62
     7
100
AcDbLine
 10
7.060656399999999
 20
4.0
 30
0.0
 11
8.0
 21
4.0
 31
0.0
  0
LINE
  5
2223
330
211E
100
AcDbEntity
  8
0
  6
Continuous
 62
     7
100
AcDbLine
 10
-6.851479500000011
 20
-2.087863300000024
 30
0.0
 11
-2.939334499998608
 21
-6.00000000000027
 31
0.0
  0
LINE
  5
2224
330
211E
100
AcDbEntity
  8
0
  6
Continuous
 62
     7
100
AcDbLine
 10
-7.060656499999908
 20
-4.000006060000004
 30
0.0
 11
-3.999999999999801
 21
-7.060663799998295
 31
0.0
  0
LINE
  5
2225
330
211E
100
AcDbEntity
  8
0
  6
Continuous
 62
     7
100
AcDbLine
 10
-8.0
 20
-3.99999999500001
 30
0.0
 11
-8.0
 21
-7.0
 31
0.0
  0
LINE
  5
2226
330
211E
100
AcDbEntity
  8
0
  6
Continuous
 62
     7
100
AcDbLine
 10
-8.0
 20
-3.99999999500001
 30
0.0
 11
-7.0606595
 21
-3.99999999500001
 31
0.0
  0
LINE
  5
2227
330
211E
100
AcDbEntity
  8
0
  6
Continuous
 62
     7
100
AcDbLine
 10
-7.999999999999602
 20
-1.700011800000254
 30
0.0
 11
-7.999999999999602
 21
1.700011999999901
 31
0.0
  0
LINE
  5
2228
330
211E
100
AcDbEntity
  8
0
  6
Continuous
 62
     7
100
AcDbLine
 10
-7.700001
 20
-1.999999750000001
 30
0.0
 11
-7.063604500000011
 21
-1.999999750000001
 31
0.0
  0
ARC
  5
2229
330
211E
100
AcDbEntity
  8
0
  6
Continuous
 62
     7
100
AcDbCircle
 10
-7.700001
 20
-1.700011800000254
 30
0.0
 40
0.30000001
100
AcDbArc
 50
180.0000030000008
 51
270.0000100000001
  0
ARC
  5
222A
330
211E
100
AcDbEntity
  8
0
  6
Continuous
 62
     7
100
AcDbCircle
 10
-7.063604538060304
 20
-2.299985177677641
 30
0.0
 40
0.2999976876774562
100
AcDbArc
 50
44.99981628234824
 51
89.99999273095808
  0
LINE
  5
222B
330
211E
100
AcDbEntity
  8
0
  6
Continuous
 62
     7
100
AcDbLine
 10
-7.700001
 20
1.999999500000001
 30
0.0
 11
-7.06359949999991
 21
1.999999500000001
 31
0.0
  0
ARC
  5
222C
330
211E
100
AcDbEntity
  8
0
  6
Continuous
 62
     7
100
AcDbCircle
 10
-7.700001
 20
1.700011999999901
 30
0.0
 40
0.30000001
100
AcDbArc
 50
90.0
 51
180.0000030000008
  0
ARC
  5
222D
330
211E
100
AcDbEntity
  8
0
  6
Continuous
 62
     7
100
AcDbCircle
 10
-7.063599538060402
 20
2.299985177677698
 30
0.0
 40
0.2999976876778877
100
AcDbArc
 50
269.9999972689997
 51
315.0001837176153
  0
LINE
  5
222E
330
211E
100
AcDbEntity
  8
0
  6
Continuous
 62
     7
100
AcDbLine
 10
-8.0
 20
4.0
 30
0.0
 11
-7.0606595
 21
4.0
 31
0.0
  0
CIRCLE
  5
222F
330
211E
100
AcDbEntity
  8
0
  6
Continuous
 62
     7
100
AcDbCircle
 10
0.0
 20
10.0
 30
0.0
 40
2.099999899999998
  0
LINE
  5
2230
330
211E
100
AcDbEntity
  8
0
  6
Continuous
 62
     7
100
AcDbLine
 10
2.939341499999998
 20
5.999995999999797
 30
0.0
 11
-2.939341499999799
 21
5.999995999999797
 31
0.0
  0
LINE
  5
2231
330
211E
100
AcDbEntity
  8
0
  6
Continuous
 62
     7
100
AcDbLine
 10
7.060665
 20
16.0000040000001
 30
0.0
 11
4.0
 21
12.939338649997
 31
0.0
  0
LINE
  5
2232
330
211E
100
AcDbEntity
  8
0
  6
Continuous
 62
     7
100
AcDbLine
 10
6.00000575
 20
17.0606654999998
 30
0.0
 11
2.939340500008996
 21
13.9999999999999
 31
0.0
  0
LINE
  5
2233
330
211E
100
AcDbEntity
  8
0
  6
Continuous
 62
     7
100
AcDbLine
 10
4.0
 20
7.060678850012906
 30
0.0
 11
4.0
 21
9.480384757729198
 31
0.0
  0
LINE
  5
2234
330
211E
100
AcDbEntity
  8
0
  6
Continuous
 62
     7
100
AcDbLine
 10
6.0
 20
17.9999999999999
 30
0.0
 11
3.0
 21
17.9999999999999
 31
0.0
  0
LINE
  5
2235
330
211E
100
AcDbEntity
  8
0
  6
Continuous
 62
     7
100
AcDbLine
 10
7.060660200000001
 20
15.9999999999999
 30
0.0
 11
8.0
 21
15.9999999999999
 31
0.0
  0
LINE
  5
2236
330
211E
100
AcDbEntity
  8
0
  6
Continuous
 62
     7
100
AcDbLine
 10
6.0
 20
17.9999999999999
 30
0.0
 11
6.0
 21
17.060669
 31
0.0
  0
LINE
  5
2237
330
211E
100
AcDbEntity
  8
0
  6
Continuous
 62
     7
100
AcDbLine
 10
3.0
 20
19.60000000000001
 30
0.0
 11
3.0
 21
17.9999999999999
 31
0.0
  0
LINE
  5
2238
330
211E
100
AcDbEntity
  8
0
  6
Continuous
 62
     7
100
AcDbLine
 10
-8.0
 20
15.9999999999999
 30
0.0
 11
-8.0
 21
12.9999999999999
 31
0.0
  0
LINE
  5
2239
330
211E
100
AcDbEntity
  8
0
  6
Continuous
 62
     7
100
AcDbLine
 10
-7.060646000000006
 20
16.0000040000001
 30
0.0
 11
-3.999999999999702
 21
12.93935650000191
 31
0.0
  0
LINE
  5
223A
330
211E
100
AcDbEntity
  8
0
  6
Continuous
 62
     7
100
AcDbLine
 10
-5.999996999999908
 20
17.0606749999999
 30
0.0
 11
-2.939321500057304
 21
13.9999999999999
 31
0.0
  0
LINE
  5
223B
330
211E
100
AcDbEntity
  8
0
  6
Continuous
 62
     7
100
AcDbLine
 10
-3.999999999999702
 20
7.060659999998606
 30
0.0
 11
-3.999999999999702
 21
9.480392551958005
 31
0.0
  0
LINE
  5
223C
330
211E
100
AcDbEntity
  8
0
  6
Continuous
 62
     7
100
AcDbLine
 10
-2.939321500057304
 20
13.9999999999999
 30
0.0
 11
-0.5195840653564119
 21
13.9999999999999
 31
0.0
  0
LINE
  5
223D
330
211E
100
AcDbEntity
  8
0
  6
Continuous
 62
     7
100
AcDbLine
 10
-5.999999999999901
 20
17.9999999999999
 30
0.0
 11
-2.999999999999901
 21
17.9999999999999
 31
0.0
  0
LINE
  5
223E
330
211E
100
AcDbEntity
  8
0
  6
Continuous
 62
     7
100
AcDbLine
 10
-2.999999999999901
 20
19.60000000000001
 30
0.0
 11
-2.999999999999901
 21
17.9999999999999
 31
0.0
  0
LINE
  5
223F
330
211E
100
AcDbEntity
  8
0
  6
Continuous
 62
     7
100
AcDbLine
 10
-5.999999999999901
 20
17.9999999999999
 30
0.0
 11
-5.999999999999901
 21
17.060669
 31
0.0
  0
LINE
  5
2240
330
211E
100
AcDbEntity
  8
0
  6
Continuous
 62
     7
100
AcDbLine
 10
-8.0
 20
15.9999999999999
 30
0.0
 11
-7.060657500000005
 21
15.9999999999999
 31
0.0
  0
LINE
  5
2241
330
211E
100
AcDbEntity
  8
0
  6
Continuous
 62
     7
100
AcDbLine
 10
-10.0
 20
-7.0
 30
0.0
 11
-10.0
 21
6.999999999999901
 31
0.0
  0
LINE
  5
2242
330
211E
100
AcDbEntity
  8
0
  6
Continuous
 62
     7
100
AcDbLine
 10
-10.0
 20
18.9999999999999
 30
0.0
 11
-10.0
 21
12.9999999999999
 31
0.0
  0
LINE
  5
2243
330
211E
100
AcDbEntity
  8
0
  6
Continuous
 62
     7
100
AcDbLine
 10
-3.700004499999807
 20
10.0
 30
0.0
 11
-3.999999999999702
 21
9.480392551958005
 31
0.0
  0
LINE
  5
2244
330
211E
100
AcDbEntity
  8
0
  6
Continuous
 62
     7
100
AcDbLine
 10
-3.700004499999807
 20
10.0
 30
0.0
 11
-3.999999999999702
 21
10.51960744804201
 31
0.0
  0
LINE
  5
2245
330
211E
100
AcDbEntity
  8
0
  6
Continuous
 62
     7
100
AcDbLine
 10
-3.999999999999702
 20
10.51960744804201
 30
0.0
 11
-3.999999999999702
 21
12.93935650000191
 31
0.0
  0
LINE
  5
2246
330
211E
100
AcDbEntity
  8
0
  6
Continuous
 62
     7
100
AcDbLine
 10
3.699999999999989
 20
10.0
 30
0.0
 11
4.0
 21
10.5196152422706
 31
0.0
  0
LINE
  5
2247
330
211E
100
AcDbEntity
  8
0
  6
Continuous
 62
     7
100
AcDbLine
 10
3.699999999999989
 20
10.0
 30
0.0
 11
4.0
 21
9.480384757729198
 31
0.0
  0
LINE
  5
2248
330
211E
100
AcDbEntity
  8
0
  6
Continuous
 62
     7
100
AcDbLine
 10
0.0
 20
13.7000179999997
 30
0.0
 11
-0.5196074480420094
 21
14.0000134999997
 31
0.0
  0
LINE
  5
2249
330
211E
100
AcDbEntity
  8
0
  6
Continuous
 62
     7
100
AcDbLine
 10
0.0
 20
13.7000179999997
 30
0.0
 11
0.5196074480419952
 21
14.0000134999997
 31
0.0
  0
LINE
  5
224A
330
211E
100
AcDbEntity
  8
0
  6
Continuous
 62
     7
100
AcDbLine
 10
0.5195840653564971
 20
13.9999999999999
 30
0.0
 11
2.939340500008996
 21
13.9999999999999
 31
0.0
  0
LINE
  5
224B
330
211E
100
AcDbEntity
  8
0
  6
Continuous
 62
     7
100
AcDbLine
 10
4.0
 20
10.5196152422706
 30
0.0
 11
4.0
 21
12.939338649997
 31
0.0
  0
LINE
  5
224C
330
211E
100
AcDbEntity
  8
0
  6
Continuous
 62
     7
100
AcDbLine
 10
3.70000189999989
 20
-9.999999500000001
 30
0.0
 11
4.000001899999901
 21
-9.48038425772937
 31
0.0
  0
LINE
  5
224D
330
211E
100
AcDbEntity
  8
0
  6
Continuous
 62
     7
100
AcDbLine
 10
3.70000189999989
 20
-9.999999500000001
 30
0.0
 11
4.000001899999901
 21
-10.51961474227072
 31
0.0
  0
LINE
  5
224E
330
211E
100
AcDbEntity
  8
0
  6
Continuous
 62
     7
100
AcDbLine
 10
3.999999999999901
 20
-9.48038754862587
 30
0.0
 11
3.999999999999901
 21
-7.060683150012636
 31
0.0
  0
LINE
  5
224F
330
211E
100
AcDbEntity
  8
0
  6
Continuous
 62
     7
100
AcDbLine
 10
-2.939304800005004
 20
-14.0000000000003
 30
0.0
 11
-0.5195840653564119
 21
-14.0000000000003
 31
0.0
  0
LINE
  5
2250
330
211E
100
AcDbEntity
  8
0
  6
Continuous
 62
     7
100
AcDbLine
 10
0.5195840653564971
 20
-14.0000000000003
 30
0.0
 11
2.939323299995692
 21
-14.0000000000003
 31
0.0
  0
LINE
  5
2251
330
211E
100
AcDbEntity
  8
0
  6
Continuous
 62
     7
100
AcDbLine
 10
0.0
 20
-13.70001800000009
 30
0.0
 11
-0.5196074480420094
 21
-14.00001350000008
 31
0.0
  0
LINE
  5
2252
330
211E
100
AcDbEntity
  8
0
  6
Continuous
 62
     7
100
AcDbLine
 10
0.0
 20
-13.70001800000009
 30
0.0
 11
0.5196074480419952
 21
-14.00001350000008
 31
0.0
  0
LINE
  5
2253
330
211E
100
AcDbEntity
  8
0
  6
Continuous
 62
     7
100
AcDbLine
 10
-3.699999999999804
 20
-9.999999999999986
 30
0.0
 11
-3.999999999999801
 21
-10.51961524227069
 31
0.0
  0
LINE
  5
2254
330
211E
100
AcDbEntity
  8
0
  6
Continuous
 62
     7
100
AcDbLine
 10
-3.699999999999804
 20
-9.999999999999986
 30
0.0
 11
-3.999999999999801
 21
-9.480384757729425
 31
0.0
  0
LINE
  5
2255
330
211E
100
AcDbEntity
  8
0
  6
Continuous
 62
     7
100
AcDbLine
 10
-3.999999999999801
 20
-9.480384757729425
 30
0.0
 11
-3.999999999999801
 21
-7.060663799998295
 31
0.0
  0
ARC
  5
2256
330
211E
100
AcDbEntity
  8
0
  6
Continuous
 62
     7
100
AcDbCircle
 10
-9.0
 20
18.9999999999999
 30
0.0
 40
1.0
100
AcDbArc
 50
143.1301023541573
 51
180.0
  0
ARC
  5
2257
330
211E
100
AcDbEntity
  8
0
  6
Continuous
 62
     7
100
AcDbCircle
 10
9.0
 20
18.9999999999999
 30
0.0
 40
1.0
100
AcDbArc
 50
0.0
 51
36.86989764584094
  0
ARC
  5
2258
330
211E
100
AcDbEntity
  8
0
  6
Continuous
 62
     7
100
AcDbCircle
 10
9.0
 20
-19.00000000000016
 30
0.0
 40
1.0
100
AcDbArc
 50
323.1301023541607
 51
0.0000000000024427
  0
ARC
  5
2259
330
211E
100
AcDbEntity
  8
0
  6
Continuous
 62
     7
100
AcDbCircle
 10
-9.0
 20
-19.00000000000009
 30
0.0
 40
1.0
100
AcDbArc
 50
179.9999999999992
 51
216.8698976458416
  0
LINE
  5
225A
330
211E
100
AcDbEntity
  8
0
  6
Continuous
 62
     7
100
AcDbLine
 10
-2.939334499998608
 20
-6.00000000000027
 30
0.0
 11
2.939331449999599
 21
-6.000000000000256
 31
0.0
  0
LINE
  5
225B
330
211E
100
AcDbEntity
  8
0
  6
Continuous
 62
     7
100
AcDbLine
 10
8.0
 20
15.9999999999999
 30
0.0
 11
8.0
 21
12.9999999999999
 31
0.0
  0
ENDSEC
  0
SECTION
  2
OBJECTS
  0
DICTIONARY
  5
210E
330
0
100
AcDbDictionary
281
     1
  3
ACAD_DETAILVIEWSTYLE
350
217B
  3
ACAD_GROUP
350
210F
  3
ACAD_LAYOUT
350
211B
  3
ACAD_MATERIAL
350
2125
  3
ACAD_MLEADERSTYLE
350
216D
  3
ACAD_MLINESTYLE
350
2118
  3
ACAD_PLOTSETTINGS
350
211A
  3
ACAD_PLOTSTYLENAME
350
2110
  3
ACAD_SCALELIST
350
2130
  3
ACAD_SECTIONVIEWSTYLE
350
217C
  3
ACAD_TABLESTYLE
350
216B
  3
ACAD_VISUALSTYLE
350
2152
  3
AcDbVariableDictionary
350
2176
  3
ACDB_RECOMPOSE_DATA
350
225E
  3
APPDATA
350
216F
  0
SUN
  5
217F
330
2121
100
AcDbSun
 90
        1
290
     0
 63
     7
421
 16777215
 40
1.0
291
     1
 91
  2455826
 92
 54000000
292
     0
 70
     2
 71
   256
280
     1
  0
DICTIONARY
  5
2170
330
2105
100
AcDbDictionary
280
     1
281
     1
  3
ACAD_LAYERSTATES
360
2171
  0
DICTIONARY
  5
2174
330
211E
100
AcDbDictionary
280
     1
281
     1
  3
DIM_BOUNDING_BOXES_V1
360
217E
  0
DICTIONARY
  5
217B
102
{ACAD_REACTORS
330
210E
102
}
330
210E
100
AcDbDictionary
281
     1
  0
DICTIONARY
  5
210F
102
{ACAD_REACTORS
330
210E
102
}
330
210E
100
AcDbDictionary
281
     1
  0
DICTIONARY
  5
211B
102
{ACAD_REACTORS
330
210E
102
}
330
210E
100
AcDbDictionary
281
     1
  3
Model
350
211F
  3
Sheet 1
350
211D
  0
DICTIONARY
  5
2125
102
{ACAD_REACTORS
330
210E
102
}
330
210E
100
AcDbDictionary
281
     1
  3
ByBlock
350
2127
  3
ByLayer
350
2126
  3
Global
350
2128
  0
DICTIONARY
  5
216D
102
{ACAD_REACTORS
330
210E
102
}
330
210E
100
AcDbDictionary
281
     1
  3
Standard
350
216E
  0
DICTIONARY
  5
2118
102
{ACAD_REACTORS
330
210E
102
}
330
210E
100
AcDbDictionary
281
     1
  3
Standard
350
2119
  0
DICTIONARY
  5
211A
102
{ACAD_REACTORS
330
210E
102
}
330
210E
100
AcDbDictionary
281
     1
  0
ACDBDICTIONARYWDFLT
  5
2110
102
{ACAD_REACTORS
330
210E
102
}
330
210E
100
AcDbDictionary
281
     1
  3
Normal
350
2111
100
AcDbDictionaryWithDefault
340
2111
  0
DICTIONARY
  5
2130
102
{ACAD_REACTORS
330
210E
102
}
330
210E
100
AcDbDictionary
281
     1
  3
A0
350
2131
  3
A1
350
2132
  3
A2
350
2133
  3
A3
350
2134
  3
A4
350
2135
  3
A5
350
2136
  3
A6
350
2137
  3
A7
350
2138
  3
A8
350
2139
  3
A9
350
213A
  3
B0
350
213B
  3
B1
350
213C
  3
B2
350
213D
  3
B3
350
213E
  3
B4
350
213F
  3
B5
350
2140
  3
B6
350
2141
  3
B7
350
2142
  3
B8
350
2143
  3
B9
350
2144
  3
C0
350
2145
  3
C1
350
2146
  3
C2
350
2147
  3
C3
350
2148
  3
C4
350
2149
  3
C5
350
214A
  3
C6
350
214B
  3
C7
350
214C
  3
C8
350
214D
  3
C9
350
214E
  3
D0
350
214F
  3
D1
350
2150
  3
D2
350
2151
  0
DICTIONARY
  5
217C
102
{ACAD_REACTORS
330
210E
102
}
330
210E
100
AcDbDictionary
281
     1
  0
DICTIONARY
  5
216B
102
{ACAD_REACTORS
330
210E
102
}
330
210E
100
AcDbDictionary
281
     1
  3
Standard
350
216C
  0
DICTIONARY
  5
2152
102
{ACAD_REACTORS
330
210E
102
}
330
210E
100
AcDbDictionary
281
     1
  3
2dWireframe
350
2157
  3
Basic
350
215A
  3
Brighten
350
215E
  3
ColorChange
350
2162
  3
Conceptual
350
215C
  3
Dim
350
215D
  3
EdgeColorOff
350
2165
  3
Facepattern
350
2161
  3
Flat
350
2153
  3
FlatWithEdges
350
2154
  3
Gouraud
350
2155
  3
GouraudWithEdges
350
2156
  3
Hidden
350
2159
  3
JitterOff
350
2163
  3
Linepattern
350
2160
  3
OverhangOff
350
2164
  3
Realistic
350
215B
  3
Shaded
350
216A
  3
Shaded with edges
350
2169
  3
Shades of Gray
350
2166
  3
Sketchy
350
2167
  3
Thicken
350
215F
  3
Wireframe
350
2158
  3
X-Ray
350
2168
  0
DICTIONARY
  5
2176
102
{ACAD_REACTORS
330
210E
102
}
330
210E
100
AcDbDictionary
281
     1
  3
CANNOSCALE
350
2177
  3
CMLEADERSTYLE
350
2179
  3
CTABLESTYLE
350
2178
  3
MSLTSCALE
350
217A
  0
XRECORD
  5
225E
102
{ACAD_REACTORS
330
210E
102
}
330
210E
100
AcDbXrecord
280
     1
 90
        1
330
216C
  0
DICTIONARY
  5
216F
102
{ACAD_REACTORS
330
210E
102
}
330
210E
100
AcDbDictionary
281
     1
  0
DICTIONARY
  5
2171
102
{ACAD_REACTORS
330
2170
102
}
330
2170
100
AcDbDictionary
281
     1
  0
DICTIONARY
  5
217E
102
{ACAD_REACTORS
330
2174
102
}
330
2174
100
AcDbDictionary
281
     1
  0
LAYOUT
  5
211F
102
{ACAD_REACTORS
330
211B
102
}
330
211B
100
AcDbPlotSettings
  1

  2
none_device
  4
na-letter
  6

 40
6.35
 41
6.35
 42
6.35
 43
14.11111111111111
 44
215.9
 45
279.4
 46
0.0
 47
0.0
 48
0.0
 49
0.0
140
0.0
141
0.0
142
1.0
143
1.0
 70
  1712
 72
     1
 73
     0
 74
     0
  7

 75
     0
 76
     0
 77
     2
 78
   300
147
1.0
148
0.0
149
0.0
100
AcDbLayout
  1
Model
 70
     1
 71
     0
 10
0.0
 20
0.0
 11
12.0
 21
9.0
 12
0.0
 22
0.0
 32
0.0
 14
-10.00000000000001
 24
-19.60000000000009
 34
0.0
 15
10.0
 25
19.60000000000001
 35
0.0
146
0.0
 13
0.0
 23
0.0
 33
0.0
 16
1.0
 26
0.0
 36
0.0
 17
0.0
 27
1.0
 37
0.0
 76
     0
330
211E
331
2121
  0
LAYOUT
  5
211D
102
{ACAD_REACTORS
330
211B
102
}
330
211B
100
AcDbPlotSettings
  1

  2
none_device
  4

  6

 40
0.0
 41
0.0
 42
0.0
 43
0.0
 44
0.0
 45
0.0
 46
0.0
 47
0.0
 48
0.0
 49
0.0
140
0.0
141
0.0
142
1.0
143
1.0
 70
   688
 72
     0
 73
     0
 74
     5
  7

 75
    16
 76
     0
 77
     2
 78
   300
147
1.0
148
0.0
149
0.0
100
AcDbLayout
  1
Sheet 1
 70
     1
 71
     1
 10
0.0
 20
0.0
 11
0.0
 21
0.0
 12
0.0
 22
0.0
 32
0.0
 14
1.000000000000000E+20
 24
1.000000000000000E+20
 34
1.000000000000000E+20
 15
-1.000000000000000E+20
 25
-1.000000000000000E+20
 35
-1.000000000000000E+20
146
0.0
 13
0.0
 23
0.0
 33
0.0
 16
1.0
 26
0.0
 36
0.0
 17
0.0
 27
1.0
 37
0.0
 76
     0
330
211C
  0
MATERIAL
  5
2127
102
{ACAD_REACTORS
330
2125
102
}
330
2125
100
AcDbMaterial
  1
ByBlock
 72
     1
 94
      127
  0
MATERIAL
  5
2126
102
{ACAD_REACTORS
330
2125
102
}
330
2125
100
AcDbMaterial
  1
ByLayer
 72
     1
 94
      127
  0
MATERIAL
  5
2128
102
{ACAD_REACTORS
330
2125
102
}
330
2125
100
AcDbMaterial
  1
Global
 72
     1
 94
      127
  0
MLEADERSTYLE
  5
216E
102
{ACAD_REACTORS
330
216D
102
}
330
216D
100
AcDbMLeaderStyle
179
     2
170
     2
171
     1
172
     0
 90
        2
 40
0.0
 41
0.0
173
     1
 91
-1056964608
340
2115
 92
       -2
290
     1
 42
0.09
291
     1
 43
0.36
  3
Standard
341
0
 44
0.18
300

342
2113
174
     1
178
     1
175
     1
176
     0
 93
-1056964608
 45
0.18
292
     0
297
     0
 46
0.18
343
0
 94
-1056964608
 47
1.0
 49
1.0
140
1.0
293
     1
141
0.0
294
     1
177
     0
142
1.0
295
     0
296
     0
143
0.125
271
     0
272
     9
273
     9
  0
MLINESTYLE
  5
2119
102
{ACAD_REACTORS
330
2118
102
}
330
2118
100
AcDbMlineStyle
  2
Standard
 70
     0
  3

 62
   256
 51
90.0
 52
90.0
 71
     2
 49
0.5
 62
   256
  6
BYLAYER
 49
-0.5
 62
   256
  6
BYLAYER
  0
ACDBPLACEHOLDER
  5
2111
102
{ACAD_REACTORS
330
2110
102
}
330
2110
  0
SCALE
  5
2131
102
{ACAD_REACTORS
330
2130
102
}
330
2130
100
AcDbScale
 70
     0
300
1:1
140
1.0
141
1.0
290
     1
  0
SCALE
  5
2132
102
{ACAD_REACTORS
330
2130
102
}
330
2130
100
AcDbScale
 70
     0
300
1:2
140
1.0
141
2.0
290
     0
  0
SCALE
  5
2133
102
{ACAD_REACTORS
330
2130
102
}
330
2130
100
AcDbScale
 70
     0
300
1:4
140
1.0
141
4.0
290
     0
  0
SCALE
  5
2134
102
{ACAD_REACTORS
330
2130
102
}
330
2130
100
AcDbScale
 70
     0
300
1:5
140
1.0
141
5.0
290
     0
  0
SCALE
  5
2135
102
{ACAD_REACTORS
330
2130
102
}
330
2130
100
AcDbScale
 70
     0
300
1:8
140
1.0
141
8.0
290
     0
  0
SCALE
  5
2136
102
{ACAD_REACTORS
330
2130
102
}
330
2130
100
AcDbScale
 70
     0
300
1:10
140
1.0
141
10.0
290
     0
  0
SCALE
  5
2137
102
{ACAD_REACTORS
330
2130
102
}
330
2130
100
AcDbScale
 70
     0
300
1:16
140
1.0
141
16.0
290
     0
  0
SCALE
  5
2138
102
{ACAD_REACTORS
330
2130
102
}
330
2130
100
AcDbScale
 70
     0
300
1:20
140
1.0
141
20.0
290
     0
  0
SCALE
  5
2139
102
{ACAD_REACTORS
330
2130
102
}
330
2130
100
AcDbScale
 70
     0
300
1:30
140
1.0
141
30.0
290
     0
  0
SCALE
  5
213A
102
{ACAD_REACTORS
330
2130
102
}
330
2130
100
AcDbScale
 70
     0
300
1:40
140
1.0
141
40.0
290
     0
  0
SCALE
  5
213B
102
{ACAD_REACTORS
330
2130
102
}
330
2130
100
AcDbScale
 70
     0
300
1:50
140
1.0
141
50.0
290
     0
  0
SCALE
  5
213C
102
{ACAD_REACTORS
330
2130
102
}
330
2130
100
AcDbScale
 70
     0
300
1:100
140
1.0
141
100.0
290
     0
  0
SCALE
  5
213D
102
{ACAD_REACTORS
330
2130
102
}
330
2130
100
AcDbScale
 70
     0
300
2:1
140
2.0
141
1.0
290
     0
  0
SCALE
  5
213E
102
{ACAD_REACTORS
330
2130
102
}
330
2130
100
AcDbScale
 70
     0
300
4:1
140
4.0
141
1.0
290
     0
  0
SCALE
  5
213F
102
{ACAD_REACTORS
330
2130
102
}
330
2130
100
AcDbScale
 70
     0
300
8:1
140
8.0
141
1.0
290
     0
  0
SCALE
  5
2140
102
{ACAD_REACTORS
330
2130
102
}
330
2130
100
AcDbScale
 70
     0
300
10:1
140
10.0
141
1.0
290
     0
  0
SCALE
  5
2141
102
{ACAD_REACTORS
330
2130
102
}
330
2130
100
AcDbScale
 70
     0
300
100:1
140
100.0
141
1.0
290
     0
  0
SCALE
  5
2142
102
{ACAD_REACTORS
330
2130
102
}
330
2130
100
AcDbScale
 70
     0
300
1/128" = 1'-0"
140
0.0078125
141
12.0
290
     0
  0
SCALE
  5
2143
102
{ACAD_REACTORS
330
2130
102
}
330
2130
100
AcDbScale
 70
     0
300
1/64" = 1'-0"
140
0.015625
141
12.0
290
     0
  0
SCALE
  5
2144
102
{ACAD_REACTORS
330
2130
102
}
330
2130
100
AcDbScale
 70
     0
300
1/32" = 1'-0"
140
0.03125
141
12.0
290
     0
  0
SCALE
  5
2145
102
{ACAD_REACTORS
330
2130
102
}
330
2130
100
AcDbScale
 70
     0
300
1/16" = 1'-0"
140
0.0625
141
12.0
290
     0
  0
SCALE
  5
2146
102
{ACAD_REACTORS
330
2130
102
}
330
2130
100
AcDbScale
 70
     0
300
3/32" = 1'-0"
140
0.09375
141
12.0
290
     0
  0
SCALE
  5
2147
102
{ACAD_REACTORS
330
2130
102
}
330
2130
100
AcDbScale
 70
     0
300
1/8" = 1'-0"
140
0.125
141
12.0
290
     0
  0
SCALE
  5
2148
102
{ACAD_REACTORS
330
2130
102
}
330
2130
100
AcDbScale
 70
     0
300
3/16" = 1'-0"
140
0.1875
141
12.0
290
     0
  0
SCALE
  5
2149
102
{ACAD_REACTORS
330
2130
102
}
330
2130
100
AcDbScale
 70
     0
300
1/4" = 1'-0"
140
0.25
141
12.0
290
     0
  0
SCALE
  5
214A
102
{ACAD_REACTORS
330
2130
102
}
330
2130
100
AcDbScale
 70
     0
300
3/8" = 1'-0"
140
0.375
141
12.0
290
     0
  0
SCALE
  5
214B
102
{ACAD_REACTORS
330
2130
102
}
330
2130
100
AcDbScale
 70
     0
300
1/2" = 1'-0"
140
0.5
141
12.0
290
     0
  0
SCALE
  5
214C
102
{ACAD_REACTORS
330
2130
102
}
330
2130
100
AcDbScale
 70
     0
300
3/4" = 1'-0"
140
0.75
141
12.0
290
     0
  0
SCALE
  5
214D
102
{ACAD_REACTORS
330
2130
102
}
330
2130
100
AcDbScale
 70
     0
300
1" = 1'-0"
140
1.0
141
12.0
290
     0
  0
SCALE
  5
214E
102
{ACAD_REACTORS
330
2130
102
}
330
2130
100
AcDbScale
 70
     0
300
1-1/2" = 1'-0"
140
1.5
141
12.0
290
     0
  0
SCALE
  5
214F
102
{ACAD_REACTORS
330
2130
102
}
330
2130
100
AcDbScale
 70
     0
300
3" = 1'-0"
140
3.0
141
12.0
290
     0
  0
SCALE
  5
2150
102
{ACAD_REACTORS
330
2130
102
}
330
2130
100
AcDbScale
 70
     0
300
6" = 1'-0"
140
6.0
141
12.0
290
     0
  0
SCALE
  5
2151
102
{ACAD_REACTORS
330
2130
102
}
330
2130
100
AcDbScale
 70
     0
300
1'-0" = 1'-0"
140
12.0
141
12.0
290
     0
  0
TABLESTYLE
  5
216C
102
{ACAD_REACTORS
330
216B
102
}
102
{ACAD_XDICTIONARY
360
225C
102
}
330
216B
100
AcDbTableStyle
  3
Standard
 70
     0
 71
     0
 40
0.06
 41
0.06
280
     0
281
     0
  7
STANDARD
140
0.18
170
     2
 62
     0
 63
   257
283
     0
 90
        4
 91
        0
  1

274
    -2
284
     1
 64
     0
275
    -2
285
     1
 65
     0
276
    -2
286
     1
 66
     0
277
    -2
287
     1
 67
     0
278
    -2
288
     1
 68
     0
279
    -2
289
     1
 69
     0
  7
STANDARD
140
0.25
170
     5
 62
     0
 63
   257
283
     0
 90
        4
 91
        0
  1

274
    -2
284
     1
 64
     0
275
    -2
285
     1
 65
     0
276
    -2
286
     1
 66
     0
277
    -2
287
     1
 67
     0
278
    -2
288
     1
 68
     0
279
    -2
289
     1
 69
     0
  7
STANDARD
140
0.18
170
     5
 62
     0
 63
   257
283
     0
 90
        4
 91
        0
  1

274
    -2
284
     1
 64
     0
275
    -2
285
     1
 65
     0
276
    -2
286
     1
 66
     0
277
    -2
287
     1
 67
     0
278
    -2
288
     1
 68
     0
279
    -2
289
     1
 69
     0
  0
VISUALSTYLE
  5
2157
102
{ACAD_REACTORS
330
2152
102
}
330
2152
100
AcDbVisualStyle
  2
2dWireframe
 70
     4
177
     2
291
     0
 71
     0
176
     1
 72
     2
176
     1
 73
     0
176
     1
 90
        0
176
     1
 40
0.6
176
     1
 41
30.0
176
     1
 62
     5
 63
     7
421
 16777215
176
     1
 74
     1
176
     1
 91
        4
176
     1
 64
     7
176
     1
 65
   257
176
     1
 75
     1
176
     1
175
     1
176
     1
 42
1.0
176
     1
 92
        0
176
     1
 66
   257
176
     1
 43
1.0
176
     1
 76
     1
176
     1
 77
     6
176
     1
 78
     2
176
     1
 67
     7
176
     1
 79
     5
176
     1
170
     0
176
     1
171
     0
176
     1
290
     0
176
     1
 93
        1
176
     1
 44
0.0
176
     1
173
     0
176
     1
  0
VISUALSTYLE
  5
215A
102
{ACAD_REACTORS
330
2152
102
}
330
2152
100
AcDbVisualStyle
  2
Basic
 70
     7
177
     2
291
     1
 71
     1
176
     1
 72
     0
176
     1
 73
     1
176
     1
 90
        0
176
     1
 40
0.6
176
     1
 41
30.0
176
     1
 62
     5
 63
     7
421
 16777215
176
     1
 74
     0
176
     1
 91
        4
176
     1
 64
     7
176
     1
 65
   257
176
     1
 75
     1
176
     1
175
     1
176
     1
 42
1.0
176
     1
 92
        8
176
     1
 66
     7
176
     1
 43
1.0
176
     1
 76
     1
176
     1
 77
     6
176
     1
 78
     2
176
     1
 67
     7
176
     1
 79
     5
176
     1
170
     0
176
     1
171
     0
176
     1
290
     0
176
     1
 93
        1
176
     1
 44
0.0
176
     1
173
     0
176
     1
  0
VISUALSTYLE
  5
215E
102
{ACAD_REACTORS
330
2152
102
}
330
2152
100
AcDbVisualStyle
  2
Brighten
 70
    12
177
     2
291
     1
 71
     2
176
     1
 72
     2
176
     1
 73
     0
176
     1
 90
        0
176
     1
 40
0.6
176
     1
 41
30.0
176
     1
 62
     5
 63
     7
421
 16777215
176
     1
 74
     1
176
     1
 91
        4
176
     1
 64
     7
176
     1
 65
   257
176
     1
 75
     1
176
     1
175
     1
176
     1
 42
1.0
176
     1
 92
        8
176
     1
 66
     7
176
     1
 43
1.0
176
     1
 76
     1
176
     1
 77
     6
176
     1
 78
     2
176
     1
 67
     7
176
     1
 79
     5
176
     1
170
     0
176
     1
171
     0
176
     1
290
     0
176
     1
 93
        1
176
     1
 44
50.0
176
     1
173
     0
176
     1
  0
VISUALSTYLE
  5
2162
102
{ACAD_REACTORS
330
2152
102
}
330
2152
100
AcDbVisualStyle
  2
ColorChange
 70
    16
177
     2
291
     1
 71
     2
176
     1
 72
     2
176
     1
 73
     3
176
     1
 90
        0
176
     1
 40
0.6
176
     1
 41
30.0
176
     1
 62
     5
 63
     8
421
  8421504
176
     1
 74
     1
176
     1
 91
        4
176
     1
 64
     7
176
     1
 65
   257
176
     1
 75
     1
176
     1
175
     1
176
     1
 42
1.0
176
     1
 92
        8
176
     1
 66
     8
424
  8421504
176
     1
 43
1.0
176
     1
 76
     1
176
     1
 77
     6
176
     1
 78
     2
176
     1
 67
     7
176
     1
 79
     5
176
     1
170
     0
176
     1
171
     0
176
     1
290
     0
176
     1
 93
        1
176
     1
 44
0.0
176
     1
173
     0
176
     1
  0
VISUALSTYLE
  5
215C
102
{ACAD_REACTORS
330
2152
102
}
330
2152
100
AcDbVisualStyle
  2
Conceptual
 70
     9
177
     2
291
     0
 71
     3
176
     1
 72
     2
176
     1
 73
     0
176
     1
 90
        0
176
     1
 40
0.6
176
     1
 41
30.0
176
     1
 62
     5
 63
     7
421
 16777215
176
     1
 74
     2
176
     1
 91
        2
176
     1
 64
     7
176
     1
 65
   257
176
     1
 75
     1
176
     1
175
     1
176
     1
 42
179.0
176
     1
 92
        8
176
     1
 66
     7
176
     1
 43
1.0
176
     1
 76
     1
176
     1
 77
     6
176
     1
 78
     2
176
     1
 67
     7
176
     1
 79
     3
176
     1
170
     0
176
     1
171
     0
176
     1
290
     0
176
     1
 93
        1
176
     1
 44
0.0
176
     1
173
     0
176
     1
  0
VISUALSTYLE
  5
215D
102
{ACAD_REACTORS
330
2152
102
}
330
2152
100
AcDbVisualStyle
  2
Dim
 70
    11
177
     2
291
     1
 71
     2
176
     1
 72
     2
176
     1
 73
     0
176
     1
 90
        0
176
     1
 40
0.6
176
     1
 41
30.0
176
     1
 62
     5
 63
     7
421
 16777215
176
     1
 74
     1
176
     1
 91
        4
176
     1
 64
     7
176
     1
 65
   257
176
     1
 75
     1
176
     1
175
     1
176
     1
 42
1.0
176
     1
 92
        8
176
     1
 66
     7
176
     1
 43
1.0
176
     1
 76
     1
176
     1
 77
     6
176
     1
 78
     2
176
     1
 67
     7
176
     1
 79
     5
176
     1
170
     0
176
     1
171
     0
176
     1
290
     0
176
     1
 93
        1
176
     1
 44
-50.0
176
     1
173
     0
176
     1
  0
VISUALSTYLE
  5
2165
102
{ACAD_REACTORS
330
2152
102
}
330
2152
100
AcDbVisualStyle
  2
EdgeColorOff
 70
    22
177
     2
291
     1
 71
     2
176
     0
 72
     2
176
     0
 73
     0
176
     0
 90
        0
176
     0
 40
0.6
176
     0
 41
30.0
176
     0
 62
     5
 63
     7
421
 16777215
176
     0
 74
     1
176
     0
 91
        4
176
     0
 64
     7
176
     0
 65
   257
176
     0
 75
     1
176
     0
175
     1
176
     0
 42
1.0
176
     0
 92
        8
176
     2
 66
     7
176
     0
 43
1.0
176
     0
 76
     1
176
     0
 77
     6
176
     0
 78
     2
176
     0
 67
     7
176
     0
 79
     5
176
     0
170
     0
176
     0
171
     0
176
     0
290
     0
176
     0
 93
        1
176
     0
 44
0.0
176
     0
173
     0
176
     0
  0
VISUALSTYLE
  5
2161
102
{ACAD_REACTORS
330
2152
102
}
330
2152
100
AcDbVisualStyle
  2
Facepattern
 70
    15
177
     2
291
     1
 71
     2
176
     1
 72
     2
176
     1
 73
     0
176
     1
 90
        0
176
     1
 40
0.6
176
     1
 41
30.0
176
     1
 62
     5
 63
     7
421
 16777215
176
     1
 74
     1
176
     1
 91
        4
176
     1
 64
     7
176
     1
 65
   257
176
     1
 75
     1
176
     1
175
     1
176
     1
 42
1.0
176
     1
 92
        8
176
     1
 66
     7
176
     1
 43
1.0
176
     1
 76
     1
176
     1
 77
     6
176
     1
 78
     2
176
     1
 67
     7
176
     1
 79
     5
176
     1
170
     0
176
     1
171
     0
176
     1
290
     0
176
     1
 93
        1
176
     1
 44
0.0
176
     1
173
     0
176
     1
  0
VISUALSTYLE
  5
2153
102
{ACAD_REACTORS
330
2152
102
}
330
2152
100
AcDbVisualStyle
  2
Flat
 70
     0
177
     2
291
     1
 71
     2
176
     1
 72
     1
176
     1
 73
     1
176
     1
 90
        2
176
     1
 40
0.6
176
     1
 41
30.0
176
     1
 62
     5
 63
     7
421
 16777215
176
     1
 74
     0
176
     1
 91
        0
176
     1
 64
     7
176
     1
 65
   257
176
     1
 75
     1
176
     1
175
     1
176
     1
 42
1.0
176
     1
 92
        8
176
     1
 66
     7
176
     1
 43
1.0
176
     1
 76
     1
176
     1
 77
     6
176
     1
 78
     2
176
     1
 67
     7
176
     1
 79
     5
176
     1
170
     0
176
     1
171
     0
176
     1
290
     0
176
     1
 93
       13
176
     1
 44
0.0
176
     1
173
     0
176
     1
  0
VISUALSTYLE
  5
2154
102
{ACAD_REACTORS
330
2152
102
}
330
2152
100
AcDbVisualStyle
  2
FlatWithEdges
 70
     1
177
     2
291
     1
 71
     2
176
     1
 72
     1
176
     1
 73
     1
176
     1
 90
        2
176
     1
 40
0.6
176
     1
 41
30.0
176
     1
 62
     5
 63
     7
421
 16777215
176
     1
 74
     1
176
     1
 91
        0
176
     1
 64
     7
176
     1
 65
   257
176
     1
 75
     1
176
     1
175
     1
176
     1
 42
1.0
176
     1
 92
        0
176
     1
 66
   257
176
     1
 43
1.0
176
     1
 76
     1
176
     1
 77
     6
176
     1
 78
     2
176
     1
 67
     7
176
     1
 79
     5
176
     1
170
     0
176
     1
171
     0
176
     1
290
     0
176
     1
 93
       13
176
     1
 44
0.0
176
     1
173
     0
176
     1
  0
VISUALSTYLE
  5
2155
102
{ACAD_REACTORS
330
2152
102
}
330
2152
100
AcDbVisualStyle
  2
Gouraud
 70
     2
177
     2
291
     1
 71
     2
176
     1
 72
     2
176
     1
 73
     1
176
     1
 90
        2
176
     1
 40
0.6
176
     1
 41
30.0
176
     1
 62
     5
 63
     7
421
 16777215
176
     1
 74
     0
176
     1
 91
        0
176
     1
 64
     7
176
     1
 65
   257
176
     1
 75
     1
176
     1
175
     1
176
     1
 42
1.0
176
     1
 92
        0
176
     1
 66
     7
176
     1
 43
1.0
176
     1
 76
     1
176
     1
 77
     6
176
     1
 78
     2
176
     1
 67
     7
176
     1
 79
     5
176
     1
170
     0
176
     1
171
     0
176
     1
290
     0
176
     1
 93
       13
176
     1
 44
0.0
176
     1
173
     0
176
     1
  0
VISUALSTYLE
  5
2156
102
{ACAD_REACTORS
330
2152
102
}
330
2152
100
AcDbVisualStyle
  2
GouraudWithEdges
 70
     3
177
     2
291
     1
 71
     2
176
     1
 72
     2
176
     1
 73
     1
176
     1
 90
        2
176
     1
 40
0.6
176
     1
 41
30.0
176
     1
 62
     5
 63
     7
421
 16777215
176
     1
 74
     1
176
     1
 91
        0
176
     1
 64
     7
176
     1
 65
   257
176
     1
 75
     1
176
     1
175
     1
176
     1
 42
1.0
176
     1
 92
        0
176
     1
 66
   257
176
     1
 43
1.0
176
     1
 76
     1
176
     1
 77
     6
176
     1
 78
     2
176
     1
 67
     7
176
     1
 79
     5
176
     1
170
     0
176
     1
171
     0
176
     1
290
     0
176
     1
 93
       13
176
     1
 44
0.0
176
     1
173
     0
176
     1
  0
VISUALSTYLE
  5
2159
102
{ACAD_REACTORS
330
2152
102
}
330
2152
100
AcDbVisualStyle
  2
Hidden
 70
     6
177
     2
291
     0
 71
     1
176
     1
 72
     2
176
     1
 73
     2
176
     1
 90
        0
176
     1
 40
0.6
176
     1
 41
30.0
176
     1
 62
     5
 63
     7
421
 16777215
176
     1
 74
     2
176
     1
 91
        2
176
     1
 64
     7
176
     1
 65
   257
176
     1
 75
     2
176
     1
175
     1
176
     1
 42
40.0
176
     1
 92
        0
176
     1
 66
   257
176
     1
 43
1.0
176
     1
 76
     1
176
     1
 77
     6
176
     1
 78
     2
176
     1
 67
     7
176
     1
 79
     3
176
     1
170
     0
176
     1
171
     0
176
     1
290
     0
176
     1
 93
        1
176
     1
 44
0.0
176
     1
173
     0
176
     1
  0
VISUALSTYLE
  5
2163
102
{ACAD_REACTORS
330
2152
102
}
330
2152
100
AcDbVisualStyle
  2
JitterOff
 70
    20
177
     2
291
     1
 71
     2
176
     0
 72
     2
176
     0
 73
     0
176
     0
 90
        0
176
     0
 40
0.6
176
     0
 41
30.0
176
     0
 62
     5
 63
     7
421
 16777215
176
     0
 74
     1
176
     0
 91
        4
176
     0
 64
     7
176
     0
 65
   257
176
     0
 75
     1
176
     0
175
     1
176
     0
 42
1.0
176
     0
 92
       10
176
     2
 66
     7
176
     0
 43
1.0
176
     0
 76
     1
176
     0
 77
     6
176
     0
 78
     2
176
     0
 67
     7
176
     0
 79
     5
176
     0
170
     0
176
     0
171
     0
176
     0
290
     0
176
     0
 93
        1
176
     0
 44
0.0
176
     0
173
     0
176
     0
  0
VISUALSTYLE
  5
2160
102
{ACAD_REACTORS
330
2152
102
}
330
2152
100
AcDbVisualStyle
  2
Linepattern
 70
    14
177
     2
291
     1
 71
     2
176
     1
 72
     2
176
     1
 73
     0
176
     1
 90
        0
176
     1
 40
0.6
176
     1
 41
30.0
176
     1
 62
     5
 63
     7
421
 16777215
176
     1
 74
     1
176
     1
 91
        4
176
     1
 64
     7
176
     1
 65
   257
176
     1
 75
     7
176
     1
175
     7
176
     1
 42
1.0
176
     1
 92
        8
176
     1
 66
     7
176
     1
 43
1.0
176
     1
 76
     1
176
     1
 77
     6
176
     1
 78
     2
176
     1
 67
     7
176
     1
 79
     5
176
     1
170
     0
176
     1
171
     0
176
     1
290
     0
176
     1
 93
        1
176
     1
 44
0.0
176
     1
173
     0
176
     1
  0
VISUALSTYLE
  5
2164
102
{ACAD_REACTORS
330
2152
102
}
330
2152
100
AcDbVisualStyle
  2
OverhangOff
 70
    21
177
     2
291
     1
 71
     2
176
     0
 72
     2
176
     0
 73
     0
176
     0
 90
        0
176
     0
 40
0.6
176
     0
 41
30.0
176
     0
 62
     5
 63
     7
421
 16777215
176
     0
 74
     1
176
     0
 91
        4
176
     0
 64
     7
176
     0
 65
   257
176
     0
 75
     1
176
     0
175
     1
176
     0
 42
1.0
176
     0
 92
        9
176
     2
 66
     7
176
     0
 43
1.0
176
     0
 76
     1
176
     0
 77
     6
176
     0
 78
     2
176
     0
 67
     7
176
     0
 79
     5
176
     0
170
     0
176
     0
171
     0
176
     0
290
     0
176
     0
 93
        1
176
     0
 44
0.0
176
     0
173
     0
176
     0
  0
VISUALSTYLE
  5
215B
102
{ACAD_REACTORS
330
2152
102
}
330
2152
100
AcDbVisualStyle
  2
Realistic
 70
     8
177
     2
291
     0
 71
     2
176
     1
 72
     3
176
     1
 73
     0
176
     1
 90
        2
176
     1
 40
0.6
176
     1
 41
30.0
176
     1
 62
     5
 63
     7
421
 16777215
176
     1
 74
     0
176
     1
 91
        0
176
     1
 64
     7
176
     1
 65
   257
176
     1
 75
     1
176
     1
175
     1
176
     1
 42
1.0
176
     1
 92
        8
176
     1
 66
   257
176
     1
 43
1.0
176
     1
 76
     1
176
     1
 77
     6
176
     1
 78
     2
176
     1
 67
     7
176
     1
 79
     3
176
     1
170
     0
176
     1
171
     0
176
     1
290
     0
176
     1
 93
       13
176
     1
 44
0.0
176
     1
173
     0
176
     1
  0
VISUALSTYLE
  5
216A
102
{ACAD_REACTORS
330
2152
102
}
330
2152
100
AcDbVisualStyle
  2
Shaded
 70
    27
177
     2
291
     0
 71
     2
176
     1
 72
     2
176
     1
 73
     1
176
     1
 90
        2
176
     1
 40
0.6
176
     1
 41
30.0
176
     1
 62
     5
 63
     7
421
 16777215
176
     1
 74
     0
176
     1
 91
        4
176
     1
 64
     7
176
     1
 65
   257
176
     1
 75
     1
176
     1
175
     1
176
     1
 42
1.0
176
     1
 92
        8
176
     1
 66
   257
176
     1
 43
1.0
176
     1
 76
     1
176
     1
 77
     6
176
     1
 78
     2
176
     1
 67
     8
425
  7895160
176
     1
 79
     3
176
     1
170
     0
176
     1
171
     0
176
     1
290
     0
176
     1
 93
        5
176
     1
 44
0.0
176
     1
173
     0
176
     1
  0
VISUALSTYLE
  5
2169
102
{ACAD_REACTORS
330
2152
102
}
330
2152
100
AcDbVisualStyle
  2
Shaded with edges
 70
    26
177
     2
291
     0
 71
     2
176
     1
 72
     2
176
     1
 73
     1
176
     1
 90
        2
176
     1
 40
0.6
176
     1
 41
30.0
176
     1
 62
     5
 63
     7
421
 16777215
176
     1
 74
     1
176
     1
 91
       10
176
     1
 64
     7
176
     1
 65
   257
176
     1
 75
     2
176
     1
175
     1
176
     1
 42
1.0
176
     1
 92
        8
176
     1
 66
   257
176
     1
 43
1.0
176
     1
 76
     1
176
     1
 77
     6
176
     1
 78
     2
176
     1
 67
     7
176
     1
 79
     3
176
     1
170
     0
176
     1
171
     0
176
     1
290
     0
176
     1
 93
        5
176
     1
 44
0.0
176
     1
173
     0
176
     1
  0
VISUALSTYLE
  5
2166
102
{ACAD_REACTORS
330
2152
102
}
330
2152
100
AcDbVisualStyle
  2
Shades of Gray
 70
    23
177
     2
291
     0
 71
     2
176
     1
 72
     2
176
     1
 73
     3
176
     1
 90
        0
176
     1
 40
0.6
176
     1
 41
30.0
176
     1
 62
     5
 63
     7
421
 16777215
176
     1
 74
     2
176
     1
 91
        2
176
     1
 64
     7
176
     1
 65
     7
176
     1
 75
     1
176
     1
175
     1
176
     1
 42
40.0
176
     1
 92
        8
176
     1
 66
     7
176
     1
 43
1.0
176
     1
 76
     1
176
     1
 77
     6
176
     1
 78
     2
176
     1
 67
     7
176
     1
 79
     3
176
     1
170
     0
176
     1
171
     0
176
     1
290
     0
176
     1
 93
        1
176
     1
 44
0.0
176
     1
173
     0
176
     1
  0
VISUALSTYLE
  5
2167
102
{ACAD_REACTORS
330
2152
102
}
330
2152
100
AcDbVisualStyle
  2
Sketchy
 70
    24
177
     2
291
     0
 71
     1
176
     1
 72
     2
176
     1
 73
     2
176
     1
 90
        0
176
     1
 40
0.6
176
     1
 41
30.0
176
     1
 62
     5
 63
     7
421
 16777215
176
     1
 74
     2
176
     1
 91
        2
176
     1
 64
     7
176
     1
 65
     7
176
     1
 75
     1
176
     1
175
     1
176
     1
 42
40.0
176
     1
 92
       11
176
     1
 66
     7
176
     1
 43
1.0
176
     1
 76
     1
176
     1
 77
     6
176
     1
 78
     2
176
     1
 67
     7
176
     1
 79
     6
176
     1
170
     0
176
     1
171
     0
176
     1
290
     0
176
     1
 93
        1
176
     1
 44
0.0
176
     1
173
     0
176
     1
  0
VISUALSTYLE
  5
215F
102
{ACAD_REACTORS
330
2152
102
}
330
2152
100
AcDbVisualStyle
  2
Thicken
 70
    13
177
     2
291
     1
 71
     2
176
     1
 72
     2
176
     1
 73
     0
176
     1
 90
        0
176
     1
 40
0.6
176
     1
 41
30.0
176
     1
 62
     5
 63
     7
421
 16777215
176
     1
 74
     1
176
     1
 91
        4
176
     1
 64
     7
176
     1
 65
   257
176
     1
 75
     1
176
     1
175
     1
176
     1
 42
1.0
176
     1
 92
       12
176
     1
 66
     7
176
     1
 43
1.0
176
     1
 76
     1
176
     1
 77
     6
176
     1
 78
     2
176
     1
 67
     7
176
     1
 79
     5
176
     1
170
     0
176
     1
171
     0
176
     1
290
     0
176
     1
 93
        1
176
     1
 44
0.0
176
     1
173
     0
176
     1
  0
VISUALSTYLE
  5
2158
102
{ACAD_REACTORS
330
2152
102
}
330
2152
100
AcDbVisualStyle
  2
Wireframe
 70
     5
177
     2
291
     0
 71
     0
176
     1
 72
     2
176
     1
 73
     0
176
     1
 90
        0
176
     1
 40
0.6
176
     1
 41
30.0
176
     1
 62
     5
 63
     7
421
 16777215
176
     1
 74
     1
176
     1
 91
        4
176
     1
 64
     7
176
     1
 65
   257
176
     1
 75
     1
176
     1
175
     1
176
     1
 42
1.0
176
     1
 92
        0
176
     1
 66
   257
176
     1
 43
1.0
176
     1
 76
     1
176
     1
 77
     6
176
     1
 78
     2
176
     1
 67
     7
176
     1
 79
     3
176
     1
170
     0
176
     1
171
     0
176
     1
290
     0
176
     1
 93
        1
176
     1
 44
0.0
176
     1
173
     0
176
     1
  0
VISUALSTYLE
  5
2168
102
{ACAD_REACTORS
330
2152
102
}
330
2152
100
AcDbVisualStyle
  2
X-Ray
 70
    25
177
     2
291
     0
 71
     2
176
     1
 72
     2
176
     1
 73
     1
176
     1
 90
        1
176
     1
 40
0.5
176
     1
 41
30.0
176
     1
 62
     5
 63
     7
421
 16777215
176
     1
 74
     1
176
     1
 91
        0
176
     1
 64
     7
176
     1
 65
   257
176
     1
 75
     1
176
     1
175
     1
176
     1
 42
1.0
176
     1
 92
        8
176
     1
 66
     7
176
     1
 43
1.0
176
     1
 76
     1
176
     1
 77
     6
176
     1
 78
     2
176
     1
 67
     7
176
     1
 79
     3
176
     1
170
     0
176
     1
171
     0
176
     1
290
     0
176
     1
 93
       13
176
     1
 44
0.0
176
     1
173
     0
176
     1
  0
DICTIONARYVAR
  5
2177
102
{ACAD_REACTORS
330
2176
102
}
330
2176
100
DictionaryVariables
280
     0
  1
1:1
  0
DICTIONARYVAR
  5
2179
102
{ACAD_REACTORS
330
2176
102
}
330
2176
100
DictionaryVariables
280
     0
  1
Standard
  0
DICTIONARYVAR
  5
2178
102
{ACAD_REACTORS
330
2176
102
}
330
2176
100
DictionaryVariables
280
     0
  1
Standard
  0
DICTIONARYVAR
  5
217A
102
{ACAD_REACTORS
330
2176
102
}
330
2176
100
DictionaryVariables
280
     0
  1
0
  0
DICTIONARY
  5
225C
330
216C
100
AcDbDictionary
280
     1
281
     1
  3
ACAD_ROUNDTRIP_2008_TABLESTYLE_CELLSTYLEMAP
360
225D
  0
CELLSTYLEMAP
  5
225D
102
{ACAD_REACTORS
330
225C
102
}
330
225C
100
AcDbCellStyleMap
 90
        3
300
CELLSTYLE
  1
TABLEFORMAT_BEGIN
 90
        5
170
     1
 91
        0
 92
    32768
 62
   257
 93
        1
300
CONTENTFORMAT
  1
CONTENTFORMAT_BEGIN
 90
        0
 91
        0
 92
        4
 93
        0
300

 40
0.0
140
1.0
 94
        5
 62
     0
340
2113
144
0.25
309
CONTENTFORMAT_END
171
     1
301
MARGIN
  1
CELLMARGIN_BEGIN
 40
0.06
 40
0.06
 40
0.06
 40
0.06
 40
0.06
 40
0.06
309
CELLMARGIN_END
 94
        6
 95
        1
302
GRIDFORMAT
  1
GRIDFORMAT_BEGIN
 90
        0
 91
        1
 62
     0
 92
       -2
340
2115
 93
        0
 40
0.045
309
GRIDFORMAT_END
 95
        2
302
GRIDFORMAT
  1
GRIDFORMAT_BEGIN
 90
        0
 91
        1
 62
     0
 92
       -2
340
2115
 93
        0
 40
0.045
309
GRIDFORMAT_END
 95
        4
302
GRIDFORMAT
  1
GRIDFORMAT_BEGIN
 90
        0
 91
        1
 62
     0
 92
       -2
340
2115
 93
        0
 40
0.045
309
GRIDFORMAT_END
 95
        8
302
GRIDFORMAT
  1
GRIDFORMAT_BEGIN
 90
        0
 91
        1
 62
     0
 92
       -2
340
2115
 93
        0
 40
0.045
309
GRIDFORMAT_END
 95
       16
302
GRIDFORMAT
  1
GRIDFORMAT_BEGIN
 90
        0
 91
        1
 62
     0
 92
       -2
340
2115
 93
        0
 40
0.045
309
GRIDFORMAT_END
 95
       32
302
GRIDFORMAT
  1
GRIDFORMAT_BEGIN
 90
        0
 91
        1
 62
     0
 92
       -2
340
2115
 93
        0
 40
0.045
309
GRIDFORMAT_END
309
TABLEFORMAT_END
  1
CELLSTYLE_BEGIN
 90
        1
 91
        1
300
_TITLE
309
CELLSTYLE_END
300
CELLSTYLE
  1
TABLEFORMAT_BEGIN
 90
        5
170
     1
 91
        0
 92
        0
 62
   257
 93
        1
300
CONTENTFORMAT
  1
CONTENTFORMAT_BEGIN
 90
        0
 91
        0
 92
        4
 93
        0
300

 40
0.0
140
1.0
 94
        5
 62
     0
340
2113
144
0.18
309
CONTENTFORMAT_END
171
     1
301
MARGIN
  1
CELLMARGIN_BEGIN
 40
0.06
 40
0.06
 40
0.06
 40
0.06
 40
0.06
 40
0.06
309
CELLMARGIN_END
 94
        6
 95
        1
302
GRIDFORMAT
  1
GRIDFORMAT_BEGIN
 90
        0
 91
        1
 62
     0
 92
       -2
340
2115
 93
        0
 40
0.045
309
GRIDFORMAT_END
 95
        2
302
GRIDFORMAT
  1
GRIDFORMAT_BEGIN
 90
        0
 91
        1
 62
     0
 92
       -2
340
2115
 93
        0
 40
0.045
309
GRIDFORMAT_END
 95
        4
302
GRIDFORMAT
  1
GRIDFORMAT_BEGIN
 90
        0
 91
        1
 62
     0
 92
       -2
340
2115
 93
        0
 40
0.045
309
GRIDFORMAT_END
 95
        8
302
GRIDFORMAT
  1
GRIDFORMAT_BEGIN
 90
        0
 91
        1
 62
     0
 92
       -2
340
2115
 93
        0
 40
0.045
309
GRIDFORMAT_END
 95
       16
302
GRIDFORMAT
  1
GRIDFORMAT_BEGIN
 90
        0
 91
        1
 62
     0
 92
       -2
340
2115
 93
        0
 40
0.045
309
GRIDFORMAT_END
 95
       32
302
GRIDFORMAT
  1
GRIDFORMAT_BEGIN
 90
        0
 91
        1
 62
     0
 92
       -2
340
2115
 93
        0
 40
0.045
309
GRIDFORMAT_END
309
TABLEFORMAT_END
  1
CELLSTYLE_BEGIN
 90
        2
 91
        1
300
_HEADER
309
CELLSTYLE_END
300
CELLSTYLE
  1
TABLEFORMAT_BEGIN
 90
        5
170
     1
 91
        0
 92
        0
 62
   257
 93
        1
300
CONTENTFORMAT
  1
CONTENTFORMAT_BEGIN
 90
        0
 91
        0
 92
        4
 93
        0
300

 40
0.0
140
1.0
 94
        2
 62
     0
340
2113
144
0.18
309
CONTENTFORMAT_END
171
     1
301
MARGIN
  1
CELLMARGIN_BEGIN
 40
0.06
 40
0.06
 40
0.06
 40
0.06
 40
0.06
 40
0.06
309
CELLMARGIN_END
 94
        6
 95
        1
302
GRIDFORMAT
  1
GRIDFORMAT_BEGIN
 90
        0
 91
        1
 62
     0
 92
       -2
340
2115
 93
        0
 40
0.045
309
GRIDFORMAT_END
 95
        2
302
GRIDFORMAT
  1
GRIDFORMAT_BEGIN
 90
        0
 91
        1
 62
     0
 92
       -2
340
2115
 93
        0
 40
0.045
309
GRIDFORMAT_END
 95
        4
302
GRIDFORMAT
  1
GRIDFORMAT_BEGIN
 90
        0
 91
        1
 62
     0
 92
       -2
340
2115
 93
        0
 40
0.045
309
GRIDFORMAT_END
 95
        8
302
GRIDFORMAT
  1
GRIDFORMAT_BEGIN
 90
        0
 91
        1
 62
     0
 92
       -2
340
2115
 93
        0
 40
0.045
309
GRIDFORMAT_END
 95
       16
302
GRIDFORMAT
  1
GRIDFORMAT_BEGIN
 90
        0
 91
        1
 62
     0
 92
       -2
340
2115
 93
        0
 40
0.045
309
GRIDFORMAT_END
 95
       32
302
GRIDFORMAT
  1
GRIDFORMAT_BEGIN
 90
        0
 91
        1
 62
     0
 92
       -2
340
2115
 93
        0
 40
0.045
309
GRIDFORMAT_END
309
TABLEFORMAT_END
  1
CELLSTYLE_BEGIN
 90
        3
 91
        2
300
_DATA
309
CELLSTYLE_END
  0
ENDSEC
  0
EOF
